<svg style="overflow: visible;" class="typst-doc" viewBox="0 0 320.000 24.000" width="320.000" height="24.000" data-width="320.000" data-height="24.000" xmlns="http://www.w3.org/2000/svg" xmlns:xlink="http://www.w3.org/1999/xlink" xmlns:h5="http://www.w3.org/1999/xhtml"><style type="text/css">.typst-text {
  pointer-events: bounding-box;
}

.tsel span,
.tsel {
  left: 0;
  position: fixed;
  text-align: justify;
  white-space: nowrap;
  width: 100%;
  height: 100%;
  text-align-last: justify;
  color: transparent;
  white-space: pre;
}
.tsel span::-moz-selection,
.tsel::-moz-selection {
  color: transparent;
  background: #7db9dea0;
}
.tsel span::selection,
.tsel::selection {
  color: transparent;
  background: #7db9dea0;
}
.pseudo-link {
  fill: transparent;
  cursor: pointer;
  pointer-events: all;
}
svg {
  fill: none;
}

.outline_glyph path,
path.outline_glyph {
  fill: var(--glyph_fill);
  stroke: var(--glyph_stroke);
}

.outline_glyph path,
path.outline_glyph {
  transition: 0.2s fill stroke;
}
.hover .typst-text {
  --glyph_fill: #66bab7;
  --glyph_stroke: #66bab7;
}

.typst-jump-ripple,
.typst-debug-react-ripple {
  width: 0;
  height: 0;
  background-color: transparent;
  position: absolute;
  border-radius: 50%;
}
.typst-jump-ripple {
  border: 1px solid #66bab7;
}
.typst-debug-react-ripple {
  border: 1px solid #cb1b45;
}
@keyframes typst-jump-ripple-effect {
  to {
    width: 10vw;
    height: 10vw;
    opacity: 0.01;
    margin: -5vw;
  }
}
@keyframes typst-debug-react-ripple-effect {
  to {
    width: 3vw;
    height: 3vw;
    opacity: 0.01;
    margin: -1.5vw;
  }
}
</style><defs class="glyph"><path id="gM22VLA8" class="outline_glyph" d="M 110 -341 L 110 -297 Q 213 -263 269.5 -191.5 Q 326 -120 326 -40 Q 326 -21 317 -8 Q 310 1 303 1 Q 292 1 255 -19 Q 237 -28 217 -28 Q 168 -28 139 1 Q 110 30 110 81 Q 110 130 147.5 165 Q 185 200 239 200 Q 305 200 356.5 142.5 Q 408 85 408 -10 Q 408 -113 336.5 -201.5 Q 265 -290 110 -341 Z "/><path id="gM22VLBw" class="outline_glyph" d="M 108 -28 L 108 9 Q 238 11 350 69.5 Q 462 128 566.5 274 Q 671 420 712 595 Q 555 494 428 494 Q 285 494 183 604.5 Q 81 715 81 898 Q 81 1076 183 1215 Q 306 1384 504 1384 Q 671 1384 790 1246 Q 936 1075 936 824 Q 936 598 825 402.5 Q 714 207 516 78 Q 355 -28 165 -28 L 108 -28 Z M 728 669 Q 746 799 746 877 Q 746 974 713 1086.5 Q 680 1199 619.5 1259 Q 559 1319 482 1319 Q 393 1319 326 1239 Q 259 1159 259 1001 Q 259 790 348 671 Q 413 585 508 585 Q 554 585 617 607 Q 680 629 728 669 Z "/><path id="gM22VLB0" class="outline_glyph" d="M 289 944 Q 335 944 367.5 911.5 Q 400 879 400 833 Q 400 787 367.5 754.5 Q 335 722 289 722 Q 243 722 210.5 754.5 Q 178 787 178 833 Q 178 879 210.5 911.5 Q 243 944 289 944 Z M 287 195 Q 334 195 366.5 162 Q 399 129 399 83 Q 399 37 366 4.5 Q 333 -28 287 -28 Q 241 -28 208.5 4.5 Q 176 37 176 83 Q 176 129 208.5 162 Q 241 195 287 195 Z "/><path id="gM22VLCQ" class="outline_glyph" d="M 937 454 L 412 454 L 320 240 Q 286 161 286 122 Q 286 91 315.5 67.5 Q 345 44 443 37 L 443 0 L 16 0 L 16 37 Q 101 52 126 76 Q 177 124 239 271 L 716 1387 L 751 1387 L 1223 259 Q 1280 123 1326.5 82.5 Q 1373 42 1456 37 L 1456 0 L 921 0 L 921 37 Q 1002 41 1030.5 64 Q 1059 87 1059 120 Q 1059 164 1019 259 L 937 454 Z M 909 528 L 679 1076 L 443 528 L 909 528 Z "/><path id="gM22VLDc" class="outline_glyph" d="M 1185 1356 L 1200 1038 L 1162 1038 Q 1151 1122 1132 1158 Q 1101 1216 1049.5 1243.5 Q 998 1271 914 1271 L 723 1271 L 723 235 Q 723 110 750 79 Q 788 37 867 37 L 914 37 L 914 0 L 339 0 L 339 37 L 387 37 Q 473 37 509 89 Q 531 121 531 235 L 531 1271 L 368 1271 Q 273 1271 233 1257 Q 181 1238 144 1184 Q 107 1130 100 1038 L 62 1038 L 78 1356 L 1185 1356 Z "/><path id="gM22VLEw" class="outline_glyph" d="M 297 1422 Q 339 1422 368.5 1392.5 Q 398 1363 398 1321 Q 398 1279 368.5 1249 Q 339 1219 297 1219 Q 255 1219 225 1249 Q 195 1279 195 1321 Q 195 1363 224.5 1392.5 Q 254 1422 297 1422 Z M 380 943 L 380 207 Q 380 121 392.5 92.5 Q 405 64 429.5 50 Q 454 36 519 36 L 519 0 L 74 0 L 74 36 Q 141 36 164 49 Q 187 62 200.5 92 Q 214 122 214 207 L 214 560 Q 214 709 205 753 Q 198 785 183 797.5 Q 168 810 142 810 Q 114 810 74 795 L 60 831 L 336 943 L 380 943 Z "/><path id="gM22VLFA" class="outline_glyph" d="M 336 748 Q 436 848 454 863 Q 499 901 551 922 Q 603 943 654 943 Q 740 943 802 893 Q 864 843 885 748 Q 988 868 1059 905.5 Q 1130 943 1205 943 Q 1278 943 1334.5 905.5 Q 1391 868 1424 783 Q 1446 725 1446 601 L 1446 207 Q 1446 121 1459 89 Q 1469 67 1496 51.5 Q 1523 36 1584 36 L 1584 0 L 1132 0 L 1132 36 L 1151 36 Q 1210 36 1243 59 Q 1266 75 1276 110 Q 1280 127 1280 207 L 1280 601 Q 1280 713 1253 759 Q 1214 823 1128 823 Q 1075 823 1021.5 796.5 Q 968 770 892 698 L 890 687 L 892 644 L 892 207 Q 892 113 902.5 90 Q 913 67 942 51.5 Q 971 36 1041 36 L 1041 0 L 578 0 L 578 36 Q 654 36 682.5 54 Q 711 72 722 108 Q 727 125 727 207 L 727 601 Q 727 713 694 762 Q 650 826 571 826 Q 517 826 464 797 Q 381 753 336 698 L 336 207 Q 336 117 348.5 90 Q 361 63 385.5 49.5 Q 410 36 485 36 L 485 0 L 32 0 L 32 36 Q 95 36 120 49.5 Q 145 63 158 92.5 Q 171 122 171 207 L 171 557 Q 171 708 162 752 Q 155 785 140 797.5 Q 125 810 99 810 Q 71 810 32 795 L 17 831 L 293 943 L 336 943 L 336 748 Z "/><path id="gM22VLFE" class="outline_glyph" d="M 331 749 Q 492 943 638 943 Q 713 943 767 905.5 Q 821 868 853 782 Q 875 722 875 598 L 875 207 Q 875 120 889 89 Q 900 64 924.5 50 Q 949 36 1015 36 L 1015 0 L 562 0 L 562 36 L 581 36 Q 645 36 670.5 55.5 Q 696 75 706 113 Q 710 128 710 207 L 710 582 Q 710 707 677.5 763.5 Q 645 820 568 820 Q 449 820 331 690 L 331 207 Q 331 114 342 92 Q 356 63 380.5 49.5 Q 405 36 480 36 L 480 0 L 27 0 L 27 36 L 47 36 Q 117 36 141.5 71.5 Q 166 107 166 207 L 166 547 Q 166 712 158.5 748 Q 151 784 135.5 797 Q 120 810 94 810 Q 66 810 27 795 L 12 831 L 288 943 L 331 943 L 331 749 Z "/><path id="gM22VLHI" class="outline_glyph" d="M 218 571 Q 217 367 317 251 Q 417 135 552 135 Q 642 135 708.5 184.5 Q 775 234 820 354 L 851 334 Q 830 197 729 84.5 Q 628 -28 476 -28 Q 311 -28 193.5 100.5 Q 76 229 76 446 Q 76 681 196.5 812.5 Q 317 944 499 944 Q 653 944 752 842.5 Q 851 741 851 571 L 218 571 Z M 218 629 L 642 629 Q 637 717 621 753 Q 596 809 546.5 841 Q 497 873 443 873 Q 360 873 294.5 808.5 Q 229 744 218 629 Z M 403 1385 L 587 1385 L 777 1054 L 746 1054 L 473 1267 L 244 1054 L 214 1054 L 403 1385 Z "/><path id="gM22VLP8" class="outline_glyph" d="M 681 1068 L 390 1068 L 390 1150 L 680 1150 Q 676 1246 659.5 1268.5 Q 643 1291 610 1291 Q 584 1291 541 1275 L 528 1310 L 801 1422 L 846 1422 L 846 1150 L 999 1150 L 999 1068 L 846 1068 L 846 363 Q 846 202 853.5 166.5 Q 861 131 877.5 117 Q 894 103 916 103 Q 943 103 988 120 L 999 85 L 727 -28 L 681 -28 L 681 103 Q 614 33 550 2.5 Q 486 -28 412 -28 Q 262 -28 150 97.5 Q 38 223 38 420 Q 38 617 162 780.5 Q 286 944 481 944 Q 602 944 681 867 L 681 1068 Z M 681 173 L 681 645 Q 675 713 645 769 Q 615 825 565.5 853.5 Q 516 882 469 882 Q 381 882 312 803 Q 221 699 221 499 Q 221 297 309 189.5 Q 397 82 505 82 Q 596 82 681 173 Z "/><path id="gM22VLMcE" class="outline_glyph" d="M 218 571 Q 217 367 317 251 Q 417 135 552 135 Q 642 135 708.5 184.5 Q 775 234 820 354 L 851 334 Q 830 197 729 84.5 Q 628 -28 476 -28 Q 311 -28 193.5 100.5 Q 76 229 76 446 Q 76 681 196.5 812.5 Q 317 944 499 944 Q 653 944 752 842.5 Q 851 741 851 571 L 218 571 Z M 218 629 L 642 629 Q 637 717 621 753 Q 596 809 546.5 841 Q 497 873 443 873 Q 360 873 294.5 808.5 Q 229 744 218 629 Z M 403 1385 L 587 1385 L 777 1054 L 746 1054 L 473 1267 L 244 1054 L 214 1054 L 403 1385 Z M 600 1613 Q 549 1564 538 1545 Q 527 1526 525 1490 L 491 1490 Q 495 1558 541 1631 Q 573 1683 573 1715 Q 573 1789 500 1789 Q 466 1789 449 1773 Q 442 1766 442 1759 Q 442 1752 453 1734.5 Q 464 1717 464 1707 Q 464 1672 426 1672 Q 376 1672 376 1729 Q 376 1770 415.5 1797.5 Q 455 1825 515 1825 Q 593 1825 630 1786 Q 659 1756 659 1720 Q 659 1670 600 1613 Z "/></defs><defs class="clip-path"></defs><style type="text/css"></style><g class="typst-page" transform="translate(0, 0)" data-tid="pwEw516+mtlgHAe9efx8RNg" data-page-width="320" data-page-height="24"><g data-tid="gwEw516+mtlgHAe9efx8RNg" class="typst-group"><g transform="translate(0.000,0.000)" data-tid="psQOV01j6O/Y3bMnZGLwa90"><g data-tid="gsQOV01j6O/Y3bMnZGLwa90"><path class="typst-shape" d="M 0 0 L 0 23.945313 L 320 23.945313 L 320 0 Z " fill-rule="nonzero" fill="#fff" /></g></g><g transform="translate(8.000,8.000)" data-tid="pryTXw7rO1a8SC5cuISVekQ"><g data-tid="gryTXw7rO1a8SC5cuISVekQ" class="typst-group"><g transform="translate(0.000,7.945)" data-tid="p3ba6v4BLWhUQ0J7qAGAwsI"><g data-tid="g3ba6v4BLWhUQ0J7qAGAwsI" class="typst-text" fill="#000" transform="scale(0.005859375,-0.005859375)"><use x="0" y="0" href="#gM22VLDc"/><use x="1251" y="0" href="#gM22VLHI"/><use x="2160" y="0" href="#gM22VLFE"/><use x="3184" y="0" href="#gM22VLB0"/><use x="3753" y="0" href="#gM22VLAM"/><use x="4152" y="0" href="#gM22VLCQ"/><use x="5631" y="0" href="#gM22VLFE"/><use x="6655" y="0" href="#gM22VLA8"/><use x="7167" y="0" href="#gM22VLAM"/><use x="7679" y="0" href="#gM22VLP8"/><use x="8703" y="0" href="#gM22VLEw"/><use x="9272" y="0" href="#gM22VLMcE"/><use x="10181" y="0" href="#gM22VLFA"/><use x="11774" y="0" href="#gM22VLB0"/><use x="12343" y="0" href="#gM22VLAM"/><use x="12855" y="0" href="#gM22VLBw"/><g transform="scale(16,-16)"><foreignObject x="0" y="-88.75" width="867.44" height="128.00"><h5:div class="tsel" style="font-size: 128px">Tên: An, điểm: 9</h5:div></foreignObject></g></g></g><g transform="translate(0.000,0.000)" data-tid="pDgsjYLTg9DIxe7neLL45F8"><g data-tid="gDgsjYLTg9DIxe7neLL45F8" class="typst-content-hint" data-hint="a"></g></g></g></g></g></g></svg>