<svg style="overflow: visible;" class="typst-doc" viewBox="0 0 183.000 24.000" width="183.000" height="24.000" data-width="183.000" data-height="24.000" xmlns="http://www.w3.org/2000/svg" xmlns:xlink="http://www.w3.org/1999/xlink" xmlns:h5="http://www.w3.org/1999/xhtml"><style type="text/css">.typst-text {
  pointer-events: bounding-box;
}

.tsel span,
.tsel {
  left: 0;
  position: fixed;
  text-align: justify;
  white-space: nowrap;
  width: 100%;
  height: 100%;
  text-align-last: justify;
  color: transparent;
  white-space: pre;
}
.tsel span::-moz-selection,
.tsel::-moz-selection {
  color: transparent;
  background: #7db9dea0;
}
.tsel span::selection,
.tsel::selection {
  color: transparent;
  background: #7db9dea0;
}
.pseudo-link {
  fill: transparent;
  cursor: pointer;
  pointer-events: all;
}
svg {
  fill: none;
}

.outline_glyph path,
path.outline_glyph {
  fill: var(--glyph_fill);
  stroke: var(--glyph_stroke);
}

.outline_glyph path,
path.outline_glyph {
  transition: 0.2s fill stroke;
}
.hover .typst-text {
  --glyph_fill: #66bab7;
  --glyph_stroke: #66bab7;
}

.typst-jump-ripple,
.typst-debug-react-ripple {
  width: 0;
  height: 0;
  background-color: transparent;
  position: absolute;
  border-radius: 50%;
}
.typst-jump-ripple {
  border: 1px solid #66bab7;
}
.typst-debug-react-ripple {
  border: 1px solid #cb1b45;
}
@keyframes typst-jump-ripple-effect {
  to {
    width: 10vw;
    height: 10vw;
    opacity: 0.01;
    margin: -5vw;
  }
}
@keyframes typst-debug-react-ripple-effect {
  to {
    width: 3vw;
    height: 3vw;
    opacity: 0.01;
    margin: -1.5vw;
  }
}
</style><defs class="glyph"><path id="gGM+wFCQ" class="outline_glyph" d="M 852 386 L 373 386 L 316 254 Q 288 188 288 145 Q 288 88 334 61 Q 361 45 467 37 L 467 0 L 16 0 L 16 37 Q 89 48 136 97.5 Q 183 147 252 302 L 737 1384 L 756 1384 L 1245 272 Q 1315 114 1360 73 Q 1394 42 1456 37 L 1456 0 L 800 0 L 800 37 L 827 37 Q 906 37 938 59 Q 960 75 960 105 Q 960 123 954 142 Q 952 151 924 217 L 852 386 Z M 818 460 L 616 927 L 408 460 L 818 460 Z "/><path id="gGM+wFCk" class="outline_glyph" d="M 563 1278 L 563 721 L 602 721 Q 692 721 749 748 Q 806 775 845.5 839 Q 885 903 897 1012 L 932 1012 L 932 331 L 897 331 Q 878 524 793.5 585.5 Q 709 647 602 647 L 563 647 L 563 232 Q 563 128 574.5 102 Q 586 76 619.5 56.5 Q 653 37 710 37 L 755 37 L 755 0 L 46 0 L 46 37 L 91 37 Q 150 37 186 58 Q 212 72 226 106 Q 237 130 237 232 L 237 1124 Q 237 1228 226 1254 Q 215 1280 181.5 1299.5 Q 148 1319 91 1319 L 46 1319 L 46 1356 L 1190 1356 L 1190 967 L 1149 967 Q 1135 1104 1077.5 1170 Q 1020 1236 911 1263 Q 851 1278 689 1278 L 563 1278 Z "/><path id="gGM+wFE8" class="outline_glyph" d="M 435 1356 L 435 194 Q 435 95 458 67.5 Q 481 40 548 36 L 548 0 L 43 0 L 43 36 Q 105 38 135 72 Q 155 95 155 194 L 155 1162 Q 155 1260 132 1287.5 Q 109 1315 43 1319 L 43 1356 L 435 1356 Z "/><path id="gGM+wFFI" class="outline_glyph" d="M 510 963 Q 632 963 737 900 Q 842 837 896.5 721 Q 951 605 951 467 Q 951 268 850 134 Q 728 -28 513 -28 Q 302 -28 188 120 Q 74 268 74 463 Q 74 664 190.5 813.5 Q 307 963 510 963 Z M 514 892 Q 463 892 426.5 853.5 Q 390 815 378.5 701.5 Q 367 588 367 386 Q 367 279 381 186 Q 392 115 428 78 Q 464 41 510 41 Q 555 41 585 66 Q 624 100 637 161 Q 657 256 657 545 Q 657 715 638 778.5 Q 619 842 582 871 Q 556 892 514 892 Z "/><path id="gGM+wFFU" class="outline_glyph" d="M 457 935 L 457 723 Q 550 868 620 915.5 Q 690 963 755 963 Q 811 963 844.5 928.5 Q 878 894 878 831 Q 878 764 845.5 727 Q 813 690 767 690 Q 714 690 675 724 Q 636 758 629 762 Q 619 768 606 768 Q 577 768 551 746 Q 510 712 489 649 Q 457 552 457 435 L 457 220 L 458 164 Q 458 107 465 91 Q 477 64 500.5 51.5 Q 524 39 580 36 L 580 0 L 75 0 L 75 36 Q 136 41 157.5 69.5 Q 179 98 179 220 L 179 737 Q 179 817 171 839 Q 161 867 142 880 Q 123 893 75 898 L 75 935 L 457 935 Z "/><path id="gGM+wFFY" class="outline_glyph" d="M 660 961 L 675 642 L 641 642 Q 580 784 514.5 836 Q 449 888 384 888 Q 343 888 314 860.5 Q 285 833 285 797 Q 285 770 305 745 Q 337 704 484 604.5 Q 631 505 677.5 435.5 Q 724 366 724 280 Q 724 202 685 127 Q 646 52 575 12 Q 504 -28 418 -28 Q 351 -28 239 14 Q 209 25 198 25 Q 165 25 143 -25 L 110 -25 L 94 311 L 128 311 Q 173 179 251.5 113 Q 330 47 400 47 Q 448 47 478.5 76.5 Q 509 106 509 148 Q 509 196 479 231 Q 449 266 345 337 Q 192 443 147 499 Q 81 581 81 680 Q 81 788 155.5 875.5 Q 230 963 371 963 Q 447 963 518 926 Q 545 911 562 911 Q 580 911 591 918.5 Q 602 926 626 961 L 660 961 Z "/><path id="gGM+wFFc" class="outline_glyph" d="M 440 1277 L 440 935 L 662 935 L 662 836 L 440 836 L 440 259 Q 440 178 447.5 154.5 Q 455 131 474 116.5 Q 493 102 509 102 Q 574 102 632 201 L 662 179 Q 581 -13 399 -13 Q 310 -13 248.5 36.5 Q 187 86 170 147 Q 160 181 160 331 L 160 836 L 38 836 L 38 871 Q 164 960 252.5 1058 Q 341 1156 407 1277 L 440 1277 Z "/><path id="gGM+wFFo" class="outline_glyph" d="M 996 -28 L 740 658 L 489 -28 L 437 -28 L 188 650 Q 132 805 93 852 Q 68 884 17 898 L 17 935 L 489 935 L 489 898 Q 441 898 423 884 Q 405 870 405 852 Q 405 835 437 750 L 574 385 L 706 750 L 696 774 Q 666 849 643.5 869.5 Q 621 890 574 898 L 574 935 L 1053 935 L 1053 898 Q 997 895 982 882.5 Q 967 870 967 847 Q 967 825 996 750 L 1128 385 L 1248 721 Q 1274 793 1274 819 Q 1274 858 1255 876 Q 1236 894 1181 898 L 1181 935 L 1458 935 L 1458 898 Q 1412 892 1385 865.5 Q 1358 839 1315 715 L 1053 -28 L 996 -28 Z "/><path id="gM22VLC0" class="outline_glyph" d="M 204 1319 L 204 1356 L 785 1356 L 785 1319 L 736 1319 Q 653 1319 615 1270 Q 591 1238 591 1116 L 591 453 Q 591 300 557.5 205 Q 524 110 442 39.5 Q 360 -31 244 -31 Q 150 -31 96 15.5 Q 42 62 42 122 Q 42 171 67 196 Q 100 227 144 227 Q 176 227 201.5 206 Q 227 185 266 94 Q 289 40 325 40 Q 352 40 375.5 73 Q 399 106 399 190 L 399 1116 Q 399 1219 386 1252 Q 376 1277 344 1295 Q 301 1319 253 1319 L 204 1319 Z "/><path id="gM22VLEQ" class="outline_glyph" d="M 583 132 Q 442 23 406 6 Q 352 -19 291 -19 Q 196 -19 134.5 46 Q 73 111 73 217 Q 73 284 103 333 Q 144 401 245.5 461 Q 347 521 583 607 L 583 643 Q 583 780 539.5 831 Q 496 882 413 882 Q 350 882 313 848 Q 275 814 275 770 L 277 712 Q 277 666 253.5 641 Q 230 616 192 616 Q 155 616 131.5 642 Q 108 668 108 713 Q 108 799 196 871 Q 284 943 443 943 Q 565 943 643 902 Q 702 871 730 805 Q 748 762 748 629 L 748 318 Q 748 187 753 157.5 Q 758 128 769.5 118 Q 781 108 796 108 Q 812 108 824 115 Q 845 128 905 188 L 905 132 Q 793 -18 691 -18 Q 642 -18 613 16 Q 584 50 583 132 Z M 583 197 L 583 546 Q 432 486 388 461 Q 309 417 275 369 Q 241 321 241 264 Q 241 192 284 144.5 Q 327 97 383 97 Q 459 97 583 197 Z "/><path id="gM22VLEU" class="outline_glyph" d="M 315 758 Q 448 943 602 943 Q 743 943 848 822.5 Q 953 702 953 493 Q 953 249 791 100 Q 652 -28 481 -28 Q 401 -28 318.5 1 Q 236 30 150 88 L 150 1037 Q 150 1193 142.5 1229 Q 135 1265 119 1278 Q 103 1291 79 1291 Q 51 1291 9 1275 L -5 1310 L 270 1422 L 315 1422 L 315 758 Z M 315 694 L 315 146 Q 366 96 420.5 70.5 Q 475 45 532 45 Q 623 45 701.5 145 Q 780 245 780 436 Q 780 612 701.5 706.5 Q 623 801 523 801 Q 470 801 417 774 Q 377 754 315 694 Z "/><path id="gM22VLEg" class="outline_glyph" d="M 218 571 Q 217 367 317 251 Q 417 135 552 135 Q 642 135 708.5 184.5 Q 775 234 820 354 L 851 334 Q 830 197 729 84.5 Q 628 -28 476 -28 Q 311 -28 193.5 100.5 Q 76 229 76 446 Q 76 681 196.5 812.5 Q 317 944 499 944 Q 653 944 752 842.5 Q 851 741 851 571 L 218 571 Z M 218 629 L 642 629 Q 637 717 621 753 Q 596 809 546.5 841 Q 497 873 443 873 Q 360 873 294.5 808.5 Q 229 744 218 629 Z "/><path id="gM22VLEw" class="outline_glyph" d="M 297 1422 Q 339 1422 368.5 1392.5 Q 398 1363 398 1321 Q 398 1279 368.5 1249 Q 339 1219 297 1219 Q 255 1219 225 1249 Q 195 1279 195 1321 Q 195 1363 224.5 1392.5 Q 254 1422 297 1422 Z M 380 943 L 380 207 Q 380 121 392.5 92.5 Q 405 64 429.5 50 Q 454 36 519 36 L 519 0 L 74 0 L 74 36 Q 141 36 164 49 Q 187 62 200.5 92 Q 214 122 214 207 L 214 560 Q 214 709 205 753 Q 198 785 183 797.5 Q 168 810 142 810 Q 114 810 74 795 L 60 831 L 336 943 L 380 943 Z "/><path id="gM22VLFE" class="outline_glyph" d="M 331 749 Q 492 943 638 943 Q 713 943 767 905.5 Q 821 868 853 782 Q 875 722 875 598 L 875 207 Q 875 120 889 89 Q 900 64 924.5 50 Q 949 36 1015 36 L 1015 0 L 562 0 L 562 36 L 581 36 Q 645 36 670.5 55.5 Q 696 75 706 113 Q 710 128 710 207 L 710 582 Q 710 707 677.5 763.5 Q 645 820 568 820 Q 449 820 331 690 L 331 207 Q 331 114 342 92 Q 356 63 380.5 49.5 Q 405 36 480 36 L 480 0 L 27 0 L 27 36 L 47 36 Q 117 36 141.5 71.5 Q 166 107 166 207 L 166 547 Q 166 712 158.5 748 Q 151 784 135.5 797 Q 120 810 94 810 Q 66 810 27 795 L 12 831 L 288 943 L 331 943 L 331 749 Z "/><path id="gM22VLFI" class="outline_glyph" d="M 512 943 Q 720 943 846 785 Q 953 650 953 475 Q 953 352 894 226 Q 835 100 731.5 36 Q 628 -28 501 -28 Q 294 -28 172 137 Q 69 276 69 449 Q 69 575 131.5 699.5 Q 194 824 296 883.5 Q 398 943 512 943 Z M 481 878 Q 428 878 374.5 846.5 Q 321 815 288 736 Q 255 657 255 533 Q 255 333 334.5 188 Q 414 43 544 43 Q 641 43 704 123 Q 767 203 767 398 Q 767 642 662 782 Q 591 878 481 878 Z "/><path id="gM22VLFc" class="outline_glyph" d="M 330 1217 L 330 916 L 544 916 L 544 846 L 330 846 L 330 252 Q 330 163 355.5 132 Q 381 101 421 101 Q 454 101 485 121.5 Q 516 142 533 182 L 572 182 Q 537 84 473 34.5 Q 409 -15 341 -15 Q 295 -15 251 10.5 Q 207 36 186 83.5 Q 165 131 165 230 L 165 846 L 20 846 L 20 879 Q 75 901 132.5 953.5 Q 190 1006 235 1078 Q 258 1116 299 1217 L 330 1217 Z "/><path id="gM22VLFk" class="outline_glyph" d="M 17 916 L 448 916 L 448 879 L 420 879 Q 381 879 360.5 860 Q 340 841 340 809 Q 340 774 361 726 L 574 220 L 788 745 Q 811 801 811 830 Q 811 844 803 853 Q 792 868 775 873.5 Q 758 879 706 879 L 706 916 L 1005 916 L 1005 879 Q 953 875 933 858 Q 898 828 870 758 L 545 -28 L 504 -28 L 177 745 Q 155 799 135 822.5 Q 115 846 84 862 Q 67 871 17 879 L 17 916 Z "/><path id="gM22VLGo" class="outline_glyph" d="M 583 132 Q 442 23 406 6 Q 352 -19 291 -19 Q 196 -19 134.5 46 Q 73 111 73 217 Q 73 284 103 333 Q 144 401 245.5 461 Q 347 521 583 607 L 583 643 Q 583 780 539.5 831 Q 496 882 413 882 Q 350 882 313 848 Q 275 814 275 770 L 277 712 Q 277 666 253.5 641 Q 230 616 192 616 Q 155 616 131.5 642 Q 108 668 108 713 Q 108 799 196 871 Q 284 943 443 943 Q 565 943 643 902 Q 702 871 730 805 Q 748 762 748 629 L 748 318 Q 748 187 753 157.5 Q 758 128 769.5 118 Q 781 108 796 108 Q 812 108 824 115 Q 845 128 905 188 L 905 132 Q 793 -18 691 -18 Q 642 -18 613 16 Q 584 50 583 132 Z M 583 197 L 583 546 Q 432 486 388 461 Q 309 417 275 369 Q 241 321 241 264 Q 241 192 284 144.5 Q 327 97 383 97 Q 459 97 583 197 Z M 260 1390 L 483 1390 L 589 1045 L 554 1045 L 260 1390 Z "/><path id="gM22VLLI" class="outline_glyph" d="M 2066 453 L -19 453 L -19 527 L 2066 527 L 2066 453 Z "/><path id="gM22VLMME" class="outline_glyph" d="M 218 571 Q 217 367 317 251 Q 417 135 552 135 Q 642 135 708.5 184.5 Q 775 234 820 354 L 851 334 Q 830 197 729 84.5 Q 628 -28 476 -28 Q 311 -28 193.5 100.5 Q 76 229 76 446 Q 76 681 196.5 812.5 Q 317 944 499 944 Q 653 944 752 842.5 Q 851 741 851 571 L 218 571 Z M 218 629 L 642 629 Q 637 717 621 753 Q 596 809 546.5 841 Q 497 873 443 873 Q 360 873 294.5 808.5 Q 229 744 218 629 Z M 403 1385 L 587 1385 L 777 1054 L 746 1054 L 473 1267 L 244 1054 L 214 1054 L 403 1385 Z M 438 1491 L 403 1491 L 509 1825 L 732 1825 L 438 1491 Z "/><path id="gM22VLOME" class="outline_glyph" d="M 481 878 Q 347 878 288 736 Q 255 657 255 533 Q 255 328 334 188 Q 417 43 544 43 Q 767 43 767 398 Q 767 641 662 782 Q 590 878 481 878 Z M 942 761 Q 972 775 961 793 Q 942 803 907 841 Q 887 875 896 907 Q 904 939 939 958.5 Q 974 978 1013 967 Q 1057 953 1077.5 909 Q 1098 865 1081 813 Q 1061 754 997 728 Q 964 715 897 707 Q 953 602 953 475 Q 953 348 894 226 Q 832 98 732 36 Q 628 -28 501 -28 Q 294 -28 172 137 Q 69 276 69 449 Q 69 577 132.5 701 Q 196 825 297 884 Q 398 943 512 943 Q 720 943 846 785 Q 862 765 875 744 Q 895 746 942 761 Z M 610 1168 Q 559 1119 548 1100 Q 537 1081 535 1045 L 501 1045 Q 505 1113 551 1186 Q 583 1238 583 1270 Q 583 1344 510 1344 Q 476 1344 459 1328 Q 452 1321 452 1314 Q 452 1307 463 1289.5 Q 474 1272 474 1262 Q 474 1227 436 1227 Q 386 1227 386 1284 Q 386 1325 425.5 1352.5 Q 465 1380 525 1380 Q 603 1380 640 1341 Q 669 1311 669 1275 Q 669 1225 610 1168 Z "/></defs><defs class="clip-path"></defs><style type="text/css"></style><g class="typst-page" transform="translate(0, 0)" data-tid="pvVMeU9FDrjgBu/t8yh8xyc" data-page-width="183" data-page-height="24"><g data-tid="gvVMeU9FDrjgBu/t8yh8xyc" class="typst-group"><g transform="translate(0.000,0.000)" data-tid="pMTl7kcd37rMLR6C/3Gfues"><g data-tid="gMTl7kcd37rMLR6C/3Gfues"><path class="typst-shape" d="M 0 0 L 0 23.945313 L 182.30664 23.945313 L 182.30664 0 Z " fill-rule="nonzero" fill="#fff" /></g></g><g transform="translate(8.000,8.000)" data-tid="p2gg7AGKb028xzbAZWdgYf8"><g data-tid="g2gg7AGKb028xzbAZWdgYf8" class="typst-group"><g transform="translate(0.000,7.945)" data-tid="pjicZ3YuQM3AjlBveNPCtWU"><g data-tid="gjicZ3YuQM3AjlBveNPCtWU" class="typst-text" fill="#000" transform="scale(0.005859375,-0.005859375)"><use x="0" y="0" href="#gGM+wFCQ"/><use x="1479" y="0" href="#gGM+wFFU"/><use x="2388" y="0" href="#gGM+wFFc"/><use x="3070" y="0" href="#gGM+wFFI"/><use x="4094" y="0" href="#gGM+wFFY"/><use x="4891" y="0" href="#gGM+wFCk"/><use x="6142" y="0" href="#gGM+wFE8"/><use x="6711" y="0" href="#gGM+wFFI"/><use x="7735" y="0" href="#gGM+wFFo"/><g transform="scale(16,-16)"><foreignObject x="0" y="-86.69" width="575.88" height="128.00"><h5:div class="tsel" style="font-size: 128px">ArtosFlow</h5:div></foreignObject></g></g></g><g transform="translate(53.988,7.945)" data-tid="pfgHw8Wc3Gu4CWsqzCiPtew"><g data-tid="gfgHw8Wc3Gu4CWsqzCiPtew" class="typst-text" fill="#000" transform="scale(0.005859375,-0.005859375)"><use x="0" y="0" href="#gM22VLAM"/><use x="512" y="0" href="#gM22VLLI"/><use x="2560" y="0" href="#gM22VLAM"/><use x="3072" y="0" href="#gM22VLFk"/><use x="4096" y="0" href="#gM22VLEw"/><use x="4665" y="0" href="#gM22VLMME"/><use x="5574" y="0" href="#gM22VLFc"/><use x="6143" y="0" href="#gM22VLAM"/><use x="6655" y="0" href="#gM22VLEU"/><use x="7679" y="0" href="#gM22VLOME"/><use x="8762" y="0" href="#gM22VLEw"/><use x="9331" y="0" href="#gM22VLAM"/><use x="9843" y="0" href="#gM22VLC0"/><use x="10640" y="0" href="#gM22VLEQ"/><use x="11549" y="0" href="#gM22VLFE"/><use x="12573" y="0" href="#gM22VLEg"/><use x="13482" y="0" href="#gM22VLAM"/><use x="13994" y="0" href="#gM22VLFk"/><use x="15018" y="0" href="#gM22VLGo"/><use x="15927" y="0" href="#gM22VLAM"/><use x="16439" y="0" href="#gM22VLC0"/><use x="17236" y="0" href="#gM22VLFI"/><use x="18260" y="0" href="#gM22VLEg"/><g transform="scale(16,-16)"><foreignObject x="0" y="-88.75" width="1198.06" height="128.00"><h5:div class="tsel" style="font-size: 128px"> — viết bởi Jane và Joe</h5:div></foreignObject></g></g></g><g transform="translate(0.000,0.000)" data-tid="pDgsjYLTg9DIxe7neLL45F8"><g data-tid="gDgsjYLTg9DIxe7neLL45F8" class="typst-content-hint" data-hint="a"></g></g></g></g></g></g></svg>