<svg style="overflow: visible;" class="typst-doc" viewBox="0 0 300.000 56.000" width="300.000" height="56.000" data-width="300.000" data-height="56.000" xmlns="http://www.w3.org/2000/svg" xmlns:xlink="http://www.w3.org/1999/xlink" xmlns:h5="http://www.w3.org/1999/xhtml"><style type="text/css">.typst-text {
  pointer-events: bounding-box;
}

.tsel span,
.tsel {
  left: 0;
  position: fixed;
  text-align: justify;
  white-space: nowrap;
  width: 100%;
  height: 100%;
  text-align-last: justify;
  color: transparent;
  white-space: pre;
}
.tsel span::-moz-selection,
.tsel::-moz-selection {
  color: transparent;
  background: #7db9dea0;
}
.tsel span::selection,
.tsel::selection {
  color: transparent;
  background: #7db9dea0;
}
.pseudo-link {
  fill: transparent;
  cursor: pointer;
  pointer-events: all;
}
svg {
  fill: none;
}

.outline_glyph path,
path.outline_glyph {
  fill: var(--glyph_fill);
  stroke: var(--glyph_stroke);
}

.outline_glyph path,
path.outline_glyph {
  transition: 0.2s fill stroke;
}
.hover .typst-text {
  --glyph_fill: #66bab7;
  --glyph_stroke: #66bab7;
}

.typst-jump-ripple,
.typst-debug-react-ripple {
  width: 0;
  height: 0;
  background-color: transparent;
  position: absolute;
  border-radius: 50%;
}
.typst-jump-ripple {
  border: 1px solid #66bab7;
}
.typst-debug-react-ripple {
  border: 1px solid #cb1b45;
}
@keyframes typst-jump-ripple-effect {
  to {
    width: 10vw;
    height: 10vw;
    opacity: 0.01;
    margin: -5vw;
  }
}
@keyframes typst-debug-react-ripple-effect {
  to {
    width: 3vw;
    height: 3vw;
    opacity: 0.01;
    margin: -1.5vw;
  }
}
</style><defs class="glyph"><path id="gM22VLBQ" class="outline_glyph" d="M 240 1223 L 570 1384 L 603 1384 L 603 239 Q 603 125 612.5 97 Q 622 69 652 54 Q 682 39 774 37 L 774 0 L 264 0 L 264 37 Q 360 39 388 53.5 Q 416 68 427 92.5 Q 438 117 438 239 L 438 971 Q 438 1119 428 1161 Q 421 1193 402.5 1208 Q 384 1223 358 1223 Q 321 1223 255 1192 L 240 1223 Z "/><path id="gM22VLBU" class="outline_glyph" d="M 939 261 L 844 0 L 44 0 L 44 37 Q 397 359 541 563 Q 685 767 685 936 Q 685 1065 606 1148 Q 527 1231 417 1231 Q 317 1231 237.5 1172.5 Q 158 1114 120 1001 L 83 1001 Q 108 1186 211.5 1285 Q 315 1384 470 1384 Q 635 1384 745.5 1278 Q 856 1172 856 1028 Q 856 925 808 822 Q 734 660 568 479 Q 319 207 257 151 L 611 151 Q 719 151 762.5 159 Q 806 167 841 191.5 Q 876 216 902 261 L 939 261 Z "/><path id="gM22VLCQ" class="outline_glyph" d="M 937 454 L 412 454 L 320 240 Q 286 161 286 122 Q 286 91 315.5 67.5 Q 345 44 443 37 L 443 0 L 16 0 L 16 37 Q 101 52 126 76 Q 177 124 239 271 L 716 1387 L 751 1387 L 1223 259 Q 1280 123 1326.5 82.5 Q 1373 42 1456 37 L 1456 0 L 921 0 L 921 37 Q 1002 41 1030.5 64 Q 1059 87 1059 120 Q 1059 164 1019 259 L 937 454 Z M 909 528 L 679 1076 L 443 528 L 909 528 Z "/><path id="gM22VLCU" class="outline_glyph" d="M 946 692 Q 1087 662 1157 596 Q 1254 504 1254 371 Q 1254 270 1190 177.5 Q 1126 85 1014.5 42.5 Q 903 0 674 0 L 34 0 L 34 37 L 85 37 Q 170 37 207 91 Q 230 126 230 240 L 230 1116 Q 230 1242 201 1275 Q 162 1319 85 1319 L 34 1319 L 34 1356 L 620 1356 Q 784 1356 883 1332 Q 1033 1296 1112 1204.5 Q 1191 1113 1191 994 Q 1191 892 1129 811.5 Q 1067 731 946 692 Z M 422 746 Q 459 739 506.5 735.5 Q 554 732 611 732 Q 757 732 830.5 763.5 Q 904 795 943 860 Q 982 925 982 1002 Q 982 1121 885 1205 Q 788 1289 602 1289 Q 502 1289 422 1267 L 422 746 Z M 422 98 Q 538 71 651 71 Q 832 71 927 152.5 Q 1022 234 1022 354 Q 1022 433 979 506 Q 936 579 839 621 Q 742 663 599 663 Q 537 663 493 661 Q 449 659 422 654 L 422 98 Z "/><path id="gM22VLCY" class="outline_glyph" d="M 1233 1387 L 1264 926 L 1233 926 Q 1171 1133 1056 1224 Q 941 1315 780 1315 Q 645 1315 536 1246.5 Q 427 1178 364.5 1028 Q 302 878 302 655 Q 302 471 361 336 Q 420 201 538.5 129 Q 657 57 809 57 Q 941 57 1042 113.5 Q 1143 170 1264 338 L 1295 318 Q 1193 137 1057 53 Q 921 -31 734 -31 Q 397 -31 212 219 Q 74 405 74 657 Q 74 860 165 1030 Q 256 1200 415.5 1293.5 Q 575 1387 764 1387 Q 911 1387 1054 1315 Q 1096 1293 1114 1293 Q 1141 1293 1161 1312 Q 1187 1339 1198 1387 L 1233 1387 Z "/><path id="gM22VLCc" class="outline_glyph" d="M 35 0 L 35 37 L 86 37 Q 172 37 208 92 Q 230 125 230 240 L 230 1116 Q 230 1243 202 1275 Q 163 1319 86 1319 L 35 1319 L 35 1356 L 587 1356 Q 891 1356 1049.5 1287 Q 1208 1218 1304.5 1057 Q 1401 896 1401 685 Q 1401 402 1229 212 Q 1036 0 641 0 L 35 0 Z M 422 98 Q 549 70 635 70 Q 867 70 1020 233 Q 1173 396 1173 675 Q 1173 956 1020 1118 Q 867 1280 627 1280 Q 537 1280 422 1251 L 422 98 Z "/><path id="gM22VLEw" class="outline_glyph" d="M 297 1422 Q 339 1422 368.5 1392.5 Q 398 1363 398 1321 Q 398 1279 368.5 1249 Q 339 1219 297 1219 Q 255 1219 225 1249 Q 195 1279 195 1321 Q 195 1363 224.5 1392.5 Q 254 1422 297 1422 Z M 380 943 L 380 207 Q 380 121 392.5 92.5 Q 405 64 429.5 50 Q 454 36 519 36 L 519 0 L 74 0 L 74 36 Q 141 36 164 49 Q 187 62 200.5 92 Q 214 122 214 207 L 214 560 Q 214 709 205 753 Q 198 785 183 797.5 Q 168 810 142 810 Q 114 810 74 795 L 60 831 L 336 943 L 380 943 Z "/><path id="gM22VLE8" class="outline_glyph" d="M 379 1422 L 379 207 Q 379 121 391.5 93 Q 404 65 430 50.5 Q 456 36 527 36 L 527 0 L 78 0 L 78 36 Q 141 36 164 49 Q 187 62 200 92 Q 213 122 213 207 L 213 1039 Q 213 1194 206 1229.5 Q 199 1265 183.5 1278 Q 168 1291 144 1291 Q 118 1291 78 1275 L 61 1310 L 334 1422 L 379 1422 Z "/><path id="gM22VLFc" class="outline_glyph" d="M 330 1217 L 330 916 L 544 916 L 544 846 L 330 846 L 330 252 Q 330 163 355.5 132 Q 381 101 421 101 Q 454 101 485 121.5 Q 516 142 533 182 L 572 182 Q 537 84 473 34.5 Q 409 -15 341 -15 Q 295 -15 251 10.5 Q 207 36 186 83.5 Q 165 131 165 230 L 165 846 L 20 846 L 20 879 Q 75 901 132.5 953.5 Q 190 1006 235 1078 Q 258 1116 299 1217 L 330 1217 Z "/><path id="gM22VLFg" class="outline_glyph" d="M 867 916 L 867 361 Q 867 202 874.5 166.5 Q 882 131 898.5 117 Q 915 103 937 103 Q 968 103 1007 120 L 1021 85 L 747 -28 L 702 -28 L 702 166 Q 584 38 522 5 Q 460 -28 391 -28 Q 314 -28 257.5 16.5 Q 201 61 179 131 Q 157 201 157 329 L 157 738 Q 157 803 143 828 Q 129 853 101.5 866.5 Q 74 880 2 879 L 2 916 L 323 916 L 323 303 Q 323 175 367.5 135 Q 412 95 475 95 Q 518 95 572.5 122 Q 627 149 702 225 L 702 744 Q 702 822 673.5 849.5 Q 645 877 555 879 L 555 916 L 867 916 Z "/><path id="gM22VLMsE" class="outline_glyph" d="M 218 571 Q 217 367 317 251 Q 417 135 552 135 Q 642 135 708.5 184.5 Q 775 234 820 354 L 851 334 Q 830 197 729 84.5 Q 628 -28 476 -28 Q 311 -28 193.5 100.5 Q 76 229 76 446 Q 76 681 196.5 812.5 Q 317 944 499 944 Q 653 944 752 842.5 Q 851 741 851 571 L 218 571 Z M 218 629 L 642 629 Q 637 717 621 753 Q 596 809 546.5 841 Q 497 873 443 873 Q 360 873 294.5 808.5 Q 229 744 218 629 Z M 403 1385 L 587 1385 L 777 1054 L 746 1054 L 473 1267 L 244 1054 L 214 1054 L 403 1385 Z M 467 -120 Q 514 -120 546 -152.5 Q 578 -185 578 -231 Q 578 -277 545.5 -309.5 Q 513 -342 467 -342 Q 421 -342 388.5 -309.5 Q 356 -277 356 -231 Q 356 -184 388.5 -152 Q 421 -120 467 -120 Z "/><path id="gM22VLN0E" class="outline_glyph" d="M 512 943 Q 720 943 846 785 Q 953 650 953 475 Q 953 352 894 226 Q 835 100 731.5 36 Q 628 -28 501 -28 Q 294 -28 172 137 Q 69 276 69 449 Q 69 575 131.5 699.5 Q 194 824 296 883.5 Q 398 943 512 943 Z M 481 878 Q 428 878 374.5 846.5 Q 321 815 288 736 Q 255 657 255 533 Q 255 333 334.5 188 Q 414 43 544 43 Q 641 43 704 123 Q 767 203 767 398 Q 767 642 662 782 Q 591 878 481 878 Z M 431 1385 L 615 1385 L 805 1054 L 774 1054 L 501 1267 L 272 1054 L 242 1054 L 431 1385 Z M 507 -120 Q 554 -120 586 -152.5 Q 618 -185 618 -231 Q 618 -277 585.5 -309.5 Q 553 -342 507 -342 Q 461 -342 428.5 -309.5 Q 396 -277 396 -231 Q 396 -184 428.5 -152 Q 461 -120 507 -120 Z "/><path id="gM22VLPME" class="outline_glyph" d="M 958 761 Q 988 775 977 793 Q 977 794 954.5 809 Q 932 824 923 841 Q 903 875 912 907 Q 920 939 955 958.5 Q 990 978 1029 967 Q 1073 953 1093.5 909 Q 1114 865 1097 813 Q 1077 754 1013 728 Q 959 706 867 705 L 867 361 Q 867 214 874 166 Q 880 133 899 117 Q 915 103 937 103 Q 968 103 1007 120 L 1021 85 L 747 -28 L 702 -28 L 702 166 Q 590 45 522 5 Q 465 -28 391 -28 Q 229 -28 179 131 Q 157 201 157 329 L 157 738 Q 157 839 102 867 Q 74 880 2 879 L 2 916 L 323 916 L 323 303 Q 323 95 475 95 Q 518 95 572.5 122 Q 627 149 702 225 L 702 744 Q 702 823 673 850 Q 644 877 555 879 L 555 916 L 867 916 L 867 744 Q 898 746 958 761 Z M 231 1097 L 199 1097 Q 203 1234 256 1295 Q 309 1356 387 1356 Q 428 1356 462 1343 Q 507 1326 589.5 1271.5 Q 672 1217 712 1217 Q 744 1217 768.5 1244 Q 793 1271 807 1356 L 838 1356 Q 839 1263 813.5 1208.5 Q 788 1154 741.5 1123.5 Q 695 1093 648 1093 Q 569 1093 452 1173 Q 389 1216 367 1225 Q 345 1234 324 1234 Q 283 1234 259 1198 Q 248 1181 231 1097 Z "/></defs><defs class="clip-path"></defs><style type="text/css"></style><g class="typst-page" transform="translate(0, 0)" data-tid="pdJ7Zn1cfKTUrPJBCesmHlY" data-page-width="300" data-page-height="56"><g data-tid="gdJ7Zn1cfKTUrPJBCesmHlY" class="typst-group"><g transform="translate(0.000,0.000)" data-tid="p8PaTjMoNpTQp7In/vBmOQ0"><g data-tid="g8PaTjMoNpTQp7In/vBmOQ0"><path class="typst-shape" d="M 0 0 L 0 55.890625 L 300 55.890625 L 300 0 Z " fill-rule="nonzero" fill="#fff" /></g></g><g transform="translate(8.000,8.000)" data-tid="pdW7A7fqfbd4IqeK4mJsfsw"><g data-tid="gdW7A7fqfbd4IqeK4mJsfsw" class="typst-group"><g transform="translate(0.000,0.000)" data-tid="purxKrQ4icnw9PpM2TI7vCs"><g data-tid="gurxKrQ4icnw9PpM2TI7vCs"><path class="typst-shape" d="M 0 0 L 0 19.945313 L 142 19.945313 L 142 0 Z " fill-rule="nonzero" fill="#e6e6e6" /></g></g><g transform="translate(142.000,0.000)" data-tid="purxKrQ4icnw9PpM2TI7vCs"><g data-tid="gurxKrQ4icnw9PpM2TI7vCs"><path class="typst-shape" d="M 0 0 L 0 19.945313 L 142 19.945313 L 142 0 Z " fill-rule="nonzero" fill="#e6e6e6" /></g></g><g transform="translate(0.000,-0.250)" data-tid="pCy1IKIeIRwwxg3dpf2nFwc"><g data-tid="gCy1IKIeIRwwxg3dpf2nFwc"><path class="typst-shape" d="M 0 0 L 0 40.390625 " stroke-width="0.5" stroke-miterlimit="4" fill-rule="nonzero" fill="none" stroke="#000" /></g></g><g transform="translate(142.000,-0.250)" data-tid="pCy1IKIeIRwwxg3dpf2nFwc"><g data-tid="gCy1IKIeIRwwxg3dpf2nFwc"><path class="typst-shape" d="M 0 0 L 0 40.390625 " stroke-width="0.5" stroke-miterlimit="4" fill-rule="nonzero" fill="none" stroke="#000" /></g></g><g transform="translate(284.000,-0.250)" data-tid="pCy1IKIeIRwwxg3dpf2nFwc"><g data-tid="gCy1IKIeIRwwxg3dpf2nFwc"><path class="typst-shape" d="M 0 0 L 0 40.390625 " stroke-width="0.5" stroke-miterlimit="4" fill-rule="nonzero" fill="none" stroke="#000" /></g></g><g transform="translate(-0.250,0.000)" data-tid="pebiroMlMr1UQ0CBA9NIaxI"><g data-tid="gebiroMlMr1UQ0CBA9NIaxI"><path class="typst-shape" d="M 0 0 L 284.5 0 " stroke-width="0.5" stroke-miterlimit="4" fill-rule="nonzero" fill="none" stroke="#000" /></g></g><g transform="translate(-0.250,19.945)" data-tid="pebiroMlMr1UQ0CBA9NIaxI"><g data-tid="gebiroMlMr1UQ0CBA9NIaxI"><path class="typst-shape" d="M 0 0 L 284.5 0 " stroke-width="0.5" stroke-miterlimit="4" fill-rule="nonzero" fill="none" stroke="#000" /></g></g><g transform="translate(-0.250,39.891)" data-tid="pebiroMlMr1UQ0CBA9NIaxI"><g data-tid="gebiroMlMr1UQ0CBA9NIaxI"><path class="typst-shape" d="M 0 0 L 284.5 0 " stroke-width="0.5" stroke-miterlimit="4" fill-rule="nonzero" fill="none" stroke="#000" /></g></g><g transform="translate(0.000,0.000)" data-tid="pbDohztIHqbAuDJcsFxVO3U"><g data-tid="gbDohztIHqbAuDJcsFxVO3U" class="typst-group"><g transform="translate(6.000,13.945)" data-tid="pfAmKK6Vj5zkoT+Lrcidjc4"><g data-tid="gfAmKK6Vj5zkoT+Lrcidjc4" class="typst-text" fill="#000" transform="scale(0.005859375,-0.005859375)"><use x="0" y="0" href="#gM22VLCY"/><use x="1366" y="0" href="#gM22VLN0E"/><use x="2390" y="0" href="#gM22VLFc"/><use x="2959" y="0" href="#gM22VLAM"/><use x="3358" y="0" href="#gM22VLCQ"/><g transform="scale(16,-16)"><foreignObject x="0" y="-88.75" width="302.31" height="128.00"><h5:div class="tsel" style="font-size: 128px">Cột A</h5:div></foreignObject></g></g></g><g transform="translate(148.000,13.945)" data-tid="pT0cmt24Cw+AFFFISUgC+io"><g data-tid="gT0cmt24Cw+AFFFISUgC+io" class="typst-text" fill="#000" transform="scale(0.005859375,-0.005859375)"><use x="0" y="0" href="#gM22VLCY"/><use x="1366" y="0" href="#gM22VLN0E"/><use x="2390" y="0" href="#gM22VLFc"/><use x="2959" y="0" href="#gM22VLAM"/><use x="3471" y="0" href="#gM22VLCU"/><g transform="scale(16,-16)"><foreignObject x="0" y="-88.75" width="302.31" height="128.00"><h5:div class="tsel" style="font-size: 128px">Cột B</h5:div></foreignObject></g></g></g><g transform="translate(0.000,0.000)" data-tid="pDgsjYLTg9DIxe7neLL45F8"><g data-tid="gDgsjYLTg9DIxe7neLL45F8" class="typst-content-hint" data-hint="a"></g></g></g></g><g transform="translate(0.000,19.945)" data-tid="p8SpRJfC/y7Q4bZFSYDG9Xs"><g data-tid="g8SpRJfC/y7Q4bZFSYDG9Xs" class="typst-group"><g transform="translate(6.000,13.945)" data-tid="p2YHvgMGQgfY37f2JKDVTck"><g data-tid="g2YHvgMGQgfY37f2JKDVTck" class="typst-text" fill="#000" transform="scale(0.005859375,-0.005859375)"><use x="0" y="0" href="#gM22VLCc"/><use x="1479" y="0" href="#gM22VLPME"/><use x="2589" y="0" href="#gM22VLAM"/><use x="3101" y="0" href="#gM22VLE8"/><use x="3670" y="0" href="#gM22VLEw"/><use x="4239" y="0" href="#gM22VLMsE"/><use x="5148" y="0" href="#gM22VLFg"/><use x="6172" y="0" href="#gM22VLAM"/><use x="6684" y="0" href="#gM22VLBQ"/><g transform="scale(16,-16)"><foreignObject x="0" y="-88.75" width="481.75" height="128.00"><h5:div class="tsel" style="font-size: 128px">Dữ liệu 1</h5:div></foreignObject></g></g></g><g transform="translate(148.000,13.945)" data-tid="pUHIw9V1g9zs1A370MfrRFw"><g data-tid="gUHIw9V1g9zs1A370MfrRFw" class="typst-text" fill="#000" transform="scale(0.005859375,-0.005859375)"><use x="0" y="0" href="#gM22VLCc"/><use x="1479" y="0" href="#gM22VLPME"/><use x="2589" y="0" href="#gM22VLAM"/><use x="3101" y="0" href="#gM22VLE8"/><use x="3670" y="0" href="#gM22VLEw"/><use x="4239" y="0" href="#gM22VLMsE"/><use x="5148" y="0" href="#gM22VLFg"/><use x="6172" y="0" href="#gM22VLAM"/><use x="6684" y="0" href="#gM22VLBU"/><g transform="scale(16,-16)"><foreignObject x="0" y="-88.75" width="481.75" height="128.00"><h5:div class="tsel" style="font-size: 128px">Dữ liệu 2</h5:div></foreignObject></g></g></g><g transform="translate(0.000,0.000)" data-tid="pDgsjYLTg9DIxe7neLL45F8"><g data-tid="gDgsjYLTg9DIxe7neLL45F8" class="typst-content-hint" data-hint="a"></g></g></g></g></g></g></g></g></svg>