<svg style="overflow: visible;" class="typst-doc" viewBox="0 0 300.000 40.000" width="300.000" height="40.000" data-width="300.000" data-height="40.000" xmlns="http://www.w3.org/2000/svg" xmlns:xlink="http://www.w3.org/1999/xlink" xmlns:h5="http://www.w3.org/1999/xhtml"><style type="text/css">.typst-text {
  pointer-events: bounding-box;
}

.tsel span,
.tsel {
  left: 0;
  position: fixed;
  text-align: justify;
  white-space: nowrap;
  width: 100%;
  height: 100%;
  text-align-last: justify;
  color: transparent;
  white-space: pre;
}
.tsel span::-moz-selection,
.tsel::-moz-selection {
  color: transparent;
  background: #7db9dea0;
}
.tsel span::selection,
.tsel::selection {
  color: transparent;
  background: #7db9dea0;
}
.pseudo-link {
  fill: transparent;
  cursor: pointer;
  pointer-events: all;
}
svg {
  fill: none;
}

.outline_glyph path,
path.outline_glyph {
  fill: var(--glyph_fill);
  stroke: var(--glyph_stroke);
}

.outline_glyph path,
path.outline_glyph {
  transition: 0.2s fill stroke;
}
.hover .typst-text {
  --glyph_fill: #66bab7;
  --glyph_stroke: #66bab7;
}

.typst-jump-ripple,
.typst-debug-react-ripple {
  width: 0;
  height: 0;
  background-color: transparent;
  position: absolute;
  border-radius: 50%;
}
.typst-jump-ripple {
  border: 1px solid #66bab7;
}
.typst-debug-react-ripple {
  border: 1px solid #cb1b45;
}
@keyframes typst-jump-ripple-effect {
  to {
    width: 10vw;
    height: 10vw;
    opacity: 0.01;
    margin: -5vw;
  }
}
@keyframes typst-debug-react-ripple-effect {
  to {
    width: 3vw;
    height: 3vw;
    opacity: 0.01;
    margin: -1.5vw;
  }
}
</style><defs class="glyph"><path id="gM22VLBE" class="outline_glyph" d="M 256 194 Q 303 194 335 161.5 Q 367 129 367 83 Q 367 37 334.5 4.5 Q 302 -28 256 -28 Q 210 -28 177.5 4.5 Q 145 37 145 83 Q 145 130 177.5 162 Q 210 194 256 194 Z "/><path id="gM22VLDE" class="outline_glyph" d="M -27 1356 L 341 1356 L 1170 339 L 1170 1121 Q 1170 1246 1142 1277 Q 1105 1319 1025 1319 L 978 1319 L 978 1356 L 1450 1356 L 1450 1319 L 1402 1319 Q 1316 1319 1280 1267 Q 1258 1235 1258 1121 L 1258 -22 L 1222 -22 L 328 1070 L 328 235 Q 328 110 355 79 Q 393 37 472 37 L 520 37 L 520 0 L 48 0 L 48 37 L 95 37 Q 182 37 218 89 Q 240 121 240 235 L 240 1178 Q 181 1247 150.5 1269 Q 120 1291 61 1310 Q 32 1319 -27 1319 L -27 1356 Z "/><path id="gM22VLEU" class="outline_glyph" d="M 315 758 Q 448 943 602 943 Q 743 943 848 822.5 Q 953 702 953 493 Q 953 249 791 100 Q 652 -28 481 -28 Q 401 -28 318.5 1 Q 236 30 150 88 L 150 1037 Q 150 1193 142.5 1229 Q 135 1265 119 1278 Q 103 1291 79 1291 Q 51 1291 9 1275 L -5 1310 L 270 1422 L 315 1422 L 315 758 Z M 315 694 L 315 146 Q 366 96 420.5 70.5 Q 475 45 532 45 Q 623 45 701.5 145 Q 780 245 780 436 Q 780 612 701.5 706.5 Q 623 801 523 801 Q 470 801 417 774 Q 377 754 315 694 Z "/><path id="gM22VLEY" class="outline_glyph" d="M 842 348 Q 805 167 697 69.5 Q 589 -28 458 -28 Q 302 -28 186 103 Q 70 234 70 457 Q 70 673 198.5 808 Q 327 943 507 943 Q 642 943 729 871.5 Q 816 800 816 723 Q 816 685 791.5 661.5 Q 767 638 723 638 Q 664 638 634 676 Q 617 697 611.5 756 Q 606 815 571 846 Q 536 876 474 876 Q 374 876 313 802 Q 232 704 232 543 Q 232 379 312.5 253.5 Q 393 128 530 128 Q 628 128 706 195 Q 761 241 813 362 L 842 348 Z "/><path id="gM22VLEc" class="outline_glyph" d="M 711 103 Q 644 33 580 2.5 Q 516 -28 442 -28 Q 292 -28 180 97.5 Q 68 223 68 420 Q 68 617 192 780.5 Q 316 944 511 944 Q 632 944 711 867 L 711 1036 Q 711 1193 703.5 1229 Q 696 1265 680 1278 Q 664 1291 640 1291 Q 614 1291 571 1275 L 558 1310 L 831 1422 L 876 1422 L 876 363 Q 876 202 883.5 166.5 Q 891 131 907.5 117 Q 924 103 946 103 Q 973 103 1018 120 L 1029 85 L 757 -28 L 711 -28 L 711 103 Z M 711 173 L 711 645 Q 705 713 675 769 Q 645 825 595.5 853.5 Q 546 882 499 882 Q 411 882 342 803 Q 251 699 251 499 Q 251 297 339 189.5 Q 427 82 535 82 Q 626 82 711 173 Z "/><path id="gM22VLEo" class="outline_glyph" d="M 309 334 Q 225 375 180 448.5 Q 135 522 135 611 Q 135 747 237.5 845 Q 340 943 500 943 Q 631 943 727 879 L 921 879 Q 964 879 971 876.5 Q 978 874 981 868 Q 987 859 987 836 Q 987 810 982 800 Q 979 795 971.5 792 Q 964 789 921 789 L 802 789 Q 858 717 858 605 Q 858 477 760 386 Q 662 295 497 295 Q 429 295 358 315 Q 314 277 298.5 248.5 Q 283 220 283 200 Q 283 183 299.5 167 Q 316 151 364 144 Q 392 140 504 137 Q 710 132 771 123 Q 864 110 919.5 54 Q 975 -2 975 -84 Q 975 -197 869 -296 Q 713 -442 462 -442 Q 269 -442 136 -355 Q 61 -305 61 -251 Q 61 -227 72 -203 Q 89 -166 142 -100 Q 149 -91 244 8 Q 192 39 170.5 63.5 Q 149 88 149 119 Q 149 154 177.5 201 Q 206 248 309 334 Z M 483 895 Q 409 895 359 836 Q 309 777 309 655 Q 309 497 377 410 Q 429 344 509 344 Q 585 344 634 401 Q 683 458 683 580 Q 683 739 614 829 Q 563 895 483 895 Z M 299 0 Q 252 -51 228 -95 Q 204 -139 204 -176 Q 204 -224 262 -260 Q 362 -322 551 -322 Q 731 -322 816.5 -258.5 Q 902 -195 902 -123 Q 902 -71 851 -49 Q 799 -27 645 -23 Q 420 -17 299 0 Z "/><path id="gM22VLEs" class="outline_glyph" d="M 333 1422 L 333 752 Q 444 874 509 908.5 Q 574 943 639 943 Q 717 943 773 900 Q 829 857 856 765 Q 875 701 875 531 L 875 207 Q 875 120 889 88 Q 899 64 923 50 Q 947 36 1011 36 L 1011 0 L 561 0 L 561 36 L 582 36 Q 646 36 671 55.5 Q 696 75 706 113 Q 709 129 709 207 L 709 531 Q 709 681 693.5 728 Q 678 775 644 798.5 Q 610 822 562 822 Q 513 822 460 796 Q 407 770 333 691 L 333 207 Q 333 113 343.5 90 Q 354 67 382.5 51.5 Q 411 36 481 36 L 481 0 L 27 0 L 27 36 Q 88 36 123 55 Q 143 65 155 93 Q 167 121 167 207 L 167 1036 Q 167 1193 159.5 1229 Q 152 1265 136.5 1278 Q 121 1291 95 1291 Q 74 1291 27 1275 L 13 1310 L 287 1422 L 333 1422 Z "/><path id="gM22VLEw" class="outline_glyph" d="M 297 1422 Q 339 1422 368.5 1392.5 Q 398 1363 398 1321 Q 398 1279 368.5 1249 Q 339 1219 297 1219 Q 255 1219 225 1249 Q 195 1279 195 1321 Q 195 1363 224.5 1392.5 Q 254 1422 297 1422 Z M 380 943 L 380 207 Q 380 121 392.5 92.5 Q 405 64 429.5 50 Q 454 36 519 36 L 519 0 L 74 0 L 74 36 Q 141 36 164 49 Q 187 62 200.5 92 Q 214 122 214 207 L 214 560 Q 214 709 205 753 Q 198 785 183 797.5 Q 168 810 142 810 Q 114 810 74 795 L 60 831 L 336 943 L 380 943 Z "/><path id="gM22VLE4" class="outline_glyph" d="M 335 1422 L 335 511 L 568 723 Q 642 791 654 809 Q 662 821 662 833 Q 662 853 645.5 867.5 Q 629 882 591 884 L 591 916 L 989 916 L 989 884 Q 907 882 852.5 859 Q 798 836 733 777 L 498 560 L 733 263 Q 831 140 865 107 Q 913 60 949 46 Q 974 36 1036 36 L 1036 0 L 591 0 L 591 36 Q 629 37 642.5 47.5 Q 656 58 656 77 Q 656 100 616 151 L 335 510 L 335 206 Q 335 117 347.5 89 Q 360 61 383 49 Q 406 37 483 36 L 483 0 L 17 0 L 17 36 Q 87 36 122 53 Q 143 64 154 87 Q 169 120 169 201 L 169 1035 Q 169 1194 162 1229.5 Q 155 1265 139 1278.5 Q 123 1292 97 1292 Q 76 1292 34 1275 L 17 1310 L 289 1422 L 335 1422 Z "/><path id="gM22VLFA" class="outline_glyph" d="M 336 748 Q 436 848 454 863 Q 499 901 551 922 Q 603 943 654 943 Q 740 943 802 893 Q 864 843 885 748 Q 988 868 1059 905.5 Q 1130 943 1205 943 Q 1278 943 1334.5 905.5 Q 1391 868 1424 783 Q 1446 725 1446 601 L 1446 207 Q 1446 121 1459 89 Q 1469 67 1496 51.5 Q 1523 36 1584 36 L 1584 0 L 1132 0 L 1132 36 L 1151 36 Q 1210 36 1243 59 Q 1266 75 1276 110 Q 1280 127 1280 207 L 1280 601 Q 1280 713 1253 759 Q 1214 823 1128 823 Q 1075 823 1021.5 796.5 Q 968 770 892 698 L 890 687 L 892 644 L 892 207 Q 892 113 902.5 90 Q 913 67 942 51.5 Q 971 36 1041 36 L 1041 0 L 578 0 L 578 36 Q 654 36 682.5 54 Q 711 72 722 108 Q 727 125 727 207 L 727 601 Q 727 713 694 762 Q 650 826 571 826 Q 517 826 464 797 Q 381 753 336 698 L 336 207 Q 336 117 348.5 90 Q 361 63 385.5 49.5 Q 410 36 485 36 L 485 0 L 32 0 L 32 36 Q 95 36 120 49.5 Q 145 63 158 92.5 Q 171 122 171 207 L 171 557 Q 171 708 162 752 Q 155 785 140 797.5 Q 125 810 99 810 Q 71 810 32 795 L 17 831 L 293 943 L 336 943 L 336 748 Z "/><path id="gM22VLFE" class="outline_glyph" d="M 331 749 Q 492 943 638 943 Q 713 943 767 905.5 Q 821 868 853 782 Q 875 722 875 598 L 875 207 Q 875 120 889 89 Q 900 64 924.5 50 Q 949 36 1015 36 L 1015 0 L 562 0 L 562 36 L 581 36 Q 645 36 670.5 55.5 Q 696 75 706 113 Q 710 128 710 207 L 710 582 Q 710 707 677.5 763.5 Q 645 820 568 820 Q 449 820 331 690 L 331 207 Q 331 114 342 92 Q 356 63 380.5 49.5 Q 405 36 480 36 L 480 0 L 27 0 L 27 36 L 47 36 Q 117 36 141.5 71.5 Q 166 107 166 207 L 166 547 Q 166 712 158.5 748 Q 151 784 135.5 797 Q 120 810 94 810 Q 66 810 27 795 L 12 831 L 288 943 L 331 943 L 331 749 Z "/><path id="gM22VLFI" class="outline_glyph" d="M 512 943 Q 720 943 846 785 Q 953 650 953 475 Q 953 352 894 226 Q 835 100 731.5 36 Q 628 -28 501 -28 Q 294 -28 172 137 Q 69 276 69 449 Q 69 575 131.5 699.5 Q 194 824 296 883.5 Q 398 943 512 943 Z M 481 878 Q 428 878 374.5 846.5 Q 321 815 288 736 Q 255 657 255 533 Q 255 333 334.5 188 Q 414 43 544 43 Q 641 43 704 123 Q 767 203 767 398 Q 767 642 662 782 Q 591 878 481 878 Z "/><path id="gM22VLFU" class="outline_glyph" d="M 332 943 L 332 737 Q 447 943 568 943 Q 623 943 659 909.5 Q 695 876 695 832 Q 695 793 669 766 Q 643 739 607 739 Q 572 739 528.5 773.5 Q 485 808 464 808 Q 446 808 425 788 Q 380 747 332 653 L 332 214 Q 332 138 351 99 Q 364 72 397 54 Q 430 36 492 36 L 492 0 L 23 0 L 23 36 Q 93 36 127 58 Q 152 74 162 109 Q 167 126 167 206 L 167 561 Q 167 721 160.5 751.5 Q 154 782 136.5 796 Q 119 810 93 810 Q 62 810 23 795 L 13 831 L 290 943 L 332 943 Z "/><path id="gM22VLFc" class="outline_glyph" d="M 330 1217 L 330 916 L 544 916 L 544 846 L 330 846 L 330 252 Q 330 163 355.5 132 Q 381 101 421 101 Q 454 101 485 121.5 Q 516 142 533 182 L 572 182 Q 537 84 473 34.5 Q 409 -15 341 -15 Q 295 -15 251 10.5 Q 207 36 186 83.5 Q 165 131 165 230 L 165 846 L 20 846 L 20 879 Q 75 901 132.5 953.5 Q 190 1006 235 1078 Q 258 1116 299 1217 L 330 1217 Z "/><path id="gM22VLFg" class="outline_glyph" d="M 867 916 L 867 361 Q 867 202 874.5 166.5 Q 882 131 898.5 117 Q 915 103 937 103 Q 968 103 1007 120 L 1021 85 L 747 -28 L 702 -28 L 702 166 Q 584 38 522 5 Q 460 -28 391 -28 Q 314 -28 257.5 16.5 Q 201 61 179 131 Q 157 201 157 329 L 157 738 Q 157 803 143 828 Q 129 853 101.5 866.5 Q 74 880 2 879 L 2 916 L 323 916 L 323 303 Q 323 175 367.5 135 Q 412 95 475 95 Q 518 95 572.5 122 Q 627 149 702 225 L 702 744 Q 702 822 673.5 849.5 Q 645 877 555 879 L 555 916 L 867 916 Z "/><path id="gM22VLHI" class="outline_glyph" d="M 218 571 Q 217 367 317 251 Q 417 135 552 135 Q 642 135 708.5 184.5 Q 775 234 820 354 L 851 334 Q 830 197 729 84.5 Q 628 -28 476 -28 Q 311 -28 193.5 100.5 Q 76 229 76 446 Q 76 681 196.5 812.5 Q 317 944 499 944 Q 653 944 752 842.5 Q 851 741 851 571 L 218 571 Z M 218 629 L 642 629 Q 637 717 621 753 Q 596 809 546.5 841 Q 497 873 443 873 Q 360 873 294.5 808.5 Q 229 744 218 629 Z M 403 1385 L 587 1385 L 777 1054 L 746 1054 L 473 1267 L 244 1054 L 214 1054 L 403 1385 Z "/><path id="gM22VLP8" class="outline_glyph" d="M 681 1068 L 390 1068 L 390 1150 L 680 1150 Q 676 1246 659.5 1268.5 Q 643 1291 610 1291 Q 584 1291 541 1275 L 528 1310 L 801 1422 L 846 1422 L 846 1150 L 999 1150 L 999 1068 L 846 1068 L 846 363 Q 846 202 853.5 166.5 Q 861 131 877.5 117 Q 894 103 916 103 Q 943 103 988 120 L 999 85 L 727 -28 L 681 -28 L 681 103 Q 614 33 550 2.5 Q 486 -28 412 -28 Q 262 -28 150 97.5 Q 38 223 38 420 Q 38 617 162 780.5 Q 286 944 481 944 Q 602 944 681 867 L 681 1068 Z M 681 173 L 681 645 Q 675 713 645 769 Q 615 825 565.5 853.5 Q 516 882 469 882 Q 381 882 312 803 Q 221 699 221 499 Q 221 297 309 189.5 Q 397 82 505 82 Q 596 82 681 173 Z "/><path id="gM22VLG0E" class="outline_glyph" d="M 958 761 Q 988 775 977 793 Q 977 794 954.5 809 Q 932 824 923 841 Q 903 875 912 907 Q 920 939 955 958.5 Q 990 978 1029 967 Q 1073 953 1093.5 909 Q 1114 865 1097 813 Q 1077 754 1013 728 Q 959 706 867 705 L 867 361 Q 867 214 874 166 Q 880 133 899 117 Q 915 103 937 103 Q 968 103 1007 120 L 1021 85 L 747 -28 L 702 -28 L 702 166 Q 590 45 522 5 Q 465 -28 391 -28 Q 229 -28 179 131 Q 157 201 157 329 L 157 738 Q 157 839 102 867 Q 74 880 2 879 L 2 916 L 323 916 L 323 303 Q 323 95 475 95 Q 518 95 572.5 122 Q 627 149 702 225 L 702 744 Q 702 823 673 850 Q 644 877 555 879 L 555 916 L 867 916 L 867 744 Q 898 746 958 761 Z "/><path id="gM22VLMsE" class="outline_glyph" d="M 218 571 Q 217 367 317 251 Q 417 135 552 135 Q 642 135 708.5 184.5 Q 775 234 820 354 L 851 334 Q 830 197 729 84.5 Q 628 -28 476 -28 Q 311 -28 193.5 100.5 Q 76 229 76 446 Q 76 681 196.5 812.5 Q 317 944 499 944 Q 653 944 752 842.5 Q 851 741 851 571 L 218 571 Z M 218 629 L 642 629 Q 637 717 621 753 Q 596 809 546.5 841 Q 497 873 443 873 Q 360 873 294.5 808.5 Q 229 744 218 629 Z M 403 1385 L 587 1385 L 777 1054 L 746 1054 L 473 1267 L 244 1054 L 214 1054 L 403 1385 Z M 467 -120 Q 514 -120 546 -152.5 Q 578 -185 578 -231 Q 578 -277 545.5 -309.5 Q 513 -342 467 -342 Q 421 -342 388.5 -309.5 Q 356 -277 356 -231 Q 356 -184 388.5 -152 Q 421 -120 467 -120 Z "/><path id="gM22VLN0E" class="outline_glyph" d="M 512 943 Q 720 943 846 785 Q 953 650 953 475 Q 953 352 894 226 Q 835 100 731.5 36 Q 628 -28 501 -28 Q 294 -28 172 137 Q 69 276 69 449 Q 69 575 131.5 699.5 Q 194 824 296 883.5 Q 398 943 512 943 Z M 481 878 Q 428 878 374.5 846.5 Q 321 815 288 736 Q 255 657 255 533 Q 255 333 334.5 188 Q 414 43 544 43 Q 641 43 704 123 Q 767 203 767 398 Q 767 642 662 782 Q 591 878 481 878 Z M 431 1385 L 615 1385 L 805 1054 L 774 1054 L 501 1267 L 272 1054 L 242 1054 L 431 1385 Z M 507 -120 Q 554 -120 586 -152.5 Q 618 -185 618 -231 Q 618 -277 585.5 -309.5 Q 553 -342 507 -342 Q 461 -342 428.5 -309.5 Q 396 -277 396 -231 Q 396 -184 428.5 -152 Q 461 -120 507 -120 Z "/><path id="gM22VLOcE" class="outline_glyph" d="M 481 878 Q 347 878 288 736 Q 255 657 255 533 Q 255 328 334 188 Q 417 43 544 43 Q 767 43 767 398 Q 767 641 662 782 Q 590 878 481 878 Z M 942 761 Q 972 775 961 793 Q 942 803 907 841 Q 887 875 896 907 Q 904 939 939 958.5 Q 974 978 1013 967 Q 1057 953 1077.5 909 Q 1098 865 1081 813 Q 1061 754 997 728 Q 964 715 897 707 Q 953 602 953 475 Q 953 348 894 226 Q 832 98 732 36 Q 628 -28 501 -28 Q 294 -28 172 137 Q 69 276 69 449 Q 69 577 132.5 701 Q 196 825 297 884 Q 398 943 512 943 Q 720 943 846 785 Q 862 765 875 744 Q 895 746 942 761 Z M 507 -120 Q 554 -120 586 -152.5 Q 618 -185 618 -231 Q 618 -277 585.5 -309.5 Q 553 -342 507 -342 Q 461 -342 428.5 -309.5 Q 396 -277 396 -231 Q 396 -184 428.5 -152 Q 461 -120 507 -120 Z "/></defs><defs class="clip-path"></defs><style type="text/css"></style><g class="typst-page" transform="translate(0, 0)" data-tid="pTwP1n/1miTcwEqHqZ3P9XQ" data-page-width="300" data-page-height="40"><g data-tid="gTwP1n/1miTcwEqHqZ3P9XQ" class="typst-group"><g transform="translate(0.000,0.000)" data-tid="plNCeLO0vqL0QCq7e/hcpak"><g data-tid="glNCeLO0vqL0QCq7e/hcpak"><path class="typst-shape" d="M 0 0 L 0 39.945313 L 300 39.945313 L 300 0 Z " fill-rule="nonzero" fill="#fff" /></g></g><g transform="translate(8.000,8.000)" data-tid="pIGO1/tiiGmM49tGqK7rlbE"><g data-tid="gIGO1/tiiGmM49tGqK7rlbE" class="typst-group"><g transform="translate(-0.000,-0.000)" data-tid="pfpc+JN9TbIQ5wB8tN6c8AM"><g data-tid="gfpc+JN9TbIQ5wB8tN6c8AM"><path class="typst-shape" d="M 0 0 L 0 23.945313 L 237.1851 23.945313 L 237.1851 0 Z " stroke-width="0.5" stroke-miterlimit="4" fill-rule="nonzero" fill="none" stroke="#000" /></g></g><g transform="translate(28.346,15.945)" data-tid="pnGbr8ayaMaQTDWvCEZi0I8"><g data-tid="gnGbr8ayaMaQTDWvCEZi0I8" class="typst-text" fill="#000" transform="scale(0.005859375,-0.005859375)"><use x="0" y="0" href="#gM22VLDE"/><use x="1479" y="0" href="#gM22VLN0E"/><use x="2503" y="0" href="#gM22VLEw"/><use x="3072" y="0" href="#gM22VLAM"/><use x="3584" y="0" href="#gM22VLEc"/><use x="4608" y="0" href="#gM22VLFg"/><use x="5632" y="0" href="#gM22VLFE"/><use x="6656" y="0" href="#gM22VLEo"/><use x="7680" y="0" href="#gM22VLAM"/><use x="8192" y="0" href="#gM22VLP8"/><use x="9216" y="0" href="#gM22VLG0E"/><use x="10326" y="0" href="#gM22VLOcE"/><use x="11409" y="0" href="#gM22VLEY"/><use x="12318" y="0" href="#gM22VLAM"/><use x="12830" y="0" href="#gM22VLP8"/><use x="13854" y="0" href="#gM22VLMsE"/><use x="14763" y="0" href="#gM22VLFA"/><use x="16356" y="0" href="#gM22VLAM"/><use x="16868" y="0" href="#gM22VLEU"/><use x="17892" y="0" href="#gM22VLHI"/><use x="18801" y="0" href="#gM22VLFE"/><use x="19825" y="0" href="#gM22VLAM"/><use x="20337" y="0" href="#gM22VLFc"/><use x="20906" y="0" href="#gM22VLFU"/><use x="21588" y="0" href="#gM22VLFI"/><use x="22612" y="0" href="#gM22VLFE"/><use x="23636" y="0" href="#gM22VLEo"/><use x="24660" y="0" href="#gM22VLAM"/><use x="25172" y="0" href="#gM22VLE4"/><use x="26196" y="0" href="#gM22VLEs"/><use x="27220" y="0" href="#gM22VLFg"/><use x="28244" y="0" href="#gM22VLFE"/><use x="29268" y="0" href="#gM22VLEo"/><use x="30292" y="0" href="#gM22VLBE"/><g transform="scale(16,-16)"><foreignObject x="0" y="-88.75" width="1925.25" height="128.00"><h5:div class="tsel" style="font-size: 128px">Nội dung được đệm bên trong khung.</h5:div></foreignObject></g></g></g></g></g></g></g></svg>