<svg style="overflow: visible;" class="typst-doc" viewBox="0 0 300.000 44.000" width="300.000" height="44.000" data-width="300.000" data-height="44.000" xmlns="http://www.w3.org/2000/svg" xmlns:xlink="http://www.w3.org/1999/xlink" xmlns:h5="http://www.w3.org/1999/xhtml"><style type="text/css">.typst-text {
  pointer-events: bounding-box;
}

.tsel span,
.tsel {
  left: 0;
  position: fixed;
  text-align: justify;
  white-space: nowrap;
  width: 100%;
  height: 100%;
  text-align-last: justify;
  color: transparent;
  white-space: pre;
}
.tsel span::-moz-selection,
.tsel::-moz-selection {
  color: transparent;
  background: #7db9dea0;
}
.tsel span::selection,
.tsel::selection {
  color: transparent;
  background: #7db9dea0;
}
.pseudo-link {
  fill: transparent;
  cursor: pointer;
  pointer-events: all;
}
svg {
  fill: none;
}

.outline_glyph path,
path.outline_glyph {
  fill: var(--glyph_fill);
  stroke: var(--glyph_stroke);
}

.outline_glyph path,
path.outline_glyph {
  transition: 0.2s fill stroke;
}
.hover .typst-text {
  --glyph_fill: #66bab7;
  --glyph_stroke: #66bab7;
}

.typst-jump-ripple,
.typst-debug-react-ripple {
  width: 0;
  height: 0;
  background-color: transparent;
  position: absolute;
  border-radius: 50%;
}
.typst-jump-ripple {
  border: 1px solid #66bab7;
}
.typst-debug-react-ripple {
  border: 1px solid #cb1b45;
}
@keyframes typst-jump-ripple-effect {
  to {
    width: 10vw;
    height: 10vw;
    opacity: 0.01;
    margin: -5vw;
  }
}
@keyframes typst-debug-react-ripple-effect {
  to {
    width: 3vw;
    height: 3vw;
    opacity: 0.01;
    margin: -1.5vw;
  }
}
</style><defs class="glyph"><path id="gM22VLA8" class="outline_glyph" d="M 110 -341 L 110 -297 Q 213 -263 269.5 -191.5 Q 326 -120 326 -40 Q 326 -21 317 -8 Q 310 1 303 1 Q 292 1 255 -19 Q 237 -28 217 -28 Q 168 -28 139 1 Q 110 30 110 81 Q 110 130 147.5 165 Q 185 200 239 200 Q 305 200 356.5 142.5 Q 408 85 408 -10 Q 408 -113 336.5 -201.5 Q 265 -290 110 -341 Z "/><path id="gM22VLBE" class="outline_glyph" d="M 256 194 Q 303 194 335 161.5 Q 367 129 367 83 Q 367 37 334.5 4.5 Q 302 -28 256 -28 Q 210 -28 177.5 4.5 Q 145 37 145 83 Q 145 130 177.5 162 Q 210 194 256 194 Z "/><path id="gM22VLC4" class="outline_glyph" d="M 612 752 L 1112 255 Q 1235 132 1322 87.5 Q 1409 43 1496 37 L 1496 0 L 851 0 L 851 37 Q 909 37 934.5 56.5 Q 960 76 960 100 Q 960 124 950.5 143 Q 941 162 888 214 L 420 677 L 420 240 Q 420 137 433 104 Q 443 79 475 61 Q 518 37 566 37 L 612 37 L 612 0 L 34 0 L 34 37 L 82 37 Q 166 37 204 86 Q 228 118 228 240 L 228 1116 Q 228 1219 215 1253 Q 205 1277 174 1295 Q 130 1319 82 1319 L 34 1319 L 34 1356 L 612 1356 L 612 1319 L 566 1319 Q 519 1319 475 1296 Q 444 1280 432 1248 Q 420 1216 420 1116 L 420 701 Q 440 720 557 828 Q 854 1100 916 1191 Q 943 1231 943 1261 Q 943 1284 922 1301.5 Q 901 1319 851 1319 L 820 1319 L 820 1356 L 1318 1356 L 1318 1319 Q 1274 1318 1238 1307 Q 1202 1296 1150 1264.5 Q 1098 1233 1022 1163 Q 1000 1143 819 958 L 612 752 Z "/><path id="gM22VLEU" class="outline_glyph" d="M 315 758 Q 448 943 602 943 Q 743 943 848 822.5 Q 953 702 953 493 Q 953 249 791 100 Q 652 -28 481 -28 Q 401 -28 318.5 1 Q 236 30 150 88 L 150 1037 Q 150 1193 142.5 1229 Q 135 1265 119 1278 Q 103 1291 79 1291 Q 51 1291 9 1275 L -5 1310 L 270 1422 L 315 1422 L 315 758 Z M 315 694 L 315 146 Q 366 96 420.5 70.5 Q 475 45 532 45 Q 623 45 701.5 145 Q 780 245 780 436 Q 780 612 701.5 706.5 Q 623 801 523 801 Q 470 801 417 774 Q 377 754 315 694 Z "/><path id="gM22VLEY" class="outline_glyph" d="M 842 348 Q 805 167 697 69.5 Q 589 -28 458 -28 Q 302 -28 186 103 Q 70 234 70 457 Q 70 673 198.5 808 Q 327 943 507 943 Q 642 943 729 871.5 Q 816 800 816 723 Q 816 685 791.5 661.5 Q 767 638 723 638 Q 664 638 634 676 Q 617 697 611.5 756 Q 606 815 571 846 Q 536 876 474 876 Q 374 876 313 802 Q 232 704 232 543 Q 232 379 312.5 253.5 Q 393 128 530 128 Q 628 128 706 195 Q 761 241 813 362 L 842 348 Z "/><path id="gM22VLEo" class="outline_glyph" d="M 309 334 Q 225 375 180 448.5 Q 135 522 135 611 Q 135 747 237.5 845 Q 340 943 500 943 Q 631 943 727 879 L 921 879 Q 964 879 971 876.5 Q 978 874 981 868 Q 987 859 987 836 Q 987 810 982 800 Q 979 795 971.5 792 Q 964 789 921 789 L 802 789 Q 858 717 858 605 Q 858 477 760 386 Q 662 295 497 295 Q 429 295 358 315 Q 314 277 298.5 248.5 Q 283 220 283 200 Q 283 183 299.5 167 Q 316 151 364 144 Q 392 140 504 137 Q 710 132 771 123 Q 864 110 919.5 54 Q 975 -2 975 -84 Q 975 -197 869 -296 Q 713 -442 462 -442 Q 269 -442 136 -355 Q 61 -305 61 -251 Q 61 -227 72 -203 Q 89 -166 142 -100 Q 149 -91 244 8 Q 192 39 170.5 63.5 Q 149 88 149 119 Q 149 154 177.5 201 Q 206 248 309 334 Z M 483 895 Q 409 895 359 836 Q 309 777 309 655 Q 309 497 377 410 Q 429 344 509 344 Q 585 344 634 401 Q 683 458 683 580 Q 683 739 614 829 Q 563 895 483 895 Z M 299 0 Q 252 -51 228 -95 Q 204 -139 204 -176 Q 204 -224 262 -260 Q 362 -322 551 -322 Q 731 -322 816.5 -258.5 Q 902 -195 902 -123 Q 902 -71 851 -49 Q 799 -27 645 -23 Q 420 -17 299 0 Z "/><path id="gM22VLEs" class="outline_glyph" d="M 333 1422 L 333 752 Q 444 874 509 908.5 Q 574 943 639 943 Q 717 943 773 900 Q 829 857 856 765 Q 875 701 875 531 L 875 207 Q 875 120 889 88 Q 899 64 923 50 Q 947 36 1011 36 L 1011 0 L 561 0 L 561 36 L 582 36 Q 646 36 671 55.5 Q 696 75 706 113 Q 709 129 709 207 L 709 531 Q 709 681 693.5 728 Q 678 775 644 798.5 Q 610 822 562 822 Q 513 822 460 796 Q 407 770 333 691 L 333 207 Q 333 113 343.5 90 Q 354 67 382.5 51.5 Q 411 36 481 36 L 481 0 L 27 0 L 27 36 Q 88 36 123 55 Q 143 65 155 93 Q 167 121 167 207 L 167 1036 Q 167 1193 159.5 1229 Q 152 1265 136.5 1278 Q 121 1291 95 1291 Q 74 1291 27 1275 L 13 1310 L 287 1422 L 333 1422 Z "/><path id="gM22VLEw" class="outline_glyph" d="M 297 1422 Q 339 1422 368.5 1392.5 Q 398 1363 398 1321 Q 398 1279 368.5 1249 Q 339 1219 297 1219 Q 255 1219 225 1249 Q 195 1279 195 1321 Q 195 1363 224.5 1392.5 Q 254 1422 297 1422 Z M 380 943 L 380 207 Q 380 121 392.5 92.5 Q 405 64 429.5 50 Q 454 36 519 36 L 519 0 L 74 0 L 74 36 Q 141 36 164 49 Q 187 62 200.5 92 Q 214 122 214 207 L 214 560 Q 214 709 205 753 Q 198 785 183 797.5 Q 168 810 142 810 Q 114 810 74 795 L 60 831 L 336 943 L 380 943 Z "/><path id="gM22VLFE" class="outline_glyph" d="M 331 749 Q 492 943 638 943 Q 713 943 767 905.5 Q 821 868 853 782 Q 875 722 875 598 L 875 207 Q 875 120 889 89 Q 900 64 924.5 50 Q 949 36 1015 36 L 1015 0 L 562 0 L 562 36 L 581 36 Q 645 36 670.5 55.5 Q 696 75 706 113 Q 710 128 710 207 L 710 582 Q 710 707 677.5 763.5 Q 645 820 568 820 Q 449 820 331 690 L 331 207 Q 331 114 342 92 Q 356 63 380.5 49.5 Q 405 36 480 36 L 480 0 L 27 0 L 27 36 L 47 36 Q 117 36 141.5 71.5 Q 166 107 166 207 L 166 547 Q 166 712 158.5 748 Q 151 784 135.5 797 Q 120 810 94 810 Q 66 810 27 795 L 12 831 L 288 943 L 331 943 L 331 749 Z "/><path id="gM22VLFI" class="outline_glyph" d="M 512 943 Q 720 943 846 785 Q 953 650 953 475 Q 953 352 894 226 Q 835 100 731.5 36 Q 628 -28 501 -28 Q 294 -28 172 137 Q 69 276 69 449 Q 69 575 131.5 699.5 Q 194 824 296 883.5 Q 398 943 512 943 Z M 481 878 Q 428 878 374.5 846.5 Q 321 815 288 736 Q 255 657 255 533 Q 255 333 334.5 188 Q 414 43 544 43 Q 641 43 704 123 Q 767 203 767 398 Q 767 642 662 782 Q 591 878 481 878 Z "/><path id="gM22VLFk" class="outline_glyph" d="M 17 916 L 448 916 L 448 879 L 420 879 Q 381 879 360.5 860 Q 340 841 340 809 Q 340 774 361 726 L 574 220 L 788 745 Q 811 801 811 830 Q 811 844 803 853 Q 792 868 775 873.5 Q 758 879 706 879 L 706 916 L 1005 916 L 1005 879 Q 953 875 933 858 Q 898 828 870 758 L 545 -28 L 504 -28 L 177 745 Q 155 799 135 822.5 Q 115 846 84 862 Q 67 871 17 879 L 17 916 Z "/><path id="gM22VLGo" class="outline_glyph" d="M 583 132 Q 442 23 406 6 Q 352 -19 291 -19 Q 196 -19 134.5 46 Q 73 111 73 217 Q 73 284 103 333 Q 144 401 245.5 461 Q 347 521 583 607 L 583 643 Q 583 780 539.5 831 Q 496 882 413 882 Q 350 882 313 848 Q 275 814 275 770 L 277 712 Q 277 666 253.5 641 Q 230 616 192 616 Q 155 616 131.5 642 Q 108 668 108 713 Q 108 799 196 871 Q 284 943 443 943 Q 565 943 643 902 Q 702 871 730 805 Q 748 762 748 629 L 748 318 Q 748 187 753 157.5 Q 758 128 769.5 118 Q 781 108 796 108 Q 812 108 824 115 Q 845 128 905 188 L 905 132 Q 793 -18 691 -18 Q 642 -18 613 16 Q 584 50 583 132 Z M 583 197 L 583 546 Q 432 486 388 461 Q 309 417 275 369 Q 241 321 241 264 Q 241 192 284 144.5 Q 327 97 383 97 Q 459 97 583 197 Z M 260 1390 L 483 1390 L 589 1045 L 554 1045 L 260 1390 Z "/><path id="gM22VLHk" class="outline_glyph" d="M 512 943 Q 720 943 846 785 Q 953 650 953 475 Q 953 352 894 226 Q 835 100 731.5 36 Q 628 -28 501 -28 Q 294 -28 172 137 Q 69 276 69 449 Q 69 575 131.5 699.5 Q 194 824 296 883.5 Q 398 943 512 943 Z M 481 878 Q 428 878 374.5 846.5 Q 321 815 288 736 Q 255 657 255 533 Q 255 333 334.5 188 Q 414 43 544 43 Q 641 43 704 123 Q 767 203 767 398 Q 767 642 662 782 Q 591 878 481 878 Z M 723 1390 L 428 1045 L 394 1045 L 499 1390 L 723 1390 Z "/><path id="gM22VLMUE" class="outline_glyph" d="M 218 571 Q 217 367 317 251 Q 417 135 552 135 Q 642 135 708.5 184.5 Q 775 234 820 354 L 851 334 Q 830 197 729 84.5 Q 628 -28 476 -28 Q 311 -28 193.5 100.5 Q 76 229 76 446 Q 76 681 196.5 812.5 Q 317 944 499 944 Q 653 944 752 842.5 Q 851 741 851 571 L 218 571 Z M 218 629 L 642 629 Q 637 717 621 753 Q 596 809 546.5 841 Q 497 873 443 873 Q 360 873 294.5 808.5 Q 229 744 218 629 Z M 403 1385 L 587 1385 L 777 1054 L 746 1054 L 473 1267 L 244 1054 L 214 1054 L 403 1385 Z M 258 1825 L 481 1825 L 587 1491 L 552 1491 L 258 1825 Z "/><path id="gM22VLNUE" class="outline_glyph" d="M 512 943 Q 720 943 846 785 Q 953 650 953 475 Q 953 352 894 226 Q 835 100 731.5 36 Q 628 -28 501 -28 Q 294 -28 172 137 Q 69 276 69 449 Q 69 575 131.5 699.5 Q 194 824 296 883.5 Q 398 943 512 943 Z M 481 878 Q 428 878 374.5 846.5 Q 321 815 288 736 Q 255 657 255 533 Q 255 333 334.5 188 Q 414 43 544 43 Q 641 43 704 123 Q 767 203 767 398 Q 767 642 662 782 Q 591 878 481 878 Z M 431 1385 L 615 1385 L 805 1054 L 774 1054 L 501 1267 L 272 1054 L 242 1054 L 431 1385 Z M 466 1491 L 431 1491 L 537 1825 L 760 1825 L 466 1491 Z "/></defs><defs class="clip-path"></defs><style type="text/css"></style><g class="typst-page" transform="translate(0, 0)" data-tid="pt4m2jgXqjzcLvgKMUDRDnc" data-page-width="300" data-page-height="44"><g data-tid="gt4m2jgXqjzcLvgKMUDRDnc" class="typst-group"><g transform="translate(0.000,0.000)" data-tid="pnK1vvtzsQ847q+sEfuX4g"><g data-tid="gnK1vvtzsQ847q+sEfuX4g"><path class="typst-shape" d="M 0 0 L 0 43.945313 L 300 43.945313 L 300 0 Z " fill-rule="nonzero" fill="#fff" /></g></g><g transform="translate(8.000,8.000)" data-tid="pLTw3/R0dGtkhe+v2QOlVM8"><g data-tid="gLTw3/R0dGtkhe+v2QOlVM8" class="typst-group"><g transform="translate(-0.000,-0.000)" data-tid="p8LXmuUlAGN4ff6zvZXTYws"><g data-tid="g8LXmuUlAGN4ff6zvZXTYws"><path class="typst-shape" d="M 0 0 M 0 5.5 C 0 2.4624338 2.4624338 0 5.5 0 L 152.46484 0 C 155.50241 0 157.96484 2.4624338 157.96484 5.5 L 157.96484 22.445313 C 157.96484 25.482878 155.50241 27.945313 152.46484 27.945313 L 5.5 27.945313 C 2.4624338 27.945313 0 25.482878 0 22.445313 Z " fill-rule="nonzero" fill="#cce3f7" /></g></g><g transform="translate(-0.000,-0.000)" data-tid="pJQOboK/VdeQxyg9YYhkyew"><g data-tid="gJQOboK/VdeQxyg9YYhkyew"><path class="typst-shape" d="M 0 0 M 5.5 0 L 152.46484 0 C 155.50241 0 157.96484 2.4624338 157.96484 5.5 L 157.96484 22.445313 C 157.96484 25.482878 155.50241 27.945313 152.46484 27.945313 L 5.5 27.945313 C 2.4624338 27.945313 0 25.482878 0 22.445313 L 0 5.5 C 0 2.4624338 2.4624338 0 5.5 0 " stroke-width="1" stroke-miterlimit="4" fill-rule="nonzero" fill="none" stroke="#0074d9" /></g></g><g transform="translate(10.000,17.945)" data-tid="pwl1u9hN5jws3irYQZls5SY"><g data-tid="gwl1u9hN5jws3irYQZls5SY" class="typst-text" fill="#000" transform="scale(0.005859375,-0.005859375)"><use x="0" y="0" href="#gM22VLC4"/><use x="1479" y="0" href="#gM22VLEs"/><use x="2503" y="0" href="#gM22VLNUE"/><use x="3527" y="0" href="#gM22VLEw"/><use x="4096" y="0" href="#gM22VLAM"/><use x="4608" y="0" href="#gM22VLEY"/><use x="5517" y="0" href="#gM22VLHk"/><use x="6541" y="0" href="#gM22VLAM"/><use x="7053" y="0" href="#gM22VLFE"/><use x="8077" y="0" href="#gM22VLMUE"/><use x="8986" y="0" href="#gM22VLFE"/><use x="10010" y="0" href="#gM22VLA8"/><use x="10522" y="0" href="#gM22VLAM"/><use x="11034" y="0" href="#gM22VLFk"/><use x="12058" y="0" href="#gM22VLEw"/><use x="12627" y="0" href="#gM22VLMUE"/><use x="13536" y="0" href="#gM22VLFE"/><use x="14560" y="0" href="#gM22VLAM"/><use x="15072" y="0" href="#gM22VLFk"/><use x="16096" y="0" href="#gM22VLGo"/><use x="17005" y="0" href="#gM22VLAM"/><use x="17517" y="0" href="#gM22VLEU"/><use x="18541" y="0" href="#gM22VLFI"/><use x="19565" y="0" href="#gM22VLAM"/><use x="20077" y="0" href="#gM22VLEo"/><use x="21101" y="0" href="#gM22VLHk"/><use x="22125" y="0" href="#gM22VLEY"/><use x="23034" y="0" href="#gM22VLBE"/><g transform="scale(16,-16)"><foreignObject x="0" y="-88.75" width="1471.62" height="128.00"><h5:div class="tsel" style="font-size: 128px">Khối có nền, viền và bo góc.</h5:div></foreignObject></g></g></g></g></g></g></g></svg>