<svg style="overflow: visible;" class="typst-doc" viewBox="0 0 158.000 85.000" width="158.000" height="85.000" data-width="158.000" data-height="85.000" xmlns="http://www.w3.org/2000/svg" xmlns:xlink="http://www.w3.org/1999/xlink" xmlns:h5="http://www.w3.org/1999/xhtml"><style type="text/css">.typst-text {
  pointer-events: bounding-box;
}

.tsel span,
.tsel {
  left: 0;
  position: fixed;
  text-align: justify;
  white-space: nowrap;
  width: 100%;
  height: 100%;
  text-align-last: justify;
  color: transparent;
  white-space: pre;
}
.tsel span::-moz-selection,
.tsel::-moz-selection {
  color: transparent;
  background: #7db9dea0;
}
.tsel span::selection,
.tsel::selection {
  color: transparent;
  background: #7db9dea0;
}
.pseudo-link {
  fill: transparent;
  cursor: pointer;
  pointer-events: all;
}
svg {
  fill: none;
}

.outline_glyph path,
path.outline_glyph {
  fill: var(--glyph_fill);
  stroke: var(--glyph_stroke);
}

.outline_glyph path,
path.outline_glyph {
  transition: 0.2s fill stroke;
}
.hover .typst-text {
  --glyph_fill: #66bab7;
  --glyph_stroke: #66bab7;
}

.typst-jump-ripple,
.typst-debug-react-ripple {
  width: 0;
  height: 0;
  background-color: transparent;
  position: absolute;
  border-radius: 50%;
}
.typst-jump-ripple {
  border: 1px solid #66bab7;
}
.typst-debug-react-ripple {
  border: 1px solid #cb1b45;
}
@keyframes typst-jump-ripple-effect {
  to {
    width: 10vw;
    height: 10vw;
    opacity: 0.01;
    margin: -5vw;
  }
}
@keyframes typst-debug-react-ripple-effect {
  to {
    width: 3vw;
    height: 3vw;
    opacity: 0.01;
    margin: -1.5vw;
  }
}
</style><defs class="glyph"><path id="gM22VLDE" class="outline_glyph" d="M -27 1356 L 341 1356 L 1170 339 L 1170 1121 Q 1170 1246 1142 1277 Q 1105 1319 1025 1319 L 978 1319 L 978 1356 L 1450 1356 L 1450 1319 L 1402 1319 Q 1316 1319 1280 1267 Q 1258 1235 1258 1121 L 1258 -22 L 1222 -22 L 328 1070 L 328 235 Q 328 110 355 79 Q 393 37 472 37 L 520 37 L 520 0 L 48 0 L 48 37 L 95 37 Q 182 37 218 89 Q 240 121 240 235 L 240 1178 Q 181 1247 150.5 1269 Q 120 1291 61 1310 Q 32 1319 -27 1319 L -27 1356 Z "/><path id="gM22VLEY" class="outline_glyph" d="M 842 348 Q 805 167 697 69.5 Q 589 -28 458 -28 Q 302 -28 186 103 Q 70 234 70 457 Q 70 673 198.5 808 Q 327 943 507 943 Q 642 943 729 871.5 Q 816 800 816 723 Q 816 685 791.5 661.5 Q 767 638 723 638 Q 664 638 634 676 Q 617 697 611.5 756 Q 606 815 571 846 Q 536 876 474 876 Q 374 876 313 802 Q 232 704 232 543 Q 232 379 312.5 253.5 Q 393 128 530 128 Q 628 128 706 195 Q 761 241 813 362 L 842 348 Z "/><path id="gM22VLEc" class="outline_glyph" d="M 711 103 Q 644 33 580 2.5 Q 516 -28 442 -28 Q 292 -28 180 97.5 Q 68 223 68 420 Q 68 617 192 780.5 Q 316 944 511 944 Q 632 944 711 867 L 711 1036 Q 711 1193 703.5 1229 Q 696 1265 680 1278 Q 664 1291 640 1291 Q 614 1291 571 1275 L 558 1310 L 831 1422 L 876 1422 L 876 363 Q 876 202 883.5 166.5 Q 891 131 907.5 117 Q 924 103 946 103 Q 973 103 1018 120 L 1029 85 L 757 -28 L 711 -28 L 711 103 Z M 711 173 L 711 645 Q 705 713 675 769 Q 645 825 595.5 853.5 Q 546 882 499 882 Q 411 882 342 803 Q 251 699 251 499 Q 251 297 339 189.5 Q 427 82 535 82 Q 626 82 711 173 Z "/><path id="gM22VLEo" class="outline_glyph" d="M 309 334 Q 225 375 180 448.5 Q 135 522 135 611 Q 135 747 237.5 845 Q 340 943 500 943 Q 631 943 727 879 L 921 879 Q 964 879 971 876.5 Q 978 874 981 868 Q 987 859 987 836 Q 987 810 982 800 Q 979 795 971.5 792 Q 964 789 921 789 L 802 789 Q 858 717 858 605 Q 858 477 760 386 Q 662 295 497 295 Q 429 295 358 315 Q 314 277 298.5 248.5 Q 283 220 283 200 Q 283 183 299.5 167 Q 316 151 364 144 Q 392 140 504 137 Q 710 132 771 123 Q 864 110 919.5 54 Q 975 -2 975 -84 Q 975 -197 869 -296 Q 713 -442 462 -442 Q 269 -442 136 -355 Q 61 -305 61 -251 Q 61 -227 72 -203 Q 89 -166 142 -100 Q 149 -91 244 8 Q 192 39 170.5 63.5 Q 149 88 149 119 Q 149 154 177.5 201 Q 206 248 309 334 Z M 483 895 Q 409 895 359 836 Q 309 777 309 655 Q 309 497 377 410 Q 429 344 509 344 Q 585 344 634 401 Q 683 458 683 580 Q 683 739 614 829 Q 563 895 483 895 Z M 299 0 Q 252 -51 228 -95 Q 204 -139 204 -176 Q 204 -224 262 -260 Q 362 -322 551 -322 Q 731 -322 816.5 -258.5 Q 902 -195 902 -123 Q 902 -71 851 -49 Q 799 -27 645 -23 Q 420 -17 299 0 Z "/><path id="gM22VLEs" class="outline_glyph" d="M 333 1422 L 333 752 Q 444 874 509 908.5 Q 574 943 639 943 Q 717 943 773 900 Q 829 857 856 765 Q 875 701 875 531 L 875 207 Q 875 120 889 88 Q 899 64 923 50 Q 947 36 1011 36 L 1011 0 L 561 0 L 561 36 L 582 36 Q 646 36 671 55.5 Q 696 75 706 113 Q 709 129 709 207 L 709 531 Q 709 681 693.5 728 Q 678 775 644 798.5 Q 610 822 562 822 Q 513 822 460 796 Q 407 770 333 691 L 333 207 Q 333 113 343.5 90 Q 354 67 382.5 51.5 Q 411 36 481 36 L 481 0 L 27 0 L 27 36 Q 88 36 123 55 Q 143 65 155 93 Q 167 121 167 207 L 167 1036 Q 167 1193 159.5 1229 Q 152 1265 136.5 1278 Q 121 1291 95 1291 Q 74 1291 27 1275 L 13 1310 L 287 1422 L 333 1422 Z "/><path id="gM22VLEw" class="outline_glyph" d="M 297 1422 Q 339 1422 368.5 1392.5 Q 398 1363 398 1321 Q 398 1279 368.5 1249 Q 339 1219 297 1219 Q 255 1219 225 1249 Q 195 1279 195 1321 Q 195 1363 224.5 1392.5 Q 254 1422 297 1422 Z M 380 943 L 380 207 Q 380 121 392.5 92.5 Q 405 64 429.5 50 Q 454 36 519 36 L 519 0 L 74 0 L 74 36 Q 141 36 164 49 Q 187 62 200.5 92 Q 214 122 214 207 L 214 560 Q 214 709 205 753 Q 198 785 183 797.5 Q 168 810 142 810 Q 114 810 74 795 L 60 831 L 336 943 L 380 943 Z "/><path id="gM22VLFE" class="outline_glyph" d="M 331 749 Q 492 943 638 943 Q 713 943 767 905.5 Q 821 868 853 782 Q 875 722 875 598 L 875 207 Q 875 120 889 89 Q 900 64 924.5 50 Q 949 36 1015 36 L 1015 0 L 562 0 L 562 36 L 581 36 Q 645 36 670.5 55.5 Q 696 75 706 113 Q 710 128 710 207 L 710 582 Q 710 707 677.5 763.5 Q 645 820 568 820 Q 449 820 331 690 L 331 207 Q 331 114 342 92 Q 356 63 380.5 49.5 Q 405 36 480 36 L 480 0 L 27 0 L 27 36 L 47 36 Q 117 36 141.5 71.5 Q 166 107 166 207 L 166 547 Q 166 712 158.5 748 Q 151 784 135.5 797 Q 120 810 94 810 Q 66 810 27 795 L 12 831 L 288 943 L 331 943 L 331 749 Z "/><path id="gM22VLFg" class="outline_glyph" d="M 867 916 L 867 361 Q 867 202 874.5 166.5 Q 882 131 898.5 117 Q 915 103 937 103 Q 968 103 1007 120 L 1021 85 L 747 -28 L 702 -28 L 702 166 Q 584 38 522 5 Q 460 -28 391 -28 Q 314 -28 257.5 16.5 Q 201 61 179 131 Q 157 201 157 329 L 157 738 Q 157 803 143 828 Q 129 853 101.5 866.5 Q 74 880 2 879 L 2 916 L 323 916 L 323 303 Q 323 175 367.5 135 Q 412 95 475 95 Q 518 95 572.5 122 Q 627 149 702 225 L 702 744 Q 702 822 673.5 849.5 Q 645 877 555 879 L 555 916 L 867 916 Z "/><path id="gM22VLHQ" class="outline_glyph" d="M 379 943 L 379 207 Q 379 121 392 92.5 Q 405 64 429.5 50 Q 454 36 519 36 L 519 0 L 74 0 L 74 36 Q 141 36 164 49 Q 187 62 200.5 92 Q 214 122 214 207 L 214 560 Q 214 709 205 753 Q 198 785 183 797.5 Q 168 810 142 810 Q 114 810 74 795 L 60 831 L 336 943 L 379 943 Z M 498 1390 L 203 1045 L 169 1045 L 274 1390 L 498 1390 Z "/><path id="gM22VLHk" class="outline_glyph" d="M 512 943 Q 720 943 846 785 Q 953 650 953 475 Q 953 352 894 226 Q 835 100 731.5 36 Q 628 -28 501 -28 Q 294 -28 172 137 Q 69 276 69 449 Q 69 575 131.5 699.5 Q 194 824 296 883.5 Q 398 943 512 943 Z M 481 878 Q 428 878 374.5 846.5 Q 321 815 288 736 Q 255 657 255 533 Q 255 333 334.5 188 Q 414 43 544 43 Q 641 43 704 123 Q 767 203 767 398 Q 767 642 662 782 Q 591 878 481 878 Z M 723 1390 L 428 1045 L 394 1045 L 499 1390 L 723 1390 Z "/><path id="gM22VLN0E" class="outline_glyph" d="M 512 943 Q 720 943 846 785 Q 953 650 953 475 Q 953 352 894 226 Q 835 100 731.5 36 Q 628 -28 501 -28 Q 294 -28 172 137 Q 69 276 69 449 Q 69 575 131.5 699.5 Q 194 824 296 883.5 Q 398 943 512 943 Z M 481 878 Q 428 878 374.5 846.5 Q 321 815 288 736 Q 255 657 255 533 Q 255 333 334.5 188 Q 414 43 544 43 Q 641 43 704 123 Q 767 203 767 398 Q 767 642 662 782 Q 591 878 481 878 Z M 431 1385 L 615 1385 L 805 1054 L 774 1054 L 501 1267 L 272 1054 L 242 1054 L 431 1385 Z M 507 -120 Q 554 -120 586 -152.5 Q 618 -185 618 -231 Q 618 -277 585.5 -309.5 Q 553 -342 507 -342 Q 461 -342 428.5 -309.5 Q 396 -277 396 -231 Q 396 -184 428.5 -152 Q 461 -120 507 -120 Z "/></defs><defs class="clip-path"></defs><style type="text/css"></style><g class="typst-page" transform="translate(0, 0)" data-tid="p3tdaR5gfQBgyAL5WoLfq2Y" data-page-width="158" data-page-height="85"><g data-tid="g3tdaR5gfQBgyAL5WoLfq2Y" class="typst-group"><g transform="translate(0.000,0.000)" data-tid="p/OLsoId+oFUqrj0aFcyYqI"><g data-tid="g/OLsoId+oFUqrj0aFcyYqI"><path class="typst-shape" d="M 0 0 L 0 84.031494 L 157.73228 84.031494 L 157.73228 0 Z " fill-rule="nonzero" fill="#fff" /></g></g><g transform="translate(8.000,8.000)" data-tid="p8I4gWKEJJBIZqI04Eb0Hm4"><g data-tid="g8I4gWKEJJBIZqI04Eb0Hm4" class="typst-group"><g transform="translate(-0.000,-0.000)" data-tid="pfBV/Ca5kBQInHEakZ+7WZM"><g data-tid="gfBV/Ca5kBQInHEakZ+7WZM"><path class="typst-shape" d="M 0 0 L 0 68.031494 L 141.73228 68.031494 L 141.73228 0 Z " stroke-width="0.5" stroke-miterlimit="4" fill-rule="nonzero" fill="none" stroke="#b4b4b4" /></g></g><g transform="translate(116.406,13.945)" data-tid="pTbkl0MrTenIkcS6jCOlfn4"><g data-tid="gTbkl0MrTenIkcS6jCOlfn4" class="typst-text" fill="#ff4136" transform="scale(0.005859375,-0.005859375)"><use x="0" y="0" href="#gM22VLEo"/><use x="1024" y="0" href="#gM22VLHk"/><use x="2048" y="0" href="#gM22VLEY"/><g transform="scale(16,-16)"><foreignObject x="0" y="-88.75" width="184.81" height="128.00"><h5:div class="tsel" style="font-size: 128px">góc</h5:div></foreignObject></g></g></g><g transform="translate(6.000,6.000)" data-tid="p0HHPx3n0i109N5YCnYjGfc"><g data-tid="g0HHPx3n0i109N5YCnYjGfc" class="typst-group"><g transform="translate(0.000,7.945)" data-tid="peEem/rMyxhIGbXkwbMxFzk"><g data-tid="geEem/rMyxhIGbXkwbMxFzk" class="typst-text" fill="#000" transform="scale(0.005859375,-0.005859375)"><use x="0" y="0" href="#gM22VLDE"/><use x="1479" y="0" href="#gM22VLN0E"/><use x="2503" y="0" href="#gM22VLEw"/><use x="3072" y="0" href="#gM22VLAM"/><use x="3584" y="0" href="#gM22VLEc"/><use x="4608" y="0" href="#gM22VLFg"/><use x="5632" y="0" href="#gM22VLFE"/><use x="6656" y="0" href="#gM22VLEo"/><use x="7680" y="0" href="#gM22VLAM"/><use x="8192" y="0" href="#gM22VLEY"/><use x="9101" y="0" href="#gM22VLEs"/><use x="10125" y="0" href="#gM22VLHQ"/><use x="10694" y="0" href="#gM22VLFE"/><use x="11718" y="0" href="#gM22VLEs"/><g transform="scale(16,-16)"><foreignObject x="0" y="-88.75" width="796.38" height="128.00"><h5:div class="tsel" style="font-size: 128px">Nội dung chính</h5:div></foreignObject></g></g></g><g transform="translate(0.000,0.000)" data-tid="pDgsjYLTg9DIxe7neLL45F8"><g data-tid="gDgsjYLTg9DIxe7neLL45F8" class="typst-content-hint" data-hint="a"></g></g></g></g></g></g></g></g></svg>