<svg style="overflow: visible;" class="typst-doc" viewBox="0 0 39.000 61.000" width="39.000" height="61.000" data-width="39.000" data-height="61.000" xmlns="http://www.w3.org/2000/svg" xmlns:xlink="http://www.w3.org/1999/xlink" xmlns:h5="http://www.w3.org/1999/xhtml"><style type="text/css">.typst-text {
  pointer-events: bounding-box;
}

.tsel span,
.tsel {
  left: 0;
  position: fixed;
  text-align: justify;
  white-space: nowrap;
  width: 100%;
  height: 100%;
  text-align-last: justify;
  color: transparent;
  white-space: pre;
}
.tsel span::-moz-selection,
.tsel::-moz-selection {
  color: transparent;
  background: #7db9dea0;
}
.tsel span::selection,
.tsel::selection {
  color: transparent;
  background: #7db9dea0;
}
.pseudo-link {
  fill: transparent;
  cursor: pointer;
  pointer-events: all;
}
svg {
  fill: none;
}

.outline_glyph path,
path.outline_glyph {
  fill: var(--glyph_fill);
  stroke: var(--glyph_stroke);
}

.outline_glyph path,
path.outline_glyph {
  transition: 0.2s fill stroke;
}
.hover .typst-text {
  --glyph_fill: #66bab7;
  --glyph_stroke: #66bab7;
}

.typst-jump-ripple,
.typst-debug-react-ripple {
  width: 0;
  height: 0;
  background-color: transparent;
  position: absolute;
  border-radius: 50%;
}
.typst-jump-ripple {
  border: 1px solid #66bab7;
}
.typst-debug-react-ripple {
  border: 1px solid #cb1b45;
}
@keyframes typst-jump-ripple-effect {
  to {
    width: 10vw;
    height: 10vw;
    opacity: 0.01;
    margin: -5vw;
  }
}
@keyframes typst-debug-react-ripple-effect {
  to {
    width: 3vw;
    height: 3vw;
    opacity: 0.01;
    margin: -1.5vw;
  }
}
</style><defs class="glyph"><path id="gIM1zLhI" class="outline_glyph" d="M 269 666 C 228 624 168 603 89 603 L 89 564 C 141 564 184 572 217 588 L 217 82 C 217 64 213 52 204 47 C 195 42 170 39 130 39 L 95 39 L 95 0 C 120 2 174 3 257 3 C 340 3 394 2 419 0 L 419 39 L 384 39 C 343 39 318 42 310 47 C 302 52 297 64 297 82 L 297 636 C 297 660 295 666 269 666 Z "/><path id="gIM1zLhM" class="outline_glyph" d="M 237 666 C 186 666 143 648 106 612 C 69 576 50 534 50 483 C 50 449 75 424 106 424 C 136 424 161 450 161 480 C 161 513 137 536 105 536 C 102 536 100 536 98 535 C 117 584 161 627 224 627 C 306 627 352 556 352 470 C 352 403 318 331 250 255 L 62 43 C 49 28 50 29 50 0 L 421 0 L 450 180 L 417 180 C 409 129 402 100 396 91 C 391 86 361 84 306 84 L 139 84 L 236 179 C 304 243 390 312 419 365 C 439 400 449 435 449 470 C 449 588 357 666 237 666 Z "/><path id="gIM1zLhQ" class="outline_glyph" d="M 303 353 C 369 378 431 441 431 526 C 431 569 410 604 369 631 C 333 654 292 666 246 666 C 201 666 162 654 127 631 C 88 605 68 571 68 528 C 68 495 90 472 122 472 C 154 472 176 495 176 527 C 176 560 157 578 119 580 C 145 615 186 633 242 633 C 302 633 332 598 332 527 C 332 485 324 450 309 421 C 282 373 245 364 183 364 C 171 362 165 357 165 348 C 165 333 172 333 192 333 L 235 333 C 310 333 348 280 348 173 C 348 88 317 14 241 14 C 176 14 128 36 99 80 C 134 79 160 105 160 139 C 160 173 135 198 101 198 C 62 198 42 178 42 137 C 42 88 64 49 108 18 C 147 -9 193 -22 244 -22 C 301 -22 350 -3 393 34 C 436 71 457 117 457 173 C 457 267 383 332 303 353 Z "/><path id="gIM1zLmQF" class="outline_glyph" d="M 614 1500 L 321 1500 L 321 0 L 387 0 L 387 1432 L 614 1432 C 636 1432 647 1443 647 1466 C 647 1485 633 1500 614 1500 Z "/><path id="gIM1zLmUF" class="outline_glyph" d="M 321 0 L 387 0 L 387 1000 L 321 1000 Z "/><path id="gIM1zLmYF" class="outline_glyph" d="M 614 68 L 387 68 L 387 1500 L 321 1500 L 321 0 L 614 0 C 636 0 647 11 647 34 C 647 53 633 68 614 68 Z "/><path id="gIM1zLmcF" class="outline_glyph" d="M 280 0 L 346 0 L 346 1500 L 53 1500 C 31 1500 20 1489 20 1466 C 20 1443 31 1432 53 1432 L 280 1432 Z "/><path id="gIM1zLmgF" class="outline_glyph" d="M 280 0 L 346 0 L 346 1000 L 280 1000 Z "/><path id="gIM1zLmkF" class="outline_glyph" d="M 53 0 L 346 0 L 346 1500 L 280 1500 L 280 68 L 53 68 C 31 68 20 57 20 34 C 20 11 31 0 53 0 Z "/></defs><defs class="clip-path"></defs><style type="text/css"></style><g class="typst-page" transform="translate(0, 0)" data-tid="pXjuF7fuE4s4jUeU2gLvBK8" data-page-width="39" data-page-height="61"><g data-tid="gXjuF7fuE4s4jUeU2gLvBK8" class="typst-group"><g transform="translate(0.000,0.000)" data-tid="pjrVL/zghNJkT+md1f3mNa4"><g data-tid="gjrVL/zghNJkT+md1f3mNa4"><path class="typst-shape" d="M 0 0 L 0 60.7216 L 38.008 60.7216 L 38.008 0 Z " fill-rule="nonzero" fill="#fff" /></g></g><g transform="translate(8.000,8.000)" data-tid="pj+b6xEea51kwQ77++p6Krs"><g data-tid="gj+b6xEea51kwQ77++p6Krs" class="typst-group"><g transform="translate(0.000,0.000)" data-tid="pRsudH6uaIKoa/rNGNfYKk8"><g data-tid="gRsudH6uaIKoa/rNGNfYKk8" class="typst-group"><g transform="translate(0.000,44.722)" data-tid="pknN5e8G5BuEi1Rhu1gJiZo"><g data-tid="gknN5e8G5BuEi1Rhu1gJiZo" class="typst-text" fill="#000" transform="scale(0.012,-0.012)"><use x="0" y="0" href="#gIM1zLmYF"/><use x="0" y="1363.5" href="#gIM1zLmUF"/><use x="0" y="2227" href="#gIM1zLmQF"/><g transform="scale(16,-16)"><foreignObject x="0" y="-50.38" width="0.00" height="62.50"><h5:div class="tsel" style="font-size: 62px">[</h5:div></foreignObject></g></g></g><g transform="translate(8.004,11.009)" data-tid="pLC0qFWoJMmw62JJ8eBuIpg"><g data-tid="gLC0qFWoJMmw62JJ8eBuIpg" class="typst-text" fill="#000" transform="scale(0.012,-0.012)"><use x="0" y="0" href="#gIM1zLhI"/><g transform="scale(16,-16)"><foreignObject x="0" y="-50.38" width="31.25" height="62.50"><h5:div class="tsel" style="font-size: 62px">1</h5:div></foreignObject></g></g></g><g transform="translate(8.004,25.361)" data-tid="pqsfC8x7+58Av0F6WKOXKBY"><g data-tid="gqsfC8x7+58Av0F6WKOXKBY" class="typst-text" fill="#000" transform="scale(0.012,-0.012)"><use x="0" y="0" href="#gIM1zLhM"/><g transform="scale(16,-16)"><foreignObject x="0" y="-50.38" width="31.25" height="62.50"><h5:div class="tsel" style="font-size: 62px">2</h5:div></foreignObject></g></g></g><g transform="translate(8.004,39.713)" data-tid="pTYHdfH/Ep1MqdalPN4nWYI"><g data-tid="gTYHdfH/Ep1MqdalPN4nWYI" class="typst-text" fill="#000" transform="scale(0.012,-0.012)"><use x="0" y="0" href="#gIM1zLhQ"/><g transform="scale(16,-16)"><foreignObject x="0" y="-50.38" width="31.25" height="62.50"><h5:div class="tsel" style="font-size: 62px">3</h5:div></foreignObject></g></g></g><g transform="translate(14.004,44.722)" data-tid="pMGO6fQJ5LIUQKxrH84aT+4"><g data-tid="gMGO6fQJ5LIUQKxrH84aT+4" class="typst-text" fill="#000" transform="scale(0.012,-0.012)"><use x="0" y="0" href="#gIM1zLmkF"/><use x="0" y="1363.5" href="#gIM1zLmgF"/><use x="0" y="2227" href="#gIM1zLmcF"/><g transform="scale(16,-16)"><foreignObject x="0" y="-50.38" width="0.00" height="62.50"><h5:div class="tsel" style="font-size: 62px">]</h5:div></foreignObject></g></g></g><g transform="translate(0.000,0.000)" data-tid="pDgsjYLTg9DIxe7neLL45F8"><g data-tid="gDgsjYLTg9DIxe7neLL45F8" class="typst-content-hint" data-hint="a"></g></g></g></g><g transform="translate(0.000,0.000)" data-tid="pDgsjYLTg9DIxe7neLL45F8"><g data-tid="gDgsjYLTg9DIxe7neLL45F8" class="typst-content-hint" data-hint="a"></g></g></g></g></g></g></svg>