<svg style="overflow: visible;" class="typst-doc" viewBox="0 0 128.000 28.000" width="128.000" height="28.000" data-width="128.000" data-height="28.000" xmlns="http://www.w3.org/2000/svg" xmlns:xlink="http://www.w3.org/1999/xlink" xmlns:h5="http://www.w3.org/1999/xhtml"><style type="text/css">.typst-text {
  pointer-events: bounding-box;
}

.tsel span,
.tsel {
  left: 0;
  position: fixed;
  text-align: justify;
  white-space: nowrap;
  width: 100%;
  height: 100%;
  text-align-last: justify;
  color: transparent;
  white-space: pre;
}
.tsel span::-moz-selection,
.tsel::-moz-selection {
  color: transparent;
  background: #7db9dea0;
}
.tsel span::selection,
.tsel::selection {
  color: transparent;
  background: #7db9dea0;
}
.pseudo-link {
  fill: transparent;
  cursor: pointer;
  pointer-events: all;
}
svg {
  fill: none;
}

.outline_glyph path,
path.outline_glyph {
  fill: var(--glyph_fill);
  stroke: var(--glyph_stroke);
}

.outline_glyph path,
path.outline_glyph {
  transition: 0.2s fill stroke;
}
.hover .typst-text {
  --glyph_fill: #66bab7;
  --glyph_stroke: #66bab7;
}

.typst-jump-ripple,
.typst-debug-react-ripple {
  width: 0;
  height: 0;
  background-color: transparent;
  position: absolute;
  border-radius: 50%;
}
.typst-jump-ripple {
  border: 1px solid #66bab7;
}
.typst-debug-react-ripple {
  border: 1px solid #cb1b45;
}
@keyframes typst-jump-ripple-effect {
  to {
    width: 10vw;
    height: 10vw;
    opacity: 0.01;
    margin: -5vw;
  }
}
@keyframes typst-debug-react-ripple-effect {
  to {
    width: 3vw;
    height: 3vw;
    opacity: 0.01;
    margin: -1.5vw;
  }
}
</style><defs class="glyph"><path id="gIM1zLgk" class="outline_glyph" d="M 318 -248 C 327 -248 332 -243 332 -234 C 332 -231 330 -227 327 -223 C 275 -183 233 -117 202 -26 C 175 53 161 131 161 208 L 161 292 C 161 369 175 447 202 526 C 233 617 275 683 327 723 C 330 726 332 730 332 734 C 332 743 327 748 318 748 C 317 748 314 747 311 745 C 251 699 201 631 160 540 C 121 453 101 371 101 292 L 101 208 C 101 129 121 47 160 -40 C 201 -131 251 -199 311 -245 C 314 -247 317 -248 318 -248 Z "/><path id="gIM1zLgo" class="outline_glyph" d="M 78 -245 C 138 -199 188 -131 229 -40 C 268 47 288 129 288 208 L 288 292 C 288 371 268 453 229 540 C 188 631 138 699 78 745 C 75 747 72 748 71 748 C 62 748 57 743 57 734 C 57 730 59 726 62 723 C 114 683 156 617 187 526 C 214 447 228 369 228 292 L 228 208 C 228 131 214 53 187 -26 C 156 -117 114 -183 62 -223 C 59 -227 57 -231 57 -234 C 57 -243 62 -248 71 -248 C 72 -248 75 -247 78 -245 Z "/><path id="gIM1zLg0L" class="outline_glyph" d="M 552 633 C 552 677 509 705 462 705 C 400 705 357 665 334 586 C 329 568 318 517 302 433 L 237 433 C 215 433 204 432 204 411 C 204 400 214 395 235 395 L 295 395 L 222 8 C 211 -49 201 -91 192 -119 C 180 -156 163 -175 141 -175 C 126 -175 114 -171 103 -164 C 135 -159 151 -140 151 -108 C 151 -82 138 -69 111 -69 C 77 -69 53 -99 53 -133 C 53 -177 94 -205 141 -205 C 166 -205 189 -195 208 -174 C 240 -141 265 -94 283 -31 C 294 8 304 46 311 84 L 369 395 L 451 395 C 474 395 484 396 484 419 C 484 428 474 433 454 433 L 377 433 C 383 474 411 625 420 644 C 430 665 444 675 462 675 C 477 675 490 671 501 664 C 470 657 454 639 454 608 C 454 582 467 569 494 569 C 528 569 552 599 552 633 Z "/><path id="gIM1zLh4L" class="outline_glyph" d="M 527 373 C 527 419 482 442 432 442 C 389 442 355 419 329 373 C 308 419 273 442 222 442 C 173 442 133 419 101 374 C 74 335 60 306 60 287 C 60 278 65 273 75 273 C 84 273 90 278 92 287 C 111 345 153 413 220 413 C 253 413 269 392 269 351 C 269 330 251 252 216 118 C 199 51 169 18 126 18 C 112 18 99 21 88 26 C 114 36 127 54 127 80 C 127 106 114 119 87 119 C 54 119 29 91 29 58 C 29 12 76 -11 125 -11 C 167 -11 201 12 228 58 C 247 12 283 -11 335 -11 C 383 -11 423 12 455 57 C 482 96 496 125 496 144 C 496 153 491 158 481 158 C 472 158 467 153 464 144 C 447 87 402 18 337 18 C 304 18 287 38 287 79 C 287 92 292 120 303 165 L 337 300 C 356 375 387 413 431 413 C 445 413 458 410 469 405 C 442 396 429 378 429 351 C 429 325 443 312 470 312 C 502 312 527 341 527 373 Z "/><path id="gIM1zLp4X" class="outline_glyph" d="M 284 549 C 259 549 242 539 233 518 L 65 96 L 110 96 L 332 463 C 337 472 340 482 340 493 C 340 523 314 549 284 549 Z "/><path id="gIM1zLqAX" class="outline_glyph" d="M 523 549 C 497 549 480 539 472 518 L 301 96 L 347 96 L 572 463 C 577 472 580 482 580 493 C 580 523 553 549 523 549 Z M 287 549 C 261 549 244 539 236 518 L 65 96 L 111 96 L 335 463 C 341 472 344 482 344 493 C 344 523 317 549 287 549 Z "/><path id="gIM1zLqIX" class="outline_glyph" d="M 763 549 C 737 549 720 539 711 518 L 540 96 L 586 96 L 812 463 C 817 472 820 482 820 493 C 820 523 793 549 763 549 Z M 525 549 C 500 549 483 539 474 518 L 303 96 L 348 96 L 574 463 C 580 472 583 482 583 493 C 583 524 556 549 525 549 Z M 288 549 C 262 549 245 539 236 518 L 65 96 L 111 96 L 337 463 C 342 472 345 482 345 493 C 345 523 318 549 288 549 Z "/></defs><defs class="clip-path"></defs><style type="text/css"></style><g class="typst-page" transform="translate(0, 0)" data-tid="pkSZY6/p2KEosHOpyB5TffM" data-page-width="128" data-page-height="28"><g data-tid="gkSZY6/p2KEosHOpyB5TffM" class="typst-group"><g transform="translate(0.000,0.000)" data-tid="pPaKRGAV949YcfVbg9biOCw"><g data-tid="gPaKRGAV949YcfVbg9biOCw"><path class="typst-shape" d="M 0 0 L 0 27.952 L 127.8004 27.952 L 127.8004 0 Z " fill-rule="nonzero" fill="#fff" /></g></g><g transform="translate(8.000,8.000)" data-tid="pcRKC+n0+SM08cIQFUq70GI"><g data-tid="gcRKC+n0+SM08cIQFUq70GI" class="typst-group"><g transform="translate(0.000,0.000)" data-tid="pcsvU6vY6q2cr2Dj2Ak0lho"><g data-tid="gcsvU6vY6q2cr2Dj2Ak0lho" class="typst-group"><g transform="translate(0.000,8.976)" data-tid="pNL3lJrCnqFEe26i5LHQ1nk"><g data-tid="gNL3lJrCnqFEe26i5LHQ1nk" class="typst-text" fill="#000" transform="scale(0.012,-0.012)"><use x="0" y="0" href="#gIM1zLg0L"/><g transform="scale(16,-16)"><foreignObject x="0" y="-50.38" width="36.25" height="62.50"><h5:div class="tsel" style="font-size: 62px">𝑓</h5:div></foreignObject></g></g></g><g transform="translate(6.960,4.620)" data-tid="pkdwqxEYHggsLQ0uaRDGtfQ"><g data-tid="gkdwqxEYHggsLQ0uaRDGtfQ" class="typst-text" fill="#000" transform="scale(0.0084,-0.0084)"><use x="0" y="0" href="#gIM1zLp4X"/><g transform="scale(16,-16)"><foreignObject x="0" y="-50.38" width="25.44" height="62.50"><h5:div class="tsel" style="font-size: 62px">′</h5:div></foreignObject></g></g></g><g transform="translate(11.051,8.976)" data-tid="p2elkMNw/6qomO+LQyKr1RM"><g data-tid="g2elkMNw/6qomO+LQyKr1RM" class="typst-text" fill="#000" transform="scale(0.012,-0.012)"><use x="0" y="0" href="#gIM1zLgk"/><g transform="scale(16,-16)"><foreignObject x="0" y="-50.38" width="24.31" height="62.50"><h5:div class="tsel" style="font-size: 62px">(</h5:div></foreignObject></g></g></g><g transform="translate(15.719,8.976)" data-tid="pBACVtaESyxUAmgzIlus3wc"><g data-tid="gBACVtaESyxUAmgzIlus3wc" class="typst-text" fill="#000" transform="scale(0.012,-0.012)"><use x="0" y="0" href="#gIM1zLh4L"/><g transform="scale(16,-16)"><foreignObject x="0" y="-50.38" width="35.75" height="62.50"><h5:div class="tsel" style="font-size: 62px">𝑥</h5:div></foreignObject></g></g></g><g transform="translate(22.583,8.976)" data-tid="p1WzkmoiwwI8a3FsUKeOVqI"><g data-tid="g1WzkmoiwwI8a3FsUKeOVqI" class="typst-text" fill="#000" transform="scale(0.012,-0.012)"><use x="0" y="0" href="#gIM1zLgo"/><g transform="scale(16,-16)"><foreignObject x="0" y="-50.38" width="24.31" height="62.50"><h5:div class="tsel" style="font-size: 62px">)</h5:div></foreignObject></g></g></g><g transform="translate(39.251,8.976)" data-tid="pNL3lJrCnqFEe26i5LHQ1nk"><g data-tid="gNL3lJrCnqFEe26i5LHQ1nk" class="typst-text" fill="#000" transform="scale(0.012,-0.012)"><use x="0" y="0" href="#gIM1zLg0L"/><g transform="scale(16,-16)"><foreignObject x="0" y="-50.38" width="36.25" height="62.50"><h5:div class="tsel" style="font-size: 62px">𝑓</h5:div></foreignObject></g></g></g><g transform="translate(46.211,4.620)" data-tid="ptUy+zbC32e81g0PAOVOgPI"><g data-tid="gtUy+zbC32e81g0PAOVOgPI" class="typst-text" fill="#000" transform="scale(0.0084,-0.0084)"><use x="0" y="0" href="#gIM1zLqAX"/><g transform="scale(16,-16)"><foreignObject x="0" y="-50.38" width="40.44" height="62.50"><h5:div class="tsel" style="font-size: 62px">″</h5:div></foreignObject></g></g></g><g transform="translate(52.318,8.976)" data-tid="p2elkMNw/6qomO+LQyKr1RM"><g data-tid="g2elkMNw/6qomO+LQyKr1RM" class="typst-text" fill="#000" transform="scale(0.012,-0.012)"><use x="0" y="0" href="#gIM1zLgk"/><g transform="scale(16,-16)"><foreignObject x="0" y="-50.38" width="24.31" height="62.50"><h5:div class="tsel" style="font-size: 62px">(</h5:div></foreignObject></g></g></g><g transform="translate(56.986,8.976)" data-tid="pBACVtaESyxUAmgzIlus3wc"><g data-tid="gBACVtaESyxUAmgzIlus3wc" class="typst-text" fill="#000" transform="scale(0.012,-0.012)"><use x="0" y="0" href="#gIM1zLh4L"/><g transform="scale(16,-16)"><foreignObject x="0" y="-50.38" width="35.75" height="62.50"><h5:div class="tsel" style="font-size: 62px">𝑥</h5:div></foreignObject></g></g></g><g transform="translate(63.850,8.976)" data-tid="p1WzkmoiwwI8a3FsUKeOVqI"><g data-tid="g1WzkmoiwwI8a3FsUKeOVqI" class="typst-text" fill="#000" transform="scale(0.012,-0.012)"><use x="0" y="0" href="#gIM1zLgo"/><g transform="scale(16,-16)"><foreignObject x="0" y="-50.38" width="24.31" height="62.50"><h5:div class="tsel" style="font-size: 62px">)</h5:div></foreignObject></g></g></g><g transform="translate(80.518,8.976)" data-tid="pNL3lJrCnqFEe26i5LHQ1nk"><g data-tid="gNL3lJrCnqFEe26i5LHQ1nk" class="typst-text" fill="#000" transform="scale(0.012,-0.012)"><use x="0" y="0" href="#gIM1zLg0L"/><g transform="scale(16,-16)"><foreignObject x="0" y="-50.38" width="36.25" height="62.50"><h5:div class="tsel" style="font-size: 62px">𝑓</h5:div></foreignObject></g></g></g><g transform="translate(87.478,4.620)" data-tid="pKdKcsNGoqfEhmkScIC7SqU"><g data-tid="gKdKcsNGoqfEhmkScIC7SqU" class="typst-text" fill="#000" transform="scale(0.0084,-0.0084)"><use x="0" y="0" href="#gIM1zLqIX"/><g transform="scale(16,-16)"><foreignObject x="0" y="-50.38" width="55.44" height="62.50"><h5:div class="tsel" style="font-size: 62px">‴</h5:div></foreignObject></g></g></g><g transform="translate(95.600,8.976)" data-tid="p2elkMNw/6qomO+LQyKr1RM"><g data-tid="g2elkMNw/6qomO+LQyKr1RM" class="typst-text" fill="#000" transform="scale(0.012,-0.012)"><use x="0" y="0" href="#gIM1zLgk"/><g transform="scale(16,-16)"><foreignObject x="0" y="-50.38" width="24.31" height="62.50"><h5:div class="tsel" style="font-size: 62px">(</h5:div></foreignObject></g></g></g><g transform="translate(100.268,8.976)" data-tid="pBACVtaESyxUAmgzIlus3wc"><g data-tid="gBACVtaESyxUAmgzIlus3wc" class="typst-text" fill="#000" transform="scale(0.012,-0.012)"><use x="0" y="0" href="#gIM1zLh4L"/><g transform="scale(16,-16)"><foreignObject x="0" y="-50.38" width="35.75" height="62.50"><h5:div class="tsel" style="font-size: 62px">𝑥</h5:div></foreignObject></g></g></g><g transform="translate(107.132,8.976)" data-tid="p1WzkmoiwwI8a3FsUKeOVqI"><g data-tid="g1WzkmoiwwI8a3FsUKeOVqI" class="typst-text" fill="#000" transform="scale(0.012,-0.012)"><use x="0" y="0" href="#gIM1zLgo"/><g transform="scale(16,-16)"><foreignObject x="0" y="-50.38" width="24.31" height="62.50"><h5:div class="tsel" style="font-size: 62px">)</h5:div></foreignObject></g></g></g><g transform="translate(0.000,0.000)" data-tid="pDgsjYLTg9DIxe7neLL45F8"><g data-tid="gDgsjYLTg9DIxe7neLL45F8" class="typst-content-hint" data-hint="a"></g></g></g></g><g transform="translate(0.000,0.000)" data-tid="pDgsjYLTg9DIxe7neLL45F8"><g data-tid="gDgsjYLTg9DIxe7neLL45F8" class="typst-content-hint" data-hint="a"></g></g></g></g></g></g></svg>