<svg style="overflow: visible;" class="typst-doc" viewBox="0 0 360.000 54.000" width="360.000" height="54.000" data-width="360.000" data-height="54.000" xmlns="http://www.w3.org/2000/svg" xmlns:xlink="http://www.w3.org/1999/xlink" xmlns:h5="http://www.w3.org/1999/xhtml"><style type="text/css">.typst-text {
  pointer-events: bounding-box;
}

.tsel span,
.tsel {
  left: 0;
  position: fixed;
  text-align: justify;
  white-space: nowrap;
  width: 100%;
  height: 100%;
  text-align-last: justify;
  color: transparent;
  white-space: pre;
}
.tsel span::-moz-selection,
.tsel::-moz-selection {
  color: transparent;
  background: #7db9dea0;
}
.tsel span::selection,
.tsel::selection {
  color: transparent;
  background: #7db9dea0;
}
.pseudo-link {
  fill: transparent;
  cursor: pointer;
  pointer-events: all;
}
svg {
  fill: none;
}

.outline_glyph path,
path.outline_glyph {
  fill: var(--glyph_fill);
  stroke: var(--glyph_stroke);
}

.outline_glyph path,
path.outline_glyph {
  transition: 0.2s fill stroke;
}
.hover .typst-text {
  --glyph_fill: #66bab7;
  --glyph_stroke: #66bab7;
}

.typst-jump-ripple,
.typst-debug-react-ripple {
  width: 0;
  height: 0;
  background-color: transparent;
  position: absolute;
  border-radius: 50%;
}
.typst-jump-ripple {
  border: 1px solid #66bab7;
}
.typst-debug-react-ripple {
  border: 1px solid #cb1b45;
}
@keyframes typst-jump-ripple-effect {
  to {
    width: 10vw;
    height: 10vw;
    opacity: 0.01;
    margin: -5vw;
  }
}
@keyframes typst-debug-react-ripple-effect {
  to {
    width: 3vw;
    height: 3vw;
    opacity: 0.01;
    margin: -1.5vw;
  }
}
</style><defs class="glyph"><path id="gGM+wFBE" class="outline_glyph" d="M 256 308 Q 326 308 374.5 259 Q 423 210 423 141 Q 423 72 374 23.5 Q 325 -25 256 -25 Q 187 -25 138.5 23.5 Q 90 72 90 141 Q 90 210 138.5 259 Q 187 308 256 308 Z "/><path id="gGM+wFBQ" class="outline_glyph" d="M 667 1384 L 667 275 Q 667 150 678 115.5 Q 689 81 724 59 Q 759 37 836 37 L 867 37 L 867 0 L 153 0 L 153 37 L 189 37 Q 276 37 313 57 Q 350 77 363 112 Q 376 147 376 275 L 376 978 Q 376 1072 367 1095.5 Q 358 1119 333.5 1135.5 Q 309 1152 277 1152 Q 226 1152 153 1120 L 135 1156 L 634 1384 L 667 1384 Z "/><path id="gGM+wFCY" class="outline_glyph" d="M 1367 1387 L 1367 917 L 1328 917 Q 1284 1101 1164 1199 Q 1044 1297 892 1297 Q 765 1297 659 1224 Q 553 1151 504 1033 Q 441 882 441 697 Q 441 515 487 365.5 Q 533 216 631 139.5 Q 729 63 885 63 Q 1013 63 1119.5 119 Q 1226 175 1344 312 L 1344 195 Q 1230 76 1106.5 22.5 Q 983 -31 818 -31 Q 601 -31 432.5 56 Q 264 143 172.5 306 Q 81 469 81 653 Q 81 847 182.5 1021 Q 284 1195 456.5 1291 Q 629 1387 823 1387 Q 966 1387 1125 1325 Q 1217 1289 1242 1289 Q 1274 1289 1297.5 1312.5 Q 1321 1336 1328 1387 L 1367 1387 Z "/><path id="gGM+wFDA" class="outline_glyph" d="M 976 462 L 1344 1356 L 1896 1356 L 1896 1319 L 1852 1319 Q 1792 1319 1756 1298 Q 1731 1284 1716 1251 Q 1705 1227 1705 1126 L 1705 232 Q 1705 128 1716 102 Q 1727 76 1761 56.5 Q 1795 37 1852 37 L 1896 37 L 1896 0 L 1188 0 L 1188 37 L 1232 37 Q 1292 37 1328 58 Q 1353 72 1368 106 Q 1379 130 1379 232 L 1379 1237 L 859 0 L 835 0 L 307 1228 L 307 273 Q 307 173 312 150 Q 325 100 368.5 68.5 Q 412 37 505 37 L 505 0 L 41 0 L 41 37 L 55 37 Q 100 36 139 51.5 Q 178 67 198 93 Q 218 119 229 166 Q 231 177 231 268 L 231 1126 Q 231 1229 220 1254.5 Q 209 1280 175 1299.5 Q 141 1319 84 1319 L 41 1319 L 41 1356 L 595 1356 L 976 462 Z "/><path id="gGM+wFEY" class="outline_glyph" d="M 832 241 L 863 217 Q 797 93 698.5 32.5 Q 600 -28 489 -28 Q 302 -28 190 113 Q 78 254 78 452 Q 78 643 180 788 Q 303 963 519 963 Q 664 963 749.5 890 Q 835 817 835 727 Q 835 670 800.5 636 Q 766 602 710 602 Q 651 602 612.5 641 Q 574 680 565 780 Q 559 843 536 868 Q 513 893 482 893 Q 434 893 400 842 Q 348 765 348 606 Q 348 474 390 353.5 Q 432 233 505 174 Q 560 131 635 131 Q 684 131 728 154 Q 772 177 832 241 Z "/><path id="gGM+wFEo" class="outline_glyph" d="M 669 924 L 984 924 L 984 814 L 805 814 Q 854 765 873 725 Q 897 671 897 612 Q 897 512 841.5 438.5 Q 786 365 690.5 323.5 Q 595 282 521 282 Q 515 282 401 287 Q 356 287 325.5 257.5 Q 295 228 295 187 Q 295 151 322.5 128 Q 350 105 412 105 L 585 107 Q 795 107 874 61 Q 987 -3 987 -136 Q 987 -221 935 -290.5 Q 883 -360 798 -393 Q 669 -442 501 -442 Q 375 -442 271 -417.5 Q 167 -393 122 -349.5 Q 77 -306 77 -258 Q 77 -212 111.5 -175.5 Q 146 -139 240 -114 Q 110 -50 110 64 Q 110 133 163 198 Q 216 263 331 311 Q 197 360 137 440 Q 77 520 77 625 Q 77 762 189 862.5 Q 301 963 477 963 Q 570 963 669 924 Z M 496 901 Q 438 901 398 842.5 Q 358 784 358 600 Q 358 451 397.5 395.5 Q 437 340 491 340 Q 551 340 591 395 Q 631 450 631 609 Q 631 788 586 853 Q 554 901 496 901 Z M 437 -138 Q 335 -138 302 -155 Q 245 -186 245 -239 Q 245 -290 304 -331.5 Q 363 -373 526 -373 Q 665 -373 744.5 -336 Q 824 -299 824 -232 Q 824 -207 809 -190 Q 782 -160 727.5 -149 Q 673 -138 437 -138 Z "/><path id="gGM+wFEs" class="outline_glyph" d="M 451 1356 L 451 815 Q 528 896 592 929.5 Q 656 963 725 963 Q 813 963 875.5 913 Q 938 863 958.5 795.5 Q 979 728 979 568 L 979 203 Q 979 96 999 69.5 Q 1019 43 1080 36 L 1080 0 L 606 0 L 606 36 Q 656 43 681 76 Q 699 102 699 203 L 699 620 Q 699 736 690 765.5 Q 681 795 659.5 811.5 Q 638 828 611 828 Q 571 828 533 800.5 Q 495 773 451 704 L 451 203 Q 451 103 466 78 Q 485 44 544 36 L 544 0 L 70 0 L 70 36 Q 129 42 154 74 Q 171 96 171 203 L 171 1153 Q 171 1259 151.5 1285 Q 132 1311 70 1319 L 70 1356 L 451 1356 Z "/><path id="gGM+wFFA" class="outline_glyph" d="M 457 935 L 457 812 Q 534 896 599.5 929.5 Q 665 963 743 963 Q 833 963 894 921 Q 955 879 988 793 Q 1068 883 1141.5 923 Q 1215 963 1295 963 Q 1392 963 1449.5 918.5 Q 1507 874 1529.5 805.5 Q 1552 737 1552 587 L 1552 204 Q 1552 96 1571.5 70 Q 1591 44 1653 36 L 1653 0 L 1170 0 L 1170 36 Q 1227 41 1254 80 Q 1272 107 1272 204 L 1272 606 Q 1272 731 1262 765 Q 1252 799 1230.5 815.5 Q 1209 832 1180 832 Q 1137 832 1093 800.5 Q 1049 769 1004 706 L 1004 204 Q 1004 103 1021 77 Q 1044 40 1109 36 L 1109 0 L 625 0 L 625 36 Q 664 38 686.5 55.5 Q 709 73 716.5 97.5 Q 724 122 724 204 L 724 606 Q 724 733 714 765 Q 704 797 680.5 815 Q 657 833 630 833 Q 590 833 557 812 Q 510 781 457 706 L 457 204 Q 457 105 476.5 73.5 Q 496 42 558 36 L 558 0 L 76 0 L 76 36 Q 135 42 160 74 Q 177 96 177 204 L 177 732 Q 177 838 157.5 864 Q 138 890 76 898 L 76 935 L 457 935 Z "/><path id="gGM+wFFE" class="outline_glyph" d="M 451 935 L 451 814 Q 523 892 589 927.5 Q 655 963 731 963 Q 822 963 882 912.5 Q 942 862 962 787 Q 978 730 978 568 L 978 204 Q 978 96 997.5 69.5 Q 1017 43 1079 36 L 1079 0 L 606 0 L 606 36 Q 659 43 682 80 Q 698 105 698 204 L 698 620 Q 698 735 689 765 Q 680 795 658.5 811.5 Q 637 828 611 828 Q 525 828 451 705 L 451 204 Q 451 99 470.5 71 Q 490 43 543 36 L 543 0 L 70 0 L 70 36 Q 129 42 154 74 Q 171 96 171 204 L 171 732 Q 171 838 151.5 864 Q 132 890 70 898 L 70 935 L 451 935 Z "/><path id="gGM+wFFI" class="outline_glyph" d="M 510 963 Q 632 963 737 900 Q 842 837 896.5 721 Q 951 605 951 467 Q 951 268 850 134 Q 728 -28 513 -28 Q 302 -28 188 120 Q 74 268 74 463 Q 74 664 190.5 813.5 Q 307 963 510 963 Z M 514 892 Q 463 892 426.5 853.5 Q 390 815 378.5 701.5 Q 367 588 367 386 Q 367 279 381 186 Q 392 115 428 78 Q 464 41 510 41 Q 555 41 585 66 Q 624 100 637 161 Q 657 256 657 545 Q 657 715 638 778.5 Q 619 842 582 871 Q 556 892 514 892 Z "/><path id="gGM+wFFc" class="outline_glyph" d="M 440 1277 L 440 935 L 662 935 L 662 836 L 440 836 L 440 259 Q 440 178 447.5 154.5 Q 455 131 474 116.5 Q 493 102 509 102 Q 574 102 632 201 L 662 179 Q 581 -13 399 -13 Q 310 -13 248.5 36.5 Q 187 86 170 147 Q 160 181 160 331 L 160 836 L 38 836 L 38 871 Q 164 960 252.5 1058 Q 341 1156 407 1277 L 440 1277 Z "/><path id="gGM+wFGsE" class="outline_glyph" d="M 1172 845 Q 1148 774 1071 742 Q 1019 721 897 721 Q 951 605 951 467 Q 951 268 850 134 Q 728 -28 513 -28 Q 310 -28 188 120 Q 74 258 74 463 Q 74 672 190 814 Q 313 963 510 963 Q 645 963 743 897 Q 771 877 840 808 Q 879 767 929 766 Q 968 765 990 773 Q 1017 783 1026 805 Q 1031 815 1027 821 Q 1004 833 961 879 Q 938 920 948 958 Q 958 998 1000.5 1021.5 Q 1043 1045 1089 1031 Q 1143 1014 1168 961 Q 1193 908 1172 845 Z M 657 545 Q 657 705 638 778 Q 622 839 582 871 Q 556 892 514 892 Q 398 892 379 702 Q 367 588 367 386 Q 367 278 381 186 Q 403 41 510 41 Q 612 41 637 161 Q 657 256 657 545 Z "/><path id="gGM+wFG0E" class="outline_glyph" d="M 1095 705 Q 1107 711 1116 730 Q 1120 740 1116 747 Q 1112 755 1076 777 Q 1061 787 1051 805 Q 1027 846 1037 884 Q 1048 924 1090 947 Q 1132 970 1179 956 Q 1271 928 1271 827 Q 1271 800 1261 770 Q 1239 703 1160 673 Q 1086 644 972 645 L 972 203 Q 972 100 992 69 Q 1009 43 1073 36 L 1073 0 L 692 0 L 692 125 Q 564 -28 408 -28 Q 331 -28 268 21 Q 207 67 185.5 133 Q 164 199 164 361 L 164 732 Q 164 835 144 864 Q 127 890 63 898 L 63 935 L 444 935 L 444 296 Q 444 152 484 123 Q 504 108 531 108 Q 604 108 692 232 L 692 732 Q 692 835 672 864 Q 655 890 591 898 L 591 935 L 972 935 L 972 682 Q 1053 686 1095 705 Z "/><path id="gGM+wFN0E" class="outline_glyph" d="M 510 963 Q 632 963 737 900 Q 842 837 896.5 721 Q 951 605 951 467 Q 951 268 850 134 Q 728 -28 513 -28 Q 302 -28 188 120 Q 74 268 74 463 Q 74 664 190.5 813.5 Q 307 963 510 963 Z M 514 892 Q 463 892 426.5 853.5 Q 390 815 378.5 701.5 Q 367 588 367 386 Q 367 279 381 186 Q 392 115 428 78 Q 464 41 510 41 Q 555 41 585 66 Q 624 100 637 161 Q 657 256 657 545 Q 657 715 638 778.5 Q 619 842 582 871 Q 556 892 514 892 Z M 627 1427 L 830 1045 L 753 1045 L 515 1251 L 270 1051 L 188 1051 L 401 1427 L 627 1427 Z M 506 -102 Q 576 -102 624.5 -150.5 Q 673 -199 673 -269 Q 673 -338 624 -386.5 Q 575 -435 506 -435 Q 437 -435 388.5 -386.5 Q 340 -338 340 -269 Q 340 -200 388.5 -151 Q 437 -102 506 -102 Z "/><path id="gGM+wFOkE" class="outline_glyph" d="M 972 935 L 972 203 Q 972 96 992 69.5 Q 1012 43 1073 36 L 1073 0 L 692 0 L 692 125 Q 625 45 558 8.5 Q 491 -28 408 -28 Q 329 -28 267.5 20.5 Q 206 69 185 134 Q 164 199 164 361 L 164 732 Q 164 838 144.5 864 Q 125 890 63 898 L 63 935 L 444 935 L 444 296 Q 444 196 453.5 167 Q 463 138 483.5 123 Q 504 108 531 108 Q 567 108 596 127 Q 636 153 692 232 L 692 732 Q 692 838 672.5 864 Q 653 890 591 898 L 591 935 L 972 935 Z M 556 -102 Q 626 -102 674.5 -150.5 Q 723 -199 723 -269 Q 723 -338 674 -386.5 Q 625 -435 556 -435 Q 487 -435 438.5 -386.5 Q 390 -338 390 -269 Q 390 -200 438.5 -151 Q 487 -102 556 -102 Z "/></defs><defs class="clip-path"></defs><style type="text/css"></style><g class="typst-page" transform="translate(0, 0)" data-tid="piMhwUlGbihUTzaqAI27h64" data-page-width="360" data-page-height="54"><g data-tid="giMhwUlGbihUTzaqAI27h64" class="typst-group"><g transform="translate(0.000,0.000)" data-tid="pPCK6dcFpgawKx1wHjIMd0o"><g data-tid="gPCK6dcFpgawKx1wHjIMd0o"><path class="typst-shape" d="M 0 0 L 0 53.937813 L 360 53.937813 L 360 0 Z " fill-rule="nonzero" fill="#fff" /></g></g><g transform="translate(8.000,8.000)" data-tid="pDgsjYLTg9DIxe7neLL45F8"><g data-tid="gDgsjYLTg9DIxe7neLL45F8" class="typst-content-hint" data-hint="a"></g></g><g transform="translate(8.000,8.000)" data-tid="pnR5QpggfgI0oq+1w7JG1QY"><g data-tid="gnR5QpggfgI0oq+1w7JG1QY" class="typst-group"><g transform="translate(0.000,11.123)" data-tid="pfe9PbiZ1hd0q2k2bX28OWA"><g data-tid="gfe9PbiZ1hd0q2k2bX28OWA" class="typst-text" fill="#000" transform="scale(0.008203125,-0.008203125)"><use x="0" y="0" href="#gGM+wFBQ"/><g transform="scale(16,-16)"><foreignObject x="0" y="-86.69" width="64.00" height="128.00"><h5:div class="tsel" style="font-size: 128px">1</h5:div></foreignObject></g></g></g><g transform="translate(13.440,11.123)" data-tid="p3PZBUQ6Qw1cUPAiRqnd1fM"><g data-tid="g3PZBUQ6Qw1cUPAiRqnd1fM" class="typst-text" fill="#000" transform="scale(0.008203125,-0.008203125)"><use x="0" y="0" href="#gGM+wFCY"/><use x="1479" y="0" href="#gGM+wFEs"/><use x="2618" y="0" href="#gGM+wFG0E"/><use x="3847" y="0" href="#gGM+wFGsE"/><use x="4981" y="0" href="#gGM+wFFE"/><use x="6120" y="0" href="#gGM+wFEo"/><use x="7144" y="0" href="#gGM+wFAM"/><use x="7656" y="0" href="#gGM+wFFA"/><use x="9362" y="0" href="#gGM+wFN0E"/><use x="10386" y="0" href="#gGM+wFFc"/><g transform="scale(16,-16)"><foreignObject x="0" y="-86.69" width="691.75" height="128.00"><h5:div class="tsel" style="font-size: 128px">Chương một</h5:div></foreignObject></g></g></g></g></g><g transform="translate(8.000,36.403)" data-tid="pDgsjYLTg9DIxe7neLL45F8"><g data-tid="gDgsjYLTg9DIxe7neLL45F8" class="typst-content-hint" data-hint="a"></g></g><g transform="translate(8.000,36.403)" data-tid="pm1uJvcMZjBEGt005YuydsQ"><g data-tid="gm1uJvcMZjBEGt005YuydsQ" class="typst-group"><g transform="translate(0.000,9.534)" data-tid="pby+jXC7ozAMDzht5tfONMQ"><g data-tid="gby+jXC7ozAMDzht5tfONMQ" class="typst-text" fill="#000" transform="scale(0.00703125,-0.00703125)"><use x="0" y="0" href="#gGM+wFBQ"/><use x="1024" y="0" href="#gGM+wFBE"/><use x="1536" y="0" href="#gGM+wFBQ"/><g transform="scale(16,-16)"><foreignObject x="0" y="-86.69" width="160.00" height="128.00"><h5:div class="tsel" style="font-size: 128px">1.1</h5:div></foreignObject></g></g></g><g transform="translate(22.320,9.534)" data-tid="pogY/9bYqnJwXNcr7Yfk9cg"><g data-tid="gogY/9bYqnJwXNcr7Yfk9cg" class="typst-text" fill="#000" transform="scale(0.00703125,-0.00703125)"><use x="0" y="0" href="#gGM+wFDA"/><use x="1933" y="0" href="#gGM+wFOkE"/><use x="3072" y="0" href="#gGM+wFEY"/><use x="3981" y="0" href="#gGM+wFAM"/><use x="4493" y="0" href="#gGM+wFEY"/><use x="5402" y="0" href="#gGM+wFFI"/><use x="6426" y="0" href="#gGM+wFFE"/><g transform="scale(16,-16)"><foreignObject x="0" y="-86.69" width="472.81" height="128.00"><h5:div class="tsel" style="font-size: 128px">Mục con</h5:div></foreignObject></g></g></g></g></g></g></g></svg>