<svg style="overflow: visible;" class="typst-doc" viewBox="0 0 320.000 56.000" width="320.000" height="56.000" data-width="320.000" data-height="56.000" xmlns="http://www.w3.org/2000/svg" xmlns:xlink="http://www.w3.org/1999/xlink" xmlns:h5="http://www.w3.org/1999/xhtml"><style type="text/css">.typst-text {
  pointer-events: bounding-box;
}

.tsel span,
.tsel {
  left: 0;
  position: fixed;
  text-align: justify;
  white-space: nowrap;
  width: 100%;
  height: 100%;
  text-align-last: justify;
  color: transparent;
  white-space: pre;
}
.tsel span::-moz-selection,
.tsel::-moz-selection {
  color: transparent;
  background: #7db9dea0;
}
.tsel span::selection,
.tsel::selection {
  color: transparent;
  background: #7db9dea0;
}
.pseudo-link {
  fill: transparent;
  cursor: pointer;
  pointer-events: all;
}
svg {
  fill: none;
}

.outline_glyph path,
path.outline_glyph {
  fill: var(--glyph_fill);
  stroke: var(--glyph_stroke);
}

.outline_glyph path,
path.outline_glyph {
  transition: 0.2s fill stroke;
}
.hover .typst-text {
  --glyph_fill: #66bab7;
  --glyph_stroke: #66bab7;
}

.typst-jump-ripple,
.typst-debug-react-ripple {
  width: 0;
  height: 0;
  background-color: transparent;
  position: absolute;
  border-radius: 50%;
}
.typst-jump-ripple {
  border: 1px solid #66bab7;
}
.typst-debug-react-ripple {
  border: 1px solid #cb1b45;
}
@keyframes typst-jump-ripple-effect {
  to {
    width: 10vw;
    height: 10vw;
    opacity: 0.01;
    margin: -5vw;
  }
}
@keyframes typst-debug-react-ripple-effect {
  to {
    width: 3vw;
    height: 3vw;
    opacity: 0.01;
    margin: -1.5vw;
  }
}
</style><defs class="glyph"><path id="gM22VLA8" class="outline_glyph" d="M 110 -341 L 110 -297 Q 213 -263 269.5 -191.5 Q 326 -120 326 -40 Q 326 -21 317 -8 Q 310 1 303 1 Q 292 1 255 -19 Q 237 -28 217 -28 Q 168 -28 139 1 Q 110 30 110 81 Q 110 130 147.5 165 Q 185 200 239 200 Q 305 200 356.5 142.5 Q 408 85 408 -10 Q 408 -113 336.5 -201.5 Q 265 -290 110 -341 Z "/><path id="gM22VLBE" class="outline_glyph" d="M 256 194 Q 303 194 335 161.5 Q 367 129 367 83 Q 367 37 334.5 4.5 Q 302 -28 256 -28 Q 210 -28 177.5 4.5 Q 145 37 145 83 Q 145 130 177.5 162 Q 210 194 256 194 Z "/><path id="gM22VLC8" class="outline_glyph" d="M 1174 375 L 1207 368 L 1091 0 L 41 0 L 41 37 L 92 37 Q 178 37 215 93 Q 236 125 236 241 L 236 1116 Q 236 1243 208 1275 Q 169 1319 92 1319 L 41 1319 L 41 1356 L 655 1356 L 655 1319 Q 547 1320 503.5 1299 Q 460 1278 444 1246 Q 428 1214 428 1093 L 428 241 Q 428 158 444 127 Q 456 106 481 96 Q 506 86 637 86 L 736 86 Q 892 86 955 109 Q 1018 132 1070 190.5 Q 1122 249 1174 375 Z "/><path id="gM22VLEQ" class="outline_glyph" d="M 583 132 Q 442 23 406 6 Q 352 -19 291 -19 Q 196 -19 134.5 46 Q 73 111 73 217 Q 73 284 103 333 Q 144 401 245.5 461 Q 347 521 583 607 L 583 643 Q 583 780 539.5 831 Q 496 882 413 882 Q 350 882 313 848 Q 275 814 275 770 L 277 712 Q 277 666 253.5 641 Q 230 616 192 616 Q 155 616 131.5 642 Q 108 668 108 713 Q 108 799 196 871 Q 284 943 443 943 Q 565 943 643 902 Q 702 871 730 805 Q 748 762 748 629 L 748 318 Q 748 187 753 157.5 Q 758 128 769.5 118 Q 781 108 796 108 Q 812 108 824 115 Q 845 128 905 188 L 905 132 Q 793 -18 691 -18 Q 642 -18 613 16 Q 584 50 583 132 Z M 583 197 L 583 546 Q 432 486 388 461 Q 309 417 275 369 Q 241 321 241 264 Q 241 192 284 144.5 Q 327 97 383 97 Q 459 97 583 197 Z "/><path id="gM22VLEU" class="outline_glyph" d="M 315 758 Q 448 943 602 943 Q 743 943 848 822.5 Q 953 702 953 493 Q 953 249 791 100 Q 652 -28 481 -28 Q 401 -28 318.5 1 Q 236 30 150 88 L 150 1037 Q 150 1193 142.5 1229 Q 135 1265 119 1278 Q 103 1291 79 1291 Q 51 1291 9 1275 L -5 1310 L 270 1422 L 315 1422 L 315 758 Z M 315 694 L 315 146 Q 366 96 420.5 70.5 Q 475 45 532 45 Q 623 45 701.5 145 Q 780 245 780 436 Q 780 612 701.5 706.5 Q 623 801 523 801 Q 470 801 417 774 Q 377 754 315 694 Z "/><path id="gM22VLEY" class="outline_glyph" d="M 842 348 Q 805 167 697 69.5 Q 589 -28 458 -28 Q 302 -28 186 103 Q 70 234 70 457 Q 70 673 198.5 808 Q 327 943 507 943 Q 642 943 729 871.5 Q 816 800 816 723 Q 816 685 791.5 661.5 Q 767 638 723 638 Q 664 638 634 676 Q 617 697 611.5 756 Q 606 815 571 846 Q 536 876 474 876 Q 374 876 313 802 Q 232 704 232 543 Q 232 379 312.5 253.5 Q 393 128 530 128 Q 628 128 706 195 Q 761 241 813 362 L 842 348 Z "/><path id="gM22VLEc" class="outline_glyph" d="M 711 103 Q 644 33 580 2.5 Q 516 -28 442 -28 Q 292 -28 180 97.5 Q 68 223 68 420 Q 68 617 192 780.5 Q 316 944 511 944 Q 632 944 711 867 L 711 1036 Q 711 1193 703.5 1229 Q 696 1265 680 1278 Q 664 1291 640 1291 Q 614 1291 571 1275 L 558 1310 L 831 1422 L 876 1422 L 876 363 Q 876 202 883.5 166.5 Q 891 131 907.5 117 Q 924 103 946 103 Q 973 103 1018 120 L 1029 85 L 757 -28 L 711 -28 L 711 103 Z M 711 173 L 711 645 Q 705 713 675 769 Q 645 825 595.5 853.5 Q 546 882 499 882 Q 411 882 342 803 Q 251 699 251 499 Q 251 297 339 189.5 Q 427 82 535 82 Q 626 82 711 173 Z "/><path id="gM22VLEg" class="outline_glyph" d="M 218 571 Q 217 367 317 251 Q 417 135 552 135 Q 642 135 708.5 184.5 Q 775 234 820 354 L 851 334 Q 830 197 729 84.5 Q 628 -28 476 -28 Q 311 -28 193.5 100.5 Q 76 229 76 446 Q 76 681 196.5 812.5 Q 317 944 499 944 Q 653 944 752 842.5 Q 851 741 851 571 L 218 571 Z M 218 629 L 642 629 Q 637 717 621 753 Q 596 809 546.5 841 Q 497 873 443 873 Q 360 873 294.5 808.5 Q 229 744 218 629 Z "/><path id="gM22VLEo" class="outline_glyph" d="M 309 334 Q 225 375 180 448.5 Q 135 522 135 611 Q 135 747 237.5 845 Q 340 943 500 943 Q 631 943 727 879 L 921 879 Q 964 879 971 876.5 Q 978 874 981 868 Q 987 859 987 836 Q 987 810 982 800 Q 979 795 971.5 792 Q 964 789 921 789 L 802 789 Q 858 717 858 605 Q 858 477 760 386 Q 662 295 497 295 Q 429 295 358 315 Q 314 277 298.5 248.5 Q 283 220 283 200 Q 283 183 299.5 167 Q 316 151 364 144 Q 392 140 504 137 Q 710 132 771 123 Q 864 110 919.5 54 Q 975 -2 975 -84 Q 975 -197 869 -296 Q 713 -442 462 -442 Q 269 -442 136 -355 Q 61 -305 61 -251 Q 61 -227 72 -203 Q 89 -166 142 -100 Q 149 -91 244 8 Q 192 39 170.5 63.5 Q 149 88 149 119 Q 149 154 177.5 201 Q 206 248 309 334 Z M 483 895 Q 409 895 359 836 Q 309 777 309 655 Q 309 497 377 410 Q 429 344 509 344 Q 585 344 634 401 Q 683 458 683 580 Q 683 739 614 829 Q 563 895 483 895 Z M 299 0 Q 252 -51 228 -95 Q 204 -139 204 -176 Q 204 -224 262 -260 Q 362 -322 551 -322 Q 731 -322 816.5 -258.5 Q 902 -195 902 -123 Q 902 -71 851 -49 Q 799 -27 645 -23 Q 420 -17 299 0 Z "/><path id="gM22VLEw" class="outline_glyph" d="M 297 1422 Q 339 1422 368.5 1392.5 Q 398 1363 398 1321 Q 398 1279 368.5 1249 Q 339 1219 297 1219 Q 255 1219 225 1249 Q 195 1279 195 1321 Q 195 1363 224.5 1392.5 Q 254 1422 297 1422 Z M 380 943 L 380 207 Q 380 121 392.5 92.5 Q 405 64 429.5 50 Q 454 36 519 36 L 519 0 L 74 0 L 74 36 Q 141 36 164 49 Q 187 62 200.5 92 Q 214 122 214 207 L 214 560 Q 214 709 205 753 Q 198 785 183 797.5 Q 168 810 142 810 Q 114 810 74 795 L 60 831 L 336 943 L 380 943 Z "/><path id="gM22VLE8" class="outline_glyph" d="M 379 1422 L 379 207 Q 379 121 391.5 93 Q 404 65 430 50.5 Q 456 36 527 36 L 527 0 L 78 0 L 78 36 Q 141 36 164 49 Q 187 62 200 92 Q 213 122 213 207 L 213 1039 Q 213 1194 206 1229.5 Q 199 1265 183.5 1278 Q 168 1291 144 1291 Q 118 1291 78 1275 L 61 1310 L 334 1422 L 379 1422 Z "/><path id="gM22VLFA" class="outline_glyph" d="M 336 748 Q 436 848 454 863 Q 499 901 551 922 Q 603 943 654 943 Q 740 943 802 893 Q 864 843 885 748 Q 988 868 1059 905.5 Q 1130 943 1205 943 Q 1278 943 1334.5 905.5 Q 1391 868 1424 783 Q 1446 725 1446 601 L 1446 207 Q 1446 121 1459 89 Q 1469 67 1496 51.5 Q 1523 36 1584 36 L 1584 0 L 1132 0 L 1132 36 L 1151 36 Q 1210 36 1243 59 Q 1266 75 1276 110 Q 1280 127 1280 207 L 1280 601 Q 1280 713 1253 759 Q 1214 823 1128 823 Q 1075 823 1021.5 796.5 Q 968 770 892 698 L 890 687 L 892 644 L 892 207 Q 892 113 902.5 90 Q 913 67 942 51.5 Q 971 36 1041 36 L 1041 0 L 578 0 L 578 36 Q 654 36 682.5 54 Q 711 72 722 108 Q 727 125 727 207 L 727 601 Q 727 713 694 762 Q 650 826 571 826 Q 517 826 464 797 Q 381 753 336 698 L 336 207 Q 336 117 348.5 90 Q 361 63 385.5 49.5 Q 410 36 485 36 L 485 0 L 32 0 L 32 36 Q 95 36 120 49.5 Q 145 63 158 92.5 Q 171 122 171 207 L 171 557 Q 171 708 162 752 Q 155 785 140 797.5 Q 125 810 99 810 Q 71 810 32 795 L 17 831 L 293 943 L 336 943 L 336 748 Z "/><path id="gM22VLFE" class="outline_glyph" d="M 331 749 Q 492 943 638 943 Q 713 943 767 905.5 Q 821 868 853 782 Q 875 722 875 598 L 875 207 Q 875 120 889 89 Q 900 64 924.5 50 Q 949 36 1015 36 L 1015 0 L 562 0 L 562 36 L 581 36 Q 645 36 670.5 55.5 Q 696 75 706 113 Q 710 128 710 207 L 710 582 Q 710 707 677.5 763.5 Q 645 820 568 820 Q 449 820 331 690 L 331 207 Q 331 114 342 92 Q 356 63 380.5 49.5 Q 405 36 480 36 L 480 0 L 27 0 L 27 36 L 47 36 Q 117 36 141.5 71.5 Q 166 107 166 207 L 166 547 Q 166 712 158.5 748 Q 151 784 135.5 797 Q 120 810 94 810 Q 66 810 27 795 L 12 831 L 288 943 L 331 943 L 331 749 Z "/><path id="gM22VLFI" class="outline_glyph" d="M 512 943 Q 720 943 846 785 Q 953 650 953 475 Q 953 352 894 226 Q 835 100 731.5 36 Q 628 -28 501 -28 Q 294 -28 172 137 Q 69 276 69 449 Q 69 575 131.5 699.5 Q 194 824 296 883.5 Q 398 943 512 943 Z M 481 878 Q 428 878 374.5 846.5 Q 321 815 288 736 Q 255 657 255 533 Q 255 333 334.5 188 Q 414 43 544 43 Q 641 43 704 123 Q 767 203 767 398 Q 767 642 662 782 Q 591 878 481 878 Z "/><path id="gM22VLFM" class="outline_glyph" d="M -2 825 L 280 939 L 318 939 L 318 725 Q 389 846 460.5 894.5 Q 532 943 611 943 Q 749 943 841 835 Q 954 703 954 491 Q 954 254 818 99 Q 706 -28 536 -28 Q 462 -28 408 -7 Q 368 8 318 53 L 318 -226 Q 318 -320 329.5 -345.5 Q 341 -371 369.5 -386 Q 398 -401 473 -401 L 473 -438 L -7 -438 L -7 -401 L 18 -401 Q 73 -402 112 -380 Q 131 -369 141.5 -344.5 Q 152 -320 152 -220 L 152 646 Q 152 735 144 759 Q 136 783 118.5 795 Q 101 807 71 807 Q 47 807 10 793 L -2 825 Z M 318 666 L 318 324 Q 318 213 327 178 Q 341 120 395.5 76 Q 450 32 533 32 Q 633 32 695 110 Q 776 212 776 397 Q 776 607 684 720 Q 620 798 532 798 Q 484 798 437 774 Q 401 756 318 666 Z "/><path id="gM22VLFQ" class="outline_glyph" d="M 875 943 L 875 -235 Q 875 -323 887 -348 Q 899 -373 924.5 -387 Q 950 -401 1024 -401 L 1024 -438 L 562 -438 L 562 -401 L 581 -401 Q 637 -401 666 -385 Q 686 -374 698 -345.5 Q 710 -317 710 -235 L 710 159 Q 619 51 551 11.5 Q 483 -28 410 -28 Q 277 -28 172.5 93 Q 68 214 68 417 Q 68 650 206 796.5 Q 344 943 539 943 Q 596 943 644 927 Q 692 911 730 879 Q 788 907 841 943 L 875 943 Z M 710 222 L 710 652 Q 710 727 690.5 770 Q 671 813 621 843 Q 571 873 508 873 Q 396 873 316 778 Q 236 683 236 490 Q 236 305 317.5 209 Q 399 113 514 113 Q 573 113 619 138.5 Q 665 164 710 222 Z "/><path id="gM22VLFU" class="outline_glyph" d="M 332 943 L 332 737 Q 447 943 568 943 Q 623 943 659 909.5 Q 695 876 695 832 Q 695 793 669 766 Q 643 739 607 739 Q 572 739 528.5 773.5 Q 485 808 464 808 Q 446 808 425 788 Q 380 747 332 653 L 332 214 Q 332 138 351 99 Q 364 72 397 54 Q 430 36 492 36 L 492 0 L 23 0 L 23 36 Q 93 36 127 58 Q 152 74 162 109 Q 167 126 167 206 L 167 561 Q 167 721 160.5 751.5 Q 154 782 136.5 796 Q 119 810 93 810 Q 62 810 23 795 L 13 831 L 290 943 L 332 943 Z "/><path id="gM22VLFY" class="outline_glyph" d="M 656 943 L 656 631 L 623 631 Q 585 778 525.5 831 Q 466 884 374 884 Q 304 884 261 847 Q 218 810 218 765 Q 218 709 250 669 Q 281 628 376 582 L 522 511 Q 725 412 725 250 Q 725 125 630.5 48.5 Q 536 -28 419 -28 Q 335 -28 227 2 Q 194 12 173 12 Q 150 12 137 -14 L 104 -14 L 104 313 L 137 313 Q 165 173 244 102 Q 323 31 421 31 Q 490 31 533.5 71.5 Q 577 112 577 169 Q 577 238 528.5 285 Q 480 332 335 404 Q 190 476 145 534 Q 100 591 100 678 Q 100 791 177.5 867 Q 255 943 378 943 Q 432 943 509 920 Q 560 905 577 905 Q 593 905 602 912 Q 611 919 623 943 L 656 943 Z "/><path id="gM22VLFc" class="outline_glyph" d="M 330 1217 L 330 916 L 544 916 L 544 846 L 330 846 L 330 252 Q 330 163 355.5 132 Q 381 101 421 101 Q 454 101 485 121.5 Q 516 142 533 182 L 572 182 Q 537 84 473 34.5 Q 409 -15 341 -15 Q 295 -15 251 10.5 Q 207 36 186 83.5 Q 165 131 165 230 L 165 846 L 20 846 L 20 879 Q 75 901 132.5 953.5 Q 190 1006 235 1078 Q 258 1116 299 1217 L 330 1217 Z "/><path id="gM22VLFg" class="outline_glyph" d="M 867 916 L 867 361 Q 867 202 874.5 166.5 Q 882 131 898.5 117 Q 915 103 937 103 Q 968 103 1007 120 L 1021 85 L 747 -28 L 702 -28 L 702 166 Q 584 38 522 5 Q 460 -28 391 -28 Q 314 -28 257.5 16.5 Q 201 61 179 131 Q 157 201 157 329 L 157 738 Q 157 803 143 828 Q 129 853 101.5 866.5 Q 74 880 2 879 L 2 916 L 323 916 L 323 303 Q 323 175 367.5 135 Q 412 95 475 95 Q 518 95 572.5 122 Q 627 149 702 225 L 702 744 Q 702 822 673.5 849.5 Q 645 877 555 879 L 555 916 L 867 916 Z "/></defs><defs class="clip-path"></defs><style type="text/css"></style><g class="typst-page" transform="translate(0, 0)" data-tid="pY3oV1itpwlkcvQ5ug4Leyg" data-page-width="320" data-page-height="56"><g data-tid="gY3oV1itpwlkcvQ5ug4Leyg" class="typst-group"><g transform="translate(0.000,0.000)" data-tid="p3YzZXd21uAMb8rKGFsGAPs"><g data-tid="g3YzZXd21uAMb8rKGFsGAPs"><path class="typst-shape" d="M 0 0 L 0 55.435936 L 320 55.435936 L 320 0 Z " fill-rule="nonzero" fill="#fff" /></g></g><g transform="translate(8.000,8.000)" data-tid="pe/wyz4AI7zUcmd2zgGxnS8"><g data-tid="ge/wyz4AI7zUcmd2zgGxnS8" class="typst-group"><g transform="translate(0.000,7.945)" data-tid="pTt+NIS60oeIEa6gv11O+6g"><g data-tid="gTt+NIS60oeIEa6gv11O+6g" class="typst-text" fill="#000" transform="scale(0.005859375,-0.005859375)"><use x="0" y="0" href="#gM22VLC8"/><use x="1251" y="0" href="#gM22VLFI"/><use x="2275" y="0" href="#gM22VLFU"/><use x="2957" y="0" href="#gM22VLEg"/><use x="3866" y="0" href="#gM22VLFA"/><use x="5459" y="0" href="#gM22VLAM"/><use x="5971" y="0" href="#gM22VLEw"/><use x="6540" y="0" href="#gM22VLFM"/><use x="7564" y="0" href="#gM22VLFY"/><use x="8361" y="0" href="#gM22VLFg"/><use x="9385" y="0" href="#gM22VLFA"/><use x="10978" y="0" href="#gM22VLAM"/><use x="11490" y="0" href="#gM22VLEc"/><use x="12514" y="0" href="#gM22VLFI"/><use x="13538" y="0" href="#gM22VLE8"/><use x="14107" y="0" href="#gM22VLFI"/><use x="15131" y="0" href="#gM22VLFU"/><use x="15813" y="0" href="#gM22VLAM"/><use x="16325" y="0" href="#gM22VLFY"/><use x="17122" y="0" href="#gM22VLEw"/><use x="17691" y="0" href="#gM22VLFc"/><use x="18260" y="0" href="#gM22VLAM"/><use x="18772" y="0" href="#gM22VLEQ"/><use x="19681" y="0" href="#gM22VLFA"/><use x="21274" y="0" href="#gM22VLEg"/><use x="22183" y="0" href="#gM22VLFc"/><use x="22752" y="0" href="#gM22VLA8"/><use x="23264" y="0" href="#gM22VLAM"/><use x="23776" y="0" href="#gM22VLEY"/><use x="24685" y="0" href="#gM22VLFI"/><use x="25709" y="0" href="#gM22VLFE"/><use x="26733" y="0" href="#gM22VLFY"/><use x="27530" y="0" href="#gM22VLEg"/><use x="28439" y="0" href="#gM22VLEY"/><use x="29348" y="0" href="#gM22VLFc"/><use x="29917" y="0" href="#gM22VLEg"/><use x="30826" y="0" href="#gM22VLFc"/><use x="31395" y="0" href="#gM22VLFg"/><use x="32419" y="0" href="#gM22VLFU"/><use x="33101" y="0" href="#gM22VLAM"/><use x="33613" y="0" href="#gM22VLEQ"/><use x="34522" y="0" href="#gM22VLEc"/><use x="35546" y="0" href="#gM22VLEw"/><use x="36115" y="0" href="#gM22VLFM"/><use x="37139" y="0" href="#gM22VLEw"/><use x="37708" y="0" href="#gM22VLFY"/><use x="38505" y="0" href="#gM22VLEY"/><use x="39414" y="0" href="#gM22VLEw"/><use x="39983" y="0" href="#gM22VLFE"/><use x="41007" y="0" href="#gM22VLEo"/><use x="42031" y="0" href="#gM22VLAM"/><use x="42543" y="0" href="#gM22VLEg"/><use x="43452" y="0" href="#gM22VLE8"/><use x="44021" y="0" href="#gM22VLEw"/><use x="44590" y="0" href="#gM22VLFc"/><use x="45159" y="0" href="#gM22VLA8"/><use x="45671" y="0" href="#gM22VLAM"/><use x="46183" y="0" href="#gM22VLFY"/><use x="46980" y="0" href="#gM22VLEg"/><use x="47889" y="0" href="#gM22VLEc"/><use x="48913" y="0" href="#gM22VLAM"/><use x="49425" y="0" href="#gM22VLEc"/><use x="50449" y="0" href="#gM22VLFI"/><use x="51473" y="0" href="#gM22VLAM"/><g transform="scale(16,-16)"><foreignObject x="0" y="-88.75" width="3217.06" height="128.00"><h5:div class="tsel" style="font-size: 128px">Lorem ipsum dolor sit amet, consectetur adipiscing elit, sed do </h5:div></foreignObject></g></g></g><g transform="translate(0.000,0.000)" data-tid="p3usBfp38gPw5LoH1FwsoEo"><g data-tid="g3usBfp38gPw5LoH1FwsoEo" class="typst-content-hint" data-hint="20"></g></g></g></g><g transform="translate(8.000,23.745)" data-tid="pm7gMnisTnlYtxO4GG010Y0"><g data-tid="gm7gMnisTnlYtxO4GG010Y0" class="typst-group"><g transform="translate(0.000,7.945)" data-tid="pjtWLTVoH0CUxlFbdTWG0/U"><g data-tid="gjtWLTVoH0CUxlFbdTWG0/U" class="typst-text" fill="#000" transform="scale(0.005859375,-0.005859375)"><use x="0" y="0" href="#gM22VLEg"/><use x="909" y="0" href="#gM22VLEw"/><use x="1478" y="0" href="#gM22VLFg"/><use x="2502" y="0" href="#gM22VLFY"/><use x="3299" y="0" href="#gM22VLFA"/><use x="4892" y="0" href="#gM22VLFI"/><use x="5916" y="0" href="#gM22VLEc"/><use x="6940" y="0" href="#gM22VLAM"/><use x="7452" y="0" href="#gM22VLFc"/><use x="8021" y="0" href="#gM22VLEg"/><use x="8930" y="0" href="#gM22VLFA"/><use x="10523" y="0" href="#gM22VLFM"/><use x="11547" y="0" href="#gM22VLFI"/><use x="12571" y="0" href="#gM22VLFU"/><use x="13253" y="0" href="#gM22VLAM"/><use x="13765" y="0" href="#gM22VLEw"/><use x="14334" y="0" href="#gM22VLFE"/><use x="15358" y="0" href="#gM22VLEY"/><use x="16267" y="0" href="#gM22VLEw"/><use x="16836" y="0" href="#gM22VLEc"/><use x="17860" y="0" href="#gM22VLEw"/><use x="18429" y="0" href="#gM22VLEc"/><use x="19453" y="0" href="#gM22VLFg"/><use x="20477" y="0" href="#gM22VLFE"/><use x="21501" y="0" href="#gM22VLFc"/><use x="22070" y="0" href="#gM22VLAM"/><use x="22582" y="0" href="#gM22VLFg"/><use x="23606" y="0" href="#gM22VLFc"/><use x="24175" y="0" href="#gM22VLAM"/><use x="24687" y="0" href="#gM22VLE8"/><use x="25256" y="0" href="#gM22VLEQ"/><use x="26165" y="0" href="#gM22VLEU"/><use x="27189" y="0" href="#gM22VLFI"/><use x="28213" y="0" href="#gM22VLFU"/><use x="28895" y="0" href="#gM22VLEg"/><use x="29804" y="0" href="#gM22VLAM"/><use x="30316" y="0" href="#gM22VLEg"/><use x="31225" y="0" href="#gM22VLFc"/><use x="31794" y="0" href="#gM22VLAM"/><use x="32306" y="0" href="#gM22VLEc"/><use x="33330" y="0" href="#gM22VLFI"/><use x="34354" y="0" href="#gM22VLE8"/><use x="34923" y="0" href="#gM22VLFI"/><use x="35947" y="0" href="#gM22VLFU"/><use x="36629" y="0" href="#gM22VLEg"/><use x="37538" y="0" href="#gM22VLAM"/><use x="38050" y="0" href="#gM22VLFA"/><use x="39643" y="0" href="#gM22VLEQ"/><use x="40552" y="0" href="#gM22VLEo"/><use x="41576" y="0" href="#gM22VLFE"/><use x="42600" y="0" href="#gM22VLEQ"/><use x="43509" y="0" href="#gM22VLFA"/><use x="45102" y="0" href="#gM22VLAM"/><g transform="scale(16,-16)"><foreignObject x="0" y="-88.75" width="2818.88" height="128.00"><h5:div class="tsel" style="font-size: 128px">eiusmod tempor incididunt ut labore et dolore magnam </h5:div></foreignObject></g></g></g><g transform="translate(0.000,0.000)" data-tid="p3usBfp38gPw5LoH1FwsoEo"><g data-tid="g3usBfp38gPw5LoH1FwsoEo" class="typst-content-hint" data-hint="20"></g></g></g></g><g transform="translate(8.000,39.491)" data-tid="phG4u+HdShOIWSCDmdqe6sk"><g data-tid="ghG4u+HdShOIWSCDmdqe6sk" class="typst-group"><g transform="translate(0.000,7.945)" data-tid="pLQkVovUMXswBufjnia7V1g"><g data-tid="gLQkVovUMXswBufjnia7V1g" class="typst-text" fill="#000" transform="scale(0.005859375,-0.005859375)"><use x="0" y="0" href="#gM22VLEQ"/><use x="909" y="0" href="#gM22VLE8"/><use x="1478" y="0" href="#gM22VLEw"/><use x="2047" y="0" href="#gM22VLFQ"/><use x="3071" y="0" href="#gM22VLFg"/><use x="4095" y="0" href="#gM22VLEQ"/><use x="5004" y="0" href="#gM22VLFA"/><use x="6597" y="0" href="#gM22VLAM"/><use x="7109" y="0" href="#gM22VLFQ"/><use x="8133" y="0" href="#gM22VLFg"/><use x="9157" y="0" href="#gM22VLEQ"/><use x="10066" y="0" href="#gM22VLEg"/><use x="10975" y="0" href="#gM22VLFU"/><use x="11657" y="0" href="#gM22VLEQ"/><use x="12566" y="0" href="#gM22VLFc"/><use x="13135" y="0" href="#gM22VLBE"/><g transform="scale(16,-16)"><foreignObject x="0" y="-88.75" width="852.94" height="128.00"><h5:div class="tsel" style="font-size: 128px">aliquam quaerat.</h5:div></foreignObject></g></g></g><g transform="translate(0.000,0.000)" data-tid="pDgsjYLTg9DIxe7neLL45F8"><g data-tid="gDgsjYLTg9DIxe7neLL45F8" class="typst-content-hint" data-hint="a"></g></g></g></g></g></g></svg>