<svg class="typst-doc" viewBox="0 0 380 140.3175" width="380pt" height="140.3175pt" xmlns="http://www.w3.org/2000/svg" xmlns:xlink="http://www.w3.org/1999/xlink" xmlns:h5="http://www.w3.org/1999/xhtml">
    <path class="typst-shape" fill="#ffffff" fill-rule="nonzero" d="M 0 0v 140.3175 h 380 v -140.3175 Z "/>
    <g>
        <g class="typst-group" transform="matrix(1 0 0 1 12 12)">
            <g>
                <g class="typst-text" transform="matrix(1 0 0 -1 0 12.050390624999999)">
                    <use xlink:href="#g90843CF73CBA09302832C159123FE758" x="0" y="0" fill="#000000" fill-rule="nonzero"/>
                    <use xlink:href="#gFFCD814133006C2625CF336C671C340D" x="13.143457031249998" y="0" fill="#000000" fill-rule="nonzero"/>
                    <use xlink:href="#g955B0E881B95ABD5F9CB5BB03632A7DA" x="23.265429687499996" y="0" fill="#000000" fill-rule="nonzero"/>
                    <use xlink:href="#g217EEA5AF8FAB132F898F8BA426062D7" x="34.18720703125" y="0" fill="#000000" fill-rule="nonzero"/>
                    <use xlink:href="#g1D8BB6C566969C81B6BEE2790F4BF27C" x="44.26474609374999" y="0" fill="#000000" fill-rule="nonzero"/>
                    <use xlink:href="#gDE09573033A475CEAACD42F659D3D82" x="54.386718749999986" y="0" fill="#000000" fill-rule="nonzero"/>
                    <use xlink:href="#gBA945210333E1EA0AA8E19D5BA013065" x="68.03671874999998" y="0" fill="#000000" fill-rule="nonzero"/>
                    <use xlink:href="#g31A21FE9BD78CD16B1E5FD7C1B674776" x="77.13671874999997" y="0" fill="#000000" fill-rule="nonzero"/>
                    <use xlink:href="#gD33D5413AF832836291B5E78AB8BECE0" x="87.74746093749997" y="0" fill="#000000" fill-rule="nonzero"/>
                    <use xlink:href="#gC0F18EC2FC0EBFCF8F228C201C612436" x="101.90400390624997" y="0" fill="#000000" fill-rule="nonzero"/>
                    <use xlink:href="#g7B209D9975A6498DDE2D77BA90F8C732" x="106.96054687499996" y="0" fill="#000000" fill-rule="nonzero"/>
                    <use xlink:href="#gC0F18EC2FC0EBFCF8F228C201C612436" x="117.03808593749996" y="0" fill="#000000" fill-rule="nonzero"/>
                    <use xlink:href="#gB575E7F0E99BC34FB555A862FB157164" x="126.64462890624995" y="0" fill="#000000" fill-rule="nonzero"/>
                    <use xlink:href="#gFFCD814133006C2625CF336C671C340D" x="132.70537109374996" y="0" fill="#000000" fill-rule="nonzero"/>
                    <use xlink:href="#gC0F18EC2FC0EBFCF8F228C201C612436" x="142.82734374999995" y="0" fill="#000000" fill-rule="nonzero"/>
                    <use xlink:href="#g3BC75630EB68FBB3607DFB30E43CED3B" x="147.88388671874995" y="0" fill="#000000" fill-rule="nonzero"/>
                    <use xlink:href="#g45CC5863A1EE035EA829B88FCBE884E2" x="155.96191406249994" y="0" fill="#000000" fill-rule="nonzero"/>
                </g>
            </g>
        </g>
        <g class="typst-group">
            <g>
                <g class="typst-text" transform="matrix(1 0 0 -1 12 42.40781249999999)">
                    <use xlink:href="#gA1BA951944FBA545F8E3F38D8830DFC5" x="0" y="0" fill="#000000" fill-rule="nonzero"/>
                    <use xlink:href="#gF2D171D10C769C98038956B741346797" x="9.38818359375" y="0" fill="#000000" fill-rule="nonzero"/>
                    <use xlink:href="#gA750AB72109E0A777EEC2ADB90813428" x="15.88818359375" y="0" fill="#000000" fill-rule="nonzero"/>
                    <use xlink:href="#g6CFDF21DA7A6F6359AADA2D8B266CF44" x="21.658203125" y="0" fill="#000000" fill-rule="nonzero"/>
                    <use xlink:href="#g71D652B9BC8E16C64CED21EFEE5BA9CE" x="31.408203125" y="0" fill="#000000" fill-rule="nonzero"/>
                    <use xlink:href="#g4B2DAA9DB619421059FB462E4BAE4775" x="37.908203125" y="0" fill="#000000" fill-rule="nonzero"/>
                    <use xlink:href="#g6CFDF21DA7A6F6359AADA2D8B266CF44" x="43.67822265625" y="0" fill="#000000" fill-rule="nonzero"/>
                    <use xlink:href="#g767D5D8D4161AA014B61B564E4EF8B6" x="53.42822265625" y="0" fill="#000000" fill-rule="nonzero"/>
                    <use xlink:href="#gB5CC8713B9486AE9A3789CFA9F4E136B" x="59.1982421875" y="0" fill="#000000" fill-rule="nonzero"/>
                    <use xlink:href="#g767D5D8D4161AA014B61B564E4EF8B6" x="68.9482421875" y="0" fill="#000000" fill-rule="nonzero"/>
                    <use xlink:href="#gCAC099A4189AF6595F6639F2BC3139FD" x="74.71826171875" y="0" fill="#000000" fill-rule="nonzero"/>
                    <use xlink:href="#g2CCFE655BFC88140262DBD0E412860CE" x="81.21826171875" y="0" fill="#000000" fill-rule="nonzero"/>
                </g>
                <g class="typst-text" transform="matrix(1 0 0 -1 103.51416015625 42.40781249999999)">
                    <use xlink:href="#g49DFA6B96F2416A69A99F5F32DB39959" x="0" y="0" fill="#000000" fill-rule="nonzero"/>
                    <use xlink:href="#g535E590044B24B72788CE68A4E41FF4E" x="3.61181640625" y="0" fill="#000000" fill-rule="nonzero"/>
                    <use xlink:href="#gB2A4736B3E721EC1FA24BEB7EAD0A2A9" x="14.091796875" y="0" fill="#000000" fill-rule="nonzero"/>
                    <use xlink:href="#gFDB736A10299F5CF8D974FE172DAD66F" x="21.32177734375" y="0" fill="#000000" fill-rule="nonzero"/>
                    <use xlink:href="#gE6721FB37AA44DFB2D1F528DA0A470C1" x="27.82177734375" y="0" fill="#000000" fill-rule="nonzero"/>
                </g>
                <g class="typst-text" transform="matrix(1 0 0 -1 142.1650390625 42.40781249999999)">
                    <use xlink:href="#g71D652B9BC8E16C64CED21EFEE5BA9CE" x="3.25" y="0" fill="#000000" fill-rule="nonzero"/>
                    <use xlink:href="#gE9B50F876700D91F83C187DA7F60B64C" x="9.75" y="0" fill="#000000" fill-rule="nonzero"/>
                </g>
                <g class="typst-text" transform="matrix(1 0 0 -1 160.93505859375 42.40781249999999)">
                    <use xlink:href="#g9488F5A55D64F3D287F36E175DC467E8" x="0" y="0" fill="#000000" fill-rule="nonzero"/>
                    <use xlink:href="#g8D5EA0A852B3251B6835D1A73CE096F0" x="3.61181640625" y="0" fill="#000000" fill-rule="nonzero"/>
                    <use xlink:href="#g8D5EA0A852B3251B6835D1A73CE096F0" x="13.36181640625" y="0" fill="#000000" fill-rule="nonzero"/>
                    <use xlink:href="#g814EB44AD58D565DD67EEDDEC5B3B0C" x="19.86181640625" y="0" fill="#000000" fill-rule="nonzero"/>
                    <use xlink:href="#g3E93B832B24D87EEB5BF8526807CA9B6" x="26.36181640625" y="0" fill="#000000" fill-rule="nonzero"/>
                    <use xlink:href="#g9488F5A55D64F3D287F36E175DC467E8" x="32.86181640625" y="0" fill="#000000" fill-rule="nonzero"/>
                    <use xlink:href="#g94742149828FB358C586DB678DE55A04" x="36.4736328125" y="0" fill="#000000" fill-rule="nonzero"/>
                    <use xlink:href="#g8D5EA0A852B3251B6835D1A73CE096F0" x="42.24365234375" y="0" fill="#000000" fill-rule="nonzero"/>
                    <use xlink:href="#g814EB44AD58D565DD67EEDDEC5B3B0C" x="48.74365234375" y="0" fill="#000000" fill-rule="nonzero"/>
                </g>
                <g class="typst-text" transform="matrix(1 0 0 -1 216.1787109375 42.40781249999999)">
                    <use xlink:href="#gF7FEF0E8A1EE9ED0CBEEB10BE45EF9C4" x="0" y="0" fill="#000000" fill-rule="nonzero"/>
                </g>
            </g>
        </g>
        <g class="typst-group">
            <g>
                <g class="typst-text" transform="matrix(1 0 0 -1 12 66.615234375)">
                    <use xlink:href="#g68A5F706D7DF781995899F0196A7159D" x="0" y="0" fill="#000000" fill-rule="nonzero"/>
                </g>
                <g class="typst-text" transform="matrix(1 0 0 -1 23.05126953125 66.615234375)">
                    <use xlink:href="#gF6C49552EFD33DB4E94C681CB2AF67FF" x="0" y="0" fill="#000000" fill-rule="nonzero"/>
                    <use xlink:href="#gC98E45DCE5F5E8A62DD7033A29335537" x="11.55908203125" y="0" fill="#000000" fill-rule="nonzero"/>
                    <use xlink:href="#g767D5D8D4161AA014B61B564E4EF8B6" x="18.05908203125" y="0" fill="#000000" fill-rule="nonzero"/>
                    <use xlink:href="#gBD42DD53FD2BA9C6C9E4C134F5EFFC6A" x="27.0791015625" y="0" fill="#000000" fill-rule="nonzero"/>
                    <use xlink:href="#gCAC099A4189AF6595F6639F2BC3139FD" x="30.69091796875" y="0" fill="#000000" fill-rule="nonzero"/>
                    <use xlink:href="#gEFBB52318EC36D6EA71CE06D73E78710" x="37.19091796875" y="0" fill="#000000" fill-rule="nonzero"/>
                    <use xlink:href="#g6CFDF21DA7A6F6359AADA2D8B266CF44" x="47.48681640625" y="0" fill="#000000" fill-rule="nonzero"/>
                    <use xlink:href="#gCAC099A4189AF6595F6639F2BC3139FD" x="53.98681640625" y="0" fill="#000000" fill-rule="nonzero"/>
                    <use xlink:href="#g2F7854FA5C0F7C5B09A5769F4C5553BF" x="60.48681640625" y="0" fill="#000000" fill-rule="nonzero"/>
                    <use xlink:href="#gBD42DD53FD2BA9C6C9E4C134F5EFFC6A" x="66.2568359375" y="0" fill="#000000" fill-rule="nonzero"/>
                </g>
            </g>
        </g>
        <g class="typst-group">
            <g/>
        </g>
        <g class="typst-group">
            <g>
                <g class="typst-text" transform="matrix(1 0 0 -1 12 85.36265624999999)">
                    <use xlink:href="#g68A5F706D7DF781995899F0196A7159D" x="0" y="0" fill="#000000" fill-rule="nonzero"/>
                </g>
                <g class="typst-text" transform="matrix(1 0 0 -1 23.05126953125 85.36265624999999)">
                    <use xlink:href="#gF6C49552EFD33DB4E94C681CB2AF67FF" x="0" y="0" fill="#000000" fill-rule="nonzero"/>
                    <use xlink:href="#gC98E45DCE5F5E8A62DD7033A29335537" x="11.55908203125" y="0" fill="#000000" fill-rule="nonzero"/>
                    <use xlink:href="#g767D5D8D4161AA014B61B564E4EF8B6" x="18.05908203125" y="0" fill="#000000" fill-rule="nonzero"/>
                    <use xlink:href="#gBD42DD53FD2BA9C6C9E4C134F5EFFC6A" x="27.0791015625" y="0" fill="#000000" fill-rule="nonzero"/>
                    <use xlink:href="#gCAC099A4189AF6595F6639F2BC3139FD" x="30.69091796875" y="0" fill="#000000" fill-rule="nonzero"/>
                    <use xlink:href="#gEFBB52318EC36D6EA71CE06D73E78710" x="37.19091796875" y="0" fill="#000000" fill-rule="nonzero"/>
                    <use xlink:href="#gCAC099A4189AF6595F6639F2BC3139FD" x="47.48681640625" y="0" fill="#000000" fill-rule="nonzero"/>
                    <use xlink:href="#g909F1274A9E0ACE711A03D00E37A610F" x="53.98681640625" y="0" fill="#000000" fill-rule="nonzero"/>
                    <use xlink:href="#g2518B265077251C03AACCB672509399" x="59.7568359375" y="0" fill="#000000" fill-rule="nonzero"/>
                </g>
            </g>
        </g>
        <g class="typst-group">
            <g>
                <g class="typst-text" transform="matrix(1 0 0 -1 12 109.570078125)">
                    <use xlink:href="#gB4717267DA0F68F6AB23D5A0CE82DA" x="0" y="0" fill="#000000" fill-rule="nonzero"/>
                    <use xlink:href="#gF7FEF0E8A1EE9ED0CBEEB10BE45EF9C4" x="6.5" y="0" fill="#000000" fill-rule="nonzero"/>
                </g>
                <g class="typst-text" transform="matrix(1 0 0 -1 28.25 109.570078125)">
                    <use xlink:href="#gB1946B9FCBE5A6509B8793CDAF06C747" x="0" y="0" fill="#000000" fill-rule="nonzero"/>
                    <use xlink:href="#gDB73607673E8736F4966B9A3FAAF04D" x="8.6708984375" y="0" fill="#000000" fill-rule="nonzero"/>
                    <use xlink:href="#g2D276A03B928AFF7FAF26AA34318106" x="15.716796875" y="0" fill="#000000" fill-rule="nonzero"/>
                    <use xlink:href="#g767D5D8D4161AA014B61B564E4EF8B6" x="22.59130859375" y="0" fill="#000000" fill-rule="nonzero"/>
                    <use xlink:href="#gF0461511323F2853E171F2D0B3BE66DD" x="31.611328125" y="0" fill="#000000" fill-rule="nonzero"/>
                    <use xlink:href="#g62F64665D74B9842012FB5F3545AA80" x="41.72314453125" y="0" fill="#000000" fill-rule="nonzero"/>
                    <use xlink:href="#gBD42DD53FD2BA9C6C9E4C134F5EFFC6A" x="48.22314453125" y="0" fill="#000000" fill-rule="nonzero"/>
                </g>
            </g>
        </g>
        <g class="typst-group">
            <g/>
        </g>
        <g class="typst-group">
            <g>
                <g class="typst-text" transform="matrix(1 0 0 -1 12 128.3175)">
                    <use xlink:href="#gA0C180F90A4F89F4F6B5BCB1A06FD148" x="0" y="0" fill="#000000" fill-rule="nonzero"/>
                    <use xlink:href="#gF7FEF0E8A1EE9ED0CBEEB10BE45EF9C4" x="6.5" y="0" fill="#000000" fill-rule="nonzero"/>
                </g>
                <g class="typst-text" transform="matrix(1 0 0 -1 28.25 128.3175)">
                    <use xlink:href="#gB1946B9FCBE5A6509B8793CDAF06C747" x="0" y="0" fill="#000000" fill-rule="nonzero"/>
                    <use xlink:href="#gDB73607673E8736F4966B9A3FAAF04D" x="8.6708984375" y="0" fill="#000000" fill-rule="nonzero"/>
                    <use xlink:href="#g2D276A03B928AFF7FAF26AA34318106" x="15.716796875" y="0" fill="#000000" fill-rule="nonzero"/>
                    <use xlink:href="#g767D5D8D4161AA014B61B564E4EF8B6" x="22.59130859375" y="0" fill="#000000" fill-rule="nonzero"/>
                    <use xlink:href="#gCAC099A4189AF6595F6639F2BC3139FD" x="31.611328125" y="0" fill="#000000" fill-rule="nonzero"/>
                    <use xlink:href="#g909F1274A9E0ACE711A03D00E37A610F" x="38.111328125" y="0" fill="#000000" fill-rule="nonzero"/>
                    <use xlink:href="#g2518B265077251C03AACCB672509399" x="43.88134765625" y="0" fill="#000000" fill-rule="nonzero"/>
                </g>
            </g>
        </g>
    </g>
    <defs id="glyph">
        <symbol id="g90843CF73CBA09302832C159123FE758" overflow="visible">
            <path d="M 0 0m 12.148145 12.325879 v -4.176758 h -0.34658146 q -0.391016 1.6351566 -1.4574223 2.5060549 q -1.0664063 0.87089825 -2.4171877 0.87089825 q -1.128613 0 -2.0706053 -0.6487303 q -0.9419923 -0.6487303 -1.3774414 -1.6973629 q -0.55986357 -1.3418951 -0.55986357 -2.985938 q 0 -1.617383 0.40878916 -2.9459474 q 0.40878916 -1.3285644 1.2796874 -2.0083985 q 0.8708987 -0.679834 2.257227 -0.679834 q 1.1375003 0 2.0839353 0.49765623 q 0.9464359 0.49765635 1.9950686 1.7151369 v -1.0397462 q -1.0130863 -1.0575197 -2.1105957 -1.5329591 q -1.0975094 -0.4754395 -2.5638185 -0.4754395 q -1.9284182 0 -3.4258301 0.7731446 q -1.4974122 0.77314454 -2.3105469 2.2216797 q -0.81313485 1.4485354 -0.81313485 3.0836916 q 0 1.7240233 0.90200204 3.2703128 q 0.902002 1.5462885 2.4349613 2.399414 q 1.532959 0.8531246 3.2569823 0.8531246 q 1.2708011 0 2.6837888 -0.5509758 q 0.8175783 -0.31992245 1.0397463 -0.31992245 q 0.2843752 0 0.49321365 0.20883846 q 0.20883751 0.20883751 0.27104473 0.6620598 h 0.34658146 Z "/>
        </symbol>
        <symbol id="gFFCD814133006C2625CF336C671C340D" overflow="visible">
            <path d="M 0 0m 4.0079103 12.050391 v -4.807715 q 0.68427753 0.7198243 1.2530274 1.017529 q 0.5687499 0.29770565 1.1819339 0.29770565 q 0.78203106 0 1.337451 -0.44433594 q 0.5554204 -0.4443364 0.73759794 -1.0441899 q 0.18217754 -0.5998535 0.18217754 -2.0217285 v -3.2436526 q 0 -0.9508789 0.17773438 -1.186377 q 0.17773438 -0.23549804 0.71982384 -0.29770508 v -0.31992188 h -4.2123046 v 0.31992188 q 0.44433594 0.062207043 0.6665039 0.35546878 q 0.15996122 0.23105466 0.15996122 1.1286132 v 3.7057617 q 0 1.0308595 -0.07998037 1.2930179 q -0.07998085 0.2621584 -0.2710452 0.40878916 q -0.19106436 0.14663076 -0.43100595 0.14663076 q -0.35546875 0 -0.6931639 -0.24438477 q -0.3376956 -0.24438477 -0.7287111 -0.85756826 v -4.4522467 q 0 -0.8886719 0.13330078 -1.1108398 q 0.16884756 -0.30214846 0.69316435 -0.37324223 v -0.31992188 h -4.212305 v 0.31992188 q 0.52431643 0.05332032 0.7464844 0.33769533 q 0.15107429 0.19550782 0.15107429 1.1463867 v 8.442384 q 0 0.9419918 -0.17329109 1.1730471 q -0.17329097 0.2310543 -0.7242676 0.30214787 v 0.32880878 h 3.38584 Z "/>
        </symbol>
        <symbol id="g955B0E881B95ABD5F9CB5BB03632A7DA" overflow="visible">
            <path d="M 0 0m 9.730957 6.265137 q 0.106640816 0.05331993 0.18662167 0.22216797 q 0.035546303 0.08886719 0 0.15107393 q -0.035547256 0.071094036 -0.35546875 0.26660156 q -0.13330078 0.08886719 -0.22216797 0.24882841 q -0.21328163 0.3643551 -0.124414444 0.7020507 q 0.09775448 0.35546875 0.4709959 0.5598631 q 0.37324238 0.20439434 0.79091835 0.07998085 q 0.8175783 -0.24882793 0.8175783 -1.1463871 q 0 -0.23994112 -0.08886719 -0.5065427 q -0.195508 -0.59541035 -0.89755917 -0.8620119 q -0.6576166 -0.25771475 -1.6707029 -0.24882793 v -3.92793 q 0 -0.915332 0.17773438 -1.1908203 q 0.15107441 -0.2310547 0.7198248 -0.29326174 v -0.31992188 h -3.3858404 v 1.1108398 q -1.1374998 -1.359668 -2.5238283 -1.359668 q -0.6842773 0 -1.2441406 0.43544924 q -0.5420898 0.40878907 -0.7331543 0.9953126 q -0.19106448 0.5865234 -0.19106448 2.026172 v 3.2969728 q 0 0.9153323 -0.17773438 1.1730471 q -0.15107417 0.23105478 -0.7198242 0.30214834 v 0.3288083 h 3.38584 v -5.678613 q 0 -1.2796875 0.355469 -1.5374024 q 0.17773438 -0.13330078 0.4176755 -0.13330078 q 0.64873075 0 1.4307618 1.1019533 v 4.4433594 q 0 0.9153323 -0.17773438 1.1730471 q -0.15107393 0.23105478 -0.7198243 0.30214834 v 0.3288083 h 3.38584 v -2.2483397 q 0.7198248 0.03554678 1.0930662 0.20439482 Z "/>
        </symbol>
        <symbol id="g217EEA5AF8FAB132F898F8BA426062D7" overflow="visible">
            <path d="M 0 0m 10.415235 7.509278 q -0.21328068 -0.6309571 -0.8975582 -0.9153323 q -0.46210957 -0.18662119 -1.5462894 -0.18662119 q 0.4798832 -1.0308595 0.4798832 -2.2572265 q 0 -1.7684572 -0.8975587 -2.9592776 q -1.0841799 -1.4396485 -2.9948244 -1.4396485 q -1.8040042 0 -2.8881838 1.3152344 q -1.013086 1.2263672 -1.013086 3.0481448 q 0 1.8573241 1.0308595 3.1192384 q 1.0930663 1.3241215 2.84375 1.3241215 q 1.1997075 0 2.0706058 -0.586524 q 0.24882793 -0.17773438 0.8620119 -0.7909179 q 0.34658194 -0.36435556 0.7909179 -0.37324238 q 0.3465824 -0.008886337 0.54208946 0.062207222 q 0.2399416 0.08886719 0.31992245 0.2843752 q 0.044433594 0.08886719 0.008886337 0.14218712 q -0.20439434 0.106640816 -0.58652306 0.51543 q -0.20439434 0.3643551 -0.11552715 0.70205116 q 0.08886719 0.35546875 0.46655273 0.56430626 q 0.37768555 0.20883751 0.7864742 0.08442402 q 0.4798832 -0.15107441 0.70205116 -0.6220703 q 0.22216797 -0.4709959 0.035546303 -1.0308595 Z m -4.57666 -2.666016 q 0 1.4218755 -0.16884756 2.0706058 q -0.1421876 0.54208994 -0.49765635 0.82646465 q -0.23105478 0.18662119 -0.6042967 0.18662119 q -1.0308597 0 -1.1997073 -1.6884766 q -0.10664058 -1.0130858 -0.10664058 -2.8082032 q 0 -0.9597657 0.12441397 -1.7773438 q 0.19550776 -1.2885743 1.1463866 -1.2885743 q 0.9064455 0 1.1286135 1.0664064 q 0.17773438 0.8442383 0.17773438 3.4125 Z "/>
        </symbol>
        <symbol id="g1D8BB6C566969C81B6BEE2790F4BF27C" overflow="visible">
            <path d="M 0 0m 4.0079103 8.309082 v -1.0752926 q 0.63984394 0.6931639 1.2263675 1.0086422 q 0.58652353 0.31547928 1.2619138 0.31547928 q 0.8086915 0 1.3418946 -0.44878006 q 0.5332031 -0.4487791 0.7109375 -1.115283 q 0.14218807 -0.5065427 0.14218807 -1.9461913 v -3.234766 q 0 -0.9597656 0.17329025 -1.1952636 q 0.1732912 -0.23549804 0.72426796 -0.29770508 v -0.31992188 h -4.2034183 v 0.31992188 q 0.47099638 0.062207043 0.6753907 0.39101562 q 0.1421876 0.22216803 0.1421876 1.1019531 v 3.696875 q 0 1.0219731 -0.07998037 1.2885747 q -0.07998037 0.26660156 -0.2710452 0.41323233 q -0.19106436 0.14663076 -0.42211914 0.14663076 q -0.7642579 0 -1.421875 -1.0930662 v -4.4522467 q 0 -0.93310547 0.1732912 -1.1819336 q 0.17329073 -0.24882814 0.6442871 -0.3110352 v -0.31992188 h -4.2034183 v 0.31992188 q 0.52431643 0.05332032 0.7464844 0.33769533 q 0.15107429 0.19550782 0.15107429 1.1552734 v 4.692188 q 0 0.9419923 -0.17329109 1.1730471 q -0.17329097 0.23105478 -0.7242676 0.30214834 v 0.3288083 h 3.38584 Z "/>
        </symbol>
        <symbol id="gDE09573033A475CEAACD42F659D3D82" overflow="visible">
            <path d="M 0 0m 5.945215 8.2113285 h 2.7993164 v -0.97753906 h -1.5907226 q 0.43544912 -0.43544912 0.6042967 -0.7909179 q 0.21328115 -0.4798832 0.21328115 -1.0041995 q 0 -0.8886719 -0.4932127 -1.5418458 q -0.49321318 -0.6531737 -1.3418946 -1.0219727 q -0.8486819 -0.36879873 -1.506299 -0.36879873 q -0.053320408 0 -1.0664063 0.044433594 q -0.39990234 0 -0.6709473 -0.2621584 q -0.27104497 -0.26215816 -0.27104497 -0.6265136 q 0 -0.31992185 0.244385 -0.52431643 q 0.24438477 -0.20439452 0.7953613 -0.20439452 l 1.5374022 0.01777339 q 1.8662114 0 2.568262 -0.40878904 q 1.004199 -0.56875 1.004199 -1.7506838 q 0 -0.7553711 -0.46210957 -1.372998 q -0.4621091 -0.61762714 -1.2174802 -0.9108887 q -1.1463866 -0.43544936 -2.6393557 -0.43544936 q -1.1197264 0 -2.0439453 0.21772456 q -0.9242188 0.2177248 -1.3241211 0.6042969 q -0.3999024 0.38657236 -0.3999024 0.8131349 q 0 0.40878904 0.3065918 0.7331543 q 0.30659187 0.32436526 1.1419433 0.5465332 q -1.1552734 0.56875 -1.1552734 1.581836 q 0 0.6131836 0.47099608 1.1908203 q 0.47099614 0.5776367 1.4929688 1.0041993 q -1.1908203 0.43544936 -1.7240235 1.1463869 q -0.5332032 0.71093726 -0.5332032 1.6440427 q 0 1.2174807 0.9953125 2.1105962 q 0.9953126 0.8931155 2.5593753 0.8931155 q 0.82646465 0 1.7062502 -0.3465824 Z m -1.5374026 -0.20439434 q -0.51542974 0 -0.8708985 -0.51987314 q -0.35546875 -0.51987314 -0.35546875 -2.1550298 q 0 -1.324121 0.35102558 -1.8173339 q 0.35102534 -0.4932127 0.83090806 -0.4932127 q 0.5332031 0 0.8886719 0.48876953 q 0.35546875 0.48876953 0.35546875 1.901758 q 0 1.5907226 -0.39990234 2.1683593 q -0.2843747 0.4265628 -0.7998047 0.4265628 Z m -0.5243163 -9.233301 q -0.90644526 0 -1.199707 -0.15107417 q -0.50654316 -0.27548838 -0.50654316 -0.7464845 q 0 -0.4532225 0.52431655 -0.8220215 q 0.5243163 -0.36879873 1.9728515 -0.36879873 q 1.2352543 0 1.9417481 0.32880855 q 0.70649433 0.32880855 0.70649433 0.92421865 q 0 0.22216809 -0.13330078 0.37324226 q -0.2399416 0.26660168 -0.7242675 0.36435556 q -0.48432636 0.09775388 -2.581592 0.09775388 Z "/>
        </symbol>
        <symbol id="gBA945210333E1EA0AA8E19D5BA013065" overflow="visible">
            <path d="M 0 0m 5.9274416 12.299219 v -9.855371 q 0 -1.1108398 0.097754 -1.4174316 q 0.097754 -0.3065918 0.40878916 -0.50209963 q 0.31103516 -0.19550782 0.9953122 -0.19550782 h 0.27548838 v -0.3288086 h -6.3451176 v 0.3288086 h 0.31992185 q 0.7731446 0 1.1019531 0.17773438 q 0.32880878 0.17773438 0.44433594 0.4887696 q 0.11552739 0.31103516 0.11552739 1.4485351 v 6.247364 q 0 0.835351 -0.07998037 1.0441895 q -0.07998061 0.20883751 -0.29770517 0.35546875 q -0.21772456 0.14663029 -0.5020995 0.14663029 q -0.45322275 0 -1.1019533 -0.2843752 l -0.15996099 0.31992245 l 4.434473 2.0261717 h 0.29326153 Z "/>
        </symbol>
        <symbol id="g31A21FE9BD78CD16B1E5FD7C1B674776" overflow="visible">
            <path d="M 0 0m 3.039258 8.549024 q 0.6131835 0 1.0441895 -0.43100548 q 0.43100595 -0.43100595 0.43100595 -1.0441899 q 0 -0.6131835 -0.43100595 -1.0441895 q -0.43100595 -0.43100595 -1.0441895 -0.43100595 q -0.61318374 0 -1.0441896 0.43100595 q -0.43100584 0.43100595 -0.43100584 1.0441895 q 0 0.613184 0.43100584 1.0441899 q 0.43100584 0.43100548 1.0441896 0.43100548 Z m -0.008886814 -5.8119144 q 0.6220703 0 1.0530763 -0.43544912 q 0.43100595 -0.43544924 0.43100595 -1.0486329 q 0 -0.6131837 -0.43544912 -1.0441896 q -0.43544936 -0.4310059 -1.0486331 -0.4310059 q -0.6131835 0 -1.0441895 0.4310059 q -0.43100584 0.43100587 -0.43100584 1.0441896 q 0 0.6131836 0.43100584 1.0486329 q 0.43100595 0.43544912 1.0441895 0.43544912 Z "/>
        </symbol>
        <symbol id="gD33D5413AF832836291B5E78AB8BECE0" overflow="visible">
            <path d="M 0 0m 12.556934 12.325879 v -4.2478514 h -0.32880878 q -0.59541035 1.7417965 -1.786231 2.648242 q -1.1908197 0.9064455 -2.6038084 0.9064455 q -1.350781 0 -2.2483397 -0.75981426 q -0.8975587 -0.75981426 -1.2708011 -2.119483 q -0.37324214 -1.3596678 -0.37324214 -2.7904296 q 0 -1.7329102 0.40878892 -3.0392578 q 0.40878916 -1.3063477 1.3196778 -1.9195313 q 0.9108887 -0.6131836 2.163916 -0.6131836 q 0.4354496 0 0.89311504 0.093310535 q 0.4576664 0.093310535 0.9375496 0.27104497 v 2.5060549 q 0 0.7109375 -0.09775448 0.9197755 q -0.097753525 0.20883799 -0.4043455 0.37768555 q -0.306592 0.16884756 -0.74204063 0.16884756 h -0.31103516 v 0.32880878 h 5.856347 v -0.32880878 q -0.6665039 -0.044433594 -0.92866135 -0.18217754 q -0.2621584 -0.13774443 -0.40434647 -0.4576664 q -0.0799799 -0.16884756 -0.0799799 -0.82646465 v -2.5060549 q -1.1552734 -0.51542974 -2.4038582 -0.77758795 q -1.2485838 -0.26215822 -2.5904784 -0.26215822 q -1.7151365 0 -2.8481932 0.46655273 q -1.1330569 0.4665528 -1.999512 1.2263672 q -0.8664551 0.7598145 -1.3552246 1.7106934 q -0.6220703 1.2263675 -0.6220703 2.7459965 q 0 2.719336 1.9106445 4.5944333 q 1.9106448 1.8750982 4.8077154 1.8750982 q 0.8975582 0 1.617383 -0.14218807 q 0.39101505 -0.07109356 1.2663574 -0.4043455 q 0.8753414 -0.33325195 1.0353022 -0.33325195 q 0.24882889 0 0.46210957 0.18217754 q 0.21328163 0.1821785 0.391016 0.6887207 h 0.32880878 Z "/>
        </symbol>
        <symbol id="gC0F18EC2FC0EBFCF8F228C201C612436" overflow="visible">
            <path d="M 0 0m 2.6126955 12.334766 q 0.5776367 0 0.97753906 -0.4043455 q 0.39990234 -0.40434647 0.39990234 -0.9730959 q 0 -0.5687504 -0.40434575 -0.9686527 q -0.40434575 -0.39990234 -0.97309566 -0.39990234 q -0.56875014 0 -0.96865237 0.39990234 q -0.39990246 0.39990234 -0.39990246 0.9686527 q 0 0.5687494 0.39990246 0.9730959 q 0.39990222 0.4043455 0.96865237 0.4043455 Z m 1.2441406 -4.0256844 v -6.5850587 q 0 -0.8797851 0.20439458 -1.12417 q 0.20439434 -0.24438477 0.7998047 -0.27993163 v -0.31992188 h -4.487793 v 0.31992188 q 0.5509766 0.01777345 0.81757814 0.31992188 q 0.17773438 0.20439458 0.17773438 1.0841796 v 4.852149 q 0 0.87978506 -0.20439446 1.1241698 q -0.20439458 0.24438477 -0.79091805 0.27993155 v 0.3288083 h 3.483594 Z "/>
        </symbol>
        <symbol id="g7B209D9975A6498DDE2D77BA90F8C732" overflow="visible">
            <path d="M 0 0m 10.415235 7.509278 q -0.21328068 -0.6309571 -0.8975582 -0.9153323 q -0.46210957 -0.18662119 -1.5462894 -0.18662119 q 0.4798832 -1.0308595 0.4798832 -2.2572265 q 0 -1.7684572 -0.8975587 -2.9592776 q -1.0841799 -1.4396485 -2.9948244 -1.4396485 q -1.8040042 0 -2.8881838 1.3152344 q -1.013086 1.2263672 -1.013086 3.0481448 q 0 1.8573241 1.0308595 3.1192384 q 1.0930663 1.3241215 2.84375 1.3241215 q 1.1997075 0 2.0706058 -0.586524 q 0.24882793 -0.17773438 0.8620119 -0.7909179 q 0.34658194 -0.36435556 0.7909179 -0.37324238 q 0.3465824 -0.008886337 0.54208946 0.062207222 q 0.2399416 0.08886719 0.31992245 0.2843752 q 0.044433594 0.08886719 0.008886337 0.14218712 q -0.20439434 0.106640816 -0.58652306 0.51543 q -0.20439434 0.3643551 -0.11552715 0.70205116 q 0.08886719 0.35546875 0.46655273 0.56430626 q 0.37768555 0.20883751 0.7864742 0.08442402 q 0.4798832 -0.15107441 0.70205116 -0.6220703 q 0.22216797 -0.4709959 0.035546303 -1.0308595 Z m -4.57666 -2.666016 q 0 1.4218755 -0.16884756 2.0706058 q -0.1421876 0.54208994 -0.49765635 0.82646465 q -0.23105478 0.18662119 -0.6042967 0.18662119 q -1.0308597 0 -1.1997073 -1.6884766 q -0.10664058 -1.0130858 -0.10664058 -2.8082032 q 0 -0.9597657 0.12441397 -1.7773438 q 0.19550776 -1.2885743 1.1463866 -1.2885743 q 0.9064455 0 1.1286135 1.0664064 q 0.17773438 0.8442383 0.17773438 3.4125 Z m 1.6707034 7.615918 l -2.941504 -3.0836916 h -0.76425815 l 1.0308597 3.0836916 h 2.6749024 Z "/>
        </symbol>
        <symbol id="gB575E7F0E99BC34FB555A862FB157164" overflow="visible">
            <path d="M 0 0m 3.9101565 11.34834 v -3.039258 h 1.9728515 v -0.87978506 h -1.9728515 v -5.127637 q 0 -0.7198243 0.06665039 -0.9286622 q 0.06665015 -0.20883787 0.23549819 -0.33769536 q 0.16884756 -0.12885743 0.31103516 -0.12885743 q 0.5776367 0 1.0930662 0.87978524 l 0.26660156 -0.19550788 q -0.7198243 -1.7062501 -2.337207 -1.7062501 q -0.7909181 0 -1.3374512 0.4398926 q -0.5465332 0.4398926 -0.6976074 0.98198247 q -0.08886731 0.30214846 -0.08886731 1.6351563 v 4.487793 h -1.0841796 v 0.31103516 q 1.1197265 0.7909179 1.9062011 1.6618171 q 0.7864747 0.87089825 1.3729982 1.9461908 h 0.29326177 Z "/>
        </symbol>
        <symbol id="g3BC75630EB68FBB3607DFB30E43CED3B" overflow="visible">
            <path d="M 0 0m 7.651465 4.452246 h -4.5588865 q 0.07998061 -1.6529298 0.8797853 -2.6126952 q 0.6131835 -0.7375977 1.4751954 -0.7375977 q 0.5332031 0 0.96865225 0.29770505 q 0.43544912 0.29770517 0.93310547 1.0708497 l 0.30214834 -0.19550776 q -0.67539024 -1.3774414 -1.4929686 -1.9506348 q -0.8175783 -0.57319343 -1.8928714 -0.57319343 q -1.8484373 0 -2.7993164 1.4218751 q -0.7642579 1.1463867 -0.7642579 2.84375 q 0 2.079492 1.12417 3.3103027 q 1.1241701 1.2308111 2.6349123 1.2308111 q 1.2619143 0 2.190576 -1.0353031 q 0.9286623 -1.0353026 0.99975586 -3.0703616 Z m -2.186133 0.59541035 q 0 1.4307618 -0.15551758 1.9639649 q -0.15551758 0.5332031 -0.4843259 0.8086915 q -0.18662119 0.15996075 -0.49765635 0.15996075 q -0.46210933 0 -0.7553711 -0.45322275 q -0.52431655 -0.7909179 -0.52431655 -2.1683593 v -0.31103516 h 2.4171875 Z m -0.008886337 7.6336913 l 1.8040037 -3.3947268 h -0.68427706 l -2.1150393 1.8306646 l -2.177246 -1.7773438 h -0.728711 l 1.892871 3.3414059 h 2.0083988 Z m -1.4041018 -13.587793 q 0.6220703 0 1.0530763 -0.4310059 q 0.43100595 -0.43100584 0.43100595 -1.0530763 q 0 -0.6131835 -0.43544912 -1.0441895 q -0.4354496 -0.43100595 -1.0486331 -0.43100595 q -0.6131835 0 -1.0441895 0.43100595 q -0.43100595 0.43100595 -0.43100595 1.0441895 q 0 0.6131836 0.43100595 1.0486329 q 0.43100595 0.4354493 1.0441895 0.4354493 Z "/>
        </symbol>
        <symbol id="g45CC5863A1EE035EA829B88FCBE884E2" overflow="visible">
            <path d="M 0 0m 8.637891 8.309082 v -6.5050783 q 0 -0.9508789 0.17773438 -1.186377 q 0.17773438 -0.23549804 0.7198248 -0.29770508 v -0.31992188 h -3.3858404 v 1.1108398 q -0.59541035 -0.7109375 -1.1908202 -1.0353028 q -0.59541035 -0.32436526 -1.333008 -0.32436526 q -0.7020507 0 -1.248584 0.4310059 q -0.5465331 0.4310059 -0.7331542 1.0086426 q -0.18662119 0.5776367 -0.18662119 2.0172853 v 3.2969728 q 0 0.9419923 -0.17329097 1.1730471 q -0.17329109 0.23105478 -0.7242676 0.30214834 v 0.3288083 h 3.38584 v -5.678613 q 0 -0.8886719 0.08442378 -1.1463867 q 0.08442402 -0.25771487 0.26660156 -0.39101565 q 0.18217802 -0.13330078 0.42211914 -0.13330078 q 0.31992197 0 0.5776367 0.16884768 q 0.35546875 0.23105466 0.8531251 0.9331056 v 4.4433594 q 0 0.9419923 -0.17329073 1.1730471 q -0.1732912 0.23105478 -0.72426796 0.30214834 v 0.3288083 h 3.38584 Z "/>
        </symbol>
        <symbol id="gA1BA951944FBA545F8E3F38D8830DFC5" overflow="visible">
            <path d="M 0 0m 0.22216797 0 v 0.23486328 h 0.32373047 q 0.54589844 0 0.7807617 0.35546875 q 0.13330078 0.203125 0.13330078 0.93310547 v 2.7802734 h -1.237793 v 0.46972656 h 1.237793 v 2.3105469 q 0 0.80615234 -0.17773438 1.0092773 q -0.2475586 0.27929688 -0.7363281 0.27929688 h -0.32373047 v 0.23486328 h 3.5039063 q 1.9995117 0 2.9580078 -0.45385742 q 0.9584961 -0.45385742 1.5805664 -1.4536133 q 0.6220703 -0.99975586 0.6220703 -2.3391113 q 0 -1.8217773 -1.1647949 -3.0913086 q -1.1647949 -1.2695313 -3.6594238 -1.2695313 h -3.840332 Z m 2.4628906 0.6347656 q 0.80615234 -0.17773438 1.3520508 -0.17773438 q 1.4663086 0 2.4375 1.034668 q 0.9711914 1.034668 0.9711914 2.805664 q 0 1.7836914 -0.9711914 2.8120117 q -0.9711914 1.0283203 -2.4882813 1.0283203 q -0.57128906 0 -1.3012695 -0.18408203 v -3.1801758 h 2.494629 v -0.46972656 h -2.494629 v -3.6689453 Z "/>
        </symbol>
        <symbol id="gF2D171D10C769C98038956B741346797" overflow="visible">
            <path d="M 0 0m 3.25 5.98584 q 1.3203125 0 2.1201172 -1.0029297 q 0.6791992 -0.8569336 0.6791992 -1.9677734 q 0 -0.7807617 -0.37451172 -1.5805664 q -0.37451172 -0.7998047 -1.0314941 -1.2060547 q -0.6569824 -0.40625 -1.4631348 -0.40625 q -1.3139648 0 -2.088379 1.0473633 q -0.6538086 0.8823242 -0.6538086 1.9804688 q 0 0.7998047 0.39672852 1.5900879 q 0.39672852 0.7902832 1.0441895 1.1679688 q 0.64746094 0.37768555 1.3710938 0.37768555 Z m -0.19677734 -0.41259766 q -0.33642578 0 -0.6760254 -0.19995117 q -0.3395996 -0.19995117 -0.54907227 -0.701416 q -0.20947266 -0.50146484 -0.20947266 -1.2885742 q 0 -1.2695313 0.5046387 -2.1899414 q 0.5046387 -0.92041016 1.329834 -0.92041016 q 0.61572266 0 1.015625 0.5078125 q 0.39990234 0.5078125 0.39990234 1.7456055 q 0 1.5488281 -0.6665039 2.4375 q -0.4506836 0.609375 -1.1489258 0.609375 Z "/>
        </symbol>
        <symbol id="gA750AB72109E0A777EEC2ADB90813428" overflow="visible">
            <path d="M 0 0m 3.7006836 0.8378906 q -0.89501953 -0.69189453 -1.1235352 -0.7998047 q -0.34277344 -0.1586914 -0.72998047 -0.1586914 q -0.60302734 0 -0.9934082 0.41259766 q -0.39038086 0.41259766 -0.39038086 1.0854492 q 0 0.42529297 0.19042969 0.7363281 q 0.2602539 0.43164063 0.904541 0.8125 q 0.6442871 0.38085938 2.142334 0.9267578 v 0.22851563 q 0 0.8696289 -0.27612305 1.1933594 q -0.27612305 0.32373047 -0.8029785 0.32373047 q -0.39990234 0 -0.6347656 -0.21582031 q -0.24121094 -0.21582031 -0.24121094 -0.4951172 l 0.0126953125 -0.36816406 q 0 -0.2919922 -0.14916992 -0.4506836 q -0.14916992 -0.1586914 -0.39038086 -0.1586914 q -0.23486328 0 -0.3840332 0.16503906 q -0.14916992 0.16503906 -0.14916992 0.4506836 q 0 0.54589844 0.55859375 1.0029297 q 0.55859375 0.45703125 1.5678711 0.45703125 q 0.77441406 0 1.2695313 -0.2602539 q 0.37451172 -0.19677734 0.5522461 -0.61572266 q 0.11425781 -0.27294922 0.11425781 -1.1171875 v -1.9741211 q 0 -0.83154297 0.03173828 -1.0187988 q 0.03173828 -0.18725586 0.10473633 -0.25073242 q 0.07299805 -0.06347656 0.16821289 -0.06347656 q 0.1015625 0 0.17773438 0.044433594 q 0.13330078 0.08251953 0.51416016 0.4633789 v -0.35546875 q -0.7109375 -0.95214844 -1.3583984 -0.95214844 q -0.31103516 0 -0.4951172 0.21582031 q -0.18408203 0.21582031 -0.19042969 0.7363281 Z m 0 0.41259766 v 2.215332 q -0.9584961 -0.38085938 -1.237793 -0.5395508 q -0.50146484 -0.27929688 -0.71728516 -0.5839844 q -0.21582031 -0.3046875 -0.21582031 -0.6665039 q 0 -0.45703125 0.27294922 -0.7585449 q 0.27294922 -0.30151367 0.62841797 -0.30151367 q 0.48242188 0 1.2695313 0.6347656 Z m -1.1806641 -2.012207 q 0.29833984 0 0.50146484 -0.20629883 q 0.203125 -0.20629883 0.203125 -0.49829102 q 0 -0.2919922 -0.20629883 -0.49829102 q -0.20629883 -0.20629883 -0.49829102 -0.20629883 q -0.2919922 0 -0.49829102 0.20629883 q -0.20629883 0.20629883 -0.20629883 0.49829102 q 0 0.29833984 0.20629883 0.50146484 q 0.20629883 0.203125 0.49829102 0.203125 Z "/>
        </symbol>
        <symbol id="g6CFDF21DA7A6F6359AADA2D8B266CF44" overflow="visible">
            <path d="M 0 0m 2.1010742 4.7543945 q 1.0219727 1.2314453 1.9487305 1.2314453 q 0.47607422 0 0.81884766 -0.23803711 q 0.34277344 -0.23803711 0.54589844 -0.78393555 q 0.13964844 -0.38085938 0.13964844 -1.1679688 v -2.4819336 q 0 -0.5522461 0.08886719 -0.74902344 q 0.06982422 -0.1586914 0.2253418 -0.2475586 q 0.15551758 -0.08886719 0.5744629 -0.08886719 v -0.22851563 h -2.8754883 v 0.22851563 h 0.12060547 q 0.40625 0 0.56811523 0.1237793 q 0.16186523 0.1237793 0.2253418 0.36499023 q 0.025390625 0.095214844 0.025390625 0.5966797 v 2.380371 q 0 0.79345703 -0.20629883 1.1520996 q -0.20629883 0.35864258 -0.69506836 0.35864258 q -0.7553711 0 -1.5043945 -0.8251953 v -3.065918 q 0 -0.59033203 0.06982422 -0.72998047 q 0.08886719 -0.18408203 0.24438477 -0.2697754 q 0.15551758 -0.08569336 0.6315918 -0.08569336 v -0.22851563 h -2.8754883 v 0.22851563 h 0.12695313 q 0.44433594 0 0.5998535 0.2253418 q 0.15551758 0.2253418 0.15551758 0.8601074 v 2.1582031 q 0 1.0473633 -0.047607422 1.2758789 q -0.047607422 0.22851563 -0.1459961 0.31103516 q -0.09838867 0.08251953 -0.26342773 0.08251953 q -0.17773438 0 -0.42529297 -0.095214844 l -0.095214844 0.22851563 l 1.7519531 0.7109375 h 0.27294922 v -1.2314453 Z "/>
        </symbol>
        <symbol id="g71D652B9BC8E16C64CED21EFEE5BA9CE" overflow="visible">
            <path d="M 0 0m 0.107910156 5.814453 h 2.7358398 v -0.23486328 h -0.17773438 q -0.2475586 0 -0.37768555 -0.12060547 q -0.13012695 -0.12060547 -0.13012695 -0.32373047 q 0 -0.22216797 0.13330078 -0.52685547 l 1.3520508 -3.211914 l 1.3583984 3.3325195 q 0.1459961 0.35546875 0.1459961 0.5395508 q 0 0.08886719 -0.05078125 0.1459961 q -0.06982422 0.095214844 -0.17773438 0.13012695 q -0.107910156 0.03491211 -0.43798828 0.03491211 v 0.23486328 h 1.8979492 v -0.23486328 q -0.33007813 -0.025390625 -0.45703125 -0.13330078 q -0.22216797 -0.19042969 -0.39990234 -0.6347656 l -2.0629883 -4.989258 h -0.2602539 l -2.0756836 4.9067383 q -0.13964844 0.34277344 -0.26660156 0.49194336 q -0.12695313 0.14916992 -0.32373047 0.25073242 q -0.107910156 0.057128906 -0.42529297 0.107910156 v 0.23486328 Z "/>
        </symbol>
        <symbol id="g4B2DAA9DB619421059FB462E4BAE4775" overflow="visible">
            <path d="M 0 0m 3.7006836 0.8378906 q -0.89501953 -0.69189453 -1.1235352 -0.7998047 q -0.34277344 -0.1586914 -0.72998047 -0.1586914 q -0.60302734 0 -0.9934082 0.41259766 q -0.39038086 0.41259766 -0.39038086 1.0854492 q 0 0.42529297 0.19042969 0.7363281 q 0.2602539 0.43164063 0.904541 0.8125 q 0.6442871 0.38085938 2.142334 0.9267578 v 0.22851563 q 0 0.8696289 -0.27612305 1.1933594 q -0.27612305 0.32373047 -0.8029785 0.32373047 q -0.39990234 0 -0.6347656 -0.21582031 q -0.24121094 -0.21582031 -0.24121094 -0.4951172 l 0.0126953125 -0.36816406 q 0 -0.2919922 -0.14916992 -0.4506836 q -0.14916992 -0.1586914 -0.39038086 -0.1586914 q -0.23486328 0 -0.3840332 0.16503906 q -0.14916992 0.16503906 -0.14916992 0.4506836 q 0 0.54589844 0.55859375 1.0029297 q 0.55859375 0.45703125 1.5678711 0.45703125 q 0.77441406 0 1.2695313 -0.2602539 q 0.37451172 -0.19677734 0.5522461 -0.61572266 q 0.11425781 -0.27294922 0.11425781 -1.1171875 v -1.9741211 q 0 -0.83154297 0.03173828 -1.0187988 q 0.03173828 -0.18725586 0.10473633 -0.25073242 q 0.07299805 -0.06347656 0.16821289 -0.06347656 q 0.1015625 0 0.17773438 0.044433594 q 0.13330078 0.08251953 0.51416016 0.4633789 v -0.35546875 q -0.7109375 -0.95214844 -1.3583984 -0.95214844 q -0.31103516 0 -0.4951172 0.21582031 q -0.18408203 0.21582031 -0.19042969 0.7363281 Z m 0 0.41259766 v 2.215332 q -0.9584961 -0.38085938 -1.237793 -0.5395508 q -0.50146484 -0.27929688 -0.71728516 -0.5839844 q -0.21582031 -0.3046875 -0.21582031 -0.6665039 q 0 -0.45703125 0.27294922 -0.7585449 q 0.27294922 -0.30151367 0.62841797 -0.30151367 q 0.48242188 0 1.2695313 0.6347656 Z m -2.640625 7.369629 h 0.19677734 q 0.20947266 -0.38720703 0.48242188 -0.54589844 q 0.45703125 -0.27294922 1.1489258 -0.27294922 q 0.69189453 0 1.1425781 0.26660156 q 0.32373047 0.18408203 0.4506836 0.5522461 h 0.20947266 q -0.057128906 -0.7871094 -0.58081055 -1.2822266 q -0.52368164 -0.4951172 -1.2346191 -0.4951172 q -0.70458984 0 -1.2250977 0.49194336 q -0.5205078 0.49194336 -0.59033203 1.2854004 Z "/>
        </symbol>
        <symbol id="g767D5D8D4161AA014B61B564E4EF8B6" overflow="visible">
            <path d="M 0 0m 5.3447266 2.2089844 q -0.23486328 -1.1489258 -0.92041016 -1.7678223 q -0.6855469 -0.6188965 -1.5170898 -0.6188965 q -0.9902344 0 -1.7265625 0.83154297 q -0.7363281 0.83154297 -0.7363281 2.2470703 q 0 1.3710938 0.8156738 2.2280273 q 0.8156738 0.8569336 1.958252 0.8569336 q 0.8569336 0 1.4091797 -0.45385742 q 0.5522461 -0.45385742 0.5522461 -0.94262695 q 0 -0.24121094 -0.15551758 -0.39038086 q -0.15551758 -0.14916992 -0.43481445 -0.14916992 q -0.37451172 0 -0.5649414 0.24121094 q -0.107910156 0.13330078 -0.14282227 0.5078125 q -0.03491211 0.37451172 -0.25708008 0.57128906 q -0.22216797 0.19042969 -0.61572266 0.19042969 q -0.6347656 0 -1.0219727 -0.46972656 q -0.51416016 -0.6220703 -0.51416016 -1.644043 q 0 -1.0410156 0.5109863 -1.8376465 q 0.5109863 -0.79663086 1.3806152 -0.79663086 q 0.6220703 0 1.1171875 0.42529297 q 0.3491211 0.2919922 0.6791992 1.0600586 l 0.18408203 -0.08886719 Z "/>
        </symbol>
        <symbol id="gB5CC8713B9486AE9A3789CFA9F4E136B" overflow="visible">
            <path d="M 0 0m 3.25 5.98584 q 1.3203125 0 2.1201172 -1.0029297 q 0.6791992 -0.8569336 0.6791992 -1.9677734 q 0 -0.7807617 -0.37451172 -1.5805664 q -0.37451172 -0.7998047 -1.0314941 -1.2060547 q -0.6569824 -0.40625 -1.4631348 -0.40625 q -1.3139648 0 -2.088379 1.0473633 q -0.6538086 0.8823242 -0.6538086 1.9804688 q 0 0.7998047 0.39672852 1.5900879 q 0.39672852 0.7902832 1.0441895 1.1679688 q 0.64746094 0.37768555 1.3710938 0.37768555 Z m -0.19677734 -0.41259766 q -0.33642578 0 -0.6760254 -0.19995117 q -0.3395996 -0.19995117 -0.54907227 -0.701416 q -0.20947266 -0.50146484 -0.20947266 -1.2885742 q 0 -1.2695313 0.5046387 -2.1899414 q 0.5046387 -0.92041016 1.329834 -0.92041016 q 0.61572266 0 1.015625 0.5078125 q 0.39990234 0.5078125 0.39990234 1.7456055 q 0 1.5488281 -0.6665039 2.4375 q -0.4506836 0.609375 -1.1489258 0.609375 Z m 1.5361328 3.25 l -1.8725586 -2.1899414 h -0.21582031 l 0.6665039 2.1899414 h 1.421875 Z "/>
        </symbol>
        <symbol id="gCAC099A4189AF6595F6639F2BC3139FD" overflow="visible">
            <path d="M 0 0m 2.1137695 9.026367 v -4.2529297 q 0.70458984 0.77441406 1.1171875 0.9934082 q 0.41259766 0.21899414 0.8251953 0.21899414 q 0.4951172 0 0.85058594 -0.27294922 q 0.35546875 -0.27294922 0.52685547 -0.8569336 q 0.12060547 -0.40625 0.12060547 -1.4853516 v -2.0566406 q 0 -0.5522461 0.08886719 -0.7553711 q 0.06347656 -0.15234375 0.21582031 -0.24121094 q 0.15234375 -0.08886719 0.55859375 -0.08886719 v -0.22851563 h -2.8564453 v 0.22851563 h 0.13330078 q 0.40625 0 0.5649414 0.1237793 q 0.1586914 0.1237793 0.22216797 0.36499023 q 0.019042969 0.1015625 0.019042969 0.5966797 v 2.0566406 q 0 0.95214844 -0.09838867 1.2504883 q -0.09838867 0.29833984 -0.31420898 0.44750977 q -0.21582031 0.14916992 -0.5205078 0.14916992 q -0.31103516 0 -0.64746094 -0.16503906 q -0.33642578 -0.16503906 -0.80615234 -0.6665039 v -3.0722656 q 0 -0.5966797 0.06665039 -0.7426758 q 0.06665039 -0.1459961 0.2475586 -0.24438477 q 0.1809082 -0.09838867 0.62524414 -0.09838867 v -0.22851563 h -2.881836 v 0.22851563 q 0.38720703 0 0.609375 0.12060547 q 0.12695313 0.06347656 0.203125 0.24121094 q 0.076171875 0.17773438 0.076171875 0.7236328 v 5.262207 q 0 0.99658203 -0.047607422 1.2250977 q -0.047607422 0.22851563 -0.1459961 0.31103516 q -0.09838867 0.08251953 -0.26342773 0.08251953 q -0.13330078 0 -0.43164063 -0.1015625 l -0.08886719 0.22216797 l 1.7392578 0.7109375 h 0.2919922 Z "/>
        </symbol>
        <symbol id="g2CCFE655BFC88140262DBD0E412860CE" overflow="visible">
            <path d="M 0 0m 6.0810547 4.8305664 q 0.19042969 0.08886719 0.12060547 0.203125 q 0 0.0063476563 -0.14282227 0.1015625 q -0.14282227 0.095214844 -0.19995117 0.203125 q -0.12695313 0.21582031 -0.06982422 0.4189453 q 0.05078125 0.203125 0.27294922 0.3269043 q 0.22216797 0.1237793 0.46972656 0.053955078 q 0.27929688 -0.08886719 0.40942383 -0.36816406 q 0.13012695 -0.27929688 0.022216797 -0.609375 q -0.12695313 -0.37451172 -0.5332031 -0.5395508 q -0.34277344 -0.13964844 -0.9267578 -0.1459961 v -2.1835938 q 0 -0.93310547 0.044433594 -1.237793 q 0.038085938 -0.20947266 0.1586914 -0.31103516 q 0.1015625 -0.08886719 0.24121094 -0.08886719 q 0.19677734 0 0.44433594 0.107910156 l 0.08886719 -0.22216797 l -1.7392578 -0.71728516 h -0.28564453 v 1.2314453 q -0.7109375 -0.7680664 -1.1425781 -1.0219727 q -0.3618164 -0.20947266 -0.83154297 -0.20947266 q -1.0283203 0 -1.3457031 1.0092773 q -0.13964844 0.44433594 -0.13964844 1.2568359 v 2.5961914 q 0 0.6411133 -0.3491211 0.81884766 q -0.17773438 0.08251953 -0.6347656 0.076171875 v 0.23486328 h 2.0375977 v -3.8911133 q 0 -1.3203125 0.96484375 -1.3203125 q 0.27294922 0 0.6188965 0.17138672 q 0.34594727 0.17138672 0.8220215 0.6538086 v 3.2944336 q 0 0.50146484 -0.18408203 0.67285156 q -0.18408203 0.17138672 -0.74902344 0.18408203 v 0.23486328 h 1.9804688 v -1.0917969 q 0.19677734 0.0126953125 0.5776367 0.107910156 Z m -4.614746 2.1328125 h -0.203125 q 0.025390625 0.8696289 0.3618164 1.2568359 q 0.33642578 0.38720703 0.83154297 0.38720703 q 0.2602539 0 0.47607422 -0.08251953 q 0.28564453 -0.107910156 0.8093262 -0.45385742 q 0.52368164 -0.34594727 0.7775879 -0.34594727 q 0.203125 0 0.35864258 0.17138672 q 0.15551758 0.17138672 0.24438477 0.7109375 h 0.19677734 q 0.0063476563 -0.59033203 -0.15551758 -0.9362793 q -0.16186523 -0.34594727 -0.45703125 -0.5395508 q -0.29516602 -0.19360352 -0.59350586 -0.19360352 q -0.50146484 0 -1.2441406 0.5078125 q -0.39990234 0.27294922 -0.5395508 0.33007813 q -0.13964844 0.057128906 -0.27294922 0.057128906 q -0.2602539 0 -0.41259766 -0.22851563 q -0.06982422 -0.107910156 -0.17773438 -0.6411133 Z "/>
        </symbol>
        <symbol id="g49DFA6B96F2416A69A99F5F32DB39959" overflow="visible">
            <path d="M 0 0m 1.8662109 8.810547 q 0.41259766 0 0.6982422 -0.28881836 q 0.28564453 -0.28881836 0.28564453 -0.69506836 q 0 -0.40625 -0.28881836 -0.69189453 q -0.28881836 -0.28564453 -0.69506836 -0.28564453 q -0.40625 0 -0.69189453 0.28564453 q -0.28564453 0.28564453 -0.28564453 0.69189453 q 0 0.40625 0.28564453 0.69506836 q 0.28564453 0.28881836 0.69189453 0.28881836 Z m 0.8886719 -2.8754883 v -4.7036133 q 0 -0.62841797 0.1459961 -0.8029785 q 0.1459961 -0.17456055 0.57128906 -0.19995117 v -0.22851563 h -3.2055664 v 0.22851563 q 0.3935547 0.0126953125 0.5839844 0.22851563 q 0.12695313 0.1459961 0.12695313 0.77441406 v 3.4658203 q 0 0.62841797 -0.1459961 0.8029785 q -0.1459961 0.17456055 -0.5649414 0.19995117 v 0.23486328 h 2.4882813 Z "/>
        </symbol>
        <symbol id="g535E590044B24B72788CE68A4E41FF4E" overflow="visible">
            <path d="M 0 0m 2.862793 5.9350586 v -0.7680664 q 0.45703125 0.4951172 0.87597656 0.720459 q 0.4189453 0.2253418 0.9013672 0.2253418 q 0.5776367 0 0.9584961 -0.32055664 q 0.38085938 -0.32055664 0.5078125 -0.79663086 q 0.1015625 -0.3618164 0.1015625 -1.3901367 v -2.3105469 q 0 -0.6855469 0.1237793 -0.85375977 q 0.1237793 -0.16821289 0.517334 -0.21264648 v -0.22851563 h -3.0024414 v 0.22851563 q 0.33642578 0.044433594 0.48242188 0.27929688 q 0.1015625 0.1586914 0.1015625 0.7871094 v 2.640625 q 0 0.72998047 -0.057128906 0.92041016 q -0.057128906 0.19042969 -0.19360352 0.29516602 q -0.13647461 0.10473633 -0.30151367 0.10473633 q -0.54589844 0 -1.015625 -0.7807617 v -3.1801758 q 0 -0.6665039 0.1237793 -0.8442383 q 0.1237793 -0.17773438 0.46020508 -0.22216797 v -0.22851563 h -3.0024414 v 0.22851563 q 0.37451172 0.038085938 0.5332031 0.24121094 q 0.107910156 0.13964844 0.107910156 0.8251953 v 3.3515625 q 0 0.67285156 -0.1237793 0.8378906 q -0.1237793 0.16503906 -0.517334 0.21582031 v 0.23486328 h 2.418457 Z "/>
        </symbol>
        <symbol id="gB2A4736B3E721EC1FA24BEB7EAD0A2A9" overflow="visible">
            <path d="M 0 0m 6.208008 7.4838867 h 0.72998047 v -0.5332031 h -0.72998047 v -5.17334 q 0 -0.69189453 0.038085938 -0.81884766 q 0.05078125 -0.20947266 0.19360352 -0.31103516 q 0.14282227 -0.1015625 0.49829102 -0.12695313 v -0.20947266 l -2.5073242 -0.48876953 v 0.9394531 q -0.4506836 -0.54589844 -0.8029785 -0.7426758 q -0.35229492 -0.19677734 -0.79663086 -0.19677734 q -1.1362305 0 -1.7963867 1.015625 q -0.5332031 0.8251953 -0.5332031 2.0249023 q 0 0.9584961 0.33007813 1.717041 q 0.33007813 0.7585449 0.904541 1.145752 q 0.5744629 0.38720703 1.2346191 0.38720703 q 0.42529297 0 0.7553711 -0.16503906 q 0.33007813 -0.16503906 0.70458984 -0.5776367 v 1.5805664 h -2.1264648 v 0.5332031 h 2.1201172 q -0.0063476563 0.38085938 -0.044433594 0.47607422 q -0.08251953 0.203125 -0.23803711 0.2919922 q -0.15551758 0.08886719 -0.56811523 0.08886719 v 0.26660156 h 2.6342773 v -1.1235352 Z m -1.7773438 -2.900879 q -0.46972656 0.9013672 -1.1489258 0.9013672 q -0.23486328 0 -0.38720703 -0.12695313 q -0.23486328 -0.19677734 -0.3840332 -0.69189453 q -0.14916992 -0.4951172 -0.14916992 -1.5170898 q 0 -1.1235352 0.16503906 -1.6630859 q 0.16503906 -0.5395508 0.4506836 -0.7807617 q 0.1459961 -0.12060547 0.39990234 -0.12060547 q 0.55859375 0 1.0537109 0.87597656 v 3.1230469 Z "/>
        </symbol>
        <symbol id="gFDB736A10299F5CF8D974FE172DAD66F" overflow="visible">
            <path d="M 0 0m 3.713379 0.87597656 q -1.0854492 -0.9584961 -1.9487305 -0.9584961 q -0.5078125 0 -0.8442383 0.33325195 q -0.33642578 0.33325195 -0.33642578 0.8347168 q 0 0.6791992 0.5839844 1.2219238 q 0.5839844 0.5427246 2.5454102 1.4440918 v 0.5966797 q 0 0.67285156 -0.07299805 0.8474121 q -0.07299805 0.17456055 -0.27612305 0.3046875 q -0.203125 0.13012695 -0.45703125 0.13012695 q -0.41259766 0 -0.6791992 -0.18408203 q -0.16503906 -0.11425781 -0.16503906 -0.26660156 q 0 -0.13330078 0.17773438 -0.33007813 q 0.24121094 -0.27294922 0.24121094 -0.52685547 q 0 -0.31103516 -0.23168945 -0.5300293 q -0.23168945 -0.21899414 -0.6062012 -0.21899414 q -0.39990234 0 -0.66967773 0.24121094 q -0.2697754 0.24121094 -0.2697754 0.5649414 q 0 0.45703125 0.3618164 0.87280273 q 0.3618164 0.41577148 1.0092773 0.63793945 q 0.64746094 0.22216797 1.3457031 0.22216797 q 0.8442383 0 1.3361816 -0.35864258 q 0.49194336 -0.35864258 0.63793945 -0.7775879 q 0.08886719 -0.26660156 0.08886719 -1.2250977 v -2.3041992 q 0 -0.40625 0.03173828 -0.5109863 q 0.03173828 -0.10473633 0.095214844 -0.15551758 q 0.06347656 -0.05078125 0.1459961 -0.05078125 q 0.16503906 0 0.33642578 0.23486328 l 0.19042969 -0.15234375 q -0.3173828 -0.46972656 -0.6569824 -0.68237305 q -0.3395996 -0.21264648 -0.77124023 -0.21264648 q -0.5078125 0 -0.79345703 0.23803711 q -0.28564453 0.23803711 -0.3491211 0.720459 Z m 0 0.4633789 v 1.9868164 q -0.7680664 -0.4506836 -1.1425781 -0.96484375 q -0.2475586 -0.34277344 -0.2475586 -0.69189453 q 0 -0.2919922 0.20947266 -0.51416016 q 0.1586914 -0.17138672 0.44433594 -0.17138672 q 0.3173828 0 0.7363281 0.35546875 Z m 0.27294922 7.71875 l 1.2885742 -2.4248047 h -0.48876953 l -1.5107422 1.3076172 l -1.5551758 -1.2695313 h -0.5205078 l 1.3520508 2.3867188 h 1.4345703 Z m -0.8378906 -9.705566 q 0.44433594 0 0.75219727 -0.30786133 q 0.30786133 -0.30786133 0.30786133 -0.75219727 q 0 -0.43798828 -0.31103516 -0.7458496 q -0.31103516 -0.30786133 -0.74902344 -0.30786133 q -0.43798828 0 -0.7458496 0.30786133 q -0.30786133 0.30786133 -0.30786133 0.7458496 q 0 0.43798828 0.30786133 0.74902344 q 0.30786133 0.31103516 0.7458496 0.31103516 Z "/>
        </symbol>
        <symbol id="gE6721FB37AA44DFB2D1F528DA0A470C1" overflow="visible">
            <path d="M 0 0m 2.900879 5.9350586 v -0.7807617 q 0.48876953 0.5332031 0.904541 0.7458496 q 0.41577148 0.21264648 0.9108887 0.21264648 q 0.57128906 0 0.9584961 -0.26660156 q 0.38720703 -0.26660156 0.5966797 -0.8125 q 0.5078125 0.57128906 0.97436523 0.8251953 q 0.46655273 0.25390625 0.97436523 0.25390625 q 0.61572266 0 0.9807129 -0.2824707 q 0.36499023 -0.2824707 0.5078125 -0.71728516 q 0.14282227 -0.43481445 0.14282227 -1.3869629 v -2.4311523 q 0 -0.6855469 0.1237793 -0.85058594 q 0.1237793 -0.16503906 0.517334 -0.21582031 v -0.22851563 h -3.065918 v 0.22851563 q 0.3618164 0.03173828 0.5332031 0.27929688 q 0.11425781 0.17138672 0.11425781 0.7871094 v 2.5517578 q 0 0.79345703 -0.06347656 1.0092773 q -0.06347656 0.21582031 -0.19995117 0.32055664 q -0.13647461 0.10473633 -0.32055664 0.10473633 q -0.27294922 0 -0.5522461 -0.19995117 q -0.27929688 -0.19995117 -0.5649414 -0.5998535 v -3.1865234 q 0 -0.6411133 0.107910156 -0.80615234 q 0.1459961 -0.23486328 0.55859375 -0.2602539 v -0.22851563 h -3.0722656 v 0.22851563 q 0.2475586 0.0126953125 0.39038086 0.1237793 q 0.14282227 0.111083984 0.19042969 0.26660156 q 0.047607422 0.15551758 0.047607422 0.6760254 v 2.5517578 q 0 0.80615234 -0.06347656 1.0092773 q -0.06347656 0.203125 -0.21264648 0.3173828 q -0.14916992 0.11425781 -0.32055664 0.11425781 q -0.25390625 0 -0.4633789 -0.13330078 q -0.29833984 -0.19677734 -0.6347656 -0.67285156 v -3.1865234 q 0 -0.62841797 0.1237793 -0.82836914 q 0.1237793 -0.19995117 0.517334 -0.23803711 v -0.22851563 h -3.0595703 v 0.22851563 q 0.37451172 0.038085938 0.5332031 0.24121094 q 0.107910156 0.13964844 0.107910156 0.8251953 v 3.3515625 q 0 0.67285156 -0.1237793 0.8378906 q -0.1237793 0.16503906 -0.517334 0.21582031 v 0.23486328 h 2.418457 Z "/>
        </symbol>
        <symbol id="gE9B50F876700D91F83C187DA7F60B64C" overflow="visible">
            <path d="M 0 0m 3.7006836 0.8378906 q -0.89501953 -0.69189453 -1.1235352 -0.7998047 q -0.34277344 -0.1586914 -0.72998047 -0.1586914 q -0.60302734 0 -0.9934082 0.41259766 q -0.39038086 0.41259766 -0.39038086 1.0854492 q 0 0.42529297 0.19042969 0.7363281 q 0.2602539 0.43164063 0.904541 0.8125 q 0.6442871 0.38085938 2.142334 0.9267578 v 0.22851563 q 0 0.8696289 -0.27612305 1.1933594 q -0.27612305 0.32373047 -0.8029785 0.32373047 q -0.39990234 0 -0.6347656 -0.21582031 q -0.24121094 -0.21582031 -0.24121094 -0.4951172 l 0.0126953125 -0.36816406 q 0 -0.2919922 -0.14916992 -0.4506836 q -0.14916992 -0.1586914 -0.39038086 -0.1586914 q -0.23486328 0 -0.3840332 0.16503906 q -0.14916992 0.16503906 -0.14916992 0.4506836 q 0 0.54589844 0.55859375 1.0029297 q 0.55859375 0.45703125 1.5678711 0.45703125 q 0.77441406 0 1.2695313 -0.2602539 q 0.37451172 -0.19677734 0.5522461 -0.61572266 q 0.11425781 -0.27294922 0.11425781 -1.1171875 v -1.9741211 q 0 -0.83154297 0.03173828 -1.0187988 q 0.03173828 -0.18725586 0.10473633 -0.25073242 q 0.07299805 -0.06347656 0.16821289 -0.06347656 q 0.1015625 0 0.17773438 0.044433594 q 0.13330078 0.08251953 0.51416016 0.4633789 v -0.35546875 q -0.7109375 -0.95214844 -1.3583984 -0.95214844 q -0.31103516 0 -0.4951172 0.21582031 q -0.18408203 0.21582031 -0.19042969 0.7363281 Z m 0 0.41259766 v 2.215332 q -0.9584961 -0.38085938 -1.237793 -0.5395508 q -0.50146484 -0.27929688 -0.71728516 -0.5839844 q -0.21582031 -0.3046875 -0.21582031 -0.6665039 q 0 -0.45703125 0.27294922 -0.7585449 q 0.27294922 -0.30151367 0.62841797 -0.30151367 q 0.48242188 0 1.2695313 0.6347656 Z m -2.050293 7.572754 h 1.4155273 l 0.67285156 -2.1899414 h -0.22216797 l -1.8662109 2.1899414 Z "/>
        </symbol>
        <symbol id="g9488F5A55D64F3D287F36E175DC467E8" overflow="visible">
            <path d="M 0 0m 2.9072266 8.264648 q 0.26660156 0 0.4506836 -0.18408203 q 0.18408203 -0.18408203 0.18408203 -0.4506836 q 0 -0.2602539 -0.18725586 -0.44750977 q -0.18725586 -0.18725586 -0.44750977 -0.18725586 q -0.2602539 0 -0.44750977 0.18725586 q -0.18725586 0.18725586 -0.18725586 0.44750977 q 0 0.26660156 0.18408203 0.4506836 q 0.18408203 0.18408203 0.4506836 0.18408203 Z m 0.08251953 -2.5200195 l -1.2568359 -4.449707 q -0.12695313 -0.4506836 -0.12695313 -0.5395508 q 0 -0.1015625 0.060302734 -0.16503906 q 0.060302734 -0.06347656 0.14282227 -0.06347656 q 0.095214844 0 0.22851563 0.1015625 q 0.3618164 0.28564453 0.72998047 0.8125 l 0.22216797 -0.1459961 q -0.43164063 -0.66015625 -1.015625 -1.1108398 q -0.43164063 -0.33642578 -0.8251953 -0.33642578 q -0.2602539 0 -0.42529297 0.15551758 q -0.16503906 0.15551758 -0.16503906 0.39038086 q 0 0.23486328 0.1586914 0.7807617 l 0.8251953 2.84375 q 0.203125 0.6982422 0.203125 0.87597656 q 0 0.13964844 -0.09838867 0.22851563 q -0.09838867 0.08886719 -0.2697754 0.08886719 q -0.13964844 0 -0.5776367 -0.06982422 v 0.2475586 l 2.1899414 0.35546875 Z "/>
        </symbol>
        <symbol id="g8D5EA0A852B3251B6835D1A73CE096F0" overflow="visible">
            <path d="M 0 0m 2.8691406 5.744629 l -0.8442383 -2.8881836 q 1.1870117 1.7709961 1.8186035 2.3295898 q 0.6315918 0.55859375 1.2155762 0.55859375 q 0.3173828 0 0.52368164 -0.20947266 q 0.20629883 -0.20947266 0.20629883 -0.54589844 q 0 -0.38085938 -0.18408203 -1.015625 l -0.77441406 -2.6723633 q -0.13330078 -0.4633789 -0.13330078 -0.5649414 q 0 -0.08886719 0.05078125 -0.14916992 q 0.05078125 -0.060302734 0.107910156 -0.060302734 q 0.076171875 0 0.18408203 0.08251953 q 0.33642578 0.26660156 0.7363281 0.8125 l 0.19677734 -0.12060547 q -0.59033203 -0.8442383 -1.1171875 -1.2060547 q -0.36816406 -0.2475586 -0.66015625 -0.2475586 q -0.23486328 0 -0.37451172 0.14282227 q -0.13964844 0.14282227 -0.13964844 0.3840332 q 0 0.3046875 0.21582031 1.0473633 l 0.7363281 2.5517578 q 0.13964844 0.47607422 0.13964844 0.7426758 q 0 0.12695313 -0.08251953 0.20629883 q -0.08251953 0.0793457 -0.203125 0.0793457 q -0.17773438 0 -0.42529297 -0.15234375 q -0.46972656 -0.28564453 -0.97753906 -0.94262695 q -0.5078125 -0.6569824 -1.0727539 -1.6789551 q -0.29833984 -0.5395508 -0.4951172 -1.1806641 l -0.3173828 -1.0473633 h -0.95214844 l 1.1552734 3.9736328 q 0.203125 0.71728516 0.203125 0.86328125 q 0 0.13964844 -0.111083984 0.24438477 q -0.111083984 0.10473633 -0.27612305 0.10473633 q -0.076171875 0 -0.26660156 -0.025390625 l -0.24121094 -0.038085938 l -0.038085938 0.22851563 l 2.196289 0.3935547 Z "/>
        </symbol>
        <symbol id="g814EB44AD58D565DD67EEDDEC5B3B0C" overflow="visible">
            <path d="M 0 0m 6.772949 5.351074 l -0.18408203 -0.66015625 h -1.0600586 q 0.12060547 -0.34277344 0.12060547 -0.6411133 q 0 -0.8378906 -0.7109375 -1.4916992 q -0.71728516 -0.6538086 -1.9677734 -0.7236328 q -0.67285156 -0.203125 -1.0092773 -0.48242188 q -0.12695313 -0.1015625 -0.12695313 -0.20947266 q 0 -0.12695313 0.11425781 -0.23168945 q 0.11425781 -0.10473633 0.5776367 -0.21264648 l 1.2314453 -0.28564453 q 1.0219727 -0.24121094 1.3520508 -0.57128906 q 0.32373047 -0.33642578 0.32373047 -0.77441406 q 0 -0.5205078 -0.3840332 -0.95214844 q -0.3840332 -0.43164063 -1.1235352 -0.6760254 q -0.73950195 -0.24438477 -1.6345215 -0.24438477 q -0.7871094 0 -1.4345703 0.18725586 q -0.64746094 0.18725586 -0.9267578 0.5046387 q -0.27929688 0.3173828 -0.27929688 0.6538086 q 0 0.27294922 0.1809082 0.56811523 q 0.1809082 0.29516602 0.45385742 0.4855957 q 0.17138672 0.12060547 0.9711914 0.57128906 q -0.2919922 0.22851563 -0.2919922 0.50146484 q 0 0.25390625 0.25708008 0.5395508 q 0.25708008 0.28564453 1.088623 0.62841797 q -0.6982422 0.13330078 -1.107666 0.5839844 q -0.40942383 0.4506836 -0.40942383 1.0029297 q 0 0.9013672 0.7902832 1.6123047 q 0.7902832 0.7109375 2.104248 0.7109375 q 0.47607422 0 0.7807617 -0.095214844 q 0.3046875 -0.095214844 0.59033203 -0.29833984 h 1.7138672 Z m -2.2026367 -0.99658203 q 0 0.5078125 -0.2824707 0.7998047 q -0.2824707 0.2919922 -0.73950195 0.2919922 q -0.71728516 0 -1.1838379 -0.720459 q -0.46655273 -0.720459 -0.46655273 -1.5012207 q 0 -0.48876953 0.29833984 -0.7998047 q 0.29833984 -0.31103516 0.7236328 -0.31103516 q 0.33642578 0 0.65063477 0.18408203 q 0.31420898 0.18408203 0.5300293 0.5078125 q 0.21582031 0.32373047 0.34277344 0.8251953 q 0.12695313 0.50146484 0.12695313 0.7236328 Z m -3.0405273 -4.354492 q -0.51416016 -0.23486328 -0.7775879 -0.60302734 q -0.26342773 -0.36816406 -0.26342773 -0.7236328 q 0 -0.4189453 0.38085938 -0.69189453 q 0.54589844 -0.3935547 1.5996094 -0.3935547 q 0.90771484 0 1.552002 0.30786133 q 0.6442871 0.30786133 0.6442871 0.79663086 q 0 0.2475586 -0.23803711 0.46972656 q -0.23803711 0.22216797 -0.923584 0.3618164 q -0.37451172 0.076171875 -1.9741211 0.47607422 Z "/>
        </symbol>
        <symbol id="g3E93B832B24D87EEB5BF8526807CA9B6" overflow="visible">
            <path d="M 0 0m 3.8149414 9.026367 l -1.7836914 -6.163574 q 1.1552734 1.7392578 1.8027344 2.3105469 q 0.64746094 0.57128906 1.237793 0.57128906 q 0.3046875 0 0.5078125 -0.20947266 q 0.203125 -0.20947266 0.203125 -0.55859375 q 0 -0.4189453 -0.17773438 -1.015625 l -0.77441406 -2.659668 q -0.1459961 -0.48242188 -0.1459961 -0.5332031 q 0 -0.08886719 0.053955078 -0.1459961 q 0.053955078 -0.057128906 0.1237793 -0.057128906 q 0.08251953 0 0.19042969 0.08251953 q 0.3618164 0.27929688 0.71728516 0.77441406 l 0.19677734 -0.12060547 q -0.21582031 -0.33642578 -0.5998535 -0.73950195 q -0.3840332 -0.40307617 -0.66015625 -0.55859375 q -0.27612305 -0.15551758 -0.49194336 -0.15551758 q -0.23486328 0 -0.3840332 0.14916992 q -0.14916992 0.14916992 -0.14916992 0.3840332 q 0 0.27929688 0.22216797 1.0410156 l 0.72998047 2.5390625 q 0.13964844 0.47607422 0.13964844 0.74902344 q 0 0.12695313 -0.0793457 0.203125 q -0.0793457 0.076171875 -0.20629883 0.076171875 q -0.18408203 0 -0.4189453 -0.13964844 q -0.43164063 -0.26660156 -0.99658203 -0.9902344 q -0.15234375 -0.19677734 -1.015625 -1.5869141 q -0.26660156 -0.44433594 -0.43798828 -0.9711914 l -0.40625 -1.3012695 h -0.95214844 l 2.088379 7.2617188 l 0.22216797 0.7871094 q 0 0.16503906 -0.13647461 0.2919922 q -0.13647461 0.12695313 -0.33325195 0.12695313 q -0.11425781 0 -0.3491211 -0.038085938 l -0.13330078 -0.019042969 v 0.2475586 l 2.196289 0.36816406 Z "/>
        </symbol>
        <symbol id="g94742149828FB358C586DB678DE55A04" overflow="visible">
            <path d="M 0 0m 1.5488281 2.3930664 q -0.044433594 -0.3173828 -0.044433594 -0.52685547 q 0 -0.5649414 0.39990234 -0.9616699 q 0.39990234 -0.39672852 0.9711914 -0.39672852 q 0.45703125 0 0.8791504 0.18725586 q 0.42211914 0.18725586 1.2536621 0.82836914 l 0.13330078 -0.18408203 q -1.5043945 -1.4916992 -2.8691406 -1.4916992 q -0.9267578 0 -1.3964844 0.5839844 q -0.46972656 0.5839844 -0.46972656 1.2885742 q 0 0.9458008 0.5839844 1.9360352 q 0.5839844 0.9902344 1.4663086 1.5393066 q 0.8823242 0.54907227 1.8154297 0.54907227 q 0.67285156 0 0.99658203 -0.27294922 q 0.32373047 -0.27294922 0.32373047 -0.64746094 q 0 -0.52685547 -0.4189453 -1.0092773 q -0.5522461 -0.62841797 -1.625 -1.015625 q -0.7109375 -0.2602539 -1.9995117 -0.40625 Z m 0.044433594 0.31103516 q 0.9394531 0.107910156 1.5297852 0.36816406 q 0.7807617 0.3491211 1.1711426 0.8347168 q 0.39038086 0.4855957 0.39038086 0.923584 q 0 0.26660156 -0.16821289 0.43164063 q -0.16821289 0.16503906 -0.47924805 0.16503906 q -0.64746094 0 -1.3742676 -0.6887207 q -0.72680664 -0.6887207 -1.0695801 -2.0344238 Z m 3.6879883 6.1000977 l 0.47607422 -2.0058594 h -0.13330078 l -1.0727539 1.2822266 l -2.0249023 -1.2822266 h -0.17138672 l 1.9741211 2.0058594 h 0.95214844 Z "/>
        </symbol>
        <symbol id="gF7FEF0E8A1EE9ED0CBEEB10BE45EF9C4" overflow="visible">
            <path d="M 0 0m 1.625 1.2314453 q 0.29833984 0 0.50146484 -0.20629883 q 0.203125 -0.20629883 0.203125 -0.49829102 q 0 -0.2919922 -0.20629883 -0.49829102 q -0.20629883 -0.20629883 -0.49829102 -0.20629883 q -0.2919922 0 -0.49829102 0.20629883 q -0.20629883 0.20629883 -0.20629883 0.49829102 q 0 0.29833984 0.20629883 0.50146484 q 0.20629883 0.203125 0.49829102 0.203125 Z "/>
        </symbol>
        <symbol id="g68A5F706D7DF781995899F0196A7159D" overflow="visible">
            <path d="M 0 0m 2.3041992 5.890625 q 0.66015625 0 1.126709 -0.46655273 q 0.46655273 -0.46655273 0.46655273 -1.126709 q 0 -0.66015625 -0.46655273 -1.126709 q -0.46655273 -0.46655273 -1.126709 -0.46655273 q -0.66015625 0 -1.126709 0.46655273 q -0.46655273 0.46655273 -0.46655273 1.126709 q 0 0.66015625 0.4633789 1.126709 q 0.4633789 0.46655273 1.1298828 0.46655273 Z "/>
        </symbol>
        <symbol id="gF6C49552EFD33DB4E94C681CB2AF67FF" overflow="visible">
            <path d="M 0 0m 5.319336 0 l -3.3261719 7.242676 v -5.7509766 q 0 -0.79345703 0.17138672 -0.9902344 q 0.23486328 -0.26660156 0.7426758 -0.26660156 h 0.3046875 v -0.23486328 h -2.9960938 v 0.23486328 h 0.3046875 q 0.54589844 0 0.77441406 0.33007813 q 0.13964844 0.203125 0.13964844 0.9267578 v 5.6240234 q 0 0.57128906 -0.12695313 0.8251953 q -0.08886719 0.18408203 -0.3269043 0.30786133 q -0.23803711 0.1237793 -0.7648926 0.1237793 v 0.23486328 h 2.4375 l 3.1230469 -6.7348633 l 3.0722656 6.7348633 h 2.4375 v -0.23486328 h -0.29833984 q -0.5522461 0 -0.7807617 -0.33007813 q -0.13964844 -0.203125 -0.13964844 -0.9267578 v -5.6240234 q 0 -0.79345703 0.17773438 -0.9902344 q 0.23486328 -0.26660156 0.7426758 -0.26660156 h 0.29833984 v -0.23486328 h -3.65625 v 0.23486328 h 0.3046875 q 0.5522461 0 0.77441406 0.33007813 q 0.13964844 0.203125 0.13964844 0.9267578 v 5.7509766 l -3.3198242 -7.242676 h -0.20947266 Z "/>
        </symbol>
        <symbol id="gC98E45DCE5F5E8A62DD7033A29335537" overflow="visible">
            <path d="M 0 0m 5.503418 5.814453 v -3.5229492 q 0 -1.0092773 0.047607422 -1.2346191 q 0.047607422 -0.2253418 0.15234375 -0.31420898 q 0.10473633 -0.08886719 0.24438477 -0.08886719 q 0.19677734 0 0.44433594 0.107910156 l 0.08886719 -0.22216797 l -1.7392578 -0.71728516 h -0.28564453 v 1.2314453 q -0.74902344 -0.8125 -1.1425781 -1.0219727 q -0.3935547 -0.20947266 -0.83154297 -0.20947266 q -0.48876953 0 -0.8474121 0.2824707 q -0.35864258 0.2824707 -0.49829102 0.72680664 q -0.13964844 0.44433594 -0.13964844 1.2568359 v 2.5961914 q 0 0.41259766 -0.08886719 0.57128906 q -0.08886719 0.1586914 -0.26342773 0.24438477 q -0.17456055 0.08569336 -0.6315918 0.0793457 v 0.23486328 h 2.0375977 v -3.8911133 q 0 -0.8125 0.2824707 -1.0664063 q 0.2824707 -0.25390625 0.68237305 -0.25390625 q 0.27294922 0 0.6188965 0.17138672 q 0.34594727 0.17138672 0.8220215 0.6538086 v 3.2944336 q 0 0.4951172 -0.1809082 0.66967773 q -0.1809082 0.17456055 -0.75219727 0.18725586 v 0.23486328 h 1.9804688 Z m -2.602539 -6.576172 q 0.29833984 0 0.50146484 -0.20629883 q 0.203125 -0.20629883 0.203125 -0.49829102 q 0 -0.2919922 -0.20629883 -0.49829102 q -0.20629883 -0.20629883 -0.49829102 -0.20629883 q -0.2919922 0 -0.49829102 0.20629883 q -0.20629883 0.20629883 -0.20629883 0.49829102 q 0 0.29833984 0.20629883 0.50146484 q 0.20629883 0.203125 0.49829102 0.203125 Z "/>
        </symbol>
        <symbol id="gBD42DD53FD2BA9C6C9E4C134F5EFFC6A" overflow="visible">
            <path d="M 0 0m 2.0947266 7.7250977 v -1.9106445 h 1.3583984 v -0.44433594 h -1.3583984 v -3.7705078 q 0 -0.5649414 0.16186523 -0.76171875 q 0.16186523 -0.19677734 0.41577148 -0.19677734 q 0.20947266 0 0.40625 0.13012695 q 0.19677734 0.13012695 0.3046875 0.3840332 h 0.2475586 q -0.22216797 -0.6220703 -0.62841797 -0.9362793 q -0.40625 -0.31420898 -0.8378906 -0.31420898 q -0.2919922 0 -0.57128906 0.16186523 q -0.27929688 0.16186523 -0.41259766 0.4633789 q -0.13330078 0.30151367 -0.13330078 0.92993164 v 3.9101563 h -0.92041016 v 0.20947266 q 0.3491211 0.13964844 0.7141113 0.4729004 q 0.36499023 0.33325195 0.65063477 0.7902832 q 0.1459961 0.24121094 0.40625 0.8823242 h 0.19677734 Z "/>
        </symbol>
        <symbol id="gEFBB52318EC36D6EA71CE06D73E78710" overflow="visible">
            <path d="M 0 0m 6.0810547 4.8305664 q 0.19042969 0.08886719 0.12060547 0.203125 q 0 0.0063476563 -0.14282227 0.1015625 q -0.14282227 0.095214844 -0.19995117 0.203125 q -0.12695313 0.21582031 -0.06982422 0.4189453 q 0.05078125 0.203125 0.27294922 0.3269043 q 0.22216797 0.1237793 0.46972656 0.053955078 q 0.27929688 -0.08886719 0.40942383 -0.36816406 q 0.13012695 -0.27929688 0.022216797 -0.609375 q -0.12695313 -0.37451172 -0.5332031 -0.5395508 q -0.34277344 -0.13964844 -0.9267578 -0.1459961 v -2.1835938 q 0 -0.93310547 0.044433594 -1.237793 q 0.038085938 -0.20947266 0.1586914 -0.31103516 q 0.1015625 -0.08886719 0.24121094 -0.08886719 q 0.19677734 0 0.44433594 0.107910156 l 0.08886719 -0.22216797 l -1.7392578 -0.71728516 h -0.28564453 v 1.2314453 q -0.7109375 -0.7680664 -1.1425781 -1.0219727 q -0.3618164 -0.20947266 -0.83154297 -0.20947266 q -1.0283203 0 -1.3457031 1.0092773 q -0.13964844 0.44433594 -0.13964844 1.2568359 v 2.5961914 q 0 0.6411133 -0.3491211 0.81884766 q -0.17773438 0.08251953 -0.6347656 0.076171875 v 0.23486328 h 2.0375977 v -3.8911133 q 0 -1.3203125 0.96484375 -1.3203125 q 0.27294922 0 0.6188965 0.17138672 q 0.34594727 0.17138672 0.8220215 0.6538086 v 3.2944336 q 0 0.50146484 -0.18408203 0.67285156 q -0.18408203 0.17138672 -0.74902344 0.18408203 v 0.23486328 h 1.9804688 v -1.0917969 q 0.19677734 0.0126953125 0.5776367 0.107910156 Z m -1.5170898 3.9926758 l -1.8725586 -2.1899414 h -0.21582031 l 0.6665039 2.1899414 h 1.421875 Z "/>
        </symbol>
        <symbol id="g2F7854FA5C0F7C5B09A5769F4C5553BF" overflow="visible">
            <path d="M 0 0m 3.7006836 0.8378906 q -0.89501953 -0.69189453 -1.1235352 -0.7998047 q -0.34277344 -0.1586914 -0.72998047 -0.1586914 q -0.60302734 0 -0.9934082 0.41259766 q -0.39038086 0.41259766 -0.39038086 1.0854492 q 0 0.42529297 0.19042969 0.7363281 q 0.2602539 0.43164063 0.904541 0.8125 q 0.6442871 0.38085938 2.142334 0.9267578 v 0.22851563 q 0 0.8696289 -0.27612305 1.1933594 q -0.27612305 0.32373047 -0.8029785 0.32373047 q -0.39990234 0 -0.6347656 -0.21582031 q -0.24121094 -0.21582031 -0.24121094 -0.4951172 l 0.0126953125 -0.36816406 q 0 -0.2919922 -0.14916992 -0.4506836 q -0.14916992 -0.1586914 -0.39038086 -0.1586914 q -0.23486328 0 -0.3840332 0.16503906 q -0.14916992 0.16503906 -0.14916992 0.4506836 q 0 0.54589844 0.55859375 1.0029297 q 0.55859375 0.45703125 1.5678711 0.45703125 q 0.77441406 0 1.2695313 -0.2602539 q 0.37451172 -0.19677734 0.5522461 -0.61572266 q 0.11425781 -0.27294922 0.11425781 -1.1171875 v -1.9741211 q 0 -0.83154297 0.03173828 -1.0187988 q 0.03173828 -0.18725586 0.10473633 -0.25073242 q 0.07299805 -0.06347656 0.16821289 -0.06347656 q 0.1015625 0 0.17773438 0.044433594 q 0.13330078 0.08251953 0.51416016 0.4633789 v -0.35546875 q -0.7109375 -0.95214844 -1.3583984 -0.95214844 q -0.31103516 0 -0.4951172 0.21582031 q -0.18408203 0.21582031 -0.19042969 0.7363281 Z m 0 0.41259766 v 2.215332 q -0.9584961 -0.38085938 -1.237793 -0.5395508 q -0.50146484 -0.27929688 -0.71728516 -0.5839844 q -0.21582031 -0.3046875 -0.21582031 -0.6665039 q 0 -0.45703125 0.27294922 -0.7585449 q 0.27294922 -0.30151367 0.62841797 -0.30151367 q 0.48242188 0 1.2695313 0.6347656 Z m -1.3774414 7.5410156 h 1.1679688 l 1.2060547 -2.1010742 h -0.19677734 l -1.7329102 1.3520508 l -1.4536133 -1.3520508 h -0.19042969 l 1.199707 2.1010742 Z m 0.22216797 0.67285156 h -0.22216797 l 0.67285156 2.1201172 h 1.4155273 l -1.8662109 -2.1201172 Z "/>
        </symbol>
        <symbol id="g909F1274A9E0ACE711A03D00E37A610F" overflow="visible">
            <path d="M 0 0m 3.7006836 0.8378906 q -0.89501953 -0.69189453 -1.1235352 -0.7998047 q -0.34277344 -0.1586914 -0.72998047 -0.1586914 q -0.60302734 0 -0.9934082 0.41259766 q -0.39038086 0.41259766 -0.39038086 1.0854492 q 0 0.42529297 0.19042969 0.7363281 q 0.2602539 0.43164063 0.904541 0.8125 q 0.6442871 0.38085938 2.142334 0.9267578 v 0.22851563 q 0 0.8696289 -0.27612305 1.1933594 q -0.27612305 0.32373047 -0.8029785 0.32373047 q -0.39990234 0 -0.6347656 -0.21582031 q -0.24121094 -0.21582031 -0.24121094 -0.4951172 l 0.0126953125 -0.36816406 q 0 -0.2919922 -0.14916992 -0.4506836 q -0.14916992 -0.1586914 -0.39038086 -0.1586914 q -0.23486328 0 -0.3840332 0.16503906 q -0.14916992 0.16503906 -0.14916992 0.4506836 q 0 0.54589844 0.55859375 1.0029297 q 0.55859375 0.45703125 1.5678711 0.45703125 q 0.77441406 0 1.2695313 -0.2602539 q 0.37451172 -0.19677734 0.5522461 -0.61572266 q 0.11425781 -0.27294922 0.11425781 -1.1171875 v -1.9741211 q 0 -0.83154297 0.03173828 -1.0187988 q 0.03173828 -0.18725586 0.10473633 -0.25073242 q 0.07299805 -0.06347656 0.16821289 -0.06347656 q 0.1015625 0 0.17773438 0.044433594 q 0.13330078 0.08251953 0.51416016 0.4633789 v -0.35546875 q -0.7109375 -0.95214844 -1.3583984 -0.95214844 q -0.31103516 0 -0.4951172 0.21582031 q -0.18408203 0.21582031 -0.19042969 0.7363281 Z m 0 0.41259766 v 2.215332 q -0.9584961 -0.38085938 -1.237793 -0.5395508 q -0.50146484 -0.27929688 -0.71728516 -0.5839844 q -0.21582031 -0.3046875 -0.21582031 -0.6665039 q 0 -0.45703125 0.27294922 -0.7585449 q 0.27294922 -0.30151367 0.62841797 -0.30151367 q 0.48242188 0 1.2695313 0.6347656 Z "/>
        </symbol>
        <symbol id="g2518B265077251C03AACCB672509399" overflow="visible">
            <path d="M 0 0m 1.8852539 9.026367 q 0.26660156 0 0.45385742 -0.18725586 q 0.18725586 -0.18725586 0.18725586 -0.45385742 q 0 -0.26660156 -0.18725586 -0.45703125 q -0.18725586 -0.19042969 -0.45385742 -0.19042969 q -0.26660156 0 -0.45703125 0.19042969 q -0.19042969 0.19042969 -0.19042969 0.45703125 q 0 0.26660156 0.18725586 0.45385742 q 0.18725586 0.18725586 0.46020508 0.18725586 Z m 0.52685547 -3.0405273 v -4.671875 q 0 -0.54589844 0.0793457 -0.72680664 q 0.0793457 -0.1809082 0.23486328 -0.2697754 q 0.15551758 -0.08886719 0.56811523 -0.08886719 v -0.22851563 h -2.824707 v 0.22851563 q 0.42529297 0 0.57128906 0.08251953 q 0.1459961 0.08251953 0.23168945 0.27294922 q 0.08569336 0.19042969 0.08569336 0.72998047 v 2.2407227 q 0 0.9458008 -0.057128906 1.2250977 q -0.044433594 0.203125 -0.13964844 0.2824707 q -0.095214844 0.0793457 -0.2602539 0.0793457 q -0.17773438 0 -0.43164063 -0.095214844 l -0.08886719 0.22851563 l 1.7519531 0.7109375 h 0.27929688 Z "/>
        </symbol>
        <symbol id="gB4717267DA0F68F6AB23D5A0CE82DA" overflow="visible">
            <path d="M 0 0m 1.5234375 7.7631836 l 2.0947266 1.0219727 h 0.20947266 v -7.2680664 q 0 -0.7236328 0.060302734 -0.9013672 q 0.060302734 -0.17773438 0.25073242 -0.27294922 q 0.19042969 -0.095214844 0.77441406 -0.107910156 v -0.23486328 h -3.2373047 v 0.23486328 q 0.609375 0.0126953125 0.7871094 0.10473633 q 0.17773438 0.092041016 0.2475586 0.2475586 q 0.06982422 0.15551758 0.06982422 0.92993164 v 4.6464844 q 0 0.9394531 -0.06347656 1.2060547 q -0.044433594 0.203125 -0.16186523 0.29833984 q -0.11743164 0.095214844 -0.2824707 0.095214844 q -0.23486328 0 -0.6538086 -0.19677734 l -0.095214844 0.19677734 Z "/>
        </symbol>
        <symbol id="gB1946B9FCBE5A6509B8793CDAF06C747" overflow="visible">
            <path d="M 0 0m 6.004883 4.392578 q 0.89501953 -0.19042969 1.3393555 -0.609375 q 0.61572266 -0.5839844 0.61572266 -1.4282227 q 0 -0.6411133 -0.40625 -1.2282715 q -0.40625 -0.5871582 -1.1140137 -0.8569336 q -0.7077637 -0.2697754 -2.161377 -0.2697754 h -4.0625 v 0.23486328 h 0.32373047 q 0.5395508 0 0.77441406 0.34277344 q 0.1459961 0.22216797 0.1459961 0.9458008 v 5.560547 q 0 0.7998047 -0.18408203 1.0092773 q -0.2475586 0.27929688 -0.7363281 0.27929688 h -0.32373047 v 0.23486328 h 3.7197266 q 1.0410156 0 1.6694336 -0.15234375 q 0.95214844 -0.22851563 1.4536133 -0.8093262 q 0.50146484 -0.58081055 0.50146484 -1.3361816 q 0 -0.64746094 -0.3935547 -1.1584473 q -0.3935547 -0.5109863 -1.1616211 -0.7585449 Z m -3.3261719 0.34277344 q 0.23486328 -0.044433594 0.53637695 -0.06665039 q 0.30151367 -0.022216797 0.6633301 -0.022216797 q 0.9267578 0 1.3933105 0.19995117 q 0.46655273 0.19995117 0.7141113 0.6125488 q 0.2475586 0.41259766 0.2475586 0.9013672 q 0 0.7553711 -0.61572266 1.2885742 q -0.61572266 0.5332031 -1.7963867 0.5332031 q -0.6347656 0 -1.1425781 -0.13964844 v -3.307129 Z m 0 -4.1132813 q 0.7363281 -0.17138672 1.4536133 -0.17138672 q 1.1489258 0 1.7519531 0.517334 q 0.60302734 0.517334 0.60302734 1.2790527 q 0 0.50146484 -0.27294922 0.96484375 q -0.27294922 0.4633789 -0.8886719 0.72998047 q -0.61572266 0.26660156 -1.5234375 0.26660156 q -0.3935547 0 -0.67285156 -0.0126953125 q -0.27929688 -0.0126953125 -0.4506836 -0.044433594 v -3.5292969 Z "/>
        </symbol>
        <symbol id="gDB73607673E8736F4966B9A3FAAF04D" overflow="visible">
            <path d="M 0 0m 6.0810547 4.8305664 q 0.19042969 0.08886719 0.12060547 0.203125 q 0 0.0063476563 -0.14282227 0.1015625 q -0.14282227 0.095214844 -0.19995117 0.203125 q -0.12695313 0.21582031 -0.06982422 0.4189453 q 0.05078125 0.203125 0.27294922 0.3269043 q 0.22216797 0.1237793 0.46972656 0.053955078 q 0.27929688 -0.08886719 0.40942383 -0.36816406 q 0.13012695 -0.27929688 0.022216797 -0.609375 q -0.12695313 -0.37451172 -0.5332031 -0.5395508 q -0.34277344 -0.13964844 -0.9267578 -0.1459961 v -2.1835938 q 0 -0.93310547 0.044433594 -1.237793 q 0.038085938 -0.20947266 0.1586914 -0.31103516 q 0.1015625 -0.08886719 0.24121094 -0.08886719 q 0.19677734 0 0.44433594 0.107910156 l 0.08886719 -0.22216797 l -1.7392578 -0.71728516 h -0.28564453 v 1.2314453 q -0.7109375 -0.7680664 -1.1425781 -1.0219727 q -0.3618164 -0.20947266 -0.83154297 -0.20947266 q -1.0283203 0 -1.3457031 1.0092773 q -0.13964844 0.44433594 -0.13964844 1.2568359 v 2.5961914 q 0 0.6411133 -0.3491211 0.81884766 q -0.17773438 0.08251953 -0.6347656 0.076171875 v 0.23486328 h 2.0375977 v -3.8911133 q 0 -1.3203125 0.96484375 -1.3203125 q 0.27294922 0 0.6188965 0.17138672 q 0.34594727 0.17138672 0.8220215 0.6538086 v 3.2944336 q 0 0.50146484 -0.18408203 0.67285156 q -0.18408203 0.17138672 -0.74902344 0.18408203 v 0.23486328 h 1.9804688 v -1.0917969 q 0.19677734 0.0126953125 0.5776367 0.107910156 Z "/>
        </symbol>
        <symbol id="g2D276A03B928AFF7FAF26AA34318106" overflow="visible">
            <path d="M 0 0m 3.0532227 5.573242 q -0.85058594 0 -1.2250977 -0.9013672 q -0.20947266 -0.50146484 -0.20947266 -1.2885742 q 0 -1.3012695 0.50146484 -2.1899414 q 0.52685547 -0.92041016 1.3330078 -0.92041016 q 1.4155273 0 1.4155273 2.253418 q 0 1.5424805 -0.6665039 2.4375 q -0.45703125 0.609375 -1.1489258 0.609375 Z m 2.9262695 -0.7426758 q 0.19042969 0.08886719 0.12060547 0.203125 q -0.12060547 0.06347656 -0.34277344 0.3046875 q -0.12695313 0.21582031 -0.06982422 0.4189453 q 0.05078125 0.203125 0.27294922 0.3269043 q 0.22216797 0.1237793 0.46972656 0.053955078 q 0.27929688 -0.08886719 0.40942383 -0.36816406 q 0.13012695 -0.27929688 0.022216797 -0.609375 q -0.12695313 -0.37451172 -0.5332031 -0.5395508 q -0.20947266 -0.08251953 -0.6347656 -0.13330078 q 0.35546875 -0.6665039 0.35546875 -1.4726563 q 0 -0.80615234 -0.37451172 -1.5805664 q -0.3935547 -0.8125 -1.0283203 -1.2060547 q -0.66015625 -0.40625 -1.4663086 -0.40625 q -1.3139648 0 -2.088379 1.0473633 q -0.6538086 0.8823242 -0.6538086 1.9804688 q 0 0.8125 0.40307617 1.5996094 q 0.40307617 0.7871094 1.0441895 1.1616211 q 0.6411133 0.37451172 1.3647461 0.37451172 q 1.3203125 0 2.1201172 -1.0029297 q 0.1015625 -0.12695313 0.18408203 -0.2602539 q 0.12695313 0.0126953125 0.42529297 0.107910156 Z m -1.0600586 3.9926758 l -1.8725586 -2.1899414 h -0.21582031 l 0.6665039 2.1899414 h 1.421875 Z "/>
        </symbol>
        <symbol id="gF0461511323F2853E171F2D0B3BE66DD" overflow="visible">
            <path d="M 0 0m 2.1328125 4.748047 q 0.6347656 0.6347656 0.74902344 0.72998047 q 0.28564453 0.24121094 0.61572266 0.37451172 q 0.33007813 0.13330078 0.6538086 0.13330078 q 0.54589844 0 0.9394531 -0.3173828 q 0.3935547 -0.3173828 0.52685547 -0.92041016 q 0.6538086 0.76171875 1.1044922 0.99975586 q 0.4506836 0.23803711 0.9267578 0.23803711 q 0.4633789 0 0.8220215 -0.23803711 q 0.35864258 -0.23803711 0.56811523 -0.7775879 q 0.13964844 -0.36816406 0.13964844 -1.1552734 v -2.5009766 q 0 -0.54589844 0.08251953 -0.74902344 q 0.06347656 -0.13964844 0.23486328 -0.23803711 q 0.17138672 -0.09838867 0.55859375 -0.09838867 v -0.22851563 h -2.8691406 v 0.22851563 h 0.12060547 q 0.37451172 0 0.5839844 0.1459961 q 0.1459961 0.1015625 0.20947266 0.32373047 q 0.025390625 0.107910156 0.025390625 0.61572266 v 2.5009766 q 0 0.7109375 -0.17138672 1.0029297 q -0.2475586 0.40625 -0.79345703 0.40625 q -0.33642578 0 -0.6760254 -0.16821289 q -0.3395996 -0.16821289 -0.8220215 -0.62524414 l -0.0126953125 -0.06982422 l 0.0126953125 -0.27294922 v -2.7739258 q 0 -0.5966797 0.06665039 -0.7426758 q 0.06665039 -0.1459961 0.25073242 -0.24438477 q 0.18408203 -0.09838867 0.62841797 -0.09838867 v -0.22851563 h -2.9389648 v 0.22851563 q 0.48242188 0 0.6633301 0.11425781 q 0.1809082 0.11425781 0.25073242 0.34277344 q 0.03173828 0.107910156 0.03173828 0.62841797 v 2.5009766 q 0 0.7109375 -0.20947266 1.0219727 q -0.27929688 0.40625 -0.7807617 0.40625 q -0.34277344 0 -0.6791992 -0.18408203 q -0.52685547 -0.27929688 -0.8125 -0.62841797 v -3.1166992 q 0 -0.57128906 0.0793457 -0.7426758 q 0.0793457 -0.17138672 0.23486328 -0.25708008 q 0.15551758 -0.08569336 0.6315918 -0.08569336 v -0.22851563 h -2.8754883 v 0.22851563 q 0.39990234 0 0.55859375 0.08569336 q 0.1586914 0.08569336 0.24121094 0.27294922 q 0.08251953 0.18725586 0.08251953 0.72680664 v 2.2216797 q 0 0.9584961 -0.057128906 1.237793 q -0.044433594 0.20947266 -0.13964844 0.28881836 q -0.095214844 0.0793457 -0.2602539 0.0793457 q -0.17773438 0 -0.42529297 -0.095214844 l -0.095214844 0.22851563 l 1.7519531 0.7109375 h 0.27294922 v -1.237793 Z "/>
        </symbol>
        <symbol id="g62F64665D74B9842012FB5F3545AA80" overflow="visible">
            <path d="M 0 0m 3.25 5.98584 q 1.3203125 0 2.1201172 -1.0029297 q 0.6791992 -0.8569336 0.6791992 -1.9677734 q 0 -0.7807617 -0.37451172 -1.5805664 q -0.37451172 -0.7998047 -1.0314941 -1.2060547 q -0.6569824 -0.40625 -1.4631348 -0.40625 q -1.3139648 0 -2.088379 1.0473633 q -0.6538086 0.8823242 -0.6538086 1.9804688 q 0 0.7998047 0.39672852 1.5900879 q 0.39672852 0.7902832 1.0441895 1.1679688 q 0.64746094 0.37768555 1.3710938 0.37768555 Z m -0.19677734 -0.41259766 q -0.33642578 0 -0.6760254 -0.19995117 q -0.3395996 -0.19995117 -0.54907227 -0.701416 q -0.20947266 -0.50146484 -0.20947266 -1.2885742 q 0 -1.2695313 0.5046387 -2.1899414 q 0.5046387 -0.92041016 1.329834 -0.92041016 q 0.61572266 0 1.015625 0.5078125 q 0.39990234 0.5078125 0.39990234 1.7456055 q 0 1.5488281 -0.6665039 2.4375 q -0.4506836 0.609375 -1.1489258 0.609375 Z m -0.3173828 3.2182617 h 1.1679688 l 1.2060547 -2.1010742 h -0.19677734 l -1.7329102 1.3520508 l -1.4536133 -1.3520508 h -0.19042969 l 1.199707 2.1010742 Z m 0.48242188 -9.553223 q 0.29833984 0 0.50146484 -0.20629883 q 0.203125 -0.20629883 0.203125 -0.49829102 q 0 -0.2919922 -0.20629883 -0.49829102 q -0.20629883 -0.20629883 -0.49829102 -0.20629883 q -0.2919922 0 -0.49829102 0.20629883 q -0.20629883 0.20629883 -0.20629883 0.49829102 q 0 0.29833984 0.20629883 0.50146484 q 0.20629883 0.203125 0.49829102 0.203125 Z "/>
        </symbol>
        <symbol id="gA0C180F90A4F89F4F6B5BCB1A06FD148" overflow="visible">
            <path d="M 0 0m 5.960449 1.6567383 l -0.60302734 -1.6567383 h -5.078125 v 0.23486328 q 2.2407227 2.0439453 3.1547852 3.3388672 q 0.9140625 1.2949219 0.9140625 2.3676758 q 0 0.81884766 -0.50146484 1.3457031 q -0.50146484 0.52685547 -1.199707 0.52685547 q -0.6347656 0 -1.1394043 -0.3713379 q -0.5046387 -0.3713379 -0.7458496 -1.088623 h -0.23486328 q 0.1586914 1.1743164 0.8156738 1.8027344 q 0.6569824 0.62841797 1.6408691 0.62841797 q 1.0473633 0 1.7487793 -0.67285156 q 0.701416 -0.67285156 0.701416 -1.5869141 q 0 -0.6538086 -0.3046875 -1.3076172 q -0.46972656 -1.0283203 -1.5234375 -2.177246 q -1.5805664 -1.7265625 -1.9741211 -2.0820313 h 2.2470703 q 0.6855469 0 0.9616699 0.05078125 q 0.27612305 0.05078125 0.49829102 0.20629883 q 0.22216797 0.15551758 0.38720703 0.4411621 h 0.23486328 Z "/>
        </symbol>
    </defs>
</svg>
