<svg class="typst-doc" viewBox="0 0 380 73.15523437499999" width="380pt" height="73.15523437499999pt" xmlns="http://www.w3.org/2000/svg" xmlns:xlink="http://www.w3.org/1999/xlink" xmlns:h5="http://www.w3.org/1999/xhtml">
    <path class="typst-shape" fill="#ffffff" fill-rule="nonzero" d="M 0 0v 73.155235 h 380 v -73.155235 Z "/>
    <g>
        <g class="typst-group" transform="matrix(1 0 0 1 12 12)">
            <g>
                <g class="typst-text" transform="matrix(1 0 0 -1 0 12.050390624999999)">
                    <use xlink:href="#g8248643C02F739397B9237BB2ECF2387" x="0" y="0" fill="#000000" fill-rule="nonzero"/>
                    <use xlink:href="#gB310542AFF892B3FADCE35DBCA9EEAE8" x="12.139257812499999" y="0" fill="#000000" fill-rule="nonzero"/>
                    <use xlink:href="#gC0F18EC2FC0EBFCF8F228C201C612436" x="22.216796874999996" y="0" fill="#000000" fill-rule="nonzero"/>
                    <use xlink:href="#gDB7542A8E39D71079FA9D59D8B4EA184" x="31.82333984374999" y="0" fill="#000000" fill-rule="nonzero"/>
                    <use xlink:href="#g5C27A1DA08453A7DDB3D679F0110E7F8" x="46.98408203124999" y="0" fill="#000000" fill-rule="nonzero"/>
                    <use xlink:href="#g7C70BC738DF018D962C4E4FEBA09D3A5" x="61.61162109374999" y="0" fill="#000000" fill-rule="nonzero"/>
                    <use xlink:href="#gED076CE2119EF7542AE0A31B934C9E8C" x="71.73359374999998" y="0" fill="#000000" fill-rule="nonzero"/>
                    <use xlink:href="#g45CC5863A1EE035EA829B88FCBE884E2" x="80.83359374999998" y="0" fill="#000000" fill-rule="nonzero"/>
                </g>
            </g>
        </g>
        <g class="typst-group">
            <g>
                <g class="typst-text" transform="matrix(1 0 0 -1 12 42.40781249999999)">
                    <use xlink:href="#gA1BA951944FBA545F8E3F38D8830DFC5" x="0" y="0" fill="#000000" fill-rule="nonzero"/>
                    <use xlink:href="#gFDADF0744AC7109DC5EEC1C3A4FB8A48" x="9.38818359375" y="0" fill="#000000" fill-rule="nonzero"/>
                    <use xlink:href="#g25D3C73B88594E5E94E90D6335529B76" x="15.158203125" y="0" fill="#000000" fill-rule="nonzero"/>
                    <use xlink:href="#g623731D87B745633192D8D7CA856D24E" x="24.132544020156345" y="0" fill="#000000" fill-rule="nonzero"/>
                    <use xlink:href="#gE9B50F876700D91F83C187DA7F60B64C" x="27.744360426406345" y="0" fill="#000000" fill-rule="nonzero"/>
                    <use xlink:href="#g16C639E9EFD108EE834ABF88303788DD" x="35.98872085281269" y="0" fill="#000000" fill-rule="nonzero"/>
                    <use xlink:href="#gF2D171D10C769C98038956B741346797" x="42.48872085281269" y="0" fill="#000000" fill-rule="nonzero"/>
                    <use xlink:href="#gA750AB72109E0A777EEC2ADB90813428" x="48.98872085281269" y="0" fill="#000000" fill-rule="nonzero"/>
                    <use xlink:href="#g6CFDF21DA7A6F6359AADA2D8B266CF44" x="54.75874038406269" y="0" fill="#000000" fill-rule="nonzero"/>
                    <use xlink:href="#g71D652B9BC8E16C64CED21EFEE5BA9CE" x="63.733081279219036" y="0" fill="#000000" fill-rule="nonzero"/>
                    <use xlink:href="#g4B2DAA9DB619421059FB462E4BAE4775" x="70.23308127921904" y="0" fill="#000000" fill-rule="nonzero"/>
                    <use xlink:href="#g6CFDF21DA7A6F6359AADA2D8B266CF44" x="76.00310081046904" y="0" fill="#000000" fill-rule="nonzero"/>
                    <use xlink:href="#gBD42DD53FD2BA9C6C9E4C134F5EFFC6A" x="84.97744170562538" y="0" fill="#000000" fill-rule="nonzero"/>
                    <use xlink:href="#g2518B265077251C03AACCB672509399" x="88.58925811187538" y="0" fill="#000000" fill-rule="nonzero"/>
                    <use xlink:href="#g199B50B7EA2F8FD1D54273179CDC24D2" x="92.20107451812538" y="0" fill="#000000" fill-rule="nonzero"/>
                    <use xlink:href="#g6CFDF21DA7A6F6359AADA2D8B266CF44" x="97.97109404937538" y="0" fill="#000000" fill-rule="nonzero"/>
                    <use xlink:href="#gBE747BD69962E14F0AE91F25CF9C5F7E" x="104.47109404937538" y="0" fill="#000000" fill-rule="nonzero"/>
                    <use xlink:href="#g1D516D98FE43605D50E66C9F6201E8F" x="113.26662515328019" y="0" fill="#000000" fill-rule="nonzero"/>
                    <use xlink:href="#g2518B265077251C03AACCB672509399" x="121.87404702828019" y="0" fill="#000000" fill-rule="nonzero"/>
                    <use xlink:href="#g4B4E85424336BED9C8AAAC6345E92C31" x="125.48586343453019" y="0" fill="#000000" fill-rule="nonzero"/>
                    <use xlink:href="#gBD42DD53FD2BA9C6C9E4C134F5EFFC6A" x="131.2558829657802" y="0" fill="#000000" fill-rule="nonzero"/>
                    <use xlink:href="#g16C639E9EFD108EE834ABF88303788DD" x="137.34204026718655" y="0" fill="#000000" fill-rule="nonzero"/>
                    <use xlink:href="#g506164685F5F6CB16FB47DF1DB422053" x="143.84204026718655" y="0" fill="#000000" fill-rule="nonzero"/>
                    <use xlink:href="#g25D3C73B88594E5E94E90D6335529B76" x="149.61205979843655" y="0" fill="#000000" fill-rule="nonzero"/>
                    <use xlink:href="#g16C639E9EFD108EE834ABF88303788DD" x="158.5864006935929" y="0" fill="#000000" fill-rule="nonzero"/>
                    <use xlink:href="#g12BFF317335FCE7E52DEBC303CC357A5" x="165.0864006935929" y="0" fill="#000000" fill-rule="nonzero"/>
                    <use xlink:href="#g99BC5C950BF23E8DD3D70429E6897B6A" x="174.06074158874927" y="0" fill="#000000" fill-rule="nonzero"/>
                    <use xlink:href="#g2F7854FA5C0F7C5B09A5769F4C5553BF" x="180.56074158874927" y="0" fill="#000000" fill-rule="nonzero"/>
                    <use xlink:href="#gCD8B70A6204902D65B6F6339E14D1A3B" x="186.33076111999927" y="0" fill="#000000" fill-rule="nonzero"/>
                    <use xlink:href="#gBF35D28921E2280A19F33A9E5E413B97" x="192.83076111999927" y="0" fill="#000000" fill-rule="nonzero"/>
                    <use xlink:href="#g4B2DAA9DB619421059FB462E4BAE4775" x="198.91691842140563" y="0" fill="#000000" fill-rule="nonzero"/>
                    <use xlink:href="#g6CFDF21DA7A6F6359AADA2D8B266CF44" x="204.68693795265563" y="0" fill="#000000" fill-rule="nonzero"/>
                    <use xlink:href="#g9954AA151208B1B75FBCCD1348E0F42A" x="211.18693795265563" y="0" fill="#000000" fill-rule="nonzero"/>
                    <use xlink:href="#g2F7854FA5C0F7C5B09A5769F4C5553BF" x="216.91127884781199" y="0" fill="#000000" fill-rule="nonzero"/>
                    <use xlink:href="#gF0461511323F2853E171F2D0B3BE66DD" x="222.68129837906199" y="0" fill="#000000" fill-rule="nonzero"/>
                    <use xlink:href="#g9954AA151208B1B75FBCCD1348E0F42A" x="232.79311478531199" y="0" fill="#000000" fill-rule="nonzero"/>
                    <use xlink:href="#g5279388E52749BE45105F96DE49A51F9" x="238.51745568046834" y="0" fill="#000000" fill-rule="nonzero"/>
                    <use xlink:href="#g9954AA151208B1B75FBCCD1348E0F42A" x="245.39196739921834" y="0" fill="#000000" fill-rule="nonzero"/>
                    <use xlink:href="#g2CCFE655BFC88140262DBD0E412860CE" x="251.1163082943747" y="0" fill="#000000" fill-rule="nonzero"/>
                    <use xlink:href="#g9954AA151208B1B75FBCCD1348E0F42A" x="258.1622067318747" y="0" fill="#000000" fill-rule="nonzero"/>
                    <use xlink:href="#g1A4D906B26F51182F60B043BB4FC7FF4" x="263.886547627031" y="0" fill="#000000" fill-rule="nonzero"/>
                    <use xlink:href="#g9954AA151208B1B75FBCCD1348E0F42A" x="269.656567158281" y="0" fill="#000000" fill-rule="nonzero"/>
                    <use xlink:href="#g504D2FCA363F96CDCEAF37D59317D3AA" x="275.38090805343734" y="0" fill="#000000" fill-rule="nonzero"/>
                    <use xlink:href="#gF7FEF0E8A1EE9ED0CBEEB10BE45EF9C4" x="281.88090805343734" y="0" fill="#000000" fill-rule="nonzero"/>
                    <use xlink:href="#g6C052212E3D7191840EA6C0C8F88F31D" x="287.60524894859367" y="0" fill="#000000" fill-rule="nonzero"/>
                    <use xlink:href="#gCAC099A4189AF6595F6639F2BC3139FD" x="294.83522941734367" y="0" fill="#000000" fill-rule="nonzero"/>
                    <use xlink:href="#gDB73607673E8736F4966B9A3FAAF04D" x="301.33522941734367" y="0" fill="#000000" fill-rule="nonzero"/>
                    <use xlink:href="#gA5A5B5057AD89783F3D012DE2C1A8248" x="308.38112785484367" y="0" fill="#000000" fill-rule="nonzero"/>
                    <use xlink:href="#g6CFDF21DA7A6F6359AADA2D8B266CF44" x="315.25563957359367" y="0" fill="#000000" fill-rule="nonzero"/>
                    <use xlink:href="#gBE747BD69962E14F0AE91F25CF9C5F7E" x="321.75563957359367" y="0" fill="#000000" fill-rule="nonzero"/>
                    <use xlink:href="#gD94E1738BE570EE07B8899D726C72515" x="330.72998046875" y="0" fill="#000000" fill-rule="nonzero"/>
                    <use xlink:href="#gCAC099A4189AF6595F6639F2BC3139FD" x="337.22998046875" y="0" fill="#000000" fill-rule="nonzero"/>
                    <use xlink:href="#g621C9557EF67B84B443D27A2EE62700" x="343.72998046875" y="0" fill="#000000" fill-rule="nonzero"/>
                    <use xlink:href="#gD94E1738BE570EE07B8899D726C72515" x="349.5" y="0" fill="#000000" fill-rule="nonzero"/>
                </g>
            </g>
        </g>
        <g class="typst-group">
            <g>
                <g class="typst-text" transform="matrix(1 0 0 -1 12 61.15523437499999)">
                    <use xlink:href="#g6CFDF21DA7A6F6359AADA2D8B266CF44" x="0" y="0" fill="#000000" fill-rule="nonzero"/>
                    <use xlink:href="#gBE747BD69962E14F0AE91F25CF9C5F7E" x="6.5" y="0" fill="#000000" fill-rule="nonzero"/>
                    <use xlink:href="#gCAC099A4189AF6595F6639F2BC3139FD" x="13" y="0" fill="#000000" fill-rule="nonzero"/>
                    <use xlink:href="#g2518B265077251C03AACCB672509399" x="19.5" y="0" fill="#000000" fill-rule="nonzero"/>
                    <use xlink:href="#g5B52C20278386D9BBBA2E5D16E85B733" x="23.11181640625" y="0" fill="#000000" fill-rule="nonzero"/>
                    <use xlink:href="#g6CFDF21DA7A6F6359AADA2D8B266CF44" x="28.8818359375" y="0" fill="#000000" fill-rule="nonzero"/>
                    <use xlink:href="#g767D5D8D4161AA014B61B564E4EF8B6" x="38.6318359375" y="0" fill="#000000" fill-rule="nonzero"/>
                    <use xlink:href="#gEFBB52318EC36D6EA71CE06D73E78710" x="44.40185546875" y="0" fill="#000000" fill-rule="nonzero"/>
                    <use xlink:href="#gCD8B70A6204902D65B6F6339E14D1A3B" x="51.44775390625" y="0" fill="#000000" fill-rule="nonzero"/>
                    <use xlink:href="#gFAEF1D875B3F78D0EF573EF9C92E8831" x="61.19775390625" y="0" fill="#000000" fill-rule="nonzero"/>
                    <use xlink:href="#gCAC099A4189AF6595F6639F2BC3139FD" x="67.69775390625" y="0" fill="#000000" fill-rule="nonzero"/>
                    <use xlink:href="#gF2D171D10C769C98038956B741346797" x="74.19775390625" y="0" fill="#000000" fill-rule="nonzero"/>
                    <use xlink:href="#g909F1274A9E0ACE711A03D00E37A610F" x="80.69775390625" y="0" fill="#000000" fill-rule="nonzero"/>
                    <use xlink:href="#gCAC099A4189AF6595F6639F2BC3139FD" x="89.7177734375" y="0" fill="#000000" fill-rule="nonzero"/>
                    <use xlink:href="#g65DF130670921ABD8E557B83E2273E12" x="96.2177734375" y="0" fill="#000000" fill-rule="nonzero"/>
                    <use xlink:href="#g767D5D8D4161AA014B61B564E4EF8B6" x="102.7177734375" y="0" fill="#000000" fill-rule="nonzero"/>
                    <use xlink:href="#g71D652B9BC8E16C64CED21EFEE5BA9CE" x="111.73779296875" y="0" fill="#000000" fill-rule="nonzero"/>
                    <use xlink:href="#gE9B50F876700D91F83C187DA7F60B64C" x="118.23779296875" y="0" fill="#000000" fill-rule="nonzero"/>
                    <use xlink:href="#gEFBB52318EC36D6EA71CE06D73E78710" x="127.2578125" y="0" fill="#000000" fill-rule="nonzero"/>
                    <use xlink:href="#g6CFDF21DA7A6F6359AADA2D8B266CF44" x="134.3037109375" y="0" fill="#000000" fill-rule="nonzero"/>
                    <use xlink:href="#gBE747BD69962E14F0AE91F25CF9C5F7E" x="140.8037109375" y="0" fill="#000000" fill-rule="nonzero"/>
                    <use xlink:href="#g99BC5C950BF23E8DD3D70429E6897B6A" x="150.5537109375" y="0" fill="#000000" fill-rule="nonzero"/>
                    <use xlink:href="#gC98E45DCE5F5E8A62DD7033A29335537" x="157.0537109375" y="0" fill="#000000" fill-rule="nonzero"/>
                    <use xlink:href="#g6CFDF21DA7A6F6359AADA2D8B266CF44" x="163.5537109375" y="0" fill="#000000" fill-rule="nonzero"/>
                    <use xlink:href="#gBE747BD69962E14F0AE91F25CF9C5F7E" x="170.0537109375" y="0" fill="#000000" fill-rule="nonzero"/>
                    <use xlink:href="#gBD42DD53FD2BA9C6C9E4C134F5EFFC6A" x="179.8037109375" y="0" fill="#000000" fill-rule="nonzero"/>
                    <use xlink:href="#gCAC099A4189AF6595F6639F2BC3139FD" x="183.41552734375" y="0" fill="#000000" fill-rule="nonzero"/>
                    <use xlink:href="#gA8EBCC5CA47AE21AA37FC97649F954CC" x="189.91552734375" y="0" fill="#000000" fill-rule="nonzero"/>
                    <use xlink:href="#g767D5D8D4161AA014B61B564E4EF8B6" x="196.96142578125" y="0" fill="#000000" fill-rule="nonzero"/>
                    <use xlink:href="#gBD42DD53FD2BA9C6C9E4C134F5EFFC6A" x="205.9814453125" y="0" fill="#000000" fill-rule="nonzero"/>
                    <use xlink:href="#g2518B265077251C03AACCB672509399" x="209.59326171875" y="0" fill="#000000" fill-rule="nonzero"/>
                    <use xlink:href="#g9D3115ECCA7A241F82FB468E6C7FF987" x="213.205078125" y="0" fill="#000000" fill-rule="nonzero"/>
                    <use xlink:href="#g6CFDF21DA7A6F6359AADA2D8B266CF44" x="218.97509765625" y="0" fill="#000000" fill-rule="nonzero"/>
                    <use xlink:href="#gBD42DD53FD2BA9C6C9E4C134F5EFFC6A" x="228.72509765625" y="0" fill="#000000" fill-rule="nonzero"/>
                    <use xlink:href="#gAC7B707B2D806871BFD3E9BE1E356C30" x="232.3369140625" y="0" fill="#000000" fill-rule="nonzero"/>
                    <use xlink:href="#gF2D171D10C769C98038956B741346797" x="236.666015625" y="0" fill="#000000" fill-rule="nonzero"/>
                    <use xlink:href="#g6CFDF21DA7A6F6359AADA2D8B266CF44" x="243.166015625" y="0" fill="#000000" fill-rule="nonzero"/>
                    <use xlink:href="#gBE747BD69962E14F0AE91F25CF9C5F7E" x="249.666015625" y="0" fill="#000000" fill-rule="nonzero"/>
                    <use xlink:href="#g16C639E9EFD108EE834ABF88303788DD" x="259.416015625" y="0" fill="#000000" fill-rule="nonzero"/>
                    <use xlink:href="#gA793311D5950ECCB8D7521553BAB25CA" x="265.916015625" y="0" fill="#000000" fill-rule="nonzero"/>
                    <use xlink:href="#g621C9557EF67B84B443D27A2EE62700" x="275.666015625" y="0" fill="#000000" fill-rule="nonzero"/>
                    <use xlink:href="#g6CFDF21DA7A6F6359AADA2D8B266CF44" x="281.43603515625" y="0" fill="#000000" fill-rule="nonzero"/>
                    <use xlink:href="#gBD42DD53FD2BA9C6C9E4C134F5EFFC6A" x="291.18603515625" y="0" fill="#000000" fill-rule="nonzero"/>
                    <use xlink:href="#g37172D84C7A1920A4AFC99164AAE63CE" x="294.7978515625" y="0" fill="#000000" fill-rule="nonzero"/>
                    <use xlink:href="#gBD42DD53FD2BA9C6C9E4C134F5EFFC6A" x="301.2978515625" y="0" fill="#000000" fill-rule="nonzero"/>
                    <use xlink:href="#g6CFDF21DA7A6F6359AADA2D8B266CF44" x="308.15966796875" y="0" fill="#000000" fill-rule="nonzero"/>
                    <use xlink:href="#gBE747BD69962E14F0AE91F25CF9C5F7E" x="314.65966796875" y="0" fill="#000000" fill-rule="nonzero"/>
                    <use xlink:href="#gCAC099A4189AF6595F6639F2BC3139FD" x="321.15966796875" y="0" fill="#000000" fill-rule="nonzero"/>
                    <use xlink:href="#g2518B265077251C03AACCB672509399" x="327.65966796875" y="0" fill="#000000" fill-rule="nonzero"/>
                    <use xlink:href="#g4B4E85424336BED9C8AAAC6345E92C31" x="331.271484375" y="0" fill="#000000" fill-rule="nonzero"/>
                    <use xlink:href="#gD94E1738BE570EE07B8899D726C72515" x="337.04150390625" y="0" fill="#000000" fill-rule="nonzero"/>
                    <use xlink:href="#gF7FEF0E8A1EE9ED0CBEEB10BE45EF9C4" x="343.54150390625" y="0" fill="#000000" fill-rule="nonzero"/>
                </g>
            </g>
        </g>
    </g>
    <defs id="glyph">
        <symbol id="g8248643C02F739397B9237BB2ECF2387" overflow="visible">
            <path d="M 0 0m 11.490528 4.230078 l -0.45322323 -4.230078 h -10.69961 v 0.3288086 h 0.39990237 q 0.52431643 0 0.8442383 0.18662113 q 0.23105466 0.12441403 0.35546875 0.4265625 q 0.097754 0.21328121 0.097754 1.1197267 v 7.9269533 q 0 0.92421913 -0.097754 1.1552734 q -0.09775388 0.2310543 -0.39545894 0.4043455 q -0.29770517 0.1732912 -0.8042481 0.1732912 h -0.39990237 v 0.32880878 h 6.425098 v -0.32880878 h -0.5243163 q -0.5243163 0 -0.8442383 -0.18662071 q -0.23105478 -0.124414444 -0.36435556 -0.42656326 q -0.097754 -0.21328068 -0.097754 -1.1197262 v -7.6781254 q 0 -0.92421865 0.106640816 -1.1774902 q 0.106640816 -0.25327146 0.41767597 -0.3776855 q 0.22216797 -0.07998049 1.0752931 -0.07998049 h 1.004199 q 0.9597659 0 1.5996099 0.3376953 q 0.639843 0.33769536 1.1063957 1.0664064 q 0.46655273 0.7287109 0.8842287 2.150586 h 0.36435604 Z "/>
        </symbol>
        <symbol id="gB310542AFF892B3FADCE35DBCA9EEAE8" overflow="visible">
            <path d="M 0 0m 10.415235 7.509278 q -0.21328068 -0.6309571 -0.8975582 -0.9153323 q -0.46210957 -0.18662119 -1.5462894 -0.18662119 q 0.4798832 -1.0308595 0.4798832 -2.2572265 q 0 -1.7684572 -0.8975587 -2.9592776 q -1.0841799 -1.4396485 -2.9948244 -1.4396485 q -1.8040042 0 -2.8881838 1.3152344 q -1.013086 1.2263672 -1.013086 3.0481448 q 0 1.8573241 1.0308595 3.1192384 q 1.0930663 1.3241215 2.84375 1.3241215 q 1.1997075 0 2.0706058 -0.586524 q 0.24882793 -0.17773438 0.8620119 -0.7909179 q 0.34658194 -0.36435556 0.7909179 -0.37324238 q 0.3465824 -0.008886337 0.54208946 0.062207222 q 0.2399416 0.08886719 0.31992245 0.2843752 q 0.044433594 0.08886719 0.008886337 0.14218712 q -0.20439434 0.106640816 -0.58652306 0.51543 q -0.20439434 0.3643551 -0.11552715 0.70205116 q 0.08886719 0.35546875 0.46655273 0.56430626 q 0.37768555 0.20883751 0.7864742 0.08442402 q 0.4798832 -0.15107441 0.70205116 -0.6220703 q 0.22216797 -0.4709959 0.035546303 -1.0308595 Z m -4.57666 -2.666016 q 0 1.4218755 -0.16884756 2.0706058 q -0.1421876 0.54208994 -0.49765635 0.82646465 q -0.23105478 0.18662119 -0.6042967 0.18662119 q -1.0308597 0 -1.1997073 -1.6884766 q -0.10664058 -1.0130858 -0.10664058 -2.8082032 q 0 -0.9597657 0.12441397 -1.7773438 q 0.19550776 -1.2885743 1.1463866 -1.2885743 q 0.9064455 0 1.1286135 1.0664064 q 0.17773438 0.8442383 0.17773438 3.4125 Z m -3.9990234 7.615918 h 2.6749024 l 1.0308595 -3.0836916 h -0.7553711 l -2.9503908 3.0836916 Z "/>
        </symbol>
        <symbol id="gC0F18EC2FC0EBFCF8F228C201C612436" overflow="visible">
            <path d="M 0 0m 2.6126955 12.334766 q 0.5776367 0 0.97753906 -0.4043455 q 0.39990234 -0.40434647 0.39990234 -0.9730959 q 0 -0.5687504 -0.40434575 -0.9686527 q -0.40434575 -0.39990234 -0.97309566 -0.39990234 q -0.56875014 0 -0.96865237 0.39990234 q -0.39990246 0.39990234 -0.39990246 0.9686527 q 0 0.5687494 0.39990246 0.9730959 q 0.39990222 0.4043455 0.96865237 0.4043455 Z m 1.2441406 -4.0256844 v -6.5850587 q 0 -0.8797851 0.20439458 -1.12417 q 0.20439434 -0.24438477 0.7998047 -0.27993163 v -0.31992188 h -4.487793 v 0.31992188 q 0.5509766 0.01777345 0.81757814 0.31992188 q 0.17773438 0.20439458 0.17773438 1.0841796 v 4.852149 q 0 0.87978506 -0.20439446 1.1241698 q -0.20439458 0.24438477 -0.79091805 0.27993155 v 0.3288083 h 3.483594 Z "/>
        </symbol>
        <symbol id="gDB7542A8E39D71079FA9D59D8B4EA184" overflow="visible">
            <path d="M 0 0m 4.0612307 8.309082 v -1.0930662 q 0.68427753 0.74648476 1.2663574 1.0441895 q 0.58208036 0.29770565 1.2752442 0.29770565 q 0.7998047 0 1.3418946 -0.37324238 q 0.54208946 -0.37324238 0.83535194 -1.1375003 q 0.7109375 0.7998047 1.364111 1.1552739 q 0.65317345 0.35546875 1.3641119 0.35546875 q 0.86201096 0 1.3729973 -0.39545918 q 0.5109863 -0.39545918 0.7109375 -1.0041995 q 0.19995117 -0.6087403 0.19995117 -1.9417481 v -3.4036136 q 0 -0.9597656 0.1732912 -1.1908203 q 0.1732912 -0.23105466 0.72426796 -0.30214843 v -0.31992188 h -4.292286 v 0.31992188 q 0.50654316 0.044433594 0.74648476 0.39101562 q 0.15996075 0.23994142 0.15996075 1.1019531 v 3.5724611 q 0 1.1108398 -0.08886719 1.4129887 q -0.08886719 0.30214834 -0.27993107 0.4487791 q -0.19106483 0.14663076 -0.44878006 0.14663076 q -0.38212872 0 -0.77314377 -0.27993155 q -0.391016 -0.27993155 -0.79091835 -0.8397951 v -4.461133 q 0 -0.89755857 0.15107441 -1.1286132 q 0.20439434 -0.3288086 0.78203106 -0.36435547 v -0.31992188 h -4.3011723 v 0.31992188 q 0.3465824 0.01777345 0.5465336 0.17329103 q 0.19995117 0.15551761 0.26660156 0.37324223 q 0.06665039 0.21772462 0.06665039 0.9464355 v 3.5724611 q 0 1.1286135 -0.08886719 1.4129887 q -0.08886719 0.2843747 -0.29770517 0.44433594 q -0.20883799 0.15996075 -0.44877958 0.15996075 q -0.35546875 0 -0.6487303 -0.18662119 q -0.41767597 -0.27548838 -0.8886719 -0.9419923 v -4.461133 q 0 -0.8797851 0.1732912 -1.1597168 q 0.17329073 -0.27993166 0.7242675 -0.33325198 v -0.31992188 h -4.2833986 v 0.31992188 q 0.5243164 0.05332032 0.74648434 0.33769533 q 0.15107429 0.19550782 0.15107429 1.1552734 v 4.692188 q 0 0.9419923 -0.17329109 1.1730471 q -0.17329097 0.23105478 -0.72426754 0.30214834 v 0.3288083 h 3.38584 Z "/>
        </symbol>
        <symbol id="g5C27A1DA08453A7DDB3D679F0110E7F8" overflow="visible">
            <path d="M 0 0m 10.415235 7.509278 q -0.21328068 -0.6309571 -0.8975582 -0.9153323 q -0.46210957 -0.18662119 -1.5462894 -0.18662119 q 0.4798832 -1.0308595 0.4798832 -2.2572265 q 0 -1.7684572 -0.8975587 -2.9592776 q -1.0841799 -1.4396485 -2.9948244 -1.4396485 q -1.8040042 0 -2.8881838 1.3152344 q -1.013086 1.2263672 -1.013086 3.0481448 q 0 1.8573241 1.0308595 3.1192384 q 1.0930663 1.3241215 2.84375 1.3241215 q 1.1997075 0 2.0706058 -0.586524 q 0.24882793 -0.17773438 0.8620119 -0.7909179 q 0.34658194 -0.36435556 0.7909179 -0.37324238 q 0.3465824 -0.008886337 0.54208946 0.062207222 q 0.2399416 0.08886719 0.31992245 0.2843752 q 0.044433594 0.08886719 0.008886337 0.14218712 q -0.20439434 0.106640816 -0.58652306 0.51543 q -0.20439434 0.3643551 -0.11552715 0.70205116 q 0.08886719 0.35546875 0.46655273 0.56430626 q 0.37768555 0.20883751 0.7864742 0.08442402 q 0.4798832 -0.15107441 0.70205116 -0.6220703 q 0.22216797 -0.4709959 0.035546303 -1.0308595 Z m -4.57666 -2.666016 q 0 1.4218755 -0.16884756 2.0706058 q -0.1421876 0.54208994 -0.49765635 0.82646465 q -0.23105478 0.18662119 -0.6042967 0.18662119 q -1.0308597 0 -1.1997073 -1.6884766 q -0.10664058 -1.0130858 -0.10664058 -2.8082032 q 0 -0.9597657 0.12441397 -1.7773438 q 0.19550776 -1.2885743 1.1463866 -1.2885743 q 0.9064455 0 1.1286135 1.0664064 q 0.17773438 0.8442383 0.17773438 3.4125 Z m 0.11552763 5.6875 q -0.73759794 -0.43544865 -0.88867235 -0.6042967 q -0.15107393 -0.16884708 -0.19550753 -0.55097675 h -0.47988272 q 0.07998037 0.7642584 0.6220703 1.3063478 q 0.39101553 0.391016 0.39101553 0.74648476 q 0 0.65761757 -0.8886719 0.65761757 q -0.31103516 0 -0.52431655 -0.08886719 q -0.21328115 -0.08886719 -0.21328115 -0.16884804 q 0 -0.07109356 0.15551758 -0.22661114 q 0.15551734 -0.15551758 0.15551734 -0.24438477 q 0 -0.31103516 -0.5420897 -0.31103516 q -0.35546875 0 -0.5731933 0.13774395 q -0.2177248 0.13774395 -0.2177248 0.3687992 q 0 0.3643551 0.5598633 0.60873985 q 0.5598633 0.24438477 1.4218752 0.24438477 q 1.1108398 0 1.6529298 -0.3465824 q 0.39990234 -0.25771427 0.39990234 -0.5776367 q 0 -0.45322227 -0.83535147 -0.9508791 Z "/>
        </symbol>
        <symbol id="g7C70BC738DF018D962C4E4FEBA09D3A5" overflow="visible">
            <path d="M 0 0m 8.691212 10.477442 h 1.0219727 v -0.74648476 h -1.0219727 v -7.242676 q 0 -0.96865225 0.05331993 -1.1463866 q 0.07109356 -0.29326177 0.27104473 -0.4354493 q 0.19995117 -0.14218748 0.697608 -0.17773438 v -0.2932617 l -3.5102544 -0.6842774 v 1.3152344 q -0.6309571 -0.7642578 -1.1241698 -1.039746 q -0.49321318 -0.2754883 -1.1152835 -0.2754883 q -1.5907226 0 -2.5149415 1.4218751 q -0.7464844 1.1552736 -0.7464844 2.8348632 q 0 1.3418946 0.46210945 2.4038577 q 0.46210933 1.0619626 1.2663574 1.6040525 q 0.8042481 0.5420904 1.728467 0.5420904 q 0.59540987 0 1.0575194 -0.23105526 q 0.46210957 -0.2310543 0.9864259 -0.8086915 v 2.2127929 h -2.977051 v 0.74648476 h 2.9681642 q -0.008886814 0.5332031 -0.062206745 0.6665039 q -0.11552763 0.2843752 -0.33325195 0.40878963 q -0.2177248 0.12441349 -0.7953615 0.12441349 v 0.37324238 h 3.6879888 v -1.5729494 Z m -2.4882817 -4.0612307 q -0.6576171 1.2619143 -1.6084962 1.2619143 q -0.32880878 0 -0.54208994 -0.17773438 q -0.32880855 -0.27548838 -0.53764653 -0.96865225 q -0.20883775 -0.69316435 -0.20883775 -2.1239262 q 0 -1.5729492 0.23105454 -2.3283203 q 0.23105478 -0.7553712 0.63095737 -1.0930665 q 0.20439434 -0.16884768 0.5598631 -0.16884768 q 0.78203106 0 1.4751954 1.2263672 v 4.372266 Z "/>
        </symbol>
        <symbol id="gED076CE2119EF7542AE0A31B934C9E8C" overflow="visible">
            <path d="M 0 0m 5.1987305 1.2263672 q -1.5196288 -1.3418946 -2.7282226 -1.3418946 q -0.7109375 0 -1.1819336 0.46655273 q -0.47099608 0.46655273 -0.47099608 1.1686037 q 0 0.95087886 0.81757814 1.7106934 q 0.8175782 0.7598145 3.5635743 2.0217285 v 0.83535194 q 0 0.9419918 -0.10219717 1.1863766 q -0.10219717 0.24438477 -0.38657236 0.4265628 q -0.2843747 0.18217754 -0.63984346 0.18217754 q -0.57763696 0 -0.9508791 -0.25771475 q -0.23105454 -0.15996075 -0.23105454 -0.37324238 q 0 -0.18662071 0.24882793 -0.4621091 q 0.33769536 -0.3821292 0.33769536 -0.73759794 q 0 -0.43544912 -0.32436514 -0.7420411 q -0.32436538 -0.3065915 -0.8486817 -0.3065915 q -0.5598633 0 -0.9375489 0.33769512 q -0.3776856 0.3376956 -0.3776856 0.79091835 q 0 0.63984346 0.506543 1.2219238 q 0.50654304 0.5820799 1.4129884 0.8931155 q 0.90644526 0.31103516 1.8839846 0.31103516 q 1.1819334 0 1.8706541 -0.5021 q 0.6887207 -0.5020995 0.8931155 -1.088623 q 0.12441397 -0.37324238 0.12441397 -1.715137 v -3.225879 q 0 -0.56875 0.044433594 -0.7153809 q 0.044433594 -0.14663076 0.13330078 -0.21772456 q 0.08886719 -0.0710938 0.20439434 -0.0710938 q 0.23105526 0 0.4709959 0.32880867 l 0.26660156 -0.21328127 q -0.44433594 -0.6576172 -0.919775 -0.9553223 q -0.47543955 -0.29770508 -1.0797362 -0.29770508 q -0.7109375 0 -1.1108403 0.33325195 q -0.39990234 0.33325195 -0.48876953 1.0086427 Z m 0 0.6487305 v 2.7815433 q -1.0752926 -0.6309571 -1.5996091 -1.3507814 q -0.34658217 -0.47988296 -0.34658217 -0.9686525 q 0 -0.40878904 0.29326177 -0.7198242 q 0.22216797 -0.23994148 0.62207055 -0.23994148 q 0.44433594 0 1.030859 0.49765635 Z m 0.3821292 10.80625 l 1.8040037 -3.3947268 h -0.68427706 l -2.1150393 1.8306646 l -2.177246 -1.7773438 h -0.728711 l 1.8928713 3.3414059 h 2.0083985 Z m -3.6702151 3.5369139 h 2.6749024 l 0.9419923 -2.9770498 h -0.7553711 l -2.8615236 2.9770498 Z "/>
        </symbol>
        <symbol id="g45CC5863A1EE035EA829B88FCBE884E2" overflow="visible">
            <path d="M 0 0m 8.637891 8.309082 v -6.5050783 q 0 -0.9508789 0.17773438 -1.186377 q 0.17773438 -0.23549804 0.7198248 -0.29770508 v -0.31992188 h -3.3858404 v 1.1108398 q -0.59541035 -0.7109375 -1.1908202 -1.0353028 q -0.59541035 -0.32436526 -1.333008 -0.32436526 q -0.7020507 0 -1.248584 0.4310059 q -0.5465331 0.4310059 -0.7331542 1.0086426 q -0.18662119 0.5776367 -0.18662119 2.0172853 v 3.2969728 q 0 0.9419923 -0.17329097 1.1730471 q -0.17329109 0.23105478 -0.7242676 0.30214834 v 0.3288083 h 3.38584 v -5.678613 q 0 -0.8886719 0.08442378 -1.1463867 q 0.08442402 -0.25771487 0.26660156 -0.39101565 q 0.18217802 -0.13330078 0.42211914 -0.13330078 q 0.31992197 0 0.5776367 0.16884768 q 0.35546875 0.23105466 0.8531251 0.9331056 v 4.4433594 q 0 0.9419923 -0.17329073 1.1730471 q -0.1732912 0.23105478 -0.72426796 0.30214834 v 0.3288083 h 3.38584 Z "/>
        </symbol>
        <symbol id="gA1BA951944FBA545F8E3F38D8830DFC5" overflow="visible">
            <path d="M 0 0m 0.22216797 0 v 0.23486328 h 0.32373047 q 0.54589844 0 0.7807617 0.35546875 q 0.13330078 0.203125 0.13330078 0.93310547 v 2.7802734 h -1.237793 v 0.46972656 h 1.237793 v 2.3105469 q 0 0.80615234 -0.17773438 1.0092773 q -0.2475586 0.27929688 -0.7363281 0.27929688 h -0.32373047 v 0.23486328 h 3.5039063 q 1.9995117 0 2.9580078 -0.45385742 q 0.9584961 -0.45385742 1.5805664 -1.4536133 q 0.6220703 -0.99975586 0.6220703 -2.3391113 q 0 -1.8217773 -1.1647949 -3.0913086 q -1.1647949 -1.2695313 -3.6594238 -1.2695313 h -3.840332 Z m 2.4628906 0.6347656 q 0.80615234 -0.17773438 1.3520508 -0.17773438 q 1.4663086 0 2.4375 1.034668 q 0.9711914 1.034668 0.9711914 2.805664 q 0 1.7836914 -0.9711914 2.8120117 q -0.9711914 1.0283203 -2.4882813 1.0283203 q -0.57128906 0 -1.3012695 -0.18408203 v -3.1801758 h 2.494629 v -0.46972656 h -2.494629 v -3.6689453 Z "/>
        </symbol>
        <symbol id="gFDADF0744AC7109DC5EEC1C3A4FB8A48" overflow="visible">
            <path d="M 0 0m 3.7006836 0.8378906 q -0.89501953 -0.69189453 -1.1235352 -0.7998047 q -0.34277344 -0.1586914 -0.72998047 -0.1586914 q -0.60302734 0 -0.9934082 0.41259766 q -0.39038086 0.41259766 -0.39038086 1.0854492 q 0 0.42529297 0.19042969 0.7363281 q 0.2602539 0.43164063 0.904541 0.8125 q 0.6442871 0.38085938 2.142334 0.9267578 v 0.22851563 q 0 0.8696289 -0.27612305 1.1933594 q -0.27612305 0.32373047 -0.8029785 0.32373047 q -0.39990234 0 -0.6347656 -0.21582031 q -0.24121094 -0.21582031 -0.24121094 -0.4951172 l 0.0126953125 -0.36816406 q 0 -0.2919922 -0.14916992 -0.4506836 q -0.14916992 -0.1586914 -0.39038086 -0.1586914 q -0.23486328 0 -0.3840332 0.16503906 q -0.14916992 0.16503906 -0.14916992 0.4506836 q 0 0.54589844 0.55859375 1.0029297 q 0.55859375 0.45703125 1.5678711 0.45703125 q 0.77441406 0 1.2695313 -0.2602539 q 0.37451172 -0.19677734 0.5522461 -0.61572266 q 0.11425781 -0.27294922 0.11425781 -1.1171875 v -1.9741211 q 0 -0.83154297 0.03173828 -1.0187988 q 0.03173828 -0.18725586 0.10473633 -0.25073242 q 0.07299805 -0.06347656 0.16821289 -0.06347656 q 0.1015625 0 0.17773438 0.044433594 q 0.13330078 0.08251953 0.51416016 0.4633789 v -0.35546875 q -0.7109375 -0.95214844 -1.3583984 -0.95214844 q -0.31103516 0 -0.4951172 0.21582031 q -0.18408203 0.21582031 -0.19042969 0.7363281 Z m 0 0.41259766 v 2.215332 q -0.9584961 -0.38085938 -1.237793 -0.5395508 q -0.50146484 -0.27929688 -0.71728516 -0.5839844 q -0.21582031 -0.3046875 -0.21582031 -0.6665039 q 0 -0.45703125 0.27294922 -0.7585449 q 0.27294922 -0.30151367 0.62841797 -0.30151367 q 0.48242188 0 1.2695313 0.6347656 Z m -1.3774414 7.5410156 h 1.1679688 l 1.2060547 -2.1010742 h -0.19677734 l -1.7329102 1.3520508 l -1.4536133 -1.3520508 h -0.19042969 l 1.199707 2.1010742 Z "/>
        </symbol>
        <symbol id="g25D3C73B88594E5E94E90D6335529B76" overflow="visible">
            <path d="M 0 0m 0.076171875 5.814453 h 2.7104492 v -0.23486328 h -0.13330078 q -0.28564453 0 -0.4284668 -0.1237793 q -0.14282227 -0.1237793 -0.14282227 -0.30786133 q 0 -0.2475586 0.20947266 -0.6855469 l 1.4155273 -2.9326172 l 1.3012695 3.211914 q 0.107910156 0.2602539 0.107910156 0.51416016 q 0 0.11425781 -0.044433594 0.17138672 q -0.05078125 0.06982422 -0.1586914 0.111083984 q -0.107910156 0.041259766 -0.38085938 0.041259766 v 0.23486328 h 1.8916016 v -0.23486328 q -0.23486328 -0.025390625 -0.3618164 -0.1015625 q -0.12695313 -0.076171875 -0.27929688 -0.28564453 q -0.057128906 -0.08886719 -0.21582031 -0.48876953 l -2.3676758 -5.801758 q -0.34277344 -0.8442383 -0.89819336 -1.2758789 q -0.5554199 -0.43164063 -1.0695801 -0.43164063 q -0.37451172 0 -0.61572266 0.21582031 q -0.24121094 0.21582031 -0.24121094 0.4951172 q 0 0.26660156 0.17456055 0.4284668 q 0.17456055 0.16186523 0.47924805 0.16186523 q 0.20947266 0 0.57128906 -0.13964844 q 0.25390625 -0.095214844 0.3173828 -0.095214844 q 0.19042969 0 0.41577148 0.19677734 q 0.2253418 0.19677734 0.45385742 0.76171875 l 0.41259766 1.0092773 l -2.088379 4.3862305 q -0.095214844 0.19677734 -0.3046875 0.48876953 q -0.1586914 0.22216797 -0.2602539 0.29833984 q -0.1459961 0.1015625 -0.46972656 0.17773438 v 0.23486328 Z "/>
        </symbol>
        <symbol id="g623731D87B745633192D8D7CA856D24E" overflow="visible">
            <path d="M 0 0m 2.4057617 9.026367 v -7.7124023 q 0 -0.54589844 0.0793457 -0.7236328 q 0.0793457 -0.17773438 0.24438477 -0.2697754 q 0.16503906 -0.092041016 0.61572266 -0.092041016 v -0.22851563 h -2.8500977 v 0.22851563 q 0.39990234 0 0.54589844 0.08251953 q 0.1459961 0.08251953 0.22851563 0.27294922 q 0.08251953 0.19042969 0.08251953 0.72998047 v 5.28125 q 0 0.9838867 -0.044433594 1.2092285 q -0.044433594 0.2253418 -0.14282227 0.30786133 q -0.09838867 0.08251953 -0.25073242 0.08251953 q -0.16503906 0 -0.4189453 -0.1015625 l -0.107910156 0.22216797 l 1.7329102 0.7109375 h 0.28564453 Z "/>
        </symbol>
        <symbol id="gE9B50F876700D91F83C187DA7F60B64C" overflow="visible">
            <path d="M 0 0m 3.7006836 0.8378906 q -0.89501953 -0.69189453 -1.1235352 -0.7998047 q -0.34277344 -0.1586914 -0.72998047 -0.1586914 q -0.60302734 0 -0.9934082 0.41259766 q -0.39038086 0.41259766 -0.39038086 1.0854492 q 0 0.42529297 0.19042969 0.7363281 q 0.2602539 0.43164063 0.904541 0.8125 q 0.6442871 0.38085938 2.142334 0.9267578 v 0.22851563 q 0 0.8696289 -0.27612305 1.1933594 q -0.27612305 0.32373047 -0.8029785 0.32373047 q -0.39990234 0 -0.6347656 -0.21582031 q -0.24121094 -0.21582031 -0.24121094 -0.4951172 l 0.0126953125 -0.36816406 q 0 -0.2919922 -0.14916992 -0.4506836 q -0.14916992 -0.1586914 -0.39038086 -0.1586914 q -0.23486328 0 -0.3840332 0.16503906 q -0.14916992 0.16503906 -0.14916992 0.4506836 q 0 0.54589844 0.55859375 1.0029297 q 0.55859375 0.45703125 1.5678711 0.45703125 q 0.77441406 0 1.2695313 -0.2602539 q 0.37451172 -0.19677734 0.5522461 -0.61572266 q 0.11425781 -0.27294922 0.11425781 -1.1171875 v -1.9741211 q 0 -0.83154297 0.03173828 -1.0187988 q 0.03173828 -0.18725586 0.10473633 -0.25073242 q 0.07299805 -0.06347656 0.16821289 -0.06347656 q 0.1015625 0 0.17773438 0.044433594 q 0.13330078 0.08251953 0.51416016 0.4633789 v -0.35546875 q -0.7109375 -0.95214844 -1.3583984 -0.95214844 q -0.31103516 0 -0.4951172 0.21582031 q -0.18408203 0.21582031 -0.19042969 0.7363281 Z m 0 0.41259766 v 2.215332 q -0.9584961 -0.38085938 -1.237793 -0.5395508 q -0.50146484 -0.27929688 -0.71728516 -0.5839844 q -0.21582031 -0.3046875 -0.21582031 -0.6665039 q 0 -0.45703125 0.27294922 -0.7585449 q 0.27294922 -0.30151367 0.62841797 -0.30151367 q 0.48242188 0 1.2695313 0.6347656 Z m -2.050293 7.572754 h 1.4155273 l 0.67285156 -2.1899414 h -0.22216797 l -1.8662109 2.1899414 Z "/>
        </symbol>
        <symbol id="g16C639E9EFD108EE834ABF88303788DD" overflow="visible">
            <path d="M 0 0m 4.322754 6.779297 h -1.847168 v 0.5205078 h 1.8408203 q -0.025390625 0.609375 -0.13012695 0.75219727 q -0.10473633 0.14282227 -0.31420898 0.14282227 q -0.16503906 0 -0.43798828 -0.1015625 l -0.08251953 0.22216797 l 1.7329102 0.7109375 h 0.28564453 v -1.7265625 h 0.9711914 v -0.5205078 h -0.9711914 v -4.4750977 q 0 -1.0219727 0.047607422 -1.2473145 q 0.047607422 -0.2253418 0.15234375 -0.31420898 q 0.10473633 -0.08886719 0.24438477 -0.08886719 q 0.17138672 0 0.45703125 0.107910156 l 0.06982422 -0.22216797 l -1.7265625 -0.71728516 h -0.2919922 v 0.83154297 q -0.42529297 -0.44433594 -0.83154297 -0.63793945 q -0.40625 -0.19360352 -0.87597656 -0.19360352 q -0.95214844 0 -1.6630859 0.79663086 q -0.7109375 0.79663086 -0.7109375 2.0471191 q 0 1.2504883 0.7871094 2.28833 q 0.7871094 1.0378418 2.0249023 1.0378418 q 0.7680664 0 1.2695313 -0.48876953 v 1.2758789 Z m 0 -5.6811523 v 2.9960938 q -0.038085938 0.43164063 -0.22851563 0.7871094 q -0.19042969 0.35546875 -0.5046387 0.53637695 q -0.31420898 0.1809082 -0.6125488 0.1809082 q -0.55859375 0 -0.99658203 -0.50146484 q -0.5776367 -0.66015625 -0.5776367 -1.9296875 q 0 -1.2822266 0.55859375 -1.9645996 q 0.55859375 -0.68237305 1.2441406 -0.68237305 q 0.5776367 0 1.1171875 0.5776367 Z "/>
        </symbol>
        <symbol id="gF2D171D10C769C98038956B741346797" overflow="visible">
            <path d="M 0 0m 3.25 5.98584 q 1.3203125 0 2.1201172 -1.0029297 q 0.6791992 -0.8569336 0.6791992 -1.9677734 q 0 -0.7807617 -0.37451172 -1.5805664 q -0.37451172 -0.7998047 -1.0314941 -1.2060547 q -0.6569824 -0.40625 -1.4631348 -0.40625 q -1.3139648 0 -2.088379 1.0473633 q -0.6538086 0.8823242 -0.6538086 1.9804688 q 0 0.7998047 0.39672852 1.5900879 q 0.39672852 0.7902832 1.0441895 1.1679688 q 0.64746094 0.37768555 1.3710938 0.37768555 Z m -0.19677734 -0.41259766 q -0.33642578 0 -0.6760254 -0.19995117 q -0.3395996 -0.19995117 -0.54907227 -0.701416 q -0.20947266 -0.50146484 -0.20947266 -1.2885742 q 0 -1.2695313 0.5046387 -2.1899414 q 0.5046387 -0.92041016 1.329834 -0.92041016 q 0.61572266 0 1.015625 0.5078125 q 0.39990234 0.5078125 0.39990234 1.7456055 q 0 1.5488281 -0.6665039 2.4375 q -0.4506836 0.609375 -1.1489258 0.609375 Z "/>
        </symbol>
        <symbol id="gA750AB72109E0A777EEC2ADB90813428" overflow="visible">
            <path d="M 0 0m 3.7006836 0.8378906 q -0.89501953 -0.69189453 -1.1235352 -0.7998047 q -0.34277344 -0.1586914 -0.72998047 -0.1586914 q -0.60302734 0 -0.9934082 0.41259766 q -0.39038086 0.41259766 -0.39038086 1.0854492 q 0 0.42529297 0.19042969 0.7363281 q 0.2602539 0.43164063 0.904541 0.8125 q 0.6442871 0.38085938 2.142334 0.9267578 v 0.22851563 q 0 0.8696289 -0.27612305 1.1933594 q -0.27612305 0.32373047 -0.8029785 0.32373047 q -0.39990234 0 -0.6347656 -0.21582031 q -0.24121094 -0.21582031 -0.24121094 -0.4951172 l 0.0126953125 -0.36816406 q 0 -0.2919922 -0.14916992 -0.4506836 q -0.14916992 -0.1586914 -0.39038086 -0.1586914 q -0.23486328 0 -0.3840332 0.16503906 q -0.14916992 0.16503906 -0.14916992 0.4506836 q 0 0.54589844 0.55859375 1.0029297 q 0.55859375 0.45703125 1.5678711 0.45703125 q 0.77441406 0 1.2695313 -0.2602539 q 0.37451172 -0.19677734 0.5522461 -0.61572266 q 0.11425781 -0.27294922 0.11425781 -1.1171875 v -1.9741211 q 0 -0.83154297 0.03173828 -1.0187988 q 0.03173828 -0.18725586 0.10473633 -0.25073242 q 0.07299805 -0.06347656 0.16821289 -0.06347656 q 0.1015625 0 0.17773438 0.044433594 q 0.13330078 0.08251953 0.51416016 0.4633789 v -0.35546875 q -0.7109375 -0.95214844 -1.3583984 -0.95214844 q -0.31103516 0 -0.4951172 0.21582031 q -0.18408203 0.21582031 -0.19042969 0.7363281 Z m 0 0.41259766 v 2.215332 q -0.9584961 -0.38085938 -1.237793 -0.5395508 q -0.50146484 -0.27929688 -0.71728516 -0.5839844 q -0.21582031 -0.3046875 -0.21582031 -0.6665039 q 0 -0.45703125 0.27294922 -0.7585449 q 0.27294922 -0.30151367 0.62841797 -0.30151367 q 0.48242188 0 1.2695313 0.6347656 Z m -1.1806641 -2.012207 q 0.29833984 0 0.50146484 -0.20629883 q 0.203125 -0.20629883 0.203125 -0.49829102 q 0 -0.2919922 -0.20629883 -0.49829102 q -0.20629883 -0.20629883 -0.49829102 -0.20629883 q -0.2919922 0 -0.49829102 0.20629883 q -0.20629883 0.20629883 -0.20629883 0.49829102 q 0 0.29833984 0.20629883 0.50146484 q 0.20629883 0.203125 0.49829102 0.203125 Z "/>
        </symbol>
        <symbol id="g6CFDF21DA7A6F6359AADA2D8B266CF44" overflow="visible">
            <path d="M 0 0m 2.1010742 4.7543945 q 1.0219727 1.2314453 1.9487305 1.2314453 q 0.47607422 0 0.81884766 -0.23803711 q 0.34277344 -0.23803711 0.54589844 -0.78393555 q 0.13964844 -0.38085938 0.13964844 -1.1679688 v -2.4819336 q 0 -0.5522461 0.08886719 -0.74902344 q 0.06982422 -0.1586914 0.2253418 -0.2475586 q 0.15551758 -0.08886719 0.5744629 -0.08886719 v -0.22851563 h -2.8754883 v 0.22851563 h 0.12060547 q 0.40625 0 0.56811523 0.1237793 q 0.16186523 0.1237793 0.2253418 0.36499023 q 0.025390625 0.095214844 0.025390625 0.5966797 v 2.380371 q 0 0.79345703 -0.20629883 1.1520996 q -0.20629883 0.35864258 -0.69506836 0.35864258 q -0.7553711 0 -1.5043945 -0.8251953 v -3.065918 q 0 -0.59033203 0.06982422 -0.72998047 q 0.08886719 -0.18408203 0.24438477 -0.2697754 q 0.15551758 -0.08569336 0.6315918 -0.08569336 v -0.22851563 h -2.8754883 v 0.22851563 h 0.12695313 q 0.44433594 0 0.5998535 0.2253418 q 0.15551758 0.2253418 0.15551758 0.8601074 v 2.1582031 q 0 1.0473633 -0.047607422 1.2758789 q -0.047607422 0.22851563 -0.1459961 0.31103516 q -0.09838867 0.08251953 -0.26342773 0.08251953 q -0.17773438 0 -0.42529297 -0.095214844 l -0.095214844 0.22851563 l 1.7519531 0.7109375 h 0.27294922 v -1.2314453 Z "/>
        </symbol>
        <symbol id="g71D652B9BC8E16C64CED21EFEE5BA9CE" overflow="visible">
            <path d="M 0 0m 0.107910156 5.814453 h 2.7358398 v -0.23486328 h -0.17773438 q -0.2475586 0 -0.37768555 -0.12060547 q -0.13012695 -0.12060547 -0.13012695 -0.32373047 q 0 -0.22216797 0.13330078 -0.52685547 l 1.3520508 -3.211914 l 1.3583984 3.3325195 q 0.1459961 0.35546875 0.1459961 0.5395508 q 0 0.08886719 -0.05078125 0.1459961 q -0.06982422 0.095214844 -0.17773438 0.13012695 q -0.107910156 0.03491211 -0.43798828 0.03491211 v 0.23486328 h 1.8979492 v -0.23486328 q -0.33007813 -0.025390625 -0.45703125 -0.13330078 q -0.22216797 -0.19042969 -0.39990234 -0.6347656 l -2.0629883 -4.989258 h -0.2602539 l -2.0756836 4.9067383 q -0.13964844 0.34277344 -0.26660156 0.49194336 q -0.12695313 0.14916992 -0.32373047 0.25073242 q -0.107910156 0.057128906 -0.42529297 0.107910156 v 0.23486328 Z "/>
        </symbol>
        <symbol id="g4B2DAA9DB619421059FB462E4BAE4775" overflow="visible">
            <path d="M 0 0m 3.7006836 0.8378906 q -0.89501953 -0.69189453 -1.1235352 -0.7998047 q -0.34277344 -0.1586914 -0.72998047 -0.1586914 q -0.60302734 0 -0.9934082 0.41259766 q -0.39038086 0.41259766 -0.39038086 1.0854492 q 0 0.42529297 0.19042969 0.7363281 q 0.2602539 0.43164063 0.904541 0.8125 q 0.6442871 0.38085938 2.142334 0.9267578 v 0.22851563 q 0 0.8696289 -0.27612305 1.1933594 q -0.27612305 0.32373047 -0.8029785 0.32373047 q -0.39990234 0 -0.6347656 -0.21582031 q -0.24121094 -0.21582031 -0.24121094 -0.4951172 l 0.0126953125 -0.36816406 q 0 -0.2919922 -0.14916992 -0.4506836 q -0.14916992 -0.1586914 -0.39038086 -0.1586914 q -0.23486328 0 -0.3840332 0.16503906 q -0.14916992 0.16503906 -0.14916992 0.4506836 q 0 0.54589844 0.55859375 1.0029297 q 0.55859375 0.45703125 1.5678711 0.45703125 q 0.77441406 0 1.2695313 -0.2602539 q 0.37451172 -0.19677734 0.5522461 -0.61572266 q 0.11425781 -0.27294922 0.11425781 -1.1171875 v -1.9741211 q 0 -0.83154297 0.03173828 -1.0187988 q 0.03173828 -0.18725586 0.10473633 -0.25073242 q 0.07299805 -0.06347656 0.16821289 -0.06347656 q 0.1015625 0 0.17773438 0.044433594 q 0.13330078 0.08251953 0.51416016 0.4633789 v -0.35546875 q -0.7109375 -0.95214844 -1.3583984 -0.95214844 q -0.31103516 0 -0.4951172 0.21582031 q -0.18408203 0.21582031 -0.19042969 0.7363281 Z m 0 0.41259766 v 2.215332 q -0.9584961 -0.38085938 -1.237793 -0.5395508 q -0.50146484 -0.27929688 -0.71728516 -0.5839844 q -0.21582031 -0.3046875 -0.21582031 -0.6665039 q 0 -0.45703125 0.27294922 -0.7585449 q 0.27294922 -0.30151367 0.62841797 -0.30151367 q 0.48242188 0 1.2695313 0.6347656 Z m -2.640625 7.369629 h 0.19677734 q 0.20947266 -0.38720703 0.48242188 -0.54589844 q 0.45703125 -0.27294922 1.1489258 -0.27294922 q 0.69189453 0 1.1425781 0.26660156 q 0.32373047 0.18408203 0.4506836 0.5522461 h 0.20947266 q -0.057128906 -0.7871094 -0.58081055 -1.2822266 q -0.52368164 -0.4951172 -1.2346191 -0.4951172 q -0.70458984 0 -1.2250977 0.49194336 q -0.5205078 0.49194336 -0.59033203 1.2854004 Z "/>
        </symbol>
        <symbol id="gBD42DD53FD2BA9C6C9E4C134F5EFFC6A" overflow="visible">
            <path d="M 0 0m 2.0947266 7.7250977 v -1.9106445 h 1.3583984 v -0.44433594 h -1.3583984 v -3.7705078 q 0 -0.5649414 0.16186523 -0.76171875 q 0.16186523 -0.19677734 0.41577148 -0.19677734 q 0.20947266 0 0.40625 0.13012695 q 0.19677734 0.13012695 0.3046875 0.3840332 h 0.2475586 q -0.22216797 -0.6220703 -0.62841797 -0.9362793 q -0.40625 -0.31420898 -0.8378906 -0.31420898 q -0.2919922 0 -0.57128906 0.16186523 q -0.27929688 0.16186523 -0.41259766 0.4633789 q -0.13330078 0.30151367 -0.13330078 0.92993164 v 3.9101563 h -0.92041016 v 0.20947266 q 0.3491211 0.13964844 0.7141113 0.4729004 q 0.36499023 0.33325195 0.65063477 0.7902832 q 0.1459961 0.24121094 0.40625 0.8823242 h 0.19677734 Z "/>
        </symbol>
        <symbol id="g2518B265077251C03AACCB672509399" overflow="visible">
            <path d="M 0 0m 1.8852539 9.026367 q 0.26660156 0 0.45385742 -0.18725586 q 0.18725586 -0.18725586 0.18725586 -0.45385742 q 0 -0.26660156 -0.18725586 -0.45703125 q -0.18725586 -0.19042969 -0.45385742 -0.19042969 q -0.26660156 0 -0.45703125 0.19042969 q -0.19042969 0.19042969 -0.19042969 0.45703125 q 0 0.26660156 0.18725586 0.45385742 q 0.18725586 0.18725586 0.46020508 0.18725586 Z m 0.52685547 -3.0405273 v -4.671875 q 0 -0.54589844 0.0793457 -0.72680664 q 0.0793457 -0.1809082 0.23486328 -0.2697754 q 0.15551758 -0.08886719 0.56811523 -0.08886719 v -0.22851563 h -2.824707 v 0.22851563 q 0.42529297 0 0.57128906 0.08251953 q 0.1459961 0.08251953 0.23168945 0.27294922 q 0.08569336 0.19042969 0.08569336 0.72998047 v 2.2407227 q 0 0.9458008 -0.057128906 1.2250977 q -0.044433594 0.203125 -0.13964844 0.2824707 q -0.095214844 0.0793457 -0.2602539 0.0793457 q -0.17773438 0 -0.43164063 -0.095214844 l -0.08886719 0.22851563 l 1.7519531 0.7109375 h 0.27929688 Z "/>
        </symbol>
        <symbol id="g199B50B7EA2F8FD1D54273179CDC24D2" overflow="visible">
            <path d="M 0 0m 1.3837891 3.6245117 q -0.0063476563 -1.2949219 0.62841797 -2.03125 q 0.6347656 -0.7363281 1.4916992 -0.7363281 q 0.57128906 0 0.9934082 0.31420898 q 0.42211914 0.31420898 0.7077637 1.0759277 l 0.19677734 -0.12695313 q -0.13330078 -0.8696289 -0.77441406 -1.5837402 q -0.6411133 -0.7141113 -1.605957 -0.7141113 q -1.0473633 0 -1.7932129 0.8156738 q -0.7458496 0.8156738 -0.7458496 2.1931152 q 0 1.4916992 0.7648926 2.326416 q 0.7648926 0.8347168 1.920166 0.8347168 q 0.97753906 0 1.605957 -0.6442871 q 0.62841797 -0.6442871 0.62841797 -1.7233887 h -4.0180664 Z m 0 0.36816406 h 2.6914063 q -0.03173828 0.55859375 -0.13330078 0.7871094 q -0.1586914 0.35546875 -0.4729004 0.55859375 q -0.31420898 0.203125 -0.6569824 0.203125 q -0.52685547 0 -0.94262695 -0.40942383 q -0.41577148 -0.40942383 -0.4855957 -1.1394043 Z m 1.1743164 4.798828 h 1.1679688 l 1.2060547 -2.1010742 h -0.19677734 l -1.7329102 1.3520508 l -1.4536133 -1.3520508 h -0.19042969 l 1.199707 2.1010742 Z m 0.22216797 0.67285156 h -0.22216797 l 0.67285156 2.1201172 h 1.4155273 l -1.8662109 -2.1201172 Z "/>
        </symbol>
        <symbol id="gBE747BD69962E14F0AE91F25CF9C5F7E" overflow="visible">
            <path d="M 0 0m 1.9614258 2.1201172 q -0.5332031 0.2602539 -0.81884766 0.72680664 q -0.28564453 0.46655273 -0.28564453 1.0314941 q 0 0.86328125 0.65063477 1.4853516 q 0.65063477 0.6220703 1.6662598 0.6220703 q 0.83154297 0 1.440918 -0.40625 h 1.2314453 q 0.27294922 0 0.3173828 -0.01586914 q 0.044433594 -0.01586914 0.06347656 -0.053955078 q 0.038085938 -0.057128906 0.038085938 -0.203125 q 0 -0.16503906 -0.03173828 -0.22851563 q -0.019042969 -0.03173828 -0.06665039 -0.05078125 q -0.047607422 -0.019042969 -0.32055664 -0.019042969 h -0.7553711 q 0.35546875 -0.45703125 0.35546875 -1.1679688 q 0 -0.8125 -0.6220703 -1.3901367 q -0.6220703 -0.5776367 -1.6694336 -0.5776367 q -0.43164063 0 -0.8823242 0.12695313 q -0.27929688 -0.24121094 -0.37768555 -0.42211914 q -0.09838867 -0.1809082 -0.09838867 -0.30786133 q 0 -0.107910156 0.10473633 -0.20947266 q 0.10473633 -0.1015625 0.40942383 -0.1459961 q 0.17773438 -0.025390625 0.8886719 -0.044433594 q 1.3076172 -0.03173828 1.6948242 -0.08886719 q 0.59033203 -0.08251953 0.94262695 -0.43798828 q 0.35229492 -0.35546875 0.35229492 -0.87597656 q 0 -0.71728516 -0.67285156 -1.3457031 q -0.9902344 -0.9267578 -2.583496 -0.9267578 q -1.2250977 0 -2.069336 0.5522461 q -0.47607422 0.3173828 -0.47607422 0.66015625 q 0 0.15234375 0.06982422 0.3046875 q 0.107910156 0.23486328 0.44433594 0.6538086 q 0.044433594 0.057128906 0.64746094 0.6855469 q -0.33007813 0.19677734 -0.46655273 0.35229492 q -0.13647461 0.15551758 -0.13647461 0.35229492 q 0 0.22216797 0.1809082 0.5205078 q 0.1809082 0.29833984 0.8347168 0.8442383 Z m 1.1044922 3.5610352 q -0.46972656 0 -0.7871094 -0.37451172 q -0.3173828 -0.37451172 -0.3173828 -1.1489258 q 0 -1.0029297 0.43164063 -1.5551758 q 0.33007813 -0.4189453 0.8378906 -0.4189453 q 0.48242188 0 0.79345703 0.3618164 q 0.31103516 0.3618164 0.31103516 1.1362305 q 0 1.0092773 -0.43798828 1.5805664 q -0.32373047 0.4189453 -0.83154297 0.4189453 Z m -1.1679688 -5.6811523 q -0.29833984 -0.32373047 -0.4506836 -0.60302734 q -0.15234375 -0.27929688 -0.15234375 -0.51416016 q 0 -0.3046875 0.36816406 -0.5332031 q 0.6347656 -0.3935547 1.8344727 -0.3935547 q 1.1425781 0 1.6853027 0.40307617 q 0.5427246 0.40307617 0.5427246 0.8601074 q 0 0.33007813 -0.32373047 0.46972656 q -0.33007813 0.13964844 -1.3076172 0.16503906 q -1.4282227 0.038085938 -2.196289 0.1459961 Z "/>
        </symbol>
        <symbol id="g1D516D98FE43605D50E66C9F6201E8F" overflow="visible">
            <path d="M 0 0m 9.229492 8.607422 v -0.23486328 q -0.45703125 -0.08251953 -0.69189453 -0.2919922 q -0.33642578 -0.31103516 -0.5966797 -0.95214844 l -3.0024414 -7.3251953 h -0.23486328 l -3.2246094 7.42041 q -0.2475586 0.57128906 -0.3491211 0.6982422 q -0.1586914 0.19677734 -0.39038086 0.30786133 q -0.23168945 0.111083984 -0.62524414 0.14282227 v 0.23486328 h 3.5166016 v -0.23486328 q -0.5966797 -0.057128906 -0.77441406 -0.203125 q -0.17773438 -0.1459961 -0.17773438 -0.37451172 q 0 -0.3173828 0.2919922 -0.9902344 l 2.1899414 -5.0463867 l 2.03125 4.98291 q 0.29833984 0.7363281 0.29833984 1.0219727 q 0 0.18408203 -0.18408203 0.35229492 q -0.18408203 0.16821289 -0.6220703 0.23803711 q -0.03173828 0.0063476563 -0.107910156 0.019042969 v 0.23486328 h 2.6533203 Z "/>
        </symbol>
        <symbol id="g4B4E85424336BED9C8AAAC6345E92C31" overflow="visible">
            <path d="M 0 0m 1.3837891 3.6245117 q -0.0063476563 -1.2949219 0.62841797 -2.03125 q 0.6347656 -0.7363281 1.4916992 -0.7363281 q 0.57128906 0 0.9934082 0.31420898 q 0.42211914 0.31420898 0.7077637 1.0759277 l 0.19677734 -0.12695313 q -0.13330078 -0.8696289 -0.77441406 -1.5837402 q -0.6411133 -0.7141113 -1.605957 -0.7141113 q -1.0473633 0 -1.7932129 0.8156738 q -0.7458496 0.8156738 -0.7458496 2.1931152 q 0 1.4916992 0.7648926 2.326416 q 0.7648926 0.8347168 1.920166 0.8347168 q 0.97753906 0 1.605957 -0.6442871 q 0.62841797 -0.6442871 0.62841797 -1.7233887 h -4.0180664 Z m 0 0.36816406 h 2.6914063 q -0.03173828 0.55859375 -0.13330078 0.7871094 q -0.1586914 0.35546875 -0.4729004 0.55859375 q -0.31420898 0.203125 -0.6569824 0.203125 q -0.52685547 0 -0.94262695 -0.40942383 q -0.41577148 -0.40942383 -0.4855957 -1.1394043 Z m 1.1743164 4.798828 h 1.1679688 l 1.2060547 -2.1010742 h -0.19677734 l -1.7329102 1.3520508 l -1.4536133 -1.3520508 h -0.19042969 l 1.199707 2.1010742 Z m 0.40625 -9.553223 q 0.29833984 0 0.50146484 -0.20629883 q 0.203125 -0.20629883 0.203125 -0.49829102 q 0 -0.2919922 -0.20629883 -0.49829102 q -0.20629883 -0.20629883 -0.49829102 -0.20629883 q -0.2919922 0 -0.49829102 0.20629883 q -0.20629883 0.20629883 -0.20629883 0.49829102 q 0 0.29833984 0.20629883 0.50146484 q 0.20629883 0.203125 0.49829102 0.203125 Z "/>
        </symbol>
        <symbol id="g506164685F5F6CB16FB47DF1DB422053" overflow="visible">
            <path d="M 0 0m 3.7006836 0.8378906 q -0.89501953 -0.69189453 -1.1235352 -0.7998047 q -0.34277344 -0.1586914 -0.72998047 -0.1586914 q -0.60302734 0 -0.9934082 0.41259766 q -0.39038086 0.41259766 -0.39038086 1.0854492 q 0 0.42529297 0.19042969 0.7363281 q 0.2602539 0.43164063 0.904541 0.8125 q 0.6442871 0.38085938 2.142334 0.9267578 v 0.22851563 q 0 0.8696289 -0.27612305 1.1933594 q -0.27612305 0.32373047 -0.8029785 0.32373047 q -0.39990234 0 -0.6347656 -0.21582031 q -0.24121094 -0.21582031 -0.24121094 -0.4951172 l 0.0126953125 -0.36816406 q 0 -0.2919922 -0.14916992 -0.4506836 q -0.14916992 -0.1586914 -0.39038086 -0.1586914 q -0.23486328 0 -0.3840332 0.16503906 q -0.14916992 0.16503906 -0.14916992 0.4506836 q 0 0.54589844 0.55859375 1.0029297 q 0.55859375 0.45703125 1.5678711 0.45703125 q 0.77441406 0 1.2695313 -0.2602539 q 0.37451172 -0.19677734 0.5522461 -0.61572266 q 0.11425781 -0.27294922 0.11425781 -1.1171875 v -1.9741211 q 0 -0.83154297 0.03173828 -1.0187988 q 0.03173828 -0.18725586 0.10473633 -0.25073242 q 0.07299805 -0.06347656 0.16821289 -0.06347656 q 0.1015625 0 0.17773438 0.044433594 q 0.13330078 0.08251953 0.51416016 0.4633789 v -0.35546875 q -0.7109375 -0.95214844 -1.3583984 -0.95214844 q -0.31103516 0 -0.4951172 0.21582031 q -0.18408203 0.21582031 -0.19042969 0.7363281 Z m 0 0.41259766 v 2.215332 q -0.9584961 -0.38085938 -1.237793 -0.5395508 q -0.50146484 -0.27929688 -0.71728516 -0.5839844 q -0.21582031 -0.3046875 -0.21582031 -0.6665039 q 0 -0.45703125 0.27294922 -0.7585449 q 0.27294922 -0.30151367 0.62841797 -0.30151367 q 0.48242188 0 1.2695313 0.6347656 Z m -1.3774414 7.5410156 h 1.1679688 l 1.2060547 -2.1010742 h -0.19677734 l -1.7329102 1.3520508 l -1.4536133 -1.3520508 h -0.19042969 l 1.199707 2.1010742 Z m -0.92041016 2.7929688 h 1.4155273 l 0.67285156 -2.1201172 h -0.22216797 l -1.8662109 2.1201172 Z "/>
        </symbol>
        <symbol id="g12BFF317335FCE7E52DEBC303CC357A5" overflow="visible">
            <path d="M 0 0m 5.503418 5.814453 v -3.5229492 q 0 -1.0092773 0.047607422 -1.2346191 q 0.047607422 -0.2253418 0.15234375 -0.31420898 q 0.10473633 -0.08886719 0.24438477 -0.08886719 q 0.19677734 0 0.44433594 0.107910156 l 0.08886719 -0.22216797 l -1.7392578 -0.71728516 h -0.28564453 v 1.2314453 q -0.74902344 -0.8125 -1.1425781 -1.0219727 q -0.3935547 -0.20947266 -0.83154297 -0.20947266 q -0.48876953 0 -0.8474121 0.2824707 q -0.35864258 0.2824707 -0.49829102 0.72680664 q -0.13964844 0.44433594 -0.13964844 1.2568359 v 2.5961914 q 0 0.41259766 -0.08886719 0.57128906 q -0.08886719 0.1586914 -0.26342773 0.24438477 q -0.17456055 0.08569336 -0.6315918 0.0793457 v 0.23486328 h 2.0375977 v -3.8911133 q 0 -0.8125 0.2824707 -1.0664063 q 0.2824707 -0.25390625 0.68237305 -0.25390625 q 0.27294922 0 0.6188965 0.17138672 q 0.34594727 0.17138672 0.8220215 0.6538086 v 3.2944336 q 0 0.4951172 -0.1809082 0.66967773 q -0.1809082 0.17456055 -0.75219727 0.18725586 v 0.23486328 h 1.9804688 Z m -1.7583008 1.5996094 q -0.32373047 -0.31103516 -0.3935547 -0.43164063 q -0.06982422 -0.12060547 -0.08251953 -0.3491211 h -0.21582031 q 0.025390625 0.43164063 0.3173828 0.89501953 q 0.203125 0.33007813 0.203125 0.5332031 q 0 0.46972656 -0.4633789 0.46972656 q -0.21582031 0 -0.32373047 -0.1015625 q -0.044433594 -0.044433594 -0.044433594 -0.08886719 q 0 -0.044433594 0.06982422 -0.15551758 q 0.06982422 -0.111083984 0.06982422 -0.17456055 q 0 -0.22216797 -0.24121094 -0.22216797 q -0.3173828 0 -0.3173828 0.3618164 q 0 0.2602539 0.25073242 0.43481445 q 0.25073242 0.17456055 0.6315918 0.17456055 q 0.4951172 0 0.72998047 -0.2475586 q 0.18408203 -0.19042969 0.18408203 -0.4189453 q 0 -0.3173828 -0.37451172 -0.6791992 Z "/>
        </symbol>
        <symbol id="g99BC5C950BF23E8DD3D70429E6897B6A" overflow="visible">
            <path d="M 0 0m 4.5131836 0.6538086 q -0.42529297 -0.44433594 -0.83154297 -0.63793945 q -0.40625 -0.19360352 -0.87597656 -0.19360352 q -0.95214844 0 -1.6630859 0.79663086 q -0.7109375 0.79663086 -0.7109375 2.0471191 q 0 1.2504883 0.7871094 2.28833 q 0.7871094 1.0378418 2.0249023 1.0378418 q 0.7680664 0 1.2695313 -0.48876953 v 1.0727539 q 0 0.99658203 -0.047607422 1.2250977 q -0.047607422 0.22851563 -0.14916992 0.31103516 q -0.1015625 0.08251953 -0.25390625 0.08251953 q -0.16503906 0 -0.43798828 -0.1015625 l -0.08251953 0.22216797 l 1.7329102 0.7109375 h 0.28564453 v -6.722168 q 0 -1.0219727 0.047607422 -1.2473145 q 0.047607422 -0.2253418 0.15234375 -0.31420898 q 0.10473633 -0.08886719 0.24438477 -0.08886719 q 0.17138672 0 0.45703125 0.107910156 l 0.06982422 -0.22216797 l -1.7265625 -0.71728516 h -0.2919922 v 0.83154297 Z m 0 0.44433594 v 2.9960938 q -0.038085938 0.43164063 -0.22851563 0.7871094 q -0.19042969 0.35546875 -0.5046387 0.53637695 q -0.31420898 0.1809082 -0.6125488 0.1809082 q -0.55859375 0 -0.99658203 -0.50146484 q -0.5776367 -0.66015625 -0.5776367 -1.9296875 q 0 -1.2822266 0.55859375 -1.9645996 q 0.55859375 -0.68237305 1.2441406 -0.68237305 q 0.5776367 0 1.1171875 0.5776367 Z "/>
        </symbol>
        <symbol id="g2F7854FA5C0F7C5B09A5769F4C5553BF" overflow="visible">
            <path d="M 0 0m 3.7006836 0.8378906 q -0.89501953 -0.69189453 -1.1235352 -0.7998047 q -0.34277344 -0.1586914 -0.72998047 -0.1586914 q -0.60302734 0 -0.9934082 0.41259766 q -0.39038086 0.41259766 -0.39038086 1.0854492 q 0 0.42529297 0.19042969 0.7363281 q 0.2602539 0.43164063 0.904541 0.8125 q 0.6442871 0.38085938 2.142334 0.9267578 v 0.22851563 q 0 0.8696289 -0.27612305 1.1933594 q -0.27612305 0.32373047 -0.8029785 0.32373047 q -0.39990234 0 -0.6347656 -0.21582031 q -0.24121094 -0.21582031 -0.24121094 -0.4951172 l 0.0126953125 -0.36816406 q 0 -0.2919922 -0.14916992 -0.4506836 q -0.14916992 -0.1586914 -0.39038086 -0.1586914 q -0.23486328 0 -0.3840332 0.16503906 q -0.14916992 0.16503906 -0.14916992 0.4506836 q 0 0.54589844 0.55859375 1.0029297 q 0.55859375 0.45703125 1.5678711 0.45703125 q 0.77441406 0 1.2695313 -0.2602539 q 0.37451172 -0.19677734 0.5522461 -0.61572266 q 0.11425781 -0.27294922 0.11425781 -1.1171875 v -1.9741211 q 0 -0.83154297 0.03173828 -1.0187988 q 0.03173828 -0.18725586 0.10473633 -0.25073242 q 0.07299805 -0.06347656 0.16821289 -0.06347656 q 0.1015625 0 0.17773438 0.044433594 q 0.13330078 0.08251953 0.51416016 0.4633789 v -0.35546875 q -0.7109375 -0.95214844 -1.3583984 -0.95214844 q -0.31103516 0 -0.4951172 0.21582031 q -0.18408203 0.21582031 -0.19042969 0.7363281 Z m 0 0.41259766 v 2.215332 q -0.9584961 -0.38085938 -1.237793 -0.5395508 q -0.50146484 -0.27929688 -0.71728516 -0.5839844 q -0.21582031 -0.3046875 -0.21582031 -0.6665039 q 0 -0.45703125 0.27294922 -0.7585449 q 0.27294922 -0.30151367 0.62841797 -0.30151367 q 0.48242188 0 1.2695313 0.6347656 Z m -1.3774414 7.5410156 h 1.1679688 l 1.2060547 -2.1010742 h -0.19677734 l -1.7329102 1.3520508 l -1.4536133 -1.3520508 h -0.19042969 l 1.199707 2.1010742 Z m 0.22216797 0.67285156 h -0.22216797 l 0.67285156 2.1201172 h 1.4155273 l -1.8662109 -2.1201172 Z "/>
        </symbol>
        <symbol id="gCD8B70A6204902D65B6F6339E14D1A3B" overflow="visible">
            <path d="M 0 0m 5.503418 5.814453 v -3.5229492 q 0 -1.0092773 0.047607422 -1.2346191 q 0.047607422 -0.2253418 0.15234375 -0.31420898 q 0.10473633 -0.08886719 0.24438477 -0.08886719 q 0.19677734 0 0.44433594 0.107910156 l 0.08886719 -0.22216797 l -1.7392578 -0.71728516 h -0.28564453 v 1.2314453 q -0.74902344 -0.8125 -1.1425781 -1.0219727 q -0.3935547 -0.20947266 -0.83154297 -0.20947266 q -0.48876953 0 -0.8474121 0.2824707 q -0.35864258 0.2824707 -0.49829102 0.72680664 q -0.13964844 0.44433594 -0.13964844 1.2568359 v 2.5961914 q 0 0.41259766 -0.08886719 0.57128906 q -0.08886719 0.1586914 -0.26342773 0.24438477 q -0.17456055 0.08569336 -0.6315918 0.0793457 v 0.23486328 h 2.0375977 v -3.8911133 q 0 -0.8125 0.2824707 -1.0664063 q 0.2824707 -0.25390625 0.68237305 -0.25390625 q 0.27294922 0 0.6188965 0.17138672 q 0.34594727 0.17138672 0.8220215 0.6538086 v 3.2944336 q 0 0.4951172 -0.1809082 0.66967773 q -0.1809082 0.17456055 -0.75219727 0.18725586 v 0.23486328 h 1.9804688 Z "/>
        </symbol>
        <symbol id="gBF35D28921E2280A19F33A9E5E413B97" overflow="visible">
            <path d="M 0 0m 1.8344727 5.9921875 q 0.2919922 0 0.49829102 -0.20629883 q 0.20629883 -0.20629883 0.20629883 -0.49829102 q 0 -0.2919922 -0.20629883 -0.49829102 q -0.20629883 -0.20629883 -0.49829102 -0.20629883 q -0.2919922 0 -0.49829102 0.20629883 q -0.20629883 0.20629883 -0.20629883 0.49829102 q 0 0.2919922 0.20629883 0.49829102 q 0.20629883 0.20629883 0.49829102 0.20629883 Z m -0.0126953125 -4.7543945 q 0.29833984 0 0.5046387 -0.20947266 q 0.20629883 -0.20947266 0.20629883 -0.50146484 q 0 -0.2919922 -0.20947266 -0.49829102 q -0.20947266 -0.20629883 -0.50146484 -0.20629883 q -0.2919922 0 -0.49829102 0.20629883 q -0.20629883 0.20629883 -0.20629883 0.49829102 q 0 0.2919922 0.20629883 0.50146484 q 0.20629883 0.20947266 0.49829102 0.20947266 Z "/>
        </symbol>
        <symbol id="g9954AA151208B1B75FBCCD1348E0F42A" overflow="visible">
            <path d="M 0 0m 0.6982422 -2.1645508 v 0.27929688 q 0.6538086 0.21582031 1.0124512 0.66967773 q 0.35864258 0.45385742 0.35864258 0.9616699 q 0 0.12060547 -0.057128906 0.203125 q -0.044433594 0.057128906 -0.08886719 0.057128906 q -0.06982422 0 -0.3046875 -0.12695313 q -0.11425781 -0.057128906 -0.24121094 -0.057128906 q -0.31103516 0 -0.4951172 0.18408203 q -0.18408203 0.18408203 -0.18408203 0.5078125 q 0 0.31103516 0.23803711 0.5332031 q 0.23803711 0.22216797 0.58081055 0.22216797 q 0.4189453 0 0.7458496 -0.36499023 q 0.3269043 -0.36499023 0.3269043 -0.9680176 q 0 -0.6538086 -0.45385742 -1.2155762 q -0.45385742 -0.5617676 -1.4377441 -0.88549805 Z "/>
        </symbol>
        <symbol id="gF0461511323F2853E171F2D0B3BE66DD" overflow="visible">
            <path d="M 0 0m 2.1328125 4.748047 q 0.6347656 0.6347656 0.74902344 0.72998047 q 0.28564453 0.24121094 0.61572266 0.37451172 q 0.33007813 0.13330078 0.6538086 0.13330078 q 0.54589844 0 0.9394531 -0.3173828 q 0.3935547 -0.3173828 0.52685547 -0.92041016 q 0.6538086 0.76171875 1.1044922 0.99975586 q 0.4506836 0.23803711 0.9267578 0.23803711 q 0.4633789 0 0.8220215 -0.23803711 q 0.35864258 -0.23803711 0.56811523 -0.7775879 q 0.13964844 -0.36816406 0.13964844 -1.1552734 v -2.5009766 q 0 -0.54589844 0.08251953 -0.74902344 q 0.06347656 -0.13964844 0.23486328 -0.23803711 q 0.17138672 -0.09838867 0.55859375 -0.09838867 v -0.22851563 h -2.8691406 v 0.22851563 h 0.12060547 q 0.37451172 0 0.5839844 0.1459961 q 0.1459961 0.1015625 0.20947266 0.32373047 q 0.025390625 0.107910156 0.025390625 0.61572266 v 2.5009766 q 0 0.7109375 -0.17138672 1.0029297 q -0.2475586 0.40625 -0.79345703 0.40625 q -0.33642578 0 -0.6760254 -0.16821289 q -0.3395996 -0.16821289 -0.8220215 -0.62524414 l -0.0126953125 -0.06982422 l 0.0126953125 -0.27294922 v -2.7739258 q 0 -0.5966797 0.06665039 -0.7426758 q 0.06665039 -0.1459961 0.25073242 -0.24438477 q 0.18408203 -0.09838867 0.62841797 -0.09838867 v -0.22851563 h -2.9389648 v 0.22851563 q 0.48242188 0 0.6633301 0.11425781 q 0.1809082 0.11425781 0.25073242 0.34277344 q 0.03173828 0.107910156 0.03173828 0.62841797 v 2.5009766 q 0 0.7109375 -0.20947266 1.0219727 q -0.27929688 0.40625 -0.7807617 0.40625 q -0.34277344 0 -0.6791992 -0.18408203 q -0.52685547 -0.27929688 -0.8125 -0.62841797 v -3.1166992 q 0 -0.57128906 0.0793457 -0.7426758 q 0.0793457 -0.17138672 0.23486328 -0.25708008 q 0.15551758 -0.08569336 0.6315918 -0.08569336 v -0.22851563 h -2.8754883 v 0.22851563 q 0.39990234 0 0.55859375 0.08569336 q 0.1586914 0.08569336 0.24121094 0.27294922 q 0.08251953 0.18725586 0.08251953 0.72680664 v 2.2216797 q 0 0.9584961 -0.057128906 1.237793 q -0.044433594 0.20947266 -0.13964844 0.28881836 q -0.095214844 0.0793457 -0.2602539 0.0793457 q -0.17773438 0 -0.42529297 -0.095214844 l -0.095214844 0.22851563 l 1.7519531 0.7109375 h 0.27294922 v -1.237793 Z "/>
        </symbol>
        <symbol id="g5279388E52749BE45105F96DE49A51F9" overflow="visible">
            <path d="M 0 0m 3.0532227 5.573242 q -0.85058594 0 -1.2250977 -0.9013672 q -0.20947266 -0.50146484 -0.20947266 -1.2885742 q 0 -1.3012695 0.50146484 -2.1899414 q 0.52685547 -0.92041016 1.3330078 -0.92041016 q 1.4155273 0 1.4155273 2.253418 q 0 1.5424805 -0.6665039 2.4375 q -0.45703125 0.609375 -1.1489258 0.609375 Z m 2.9262695 -0.7426758 q 0.19042969 0.08886719 0.12060547 0.203125 q -0.12060547 0.06347656 -0.34277344 0.3046875 q -0.12695313 0.21582031 -0.06982422 0.4189453 q 0.05078125 0.203125 0.27294922 0.3269043 q 0.22216797 0.1237793 0.46972656 0.053955078 q 0.27929688 -0.08886719 0.40942383 -0.36816406 q 0.13012695 -0.27929688 0.022216797 -0.609375 q -0.12695313 -0.37451172 -0.5332031 -0.5395508 q -0.20947266 -0.08251953 -0.6347656 -0.13330078 q 0.35546875 -0.6665039 0.35546875 -1.4726563 q 0 -0.80615234 -0.37451172 -1.5805664 q -0.3935547 -0.8125 -1.0283203 -1.2060547 q -0.66015625 -0.40625 -1.4663086 -0.40625 q -1.3139648 0 -2.088379 1.0473633 q -0.6538086 0.8823242 -0.6538086 1.9804688 q 0 0.8125 0.40307617 1.5996094 q 0.40307617 0.7871094 1.0441895 1.1616211 q 0.6411133 0.37451172 1.3647461 0.37451172 q 1.3203125 0 2.1201172 -1.0029297 q 0.1015625 -0.12695313 0.18408203 -0.2602539 q 0.12695313 0.0126953125 0.42529297 0.107910156 Z m -4.195801 3.9926758 h 1.4155273 l 0.67285156 -2.1899414 h -0.22216797 l -1.8662109 2.1899414 Z "/>
        </symbol>
        <symbol id="g2CCFE655BFC88140262DBD0E412860CE" overflow="visible">
            <path d="M 0 0m 6.0810547 4.8305664 q 0.19042969 0.08886719 0.12060547 0.203125 q 0 0.0063476563 -0.14282227 0.1015625 q -0.14282227 0.095214844 -0.19995117 0.203125 q -0.12695313 0.21582031 -0.06982422 0.4189453 q 0.05078125 0.203125 0.27294922 0.3269043 q 0.22216797 0.1237793 0.46972656 0.053955078 q 0.27929688 -0.08886719 0.40942383 -0.36816406 q 0.13012695 -0.27929688 0.022216797 -0.609375 q -0.12695313 -0.37451172 -0.5332031 -0.5395508 q -0.34277344 -0.13964844 -0.9267578 -0.1459961 v -2.1835938 q 0 -0.93310547 0.044433594 -1.237793 q 0.038085938 -0.20947266 0.1586914 -0.31103516 q 0.1015625 -0.08886719 0.24121094 -0.08886719 q 0.19677734 0 0.44433594 0.107910156 l 0.08886719 -0.22216797 l -1.7392578 -0.71728516 h -0.28564453 v 1.2314453 q -0.7109375 -0.7680664 -1.1425781 -1.0219727 q -0.3618164 -0.20947266 -0.83154297 -0.20947266 q -1.0283203 0 -1.3457031 1.0092773 q -0.13964844 0.44433594 -0.13964844 1.2568359 v 2.5961914 q 0 0.6411133 -0.3491211 0.81884766 q -0.17773438 0.08251953 -0.6347656 0.076171875 v 0.23486328 h 2.0375977 v -3.8911133 q 0 -1.3203125 0.96484375 -1.3203125 q 0.27294922 0 0.6188965 0.17138672 q 0.34594727 0.17138672 0.8220215 0.6538086 v 3.2944336 q 0 0.50146484 -0.18408203 0.67285156 q -0.18408203 0.17138672 -0.74902344 0.18408203 v 0.23486328 h 1.9804688 v -1.0917969 q 0.19677734 0.0126953125 0.5776367 0.107910156 Z m -4.614746 2.1328125 h -0.203125 q 0.025390625 0.8696289 0.3618164 1.2568359 q 0.33642578 0.38720703 0.83154297 0.38720703 q 0.2602539 0 0.47607422 -0.08251953 q 0.28564453 -0.107910156 0.8093262 -0.45385742 q 0.52368164 -0.34594727 0.7775879 -0.34594727 q 0.203125 0 0.35864258 0.17138672 q 0.15551758 0.17138672 0.24438477 0.7109375 h 0.19677734 q 0.0063476563 -0.59033203 -0.15551758 -0.9362793 q -0.16186523 -0.34594727 -0.45703125 -0.5395508 q -0.29516602 -0.19360352 -0.59350586 -0.19360352 q -0.50146484 0 -1.2441406 0.5078125 q -0.39990234 0.27294922 -0.5395508 0.33007813 q -0.13964844 0.057128906 -0.27294922 0.057128906 q -0.2602539 0 -0.41259766 -0.22851563 q -0.06982422 -0.107910156 -0.17773438 -0.6411133 Z "/>
        </symbol>
        <symbol id="g1A4D906B26F51182F60B043BB4FC7FF4" overflow="visible">
            <path d="M 0 0m 3.7006836 0.8378906 q -0.89501953 -0.69189453 -1.1235352 -0.7998047 q -0.34277344 -0.1586914 -0.72998047 -0.1586914 q -0.60302734 0 -0.9934082 0.41259766 q -0.39038086 0.41259766 -0.39038086 1.0854492 q 0 0.42529297 0.19042969 0.7363281 q 0.2602539 0.43164063 0.904541 0.8125 q 0.6442871 0.38085938 2.142334 0.9267578 v 0.22851563 q 0 0.8696289 -0.27612305 1.1933594 q -0.27612305 0.32373047 -0.8029785 0.32373047 q -0.39990234 0 -0.6347656 -0.21582031 q -0.24121094 -0.21582031 -0.24121094 -0.4951172 l 0.0126953125 -0.36816406 q 0 -0.2919922 -0.14916992 -0.4506836 q -0.14916992 -0.1586914 -0.39038086 -0.1586914 q -0.23486328 0 -0.3840332 0.16503906 q -0.14916992 0.16503906 -0.14916992 0.4506836 q 0 0.54589844 0.55859375 1.0029297 q 0.55859375 0.45703125 1.5678711 0.45703125 q 0.77441406 0 1.2695313 -0.2602539 q 0.37451172 -0.19677734 0.5522461 -0.61572266 q 0.11425781 -0.27294922 0.11425781 -1.1171875 v -1.9741211 q 0 -0.83154297 0.03173828 -1.0187988 q 0.03173828 -0.18725586 0.10473633 -0.25073242 q 0.07299805 -0.06347656 0.16821289 -0.06347656 q 0.1015625 0 0.17773438 0.044433594 q 0.13330078 0.08251953 0.51416016 0.4633789 v -0.35546875 q -0.7109375 -0.95214844 -1.3583984 -0.95214844 q -0.31103516 0 -0.4951172 0.21582031 q -0.18408203 0.21582031 -0.19042969 0.7363281 Z m 0 0.41259766 v 2.215332 q -0.9584961 -0.38085938 -1.237793 -0.5395508 q -0.50146484 -0.27929688 -0.71728516 -0.5839844 q -0.21582031 -0.3046875 -0.21582031 -0.6665039 q 0 -0.45703125 0.27294922 -0.7585449 q 0.27294922 -0.30151367 0.62841797 -0.30151367 q 0.48242188 0 1.2695313 0.6347656 Z m -2.640625 7.369629 h 0.19677734 q 0.20947266 -0.38720703 0.48242188 -0.54589844 q 0.45703125 -0.27294922 1.1489258 -0.27294922 q 0.69189453 0 1.1425781 0.26660156 q 0.32373047 0.18408203 0.4506836 0.5522461 h 0.20947266 q -0.057128906 -0.7871094 -0.58081055 -1.2822266 q -0.52368164 -0.4951172 -1.2346191 -0.4951172 q -0.70458984 0 -1.2250977 0.49194336 q -0.5205078 0.49194336 -0.59033203 1.2854004 Z m 1.4599609 -9.381836 q 0.29833984 0 0.50146484 -0.20629883 q 0.203125 -0.20629883 0.203125 -0.49829102 q 0 -0.2919922 -0.20629883 -0.49829102 q -0.20629883 -0.20629883 -0.49829102 -0.20629883 q -0.2919922 0 -0.49829102 0.20629883 q -0.20629883 0.20629883 -0.20629883 0.49829102 q 0 0.29833984 0.20629883 0.50146484 q 0.20629883 0.203125 0.49829102 0.203125 Z "/>
        </symbol>
        <symbol id="g504D2FCA363F96CDCEAF37D59317D3AA" overflow="visible">
            <path d="M 0 0m 0.076171875 5.814453 h 2.7104492 v -0.23486328 h -0.13330078 q -0.28564453 0 -0.4284668 -0.1237793 q -0.14282227 -0.1237793 -0.14282227 -0.30786133 q 0 -0.2475586 0.20947266 -0.6855469 l 1.4155273 -2.9326172 l 1.3012695 3.211914 q 0.107910156 0.2602539 0.107910156 0.51416016 q 0 0.11425781 -0.044433594 0.17138672 q -0.05078125 0.06982422 -0.1586914 0.111083984 q -0.107910156 0.041259766 -0.38085938 0.041259766 v 0.23486328 h 1.8916016 v -0.23486328 q -0.23486328 -0.025390625 -0.3618164 -0.1015625 q -0.12695313 -0.076171875 -0.27929688 -0.28564453 q -0.057128906 -0.08886719 -0.21582031 -0.48876953 l -2.3676758 -5.801758 q -0.34277344 -0.8442383 -0.89819336 -1.2758789 q -0.5554199 -0.43164063 -1.0695801 -0.43164063 q -0.37451172 0 -0.61572266 0.21582031 q -0.24121094 0.21582031 -0.24121094 0.4951172 q 0 0.26660156 0.17456055 0.4284668 q 0.17456055 0.16186523 0.47924805 0.16186523 q 0.20947266 0 0.57128906 -0.13964844 q 0.25390625 -0.095214844 0.3173828 -0.095214844 q 0.19042969 0 0.41577148 0.19677734 q 0.2253418 0.19677734 0.45385742 0.76171875 l 0.41259766 1.0092773 l -2.088379 4.3862305 q -0.095214844 0.19677734 -0.3046875 0.48876953 q -0.1586914 0.22216797 -0.2602539 0.29833984 q -0.1459961 0.1015625 -0.46972656 0.17773438 v 0.23486328 Z m 1.4091797 1.1489258 h -0.203125 q 0.025390625 0.8696289 0.3618164 1.2568359 q 0.33642578 0.38720703 0.83154297 0.38720703 q 0.2602539 0 0.47607422 -0.08251953 q 0.28564453 -0.107910156 0.8093262 -0.45385742 q 0.52368164 -0.34594727 0.7775879 -0.34594727 q 0.203125 0 0.35864258 0.17138672 q 0.15551758 0.17138672 0.24438477 0.7109375 h 0.19677734 q 0.0063476563 -0.59033203 -0.15551758 -0.9362793 q -0.16186523 -0.34594727 -0.45703125 -0.5395508 q -0.29516602 -0.19360352 -0.59350586 -0.19360352 q -0.50146484 0 -1.2441406 0.5078125 q -0.39990234 0.27294922 -0.5395508 0.33007813 q -0.13964844 0.057128906 -0.27294922 0.057128906 q -0.2602539 0 -0.41259766 -0.22851563 q -0.06982422 -0.107910156 -0.17773438 -0.6411133 Z "/>
        </symbol>
        <symbol id="gF7FEF0E8A1EE9ED0CBEEB10BE45EF9C4" overflow="visible">
            <path d="M 0 0m 1.625 1.2314453 q 0.29833984 0 0.50146484 -0.20629883 q 0.203125 -0.20629883 0.203125 -0.49829102 q 0 -0.2919922 -0.20629883 -0.49829102 q -0.20629883 -0.20629883 -0.49829102 -0.20629883 q -0.2919922 0 -0.49829102 0.20629883 q -0.20629883 0.20629883 -0.20629883 0.49829102 q 0 0.29833984 0.20629883 0.50146484 q 0.20629883 0.203125 0.49829102 0.203125 Z "/>
        </symbol>
        <symbol id="g6C052212E3D7191840EA6C0C8F88F31D" overflow="visible">
            <path d="M 0 0m 2.6660156 4.0307617 v -2.5073242 q 0 -0.8125 0.17773438 -1.0092773 q 0.24121094 -0.27929688 0.72998047 -0.27929688 h 0.33007813 v -0.23486328 h -3.6879883 v 0.23486328 h 0.32373047 q 0.54589844 0 0.7807617 0.35546875 q 0.12695313 0.19677734 0.12695313 0.93310547 v 5.560547 q 0 0.8125 -0.17138672 1.0092773 q -0.2475586 0.27929688 -0.7363281 0.27929688 h -0.32373047 v 0.23486328 h 3.1547852 q 1.1552734 0 1.8217773 -0.23803711 q 0.6665039 -0.23803711 1.1235352 -0.8029785 q 0.45703125 -0.5649414 0.45703125 -1.3393555 q 0 -1.0537109 -0.69506836 -1.7138672 q -0.69506836 -0.66015625 -1.9645996 -0.66015625 q -0.31103516 0 -0.67285156 0.044433594 q -0.3618164 0.044433594 -0.77441406 0.13330078 Z m 0 0.3618164 q 0.33642578 -0.06347656 0.5966797 -0.095214844 q 0.2602539 -0.03173828 0.44433594 -0.03173828 q 0.66015625 0 1.1394043 0.5109863 q 0.47924805 0.5109863 0.47924805 1.3234863 q 0 0.55859375 -0.22851563 1.0378418 q -0.22851563 0.47924805 -0.64746094 0.71728516 q -0.4189453 0.23803711 -0.95214844 0.23803711 q -0.32373047 0 -0.83154297 -0.12060547 v -3.5800781 Z "/>
        </symbol>
        <symbol id="gCAC099A4189AF6595F6639F2BC3139FD" overflow="visible">
            <path d="M 0 0m 2.1137695 9.026367 v -4.2529297 q 0.70458984 0.77441406 1.1171875 0.9934082 q 0.41259766 0.21899414 0.8251953 0.21899414 q 0.4951172 0 0.85058594 -0.27294922 q 0.35546875 -0.27294922 0.52685547 -0.8569336 q 0.12060547 -0.40625 0.12060547 -1.4853516 v -2.0566406 q 0 -0.5522461 0.08886719 -0.7553711 q 0.06347656 -0.15234375 0.21582031 -0.24121094 q 0.15234375 -0.08886719 0.55859375 -0.08886719 v -0.22851563 h -2.8564453 v 0.22851563 h 0.13330078 q 0.40625 0 0.5649414 0.1237793 q 0.1586914 0.1237793 0.22216797 0.36499023 q 0.019042969 0.1015625 0.019042969 0.5966797 v 2.0566406 q 0 0.95214844 -0.09838867 1.2504883 q -0.09838867 0.29833984 -0.31420898 0.44750977 q -0.21582031 0.14916992 -0.5205078 0.14916992 q -0.31103516 0 -0.64746094 -0.16503906 q -0.33642578 -0.16503906 -0.80615234 -0.6665039 v -3.0722656 q 0 -0.5966797 0.06665039 -0.7426758 q 0.06665039 -0.1459961 0.2475586 -0.24438477 q 0.1809082 -0.09838867 0.62524414 -0.09838867 v -0.22851563 h -2.881836 v 0.22851563 q 0.38720703 0 0.609375 0.12060547 q 0.12695313 0.06347656 0.203125 0.24121094 q 0.076171875 0.17773438 0.076171875 0.7236328 v 5.262207 q 0 0.99658203 -0.047607422 1.2250977 q -0.047607422 0.22851563 -0.1459961 0.31103516 q -0.09838867 0.08251953 -0.26342773 0.08251953 q -0.13330078 0 -0.43164063 -0.1015625 l -0.08886719 0.22216797 l 1.7392578 0.7109375 h 0.2919922 Z "/>
        </symbol>
        <symbol id="gDB73607673E8736F4966B9A3FAAF04D" overflow="visible">
            <path d="M 0 0m 6.0810547 4.8305664 q 0.19042969 0.08886719 0.12060547 0.203125 q 0 0.0063476563 -0.14282227 0.1015625 q -0.14282227 0.095214844 -0.19995117 0.203125 q -0.12695313 0.21582031 -0.06982422 0.4189453 q 0.05078125 0.203125 0.27294922 0.3269043 q 0.22216797 0.1237793 0.46972656 0.053955078 q 0.27929688 -0.08886719 0.40942383 -0.36816406 q 0.13012695 -0.27929688 0.022216797 -0.609375 q -0.12695313 -0.37451172 -0.5332031 -0.5395508 q -0.34277344 -0.13964844 -0.9267578 -0.1459961 v -2.1835938 q 0 -0.93310547 0.044433594 -1.237793 q 0.038085938 -0.20947266 0.1586914 -0.31103516 q 0.1015625 -0.08886719 0.24121094 -0.08886719 q 0.19677734 0 0.44433594 0.107910156 l 0.08886719 -0.22216797 l -1.7392578 -0.71728516 h -0.28564453 v 1.2314453 q -0.7109375 -0.7680664 -1.1425781 -1.0219727 q -0.3618164 -0.20947266 -0.83154297 -0.20947266 q -1.0283203 0 -1.3457031 1.0092773 q -0.13964844 0.44433594 -0.13964844 1.2568359 v 2.5961914 q 0 0.6411133 -0.3491211 0.81884766 q -0.17773438 0.08251953 -0.6347656 0.076171875 v 0.23486328 h 2.0375977 v -3.8911133 q 0 -1.3203125 0.96484375 -1.3203125 q 0.27294922 0 0.6188965 0.17138672 q 0.34594727 0.17138672 0.8220215 0.6538086 v 3.2944336 q 0 0.50146484 -0.18408203 0.67285156 q -0.18408203 0.17138672 -0.74902344 0.18408203 v 0.23486328 h 1.9804688 v -1.0917969 q 0.19677734 0.0126953125 0.5776367 0.107910156 Z "/>
        </symbol>
        <symbol id="gA5A5B5057AD89783F3D012DE2C1A8248" overflow="visible">
            <path d="M 0 0m 3.0532227 5.573242 q -0.85058594 0 -1.2250977 -0.9013672 q -0.20947266 -0.50146484 -0.20947266 -1.2885742 q 0 -1.3012695 0.50146484 -2.1899414 q 0.52685547 -0.92041016 1.3330078 -0.92041016 q 1.4155273 0 1.4155273 2.253418 q 0 1.5424805 -0.6665039 2.4375 q -0.45703125 0.609375 -1.1489258 0.609375 Z m 2.9262695 -0.7426758 q 0.19042969 0.08886719 0.12060547 0.203125 q -0.12060547 0.06347656 -0.34277344 0.3046875 q -0.12695313 0.21582031 -0.06982422 0.4189453 q 0.05078125 0.203125 0.27294922 0.3269043 q 0.22216797 0.1237793 0.46972656 0.053955078 q 0.27929688 -0.08886719 0.40942383 -0.36816406 q 0.13012695 -0.27929688 0.022216797 -0.609375 q -0.12695313 -0.37451172 -0.5332031 -0.5395508 q -0.20947266 -0.08251953 -0.6347656 -0.13330078 q 0.35546875 -0.6665039 0.35546875 -1.4726563 q 0 -0.80615234 -0.37451172 -1.5805664 q -0.3935547 -0.8125 -1.0283203 -1.2060547 q -0.66015625 -0.40625 -1.4663086 -0.40625 q -1.3139648 0 -2.088379 1.0473633 q -0.6538086 0.8823242 -0.6538086 1.9804688 q 0 0.8125 0.40307617 1.5996094 q 0.40307617 0.7871094 1.0441895 1.1616211 q 0.6411133 0.37451172 1.3647461 0.37451172 q 1.3203125 0 2.1201172 -1.0029297 q 0.1015625 -0.12695313 0.18408203 -0.2602539 q 0.12695313 0.0126953125 0.42529297 0.107910156 Z "/>
        </symbol>
        <symbol id="gD94E1738BE570EE07B8899D726C72515" overflow="visible">
            <path d="M 0 0m -0.0126953125 5.2368164 l 1.7900391 0.7236328 h 0.24121094 v -1.3583984 q 0.4506836 0.7680664 0.904541 1.0759277 q 0.45385742 0.30786133 0.95532227 0.30786133 q 0.87597656 0 1.4599609 -0.6855469 q 0.71728516 -0.8378906 0.71728516 -2.1835938 q 0 -1.5043945 -0.86328125 -2.4882813 q -0.7109375 -0.80615234 -1.7900391 -0.80615234 q -0.46972656 0 -0.8125 0.13330078 q -0.25390625 0.095214844 -0.57128906 0.38085938 v -1.7709961 q 0 -0.5966797 0.07299805 -0.7585449 q 0.07299805 -0.16186523 0.25390625 -0.25708008 q 0.1809082 -0.095214844 0.6569824 -0.095214844 v -0.23486328 h -3.046875 v 0.23486328 h 0.1586914 q 0.3491211 -0.0063476563 0.5966797 0.13330078 q 0.12060547 0.06982422 0.18725586 0.2253418 q 0.06665039 0.15551758 0.06665039 0.7902832 v 5.4970703 q 0 0.5649414 -0.05078125 0.71728516 q -0.05078125 0.15234375 -0.16186523 0.22851563 q -0.111083984 0.076171875 -0.30151367 0.076171875 q -0.15234375 0 -0.38720703 -0.08886719 l -0.076171875 0.203125 Z m 2.03125 -1.0092773 v -2.1708984 q 0 -0.70458984 0.057128906 -0.9267578 q 0.08886719 -0.36816406 0.43481445 -0.64746094 q 0.34594727 -0.27929688 0.87280273 -0.27929688 q 0.6347656 0 1.0283203 0.4951172 q 0.51416016 0.64746094 0.51416016 1.8217773 q 0 1.3330078 -0.5839844 2.050293 q -0.40625 0.4951172 -0.96484375 0.4951172 q -0.3046875 0 -0.60302734 -0.15234375 q -0.22851563 -0.11425781 -0.7553711 -0.6855469 Z "/>
        </symbol>
        <symbol id="g621C9557EF67B84B443D27A2EE62700" overflow="visible">
            <path d="M 0 0m 3.7006836 0.8378906 q -0.89501953 -0.69189453 -1.1235352 -0.7998047 q -0.34277344 -0.1586914 -0.72998047 -0.1586914 q -0.60302734 0 -0.9934082 0.41259766 q -0.39038086 0.41259766 -0.39038086 1.0854492 q 0 0.42529297 0.19042969 0.7363281 q 0.2602539 0.43164063 0.904541 0.8125 q 0.6442871 0.38085938 2.142334 0.9267578 v 0.22851563 q 0 0.8696289 -0.27612305 1.1933594 q -0.27612305 0.32373047 -0.8029785 0.32373047 q -0.39990234 0 -0.6347656 -0.21582031 q -0.24121094 -0.21582031 -0.24121094 -0.4951172 l 0.0126953125 -0.36816406 q 0 -0.2919922 -0.14916992 -0.4506836 q -0.14916992 -0.1586914 -0.39038086 -0.1586914 q -0.23486328 0 -0.3840332 0.16503906 q -0.14916992 0.16503906 -0.14916992 0.4506836 q 0 0.54589844 0.55859375 1.0029297 q 0.55859375 0.45703125 1.5678711 0.45703125 q 0.77441406 0 1.2695313 -0.2602539 q 0.37451172 -0.19677734 0.5522461 -0.61572266 q 0.11425781 -0.27294922 0.11425781 -1.1171875 v -1.9741211 q 0 -0.83154297 0.03173828 -1.0187988 q 0.03173828 -0.18725586 0.10473633 -0.25073242 q 0.07299805 -0.06347656 0.16821289 -0.06347656 q 0.1015625 0 0.17773438 0.044433594 q 0.13330078 0.08251953 0.51416016 0.4633789 v -0.35546875 q -0.7109375 -0.95214844 -1.3583984 -0.95214844 q -0.31103516 0 -0.4951172 0.21582031 q -0.18408203 0.21582031 -0.19042969 0.7363281 Z m 0 0.41259766 v 2.215332 q -0.9584961 -0.38085938 -1.237793 -0.5395508 q -0.50146484 -0.27929688 -0.71728516 -0.5839844 q -0.21582031 -0.3046875 -0.21582031 -0.6665039 q 0 -0.45703125 0.27294922 -0.7585449 q 0.27294922 -0.30151367 0.62841797 -0.30151367 q 0.48242188 0 1.2695313 0.6347656 Z m 0.62841797 7.572754 l -1.8725586 -2.1899414 h -0.21582031 l 0.6665039 2.1899414 h 1.421875 Z "/>
        </symbol>
        <symbol id="g5B52C20278386D9BBBA2E5D16E85B733" overflow="visible">
            <path d="M 0 0m 1.3837891 3.6245117 q -0.0063476563 -1.2949219 0.62841797 -2.03125 q 0.6347656 -0.7363281 1.4916992 -0.7363281 q 0.57128906 0 0.9934082 0.31420898 q 0.42211914 0.31420898 0.7077637 1.0759277 l 0.19677734 -0.12695313 q -0.13330078 -0.8696289 -0.77441406 -1.5837402 q -0.6411133 -0.7141113 -1.605957 -0.7141113 q -1.0473633 0 -1.7932129 0.8156738 q -0.7458496 0.8156738 -0.7458496 2.1931152 q 0 1.4916992 0.7648926 2.326416 q 0.7648926 0.8347168 1.920166 0.8347168 q 0.97753906 0 1.605957 -0.6442871 q 0.62841797 -0.6442871 0.62841797 -1.7233887 h -4.0180664 Z m 0 0.36816406 h 2.6914063 q -0.03173828 0.55859375 -0.13330078 0.7871094 q -0.1586914 0.35546875 -0.4729004 0.55859375 q -0.31420898 0.203125 -0.6569824 0.203125 q -0.52685547 0 -0.94262695 -0.40942383 q -0.41577148 -0.40942383 -0.4855957 -1.1394043 Z m 1.1743164 4.798828 h 1.1679688 l 1.2060547 -2.1010742 h -0.19677734 l -1.7329102 1.3520508 l -1.4536133 -1.3520508 h -0.19042969 l 1.199707 2.1010742 Z "/>
        </symbol>
        <symbol id="g767D5D8D4161AA014B61B564E4EF8B6" overflow="visible">
            <path d="M 0 0m 5.3447266 2.2089844 q -0.23486328 -1.1489258 -0.92041016 -1.7678223 q -0.6855469 -0.6188965 -1.5170898 -0.6188965 q -0.9902344 0 -1.7265625 0.83154297 q -0.7363281 0.83154297 -0.7363281 2.2470703 q 0 1.3710938 0.8156738 2.2280273 q 0.8156738 0.8569336 1.958252 0.8569336 q 0.8569336 0 1.4091797 -0.45385742 q 0.5522461 -0.45385742 0.5522461 -0.94262695 q 0 -0.24121094 -0.15551758 -0.39038086 q -0.15551758 -0.14916992 -0.43481445 -0.14916992 q -0.37451172 0 -0.5649414 0.24121094 q -0.107910156 0.13330078 -0.14282227 0.5078125 q -0.03491211 0.37451172 -0.25708008 0.57128906 q -0.22216797 0.19042969 -0.61572266 0.19042969 q -0.6347656 0 -1.0219727 -0.46972656 q -0.51416016 -0.6220703 -0.51416016 -1.644043 q 0 -1.0410156 0.5109863 -1.8376465 q 0.5109863 -0.79663086 1.3806152 -0.79663086 q 0.6220703 0 1.1171875 0.42529297 q 0.3491211 0.2919922 0.6791992 1.0600586 l 0.18408203 -0.08886719 Z "/>
        </symbol>
        <symbol id="gEFBB52318EC36D6EA71CE06D73E78710" overflow="visible">
            <path d="M 0 0m 6.0810547 4.8305664 q 0.19042969 0.08886719 0.12060547 0.203125 q 0 0.0063476563 -0.14282227 0.1015625 q -0.14282227 0.095214844 -0.19995117 0.203125 q -0.12695313 0.21582031 -0.06982422 0.4189453 q 0.05078125 0.203125 0.27294922 0.3269043 q 0.22216797 0.1237793 0.46972656 0.053955078 q 0.27929688 -0.08886719 0.40942383 -0.36816406 q 0.13012695 -0.27929688 0.022216797 -0.609375 q -0.12695313 -0.37451172 -0.5332031 -0.5395508 q -0.34277344 -0.13964844 -0.9267578 -0.1459961 v -2.1835938 q 0 -0.93310547 0.044433594 -1.237793 q 0.038085938 -0.20947266 0.1586914 -0.31103516 q 0.1015625 -0.08886719 0.24121094 -0.08886719 q 0.19677734 0 0.44433594 0.107910156 l 0.08886719 -0.22216797 l -1.7392578 -0.71728516 h -0.28564453 v 1.2314453 q -0.7109375 -0.7680664 -1.1425781 -1.0219727 q -0.3618164 -0.20947266 -0.83154297 -0.20947266 q -1.0283203 0 -1.3457031 1.0092773 q -0.13964844 0.44433594 -0.13964844 1.2568359 v 2.5961914 q 0 0.6411133 -0.3491211 0.81884766 q -0.17773438 0.08251953 -0.6347656 0.076171875 v 0.23486328 h 2.0375977 v -3.8911133 q 0 -1.3203125 0.96484375 -1.3203125 q 0.27294922 0 0.6188965 0.17138672 q 0.34594727 0.17138672 0.8220215 0.6538086 v 3.2944336 q 0 0.50146484 -0.18408203 0.67285156 q -0.18408203 0.17138672 -0.74902344 0.18408203 v 0.23486328 h 1.9804688 v -1.0917969 q 0.19677734 0.0126953125 0.5776367 0.107910156 Z m -1.5170898 3.9926758 l -1.8725586 -2.1899414 h -0.21582031 l 0.6665039 2.1899414 h 1.421875 Z "/>
        </symbol>
        <symbol id="gFAEF1D875B3F78D0EF573EF9C92E8831" overflow="visible">
            <path d="M 0 0m 2.1264648 9.026367 v -5.782715 l 1.4790039 1.3457031 q 0.46972656 0.43164063 0.54589844 0.54589844 q 0.05078125 0.076171875 0.05078125 0.15234375 q 0 0.12695313 -0.10473633 0.21899414 q -0.10473633 0.092041016 -0.34594727 0.10473633 v 0.203125 h 2.5263672 v -0.203125 q -0.5205078 -0.0126953125 -0.8664551 -0.1586914 q -0.34594727 -0.1459961 -0.7585449 -0.5205078 l -1.4916992 -1.3774414 l 1.4916992 -1.8852539 q 0.6220703 -0.7807617 0.8378906 -0.9902344 q 0.3046875 -0.29833984 0.5332031 -0.38720703 q 0.1586914 -0.06347656 0.5522461 -0.06347656 v -0.22851563 h -2.824707 v 0.22851563 q 0.24121094 0.0063476563 0.3269043 0.07299805 q 0.08569336 0.06665039 0.08569336 0.18725586 q 0 0.1459961 -0.25390625 0.46972656 l -1.7836914 2.2788086 v -1.9296875 q 0 -0.5649414 0.0793457 -0.7426758 q 0.0793457 -0.17773438 0.2253418 -0.25390625 q 0.1459961 -0.076171875 0.6347656 -0.08251953 v -0.22851563 h -2.9580078 v 0.22851563 q 0.44433594 0 0.6665039 0.107910156 q 0.13330078 0.06982422 0.203125 0.21582031 q 0.095214844 0.20947266 0.095214844 0.7236328 v 5.2939453 q 0 1.0092773 -0.044433594 1.2346191 q -0.044433594 0.2253418 -0.1459961 0.31103516 q -0.1015625 0.08569336 -0.26660156 0.08569336 q -0.13330078 0 -0.39990234 -0.107910156 l -0.107910156 0.22216797 l 1.7265625 0.7109375 h 0.2919922 Z "/>
        </symbol>
        <symbol id="g909F1274A9E0ACE711A03D00E37A610F" overflow="visible">
            <path d="M 0 0m 3.7006836 0.8378906 q -0.89501953 -0.69189453 -1.1235352 -0.7998047 q -0.34277344 -0.1586914 -0.72998047 -0.1586914 q -0.60302734 0 -0.9934082 0.41259766 q -0.39038086 0.41259766 -0.39038086 1.0854492 q 0 0.42529297 0.19042969 0.7363281 q 0.2602539 0.43164063 0.904541 0.8125 q 0.6442871 0.38085938 2.142334 0.9267578 v 0.22851563 q 0 0.8696289 -0.27612305 1.1933594 q -0.27612305 0.32373047 -0.8029785 0.32373047 q -0.39990234 0 -0.6347656 -0.21582031 q -0.24121094 -0.21582031 -0.24121094 -0.4951172 l 0.0126953125 -0.36816406 q 0 -0.2919922 -0.14916992 -0.4506836 q -0.14916992 -0.1586914 -0.39038086 -0.1586914 q -0.23486328 0 -0.3840332 0.16503906 q -0.14916992 0.16503906 -0.14916992 0.4506836 q 0 0.54589844 0.55859375 1.0029297 q 0.55859375 0.45703125 1.5678711 0.45703125 q 0.77441406 0 1.2695313 -0.2602539 q 0.37451172 -0.19677734 0.5522461 -0.61572266 q 0.11425781 -0.27294922 0.11425781 -1.1171875 v -1.9741211 q 0 -0.83154297 0.03173828 -1.0187988 q 0.03173828 -0.18725586 0.10473633 -0.25073242 q 0.07299805 -0.06347656 0.16821289 -0.06347656 q 0.1015625 0 0.17773438 0.044433594 q 0.13330078 0.08251953 0.51416016 0.4633789 v -0.35546875 q -0.7109375 -0.95214844 -1.3583984 -0.95214844 q -0.31103516 0 -0.4951172 0.21582031 q -0.18408203 0.21582031 -0.19042969 0.7363281 Z m 0 0.41259766 v 2.215332 q -0.9584961 -0.38085938 -1.237793 -0.5395508 q -0.50146484 -0.27929688 -0.71728516 -0.5839844 q -0.21582031 -0.3046875 -0.21582031 -0.6665039 q 0 -0.45703125 0.27294922 -0.7585449 q 0.27294922 -0.30151367 0.62841797 -0.30151367 q 0.48242188 0 1.2695313 0.6347656 Z "/>
        </symbol>
        <symbol id="g65DF130670921ABD8E557B83E2273E12" overflow="visible">
            <path d="M 0 0m 3.25 5.98584 q 1.3203125 0 2.1201172 -1.0029297 q 0.6791992 -0.8569336 0.6791992 -1.9677734 q 0 -0.7807617 -0.37451172 -1.5805664 q -0.37451172 -0.7998047 -1.0314941 -1.2060547 q -0.6569824 -0.40625 -1.4631348 -0.40625 q -1.3139648 0 -2.088379 1.0473633 q -0.6538086 0.8823242 -0.6538086 1.9804688 q 0 0.7998047 0.39672852 1.5900879 q 0.39672852 0.7902832 1.0441895 1.1679688 q 0.64746094 0.37768555 1.3710938 0.37768555 Z m -0.19677734 -0.41259766 q -0.33642578 0 -0.6760254 -0.19995117 q -0.3395996 -0.19995117 -0.54907227 -0.701416 q -0.20947266 -0.50146484 -0.20947266 -1.2885742 q 0 -1.2695313 0.5046387 -2.1899414 q 0.5046387 -0.92041016 1.329834 -0.92041016 q 0.61572266 0 1.015625 0.5078125 q 0.39990234 0.5078125 0.39990234 1.7456055 q 0 1.5488281 -0.6665039 2.4375 q -0.4506836 0.609375 -1.1489258 0.609375 Z m 0.16503906 -6.334961 q 0.29833984 0 0.50146484 -0.20629883 q 0.203125 -0.20629883 0.203125 -0.49829102 q 0 -0.2919922 -0.20629883 -0.49829102 q -0.20629883 -0.20629883 -0.49829102 -0.20629883 q -0.2919922 0 -0.49829102 0.20629883 q -0.20629883 0.20629883 -0.20629883 0.49829102 q 0 0.29833984 0.20629883 0.50146484 q 0.20629883 0.203125 0.49829102 0.203125 Z "/>
        </symbol>
        <symbol id="gC98E45DCE5F5E8A62DD7033A29335537" overflow="visible">
            <path d="M 0 0m 5.503418 5.814453 v -3.5229492 q 0 -1.0092773 0.047607422 -1.2346191 q 0.047607422 -0.2253418 0.15234375 -0.31420898 q 0.10473633 -0.08886719 0.24438477 -0.08886719 q 0.19677734 0 0.44433594 0.107910156 l 0.08886719 -0.22216797 l -1.7392578 -0.71728516 h -0.28564453 v 1.2314453 q -0.74902344 -0.8125 -1.1425781 -1.0219727 q -0.3935547 -0.20947266 -0.83154297 -0.20947266 q -0.48876953 0 -0.8474121 0.2824707 q -0.35864258 0.2824707 -0.49829102 0.72680664 q -0.13964844 0.44433594 -0.13964844 1.2568359 v 2.5961914 q 0 0.41259766 -0.08886719 0.57128906 q -0.08886719 0.1586914 -0.26342773 0.24438477 q -0.17456055 0.08569336 -0.6315918 0.0793457 v 0.23486328 h 2.0375977 v -3.8911133 q 0 -0.8125 0.2824707 -1.0664063 q 0.2824707 -0.25390625 0.68237305 -0.25390625 q 0.27294922 0 0.6188965 0.17138672 q 0.34594727 0.17138672 0.8220215 0.6538086 v 3.2944336 q 0 0.4951172 -0.1809082 0.66967773 q -0.1809082 0.17456055 -0.75219727 0.18725586 v 0.23486328 h 1.9804688 Z m -2.602539 -6.576172 q 0.29833984 0 0.50146484 -0.20629883 q 0.203125 -0.20629883 0.203125 -0.49829102 q 0 -0.2919922 -0.20629883 -0.49829102 q -0.20629883 -0.20629883 -0.49829102 -0.20629883 q -0.2919922 0 -0.49829102 0.20629883 q -0.20629883 0.20629883 -0.20629883 0.49829102 q 0 0.29833984 0.20629883 0.50146484 q 0.20629883 0.203125 0.49829102 0.203125 Z "/>
        </symbol>
        <symbol id="gA8EBCC5CA47AE21AA37FC97649F954CC" overflow="visible">
            <path d="M 0 0m 6.0810547 4.8305664 q 0.19042969 0.08886719 0.12060547 0.203125 q 0 0.0063476563 -0.14282227 0.1015625 q -0.14282227 0.095214844 -0.19995117 0.203125 q -0.12695313 0.21582031 -0.06982422 0.4189453 q 0.05078125 0.203125 0.27294922 0.3269043 q 0.22216797 0.1237793 0.46972656 0.053955078 q 0.27929688 -0.08886719 0.40942383 -0.36816406 q 0.13012695 -0.27929688 0.022216797 -0.609375 q -0.12695313 -0.37451172 -0.5332031 -0.5395508 q -0.34277344 -0.13964844 -0.9267578 -0.1459961 v -2.1835938 q 0 -0.93310547 0.044433594 -1.237793 q 0.038085938 -0.20947266 0.1586914 -0.31103516 q 0.1015625 -0.08886719 0.24121094 -0.08886719 q 0.19677734 0 0.44433594 0.107910156 l 0.08886719 -0.22216797 l -1.7392578 -0.71728516 h -0.28564453 v 1.2314453 q -0.7109375 -0.7680664 -1.1425781 -1.0219727 q -0.3618164 -0.20947266 -0.83154297 -0.20947266 q -1.0283203 0 -1.3457031 1.0092773 q -0.13964844 0.44433594 -0.13964844 1.2568359 v 2.5961914 q 0 0.6411133 -0.3491211 0.81884766 q -0.17773438 0.08251953 -0.6347656 0.076171875 v 0.23486328 h 2.0375977 v -3.8911133 q 0 -1.3203125 0.96484375 -1.3203125 q 0.27294922 0 0.6188965 0.17138672 q 0.34594727 0.17138672 0.8220215 0.6538086 v 3.2944336 q 0 0.50146484 -0.18408203 0.67285156 q -0.18408203 0.17138672 -0.74902344 0.18408203 v 0.23486328 h 1.9804688 v -1.0917969 q 0.19677734 0.0126953125 0.5776367 0.107910156 Z m -3.1801758 -5.592285 q 0.29833984 0 0.50146484 -0.20629883 q 0.203125 -0.20629883 0.203125 -0.49829102 q 0 -0.2919922 -0.20629883 -0.49829102 q -0.20629883 -0.20629883 -0.49829102 -0.20629883 q -0.2919922 0 -0.49829102 0.20629883 q -0.20629883 0.20629883 -0.20629883 0.49829102 q 0 0.29833984 0.20629883 0.50146484 q 0.20629883 0.203125 0.49829102 0.203125 Z "/>
        </symbol>
        <symbol id="g9D3115ECCA7A241F82FB468E6C7FF987" overflow="visible">
            <path d="M 0 0m 1.3837891 3.6245117 q -0.0063476563 -1.2949219 0.62841797 -2.03125 q 0.6347656 -0.7363281 1.4916992 -0.7363281 q 0.57128906 0 0.9934082 0.31420898 q 0.42211914 0.31420898 0.7077637 1.0759277 l 0.19677734 -0.12695313 q -0.13330078 -0.8696289 -0.77441406 -1.5837402 q -0.6411133 -0.7141113 -1.605957 -0.7141113 q -1.0473633 0 -1.7932129 0.8156738 q -0.7458496 0.8156738 -0.7458496 2.1931152 q 0 1.4916992 0.7648926 2.326416 q 0.7648926 0.8347168 1.920166 0.8347168 q 0.97753906 0 1.605957 -0.6442871 q 0.62841797 -0.6442871 0.62841797 -1.7233887 h -4.0180664 Z m 0 0.36816406 h 2.6914063 q -0.03173828 0.55859375 -0.13330078 0.7871094 q -0.1586914 0.35546875 -0.4729004 0.55859375 q -0.31420898 0.203125 -0.6569824 0.203125 q -0.52685547 0 -0.94262695 -0.40942383 q -0.41577148 -0.40942383 -0.4855957 -1.1394043 Z m 1.1743164 4.798828 h 1.1679688 l 1.2060547 -2.1010742 h -0.19677734 l -1.7329102 1.3520508 l -1.4536133 -1.3520508 h -0.19042969 l 1.199707 2.1010742 Z m -1.2758789 0.67285156 h -0.203125 q 0.044433594 1.644043 1.1933594 1.644043 q 0.2602539 0 0.47607422 -0.08251953 q 0.12060547 -0.044433594 0.80615234 -0.45703125 q 0.5839844 -0.34277344 0.7807617 -0.34277344 q 0.45703125 0 0.60302734 0.8823242 h 0.19677734 q 0.0126953125 -1.0664063 -0.61572266 -1.4726563 q -0.2919922 -0.19677734 -0.59033203 -0.19677734 q -0.50146484 0 -1.2441406 0.5078125 q -0.5649414 0.38720703 -0.8125 0.38720703 q -0.2602539 0 -0.41259766 -0.22851563 q -0.06982422 -0.107910156 -0.17773438 -0.6411133 Z "/>
        </symbol>
        <symbol id="gAC7B707B2D806871BFD3E9BE1E356C30" overflow="visible">
            <path d="M 0 0m 2.1074219 5.98584 v -1.3076172 q 0.72998047 1.3076172 1.4980469 1.3076172 q 0.3491211 0 0.5776367 -0.21264648 q 0.22851563 -0.21264648 0.22851563 -0.49194336 q 0 -0.2475586 -0.16503906 -0.4189453 q -0.16503906 -0.17138672 -0.3935547 -0.17138672 q -0.22216797 0 -0.49829102 0.21899414 q -0.27612305 0.21899414 -0.40942383 0.21899414 q -0.11425781 0 -0.2475586 -0.12695313 q -0.28564453 -0.2602539 -0.59033203 -0.8569336 v -2.786621 q 0 -0.48242188 0.12060547 -0.72998047 q 0.08251953 -0.17138672 0.2919922 -0.28564453 q 0.20947266 -0.11425781 0.60302734 -0.11425781 v -0.22851563 h -2.9770508 v 0.22851563 q 0.44433594 0 0.66015625 0.13964844 q 0.1586914 0.1015625 0.22216797 0.32373047 q 0.03173828 0.107910156 0.03173828 0.61572266 v 2.253418 q 0 1.015625 -0.041259766 1.2092285 q -0.041259766 0.19360352 -0.15234375 0.2824707 q -0.111083984 0.08886719 -0.27612305 0.08886719 q -0.19677734 0 -0.44433594 -0.095214844 l -0.06347656 0.22851563 l 1.7583008 0.7109375 h 0.26660156 Z "/>
        </symbol>
        <symbol id="gA793311D5950ECCB8D7521553BAB25CA" overflow="visible">
            <path d="M 0 0m 3.25 5.98584 q 1.3203125 0 2.1201172 -1.0029297 q 0.6791992 -0.8569336 0.6791992 -1.9677734 q 0 -0.7807617 -0.37451172 -1.5805664 q -0.37451172 -0.7998047 -1.0314941 -1.2060547 q -0.6569824 -0.40625 -1.4631348 -0.40625 q -1.3139648 0 -2.088379 1.0473633 q -0.6538086 0.8823242 -0.6538086 1.9804688 q 0 0.7998047 0.39672852 1.5900879 q 0.39672852 0.7902832 1.0441895 1.1679688 q 0.64746094 0.37768555 1.3710938 0.37768555 Z m -0.19677734 -0.41259766 q -0.33642578 0 -0.6760254 -0.19995117 q -0.3395996 -0.19995117 -0.54907227 -0.701416 q -0.20947266 -0.50146484 -0.20947266 -1.2885742 q 0 -1.2695313 0.5046387 -2.1899414 q 0.5046387 -0.92041016 1.329834 -0.92041016 q 0.61572266 0 1.015625 0.5078125 q 0.39990234 0.5078125 0.39990234 1.7456055 q 0 1.5488281 -0.6665039 2.4375 q -0.4506836 0.609375 -1.1489258 0.609375 Z m -0.3173828 3.2182617 h 1.1679688 l 1.2060547 -2.1010742 h -0.19677734 l -1.7329102 1.3520508 l -1.4536133 -1.3520508 h -0.19042969 l 1.199707 2.1010742 Z m -0.92041016 2.7929688 h 1.4155273 l 0.67285156 -2.1201172 h -0.22216797 l -1.8662109 2.1201172 Z "/>
        </symbol>
        <symbol id="g37172D84C7A1920A4AFC99164AAE63CE" overflow="visible">
            <path d="M 0 0m 3.25 5.98584 q 1.3203125 0 2.1201172 -1.0029297 q 0.6791992 -0.8569336 0.6791992 -1.9677734 q 0 -0.7807617 -0.37451172 -1.5805664 q -0.37451172 -0.7998047 -1.0314941 -1.2060547 q -0.6569824 -0.40625 -1.4631348 -0.40625 q -1.3139648 0 -2.088379 1.0473633 q -0.6538086 0.8823242 -0.6538086 1.9804688 q 0 0.7998047 0.39672852 1.5900879 q 0.39672852 0.7902832 1.0441895 1.1679688 q 0.64746094 0.37768555 1.3710938 0.37768555 Z m -0.19677734 -0.41259766 q -0.33642578 0 -0.6760254 -0.19995117 q -0.3395996 -0.19995117 -0.54907227 -0.701416 q -0.20947266 -0.50146484 -0.20947266 -1.2885742 q 0 -1.2695313 0.5046387 -2.1899414 q 0.5046387 -0.92041016 1.329834 -0.92041016 q 0.61572266 0 1.015625 0.5078125 q 0.39990234 0.5078125 0.39990234 1.7456055 q 0 1.5488281 -0.6665039 2.4375 q -0.4506836 0.609375 -1.1489258 0.609375 Z m -0.3173828 3.2182617 h 1.1679688 l 1.2060547 -2.1010742 h -0.19677734 l -1.7329102 1.3520508 l -1.4536133 -1.3520508 h -0.19042969 l 1.199707 2.1010742 Z m 0.22216797 0.67285156 h -0.22216797 l 0.67285156 2.1201172 h 1.4155273 l -1.8662109 -2.1201172 Z "/>
        </symbol>
    </defs>
</svg>
